<svg width="400" height="128" viewBox="0 0 400 128" fill="none" xmlns="http://www.w3.org/2000/svg">
<path fill-rule="evenodd" clip-rule="evenodd" d="M0 0.000312826V127.988H40.5004V81.7758H68.6414L79.5814 53.8009H40.5004V27.8311H88.0676L98.4423 0.000312826H0Z" fill="white" fill-opacity="0.8"/>
<path fill-rule="evenodd" clip-rule="evenodd" d="M110.826 0.000312826L110.753 127.988H150.785V0.000312826H110.826Z" fill="white" fill-opacity="0.8"/>
<path fill-rule="evenodd" clip-rule="evenodd" d="M307.879 86.1818L323.3 32.8915L339.274 86.1818H307.879ZM344.735 0H303.17L257.082 128H295.772L300.752 110.789H345.854L351.068 128H390.943L344.735 0Z" fill="white" fill-opacity="0.8"/>
<path fill-rule="evenodd" clip-rule="evenodd" d="M178.427 0.000312826V127.988H218.903V81.7758H247.014L258.032 53.8009H218.903V27.8311H266.488L276.941 0.000312826H178.427Z" fill="white" fill-opacity="0.8"/>
<path d="M382.45 13.6453H385.229C385.692 13.6453 386.125 13.6033 386.54 13.5432C386.955 13.5012 387.322 13.3751 387.647 13.2311C387.959 13.063 388.23 12.8048 388.404 12.4626C388.591 12.1385 388.693 11.7122 388.693 11.1179C388.693 10.6197 388.591 10.2175 388.386 9.90529C388.182 9.61113 387.905 9.365 387.592 9.22693C387.262 9.04083 386.889 8.92677 386.474 8.86674C386.089 8.82472 385.674 8.8007 385.271 8.8007H382.45V13.6453ZM379.251 6.41143H385.584C387.647 6.41143 389.21 6.77763 390.257 7.53403C391.309 8.30244 391.845 9.58112 391.845 11.3701C391.845 12.8228 391.472 13.9034 390.696 14.6238C389.908 15.3382 388.807 15.7644 387.412 15.9205L391.965 23.3284H388.723L384.339 16.0345H382.45V23.3284H379.251V6.41143ZM385.048 26.9664C386.624 26.9664 388.098 26.6662 389.463 26.0839C390.84 25.4836 392.019 24.6311 393.047 23.5685C394.064 22.488 394.876 21.2213 395.495 19.7445C396.067 18.2497 396.361 16.6589 396.361 14.924C396.361 13.177 396.067 11.5682 395.495 10.0914C394.876 8.6146 394.064 7.34793 393.047 6.27936C392.019 5.18678 390.84 4.37635 389.463 3.76403C388.098 3.18172 386.624 2.88756 385.048 2.88756C383.473 2.88756 381.999 3.18172 380.628 3.76403C379.251 4.37635 378.054 5.18678 377.025 6.27936C376.015 7.34793 375.209 8.6146 374.596 10.0914C374.006 11.5682 373.717 13.177 373.717 14.924C373.717 16.6589 374.006 18.2497 374.596 19.7445C375.209 21.2213 376.015 22.488 377.025 23.5685C378.054 24.6311 379.251 25.4836 380.628 26.0839C381.999 26.6662 383.473 26.9664 385.048 26.9664ZM385.048 29.8779C382.98 29.8779 381.019 29.4637 379.197 28.6713C377.404 27.8908 375.828 26.8343 374.451 25.4596C373.104 24.1208 372.033 22.53 371.264 20.723C370.464 18.9161 370.085 16.971 370.085 14.924C370.085 12.8469 370.464 10.9138 371.264 9.11287C372.033 7.30591 373.104 5.73908 374.451 4.37635C375.828 3.02563 377.404 1.96307 379.197 1.17665C381.019 0.366221 382.98 2.59599e-05 385.048 2.59599e-05C387.111 2.59599e-05 389.06 0.366221 390.864 1.17665C392.675 1.96307 394.268 3.02563 395.61 4.37635C396.957 5.73908 398.045 7.30591 398.821 9.11287C399.603 10.9138 400 12.8469 400 14.924C400 16.971 399.603 18.9161 398.821 20.723C398.045 22.53 396.957 24.1208 395.61 25.4596C394.268 26.8343 392.675 27.8908 390.864 28.6713C389.06 29.4637 387.111 29.8779 385.048 29.8779Z" fill="white" fill-opacity="0.8"/>
</svg>
