<svg width="147" height="99" viewBox="0 0 147 99" fill="none" xmlns="http://www.w3.org/2000/svg">
<g clip-path="url(#clip0_210_106985)">
<path d="M1.5 1.5H145.5V97.5H1.5V1.5Z" fill="white"/>
<path d="M1.5 1.5H73.5V97.5H1.5V1.5Z" fill="#006633"/>
<path d="M94.2846 37.5C91.643 32.9246 87.5655 29.3487 82.6844 27.3269C77.8033 25.3051 72.3915 24.9504 67.2883 26.3178C62.1851 27.6852 57.6757 30.6983 54.4595 34.8897C51.2433 39.0812 49.5 44.2168 49.5 49.5C49.5 54.7832 51.2433 59.9188 54.4595 64.1103C57.6757 68.3017 62.1851 71.3148 67.2883 72.6822C72.3915 74.0496 77.8033 73.6949 82.6844 71.6731C87.5655 69.6513 91.643 66.0754 94.2846 61.5C91.7984 64.6053 88.4091 66.8616 84.5851 67.9573C80.7611 69.053 76.6911 68.9339 72.9377 67.6164C69.1843 66.299 65.9328 63.8483 63.6325 60.6029C61.3322 57.3576 60.0966 53.4779 60.0966 49.5C60.0966 45.5221 61.3322 41.6424 63.6325 38.3971C65.9328 35.1518 69.1843 32.701 72.9377 31.3836C76.6911 30.0661 80.7611 29.947 84.5851 31.0427C88.4091 32.1384 91.7984 34.3948 94.2846 37.5ZM95.2082 49.5L73.5 42.4466L86.9164 60.9127V38.0874L73.5 56.5534L95.2082 49.5Z" fill="#D21034"/>
</g>
<rect x="1.5" y="1.5" width="144" height="96" stroke="#151519" stroke-width="3" stroke-linecap="round"/>
<defs>
<clipPath id="clip0_210_106985">
<rect x="1.5" y="1.5" width="144" height="96" fill="white"/>
</clipPath>
</defs>
</svg>
