<svg width="147" height="99" viewBox="0 0 147 99" fill="none" xmlns="http://www.w3.org/2000/svg">
<g clip-path="url(#clip0_210_106986)">
<path d="M145.5 1.5H1.5V97.5H145.5V1.5Z" fill="#74ACDF"/>
<path d="M145.5 33.5H1.5V65.5H145.5V33.5Z" fill="white"/>
<path d="M72.8926 49.7471L78.355 61.6511C78.355 61.6511 78.4491 61.8796 78.6007 61.8162C78.7524 61.7528 78.6583 61.5263 78.6583 61.5263L74.106 49.2383M73.9755 53.8693C73.9083 55.6799 75.0219 56.6764 74.8759 58.2853C74.73 59.8943 75.6113 60.8236 75.8244 61.4572C76.0375 62.0908 75.6017 62.4613 75.786 62.5516C75.9703 62.6418 76.3755 62.1445 76.2449 61.2498C76.1143 60.3551 75.4347 60.0978 75.594 58.1164C75.7534 56.1349 74.7857 55.6818 75.018 53.8808" fill="#F6B40E"/>
<path d="M75.8344 62.6699C75.8019 62.6697 75.7698 62.6625 75.7403 62.6488C75.5791 62.57 75.6367 62.3972 75.6847 62.2648C75.7886 62.0215 75.8022 61.7491 75.7231 61.4968C75.6487 61.3023 75.5575 61.1147 75.4504 60.9361C75.1183 60.3352 74.6613 59.5096 74.7707 58.2961C74.8418 57.5089 74.6037 56.8734 74.3541 56.1995C74.1045 55.5256 73.8357 54.8036 73.8683 53.8782H74.0815C74.0488 54.7614 74.3061 55.4507 74.5538 56.1169C74.813 56.8139 75.0587 57.4724 74.9839 58.3076C74.8802 59.4596 75.3179 60.2468 75.6367 60.8267C75.7509 61.0167 75.848 61.2165 75.9266 61.4238C76.0201 61.7199 76.0058 62.0396 75.8863 62.3262C75.8728 62.3665 75.8555 62.4184 75.8479 62.451C75.8735 62.4401 75.8964 62.4237 75.9151 62.403C76.0437 62.2801 76.2338 61.9019 76.1397 61.2644C76.0923 61.0009 76.0042 60.7463 75.8786 60.5099C75.6443 60.0087 75.3794 59.4404 75.4946 58.108C75.554 57.3836 75.4497 56.6552 75.1893 55.9768C74.9862 55.4514 74.8833 54.8926 74.8859 54.3294L72.8027 49.7905L72.9947 49.7022L74.9147 53.8916V53.8667L75.1259 53.8955C75.1067 54.0318 75.0971 54.1624 75.0914 54.2795L78.4514 61.5985C78.461 61.6216 78.5186 61.7271 78.5589 61.7099C78.5992 61.6926 78.5589 61.5774 78.5589 61.5582L74.0047 49.2702L74.1967 49.1953L78.749 61.4833C78.7678 61.5313 78.7794 61.5817 78.7835 61.6331C78.7932 61.689 78.7837 61.7466 78.7565 61.7965C78.7293 61.8463 78.6861 61.8855 78.6338 61.9076C78.4629 61.9787 78.3131 61.8424 78.2498 61.6849L75.1087 54.842C75.1614 55.2047 75.2509 55.5611 75.3755 55.9057C75.6512 56.6152 75.7621 57.3781 75.7 58.1368C75.5963 59.4116 75.8498 59.9531 76.0725 60.4312C76.2063 60.6867 76.3002 60.9613 76.3509 61.2452C76.4527 61.9384 76.2453 62.4414 76.0111 62.6142C75.9595 62.6509 75.8977 62.6704 75.8344 62.6699Z" fill="#85340A"/>
<path d="M72.8435 49.5L73.335 62.5867C73.335 62.5867 73.335 62.8344 73.5001 62.8344C73.6653 62.8344 73.6633 62.5867 73.6633 62.5867L74.1568 49.5M72.2637 53.724C71.5091 55.3714 72.1561 56.7173 71.4035 58.1554C70.6509 59.5934 71.1213 60.7781 71.0713 61.4366C71.0214 62.0952 70.48 62.2795 70.6182 62.4331C70.7565 62.5867 71.3171 62.2834 71.5379 61.4059C71.7587 60.5285 71.2326 60.0254 72.135 58.2629C73.0374 56.5003 72.327 55.7054 73.2275 54.131" fill="#F6B40E"/>
<path d="M73.4987 62.94C73.3067 62.94 73.228 62.7576 73.228 62.5867L72.9439 55.068C72.8538 55.4239 72.8004 55.788 72.7845 56.1547C72.7645 56.9092 72.5749 57.6494 72.2296 58.3205C71.6536 59.461 71.6709 60.0485 71.6939 60.5842C71.7211 60.8713 71.7029 61.1609 71.6402 61.4424C71.4693 62.1221 71.0872 62.5061 70.8031 62.5752C70.7574 62.5918 70.7079 62.5949 70.6605 62.584C70.6132 62.5731 70.57 62.5487 70.5362 62.5138C70.4171 62.3794 70.5362 62.243 70.6341 62.1298C70.8229 61.9454 70.9393 61.6995 70.9624 61.4366C70.9683 61.2286 70.9561 61.0205 70.9259 60.8146C70.8472 60.131 70.7339 59.1922 71.3099 58.1131C71.6767 57.4142 71.6939 56.7365 71.7266 56.0165C71.7592 55.2965 71.7823 54.5285 72.1663 53.6875L72.3583 53.7778C71.9915 54.5784 71.9647 55.3138 71.9378 56.0242C71.9109 56.7691 71.8859 57.4699 71.4962 58.213C70.9624 59.2344 71.0642 60.133 71.1371 60.7896C71.17 61.0088 71.1829 61.2305 71.1755 61.452C71.1489 61.7622 71.0128 62.0528 70.7915 62.2718C70.762 62.3034 70.7345 62.3368 70.709 62.3717C70.7369 62.3733 70.7648 62.3673 70.7896 62.3544C70.9547 62.2891 71.2754 62.0107 71.4309 61.3944C71.4887 61.133 71.5049 60.8641 71.4789 60.5976C71.4559 60.0446 71.429 59.4168 72.0376 58.2283C72.3693 57.5814 72.5511 56.8681 72.5695 56.1413C72.5824 55.5742 72.7022 55.0146 72.9227 54.492L72.7307 49.5H72.9439L73.1186 54.108L73.1301 54.0869L73.3221 54.1944C73.253 54.3134 73.1935 54.4306 73.1416 54.5419L73.445 62.5886C73.445 62.6136 73.4565 62.7326 73.5026 62.7326C73.5487 62.7326 73.5602 62.6155 73.5602 62.5925L74.0479 49.5H74.261L73.7695 62.5867C73.7691 62.6888 73.7339 62.7877 73.6696 62.867C73.6476 62.8901 73.621 62.9085 73.5917 62.921C73.5623 62.9336 73.5307 62.94 73.4987 62.94Z" fill="#85340A"/>
<path d="M72.8923 49.2461L68.338 61.5341C68.338 61.5341 68.244 61.7607 68.3956 61.824C68.5473 61.8874 68.6414 61.6589 68.6414 61.6589L74.1057 49.7549M70.738 52.9363C69.4113 54.169 69.4939 55.6608 68.242 56.7015C66.9902 57.7421 66.9787 59.0151 66.6792 59.6064C66.3796 60.1978 65.8113 60.1594 65.8785 60.3533C65.9457 60.5472 66.5832 60.4819 67.1227 59.7562C67.6622 59.0304 67.3684 58.3642 68.8776 57.0797C70.3867 55.7952 70.0296 54.7872 71.4676 53.6813" fill="#F6B40E"/>
<path d="M68.4489 61.9327C68.4166 61.9331 68.3845 61.9265 68.3548 61.9135C68.3185 61.8934 68.2865 61.8662 68.2609 61.8334C68.2353 61.8007 68.2166 61.7631 68.2058 61.723C68.1951 61.6828 68.1925 61.6409 68.1983 61.5998C68.2041 61.5586 68.2182 61.519 68.2396 61.4834L70.8585 54.4236C70.639 54.718 70.4499 55.0338 70.294 55.3663C69.986 56.0561 69.5267 56.6677 68.95 57.1558C67.9747 57.9852 67.7712 58.5458 67.5907 59.0412C67.5031 59.3155 67.3736 59.5746 67.2067 59.8092C66.7881 60.3718 66.287 60.5772 65.999 60.5369C65.9505 60.5347 65.9036 60.5185 65.8641 60.4902C65.8245 60.4619 65.794 60.4228 65.7763 60.3775C65.7168 60.2066 65.88 60.126 66.0124 60.0626C66.2589 59.964 66.4628 59.7819 66.5885 59.5481C66.672 59.3569 66.7394 59.1591 66.79 58.9567C66.982 58.2962 67.2432 57.39 68.1782 56.6086C68.783 56.1036 69.0672 55.4854 69.3648 54.8326C69.6624 54.1798 69.9849 53.477 70.6627 52.8492L70.8086 53.0047C70.1616 53.6057 69.8486 54.2738 69.5606 54.9247C69.2496 55.6006 68.9577 56.2399 68.3145 56.7775C67.4294 57.5148 67.1779 58.3846 66.9955 59.0201C66.9413 59.2352 66.8687 59.4452 66.7785 59.6479C66.6349 59.9228 66.399 60.1383 66.1123 60.2566C66.0726 60.2752 66.0341 60.2964 65.9971 60.3199C66.0228 60.3299 66.0502 60.3344 66.0777 60.3334C66.2486 60.3334 66.6537 60.2028 67.0377 59.6863C67.191 59.4667 67.3089 59.2244 67.3872 58.9682C67.5792 58.4479 67.7923 57.8585 68.8099 56.9926C69.3643 56.5208 69.8054 55.9302 70.1001 55.2646C70.3304 54.7481 70.6561 54.2797 71.0601 53.8841L72.7881 49.2031L72.9801 49.278L71.3865 53.6057L71.4057 53.5903L71.5363 53.7593C71.4275 53.8438 71.3276 53.9282 71.2368 54.0127L68.4374 61.5622C68.4374 61.5852 68.3913 61.6985 68.4374 61.7177C68.4835 61.7369 68.5334 61.6294 68.543 61.6102L74.0073 49.7062L74.1993 49.7945L68.7369 61.6985C68.6995 61.7915 68.6319 61.8693 68.5449 61.9193C68.5141 61.9299 68.4815 61.9345 68.4489 61.9327Z" fill="#85340A"/>
<path d="M73.0339 49.0352L64.129 58.6352C64.129 58.6352 63.9543 58.8099 64.0695 58.9251C64.1847 59.0403 64.3594 58.8675 64.3594 58.8675L73.9594 49.9625M69.6336 51.6118C67.9363 52.2435 67.4429 53.6528 65.8935 54.1366C64.344 54.6204 63.8391 55.7916 63.3379 56.2217C62.8368 56.6518 62.3242 56.4003 62.3127 56.6057C62.3011 56.8112 62.9136 56.9897 63.6893 56.5308C64.465 56.072 64.4573 55.3385 66.3351 54.7299C68.2128 54.1212 68.2743 53.0518 70.0291 52.5814" fill="#F6B40E"/>
<path d="M64.1636 59.0733C64.1321 59.0733 64.1009 59.0671 64.0719 59.0549C64.0429 59.0427 64.0166 59.0248 63.9946 59.0023C63.9689 58.9697 63.9499 58.9323 63.9389 58.8923C63.9279 58.8523 63.925 58.8105 63.9303 58.7693C63.9357 58.7282 63.9492 58.6885 63.9702 58.6527C63.9911 58.6168 64.019 58.5856 64.0522 58.5607L69.1728 53.0388C68.8576 53.2264 68.5623 53.4458 68.2916 53.6935C67.7457 54.2135 67.0893 54.6034 66.3716 54.834C65.1524 55.218 64.7492 55.6672 64.394 56.057C64.209 56.2775 63.9915 56.4685 63.7488 56.6234C63.146 56.9844 62.5968 56.9844 62.3549 56.8346C62.3109 56.814 62.2737 56.7811 62.2478 56.7399C62.2219 56.6987 62.2085 56.6509 62.209 56.6023C62.2205 56.4218 62.401 56.4103 62.5488 56.4007C62.8131 56.4038 63.0697 56.3126 63.2727 56.1434C63.4231 55.9997 63.5612 55.8436 63.6855 55.6768C64.1136 55.1373 64.7031 54.4 65.8647 54.0372C66.6192 53.801 67.1165 53.3402 67.6426 52.8506C68.1687 52.361 68.7332 51.8368 69.601 51.5066L69.6759 51.6986C68.8484 52.0058 68.3088 52.5069 67.7885 52.9908C67.2682 53.4746 66.7287 53.9757 65.93 54.2253C64.8279 54.569 64.2634 55.2775 63.8525 55.794C63.7194 55.9711 63.5717 56.1368 63.4109 56.2893C63.1736 56.4896 62.8728 56.5991 62.5623 56.5984C62.5185 56.5995 62.4748 56.6039 62.4317 56.6119C62.4517 56.6304 62.4752 56.6448 62.5008 56.6541C62.664 56.7252 63.0864 56.7559 63.6375 56.4256C63.8632 56.2815 64.0652 56.1034 64.2365 55.8976C64.609 55.4887 65.0333 55.026 66.3063 54.6151C66.9979 54.3928 67.6306 54.0174 68.1572 53.5168C68.565 53.1278 69.0424 52.8191 69.5645 52.6068L72.9591 48.9453L73.1165 49.0912L69.9812 52.4704H70.0042L70.0599 52.6759C69.9255 52.7124 69.8026 52.7527 69.6855 52.7949L64.2058 58.7143C64.1885 58.7335 64.1136 58.8237 64.1463 58.8564C64.1789 58.889 64.2692 58.8141 64.2845 58.7988L73.8826 49.8823L74.0266 50.0378L64.4266 58.9447C64.3562 59.0163 64.2634 59.0617 64.1636 59.0733Z" fill="#85340A"/>
<path d="M74.3262 54.1849C74.4126 55.9129 75.3995 56.6924 75.2056 58.2764C75.6299 57.0245 74.6065 56.053 74.6641 54.2021M73.1953 49.6421L76.9374 57.8156L73.802 49.3906" fill="#85340A"/>
<path d="M72.4694 54.1428C71.8838 55.7824 72.5001 56.8711 71.7148 58.2612C72.5884 57.2647 72.0124 55.9764 72.7747 54.2887M73.1587 49.5136L73.4985 58.4973L73.8268 49.5117" fill="#85340A"/>
<path d="M70.7715 53.3995C69.6041 54.684 69.7558 55.932 68.5078 56.915C69.6944 56.3294 69.6598 54.9182 71.0038 53.651M73.1907 49.3867L70.0438 57.8136L73.784 49.6382" fill="#85340A"/>
<path d="M69.4855 52.0555C67.913 52.8024 67.5789 54.0062 66.041 54.4344C67.3601 54.348 67.865 53.029 69.5969 52.3742M73.2449 49.2734L67.1239 55.8571L73.7076 49.7362" fill="#85340A"/>
<path d="M73.2486 48.8945L61.3446 54.3569C61.3446 54.3569 61.1161 54.451 61.1794 54.6027C61.2428 54.7544 61.4694 54.6603 61.4694 54.6603L73.7574 50.108M69.1263 49.9774C67.3158 49.9102 66.3193 51.0238 64.7103 50.8779C63.1014 50.732 62.1721 51.6132 61.5385 51.8264C60.9049 52.0395 60.5343 51.6037 60.4441 51.788C60.3538 51.9723 60.8511 52.3774 61.7458 52.2468C62.6406 52.1163 62.8978 51.4366 64.8793 51.596C66.8607 51.7553 67.3138 50.7877 69.1148 51.02" fill="#F6B40E"/>
<path d="M61.3283 54.7951C61.2766 54.7987 61.2251 54.786 61.181 54.7588C61.1369 54.7316 61.1025 54.6912 61.0825 54.6434C61.0115 54.4706 61.1478 54.3228 61.3053 54.2594L68.1481 51.1183C67.7849 51.1711 67.4278 51.2605 67.0825 51.3852C66.3778 51.6559 65.6211 51.7641 64.8688 51.702C63.5939 51.6002 63.0525 51.8517 62.5744 52.0744C62.3188 52.2082 62.0443 52.3021 61.7603 52.3528C61.0653 52.4546 60.5641 52.2472 60.3913 52.013C60.3588 51.9769 60.3373 51.9321 60.3295 51.8841C60.3216 51.8361 60.3278 51.7869 60.3472 51.7423C60.4259 51.581 60.5987 51.6386 60.7312 51.6866C60.9744 51.7905 61.2468 51.8041 61.4992 51.725C61.6937 51.6507 61.8813 51.5595 62.0598 51.4524C62.6608 51.1183 63.4864 50.6632 64.6998 50.7727C65.4851 50.8437 66.1225 50.6056 66.7965 50.356C67.4704 50.1064 68.1923 49.8376 69.1177 49.8703V50.0834C68.2365 50.0508 67.5453 50.308 66.879 50.5557C66.1821 50.8149 65.5235 51.0607 64.6902 50.9858C63.5382 50.8821 62.7491 51.3199 62.1693 51.6386C61.9795 51.7533 61.7796 51.8503 61.5721 51.9285C61.276 52.0222 60.9563 52.0079 60.6697 51.8882C60.6294 51.8748 60.5776 51.8575 60.5449 51.8498C60.5559 51.8754 60.5723 51.8984 60.5929 51.917C60.7158 52.0456 61.0941 52.2338 61.7315 52.1416C61.995 52.0942 62.2496 52.0061 62.4861 51.8805C62.9872 51.6463 63.5555 51.3813 64.888 51.4965C65.6123 51.5551 66.3405 51.4508 67.0192 51.1912C67.5448 50.9889 68.1034 50.886 68.6665 50.8879L73.2054 48.8047L73.2937 48.9967L69.1043 50.9167H69.1293L69.1005 51.1279C68.9641 51.1087 68.8336 51.0991 68.7165 51.0933L61.3974 54.4533C61.3744 54.4629 61.2688 54.5186 61.2861 54.5608C61.3033 54.6031 61.4185 54.5608 61.4377 54.5608L73.7257 50.0066L73.8006 50.1986L61.5126 54.7509C61.4647 54.7697 61.4142 54.7814 61.3629 54.7855L61.3283 54.7951Z" fill="#85340A"/>
<path d="M73.4985 48.8415L60.4117 49.3331C60.4117 49.3331 60.1641 49.3331 60.1641 49.4982C60.1641 49.6633 60.4117 49.6614 60.4117 49.6614L73.4985 50.1548M69.2745 48.2617C67.6271 47.5071 66.2812 48.1542 64.8431 47.4015C63.405 46.6489 62.2204 47.1193 61.5618 47.0694C60.9033 47.0195 60.7189 46.478 60.5653 46.6163C60.4117 46.7545 60.7151 47.3151 61.5925 47.5359C62.47 47.7567 62.973 47.2307 64.7356 48.1331C66.4981 49.0355 67.293 48.3251 68.8674 49.2255" fill="#F6B40E"/>
<path d="M73.4987 50.2648L60.4119 49.7733C60.3102 49.7709 60.2119 49.7359 60.1316 49.6734C60.1078 49.6507 60.089 49.6232 60.0765 49.5928C60.0639 49.5624 60.0578 49.5297 60.0587 49.4968C60.0587 49.3048 60.2411 49.2261 60.4119 49.2261L67.9307 48.9419C67.5748 48.8519 67.2107 48.7985 66.8439 48.7825C66.0895 48.7626 65.3493 48.5729 64.6782 48.2277C63.5377 47.6517 62.9502 47.6689 62.4145 47.692C62.1274 47.7191 61.8378 47.701 61.5563 47.6382C60.8766 47.4673 60.4926 47.0853 60.4215 46.8011C60.4056 46.7552 60.4031 46.7057 60.4143 46.6584C60.4256 46.6112 60.4501 46.5681 60.4849 46.5342C60.6193 46.4152 60.7556 46.5342 60.8689 46.6321C61.0533 46.8209 61.2992 46.9374 61.562 46.9605C61.77 46.9663 61.9782 46.9541 62.1841 46.924C62.8676 46.8453 63.8046 46.732 64.8856 47.308C65.5844 47.6747 66.2622 47.692 66.9822 47.7246C67.7022 47.7573 68.4702 47.7803 69.3111 48.1643L69.2209 48.3563C68.4203 47.9896 67.6849 47.9627 66.9745 47.9358C66.2295 47.9089 65.5287 47.884 64.7857 47.4942C63.7643 46.9605 62.8657 47.0622 62.2091 47.1352C61.9899 47.1681 61.7682 47.181 61.5467 47.1736C61.2365 47.147 60.9459 47.0109 60.7268 46.7896C60.6952 46.7601 60.6619 46.7325 60.627 46.707C60.6264 46.7349 60.6324 46.7625 60.6443 46.7877C60.7095 46.9528 60.9879 47.2734 61.6043 47.4289C61.8657 47.4868 62.1346 47.503 62.4011 47.4769C62.9559 47.4539 63.5819 47.427 64.7723 48.0357C65.4185 48.3675 66.1312 48.5493 66.8574 48.5675C67.4245 48.5806 67.984 48.7004 68.5067 48.9208L73.4987 48.7288V48.9419L68.8907 49.1128L68.9118 49.1243L68.8043 49.3163C68.6852 49.2472 68.5681 49.1877 68.4567 49.1358L60.41 49.4392C60.3851 49.4392 60.266 49.4507 60.266 49.4968C60.2646 49.4998 60.2639 49.5031 60.2639 49.5064C60.2639 49.5097 60.2646 49.513 60.266 49.516C60.3053 49.5419 60.3515 49.5553 60.3985 49.5544L73.4987 50.0459V50.2648Z" fill="#85340A"/>
<path d="M73.7511 48.8942L61.4631 44.34C61.4631 44.34 61.2366 44.2459 61.1732 44.3976C61.1099 44.5493 61.3383 44.6434 61.3383 44.6434L73.2423 50.1077M70.0609 46.74C68.8283 45.4133 67.3364 45.4958 66.2958 44.244C65.2551 42.9922 63.9822 42.9806 63.3908 42.6811C62.7995 42.3816 62.8379 41.8133 62.6439 41.8805C62.45 41.9477 62.5153 42.5851 63.2411 43.1246C63.9668 43.6642 64.6331 43.3704 65.9175 44.8795C67.202 46.3886 68.21 46.0315 69.3159 47.4696" fill="#F6B40E"/>
<path d="M73.2038 50.2032L61.2998 44.7408C61.2067 44.7034 61.129 44.6357 61.079 44.5488C61.0655 44.5186 61.0586 44.4859 61.0586 44.4528C61.0586 44.4197 61.0655 44.387 61.079 44.3568C61.0991 44.3204 61.1263 44.2885 61.1591 44.2629C61.1918 44.2373 61.2294 44.2185 61.2695 44.2078C61.3097 44.197 61.3516 44.1945 61.3927 44.2003C61.4339 44.2061 61.4735 44.2201 61.5091 44.2416L68.5689 46.8605C68.2745 46.641 67.9587 46.4519 67.6262 46.296C66.9364 45.988 66.3248 45.5286 65.8367 44.952C65.0073 43.9766 64.4467 43.7731 63.9513 43.5926C63.677 43.505 63.418 43.3755 63.1833 43.2086C62.6207 42.7901 62.4153 42.289 62.4556 42.001C62.4578 41.9524 62.4741 41.9055 62.5023 41.866C62.5306 41.8265 62.5697 41.796 62.615 41.7782C62.7859 41.7187 62.8665 41.8819 62.9299 42.0144C63.0285 42.2608 63.2106 42.4647 63.4444 42.5904C63.6359 42.6707 63.8337 42.7349 64.0358 42.7824C64.6963 42.9744 65.6025 43.2355 66.3839 44.1706C66.8889 44.7754 67.5071 45.0595 68.1599 45.3571C68.8127 45.6547 69.5155 45.9773 70.1433 46.655L69.9878 46.801C69.3868 46.1539 68.7187 45.841 68.0678 45.553C67.3919 45.2419 66.7526 44.9501 66.215 44.3069C65.4777 43.4218 64.6079 43.1702 63.9724 42.9878C63.7573 42.9336 63.5473 42.861 63.3446 42.7709C63.0697 42.6273 62.8542 42.3914 62.7359 42.1046C62.7167 42.0662 62.6918 42.0163 62.6745 41.9894C62.6627 42.0146 62.6574 42.0423 62.6591 42.0701C62.6591 42.2467 62.7897 42.6461 63.3062 43.0301C63.5258 43.1834 63.7681 43.3013 64.0243 43.3795C64.5446 43.5715 65.134 43.7846 65.9999 44.8022C66.4717 45.3567 67.0623 45.7977 67.7279 46.0925C68.2444 46.3227 68.7128 46.6484 69.1084 47.0525L73.7894 48.7805L73.7145 48.9725L69.3907 47.3885L69.406 47.4077L69.2371 47.5382C69.1526 47.4294 69.0681 47.3296 68.9836 47.2387L61.4342 44.4394C61.4111 44.4298 61.2979 44.3952 61.2787 44.4394C61.2595 44.4835 61.367 44.5373 61.3862 44.545L73.2902 50.0093L73.2038 50.2032Z" fill="#85340A"/>
<path d="M73.9647 49.0339L64.3647 40.129C64.3647 40.129 64.19 39.9543 64.0748 40.0695C63.9596 40.1847 64.1324 40.3594 64.1324 40.3594L73.0373 49.9594M71.388 45.6336C70.7564 43.9363 69.3471 43.4429 68.8632 41.8935C68.3794 40.344 67.2082 39.8391 66.7781 39.3379C66.348 38.8368 66.5996 38.3242 66.3941 38.3127C66.1887 38.3011 66.0101 38.9136 66.469 39.6893C66.9279 40.465 67.6613 40.4573 68.27 42.3351C68.8786 44.2128 69.948 44.2743 70.4184 46.0291" fill="#F6B40E"/>
<path d="M72.9574 50.0343L64.0505 40.4343C63.9784 40.3621 63.9336 40.2671 63.9238 40.1655C63.9238 40.1341 63.9301 40.1029 63.9423 40.0739C63.9545 40.0449 63.9724 40.0186 63.9949 39.9966C64.0358 39.957 64.0888 39.9321 64.1454 39.9258C64.2021 39.9196 64.2592 39.9323 64.3078 39.962C64.3547 39.9867 64.398 40.0177 64.4365 40.0542L69.9565 45.1748C69.7695 44.8596 69.5507 44.5643 69.3037 44.2935C68.7837 43.7477 68.3938 43.0913 68.1632 42.3735C67.7792 41.1543 67.3299 40.7511 66.9401 40.3959C66.7196 40.211 66.5286 39.9934 66.3737 39.7508C66.0128 39.1479 66.0109 38.5988 66.1625 38.3569C66.183 38.3127 66.2158 38.2754 66.2571 38.2495C66.2983 38.2236 66.3462 38.2102 66.3949 38.211C66.5753 38.2225 66.5869 38.403 66.5965 38.5508C66.5943 38.8149 66.6854 39.0712 66.8537 39.2746C66.9974 39.4251 67.1535 39.5632 67.3203 39.6874C67.8598 40.1156 68.5971 40.705 68.96 41.8666C69.1961 42.6212 69.6569 43.1185 70.1465 43.6446C70.6361 44.1706 71.1603 44.7351 71.4905 45.603L71.2985 45.6778C70.9913 44.8503 70.4902 44.3108 70.0064 43.7905C69.5225 43.2702 69.0214 42.7306 68.7718 41.93C68.4281 40.8298 67.7197 40.2654 67.2032 39.8545C67.026 39.7214 66.8603 39.5736 66.7078 39.4129C66.5076 39.1755 66.398 38.8748 66.3987 38.5642C66.3977 38.5204 66.3932 38.4768 66.3853 38.4337C66.3667 38.4537 66.3524 38.4772 66.343 38.5028C66.272 38.666 66.2413 39.0884 66.5715 39.6394C66.7157 39.8656 66.8945 40.0678 67.1014 40.2385C67.5085 40.611 67.9712 41.0353 68.3821 42.3082C68.6044 42.9999 68.9798 43.6326 69.4803 44.1591C69.8693 44.567 70.178 45.0444 70.3904 45.5665L74.0518 48.961L73.8829 49.1146L70.5037 45.9793V46.0023L70.2982 46.058C70.2617 45.9236 70.2214 45.8007 70.1792 45.6836L64.2829 40.2058C64.2637 40.1886 64.1734 40.1137 64.1408 40.1463C64.1081 40.179 64.183 40.2692 64.1984 40.2846L73.1149 49.8826L72.9574 50.0343Z" fill="#85340A"/>
<path d="M68.8122 50.3262C67.0842 50.4126 66.3047 51.3995 64.7207 51.2056C65.9725 51.6299 66.9441 50.6065 68.7949 50.6641M73.3549 49.1953L65.1815 52.9374L73.6065 49.802" fill="#85340A"/>
<path d="M68.8526 48.4694C67.2129 47.8934 66.1243 48.5001 64.7342 47.7148C65.7307 48.5884 67.019 48.0124 68.7067 48.7747M73.4817 49.1587L64.498 49.4985L73.4837 49.8268" fill="#85340A"/>
<path d="M69.5996 46.7715C68.3151 45.6041 67.0671 45.7558 66.0841 44.5078C66.6697 45.6944 68.0809 45.6598 69.3481 47.0038M73.6124 49.1907L65.1855 46.0438L73.3609 49.784" fill="#85340A"/>
<path d="M70.9422 45.4874C70.1953 43.915 68.9915 43.5809 68.5633 42.043C68.6497 43.362 69.9688 43.867 70.6235 45.5988M73.7243 49.2468L67.1406 43.1258L73.2616 49.7095" fill="#85340A"/>
<path d="M74.1051 49.2486L68.6427 37.3446C68.6427 37.3446 68.5487 37.1161 68.397 37.1794C68.2453 37.2428 68.3394 37.4694 68.3394 37.4694L72.8917 49.7574M73.0223 45.1263C73.0895 43.3158 71.9759 42.3193 72.1218 40.7103C72.2677 39.1014 71.3864 38.1721 71.1733 37.5385C70.9602 36.9049 71.396 36.5343 71.2117 36.4441C71.0274 36.3538 70.6223 36.8511 70.7528 37.7458C70.8834 38.6406 71.5631 38.8978 71.4037 40.8793C71.2443 42.8607 72.212 43.3138 71.9797 45.1148" fill="#F6B40E"/>
<path d="M72.7917 49.7869L68.2394 37.4989C68.2206 37.4509 68.209 37.4005 68.2049 37.3491C68.1952 37.2932 68.2047 37.2356 68.2319 37.1857C68.2591 37.1359 68.3023 37.0967 68.3546 37.0746C68.5274 37.0035 68.6753 37.1398 68.7386 37.2973L71.8797 44.1402C71.8267 43.7769 71.7373 43.4199 71.6129 43.0746C71.342 42.3699 71.2337 41.6132 71.2961 40.8608C71.3997 39.5859 71.1463 39.0445 70.9236 38.5568C70.7898 38.3012 70.6959 38.0267 70.6452 37.7427C70.5434 37.0496 70.7508 36.5466 70.985 36.3738C71.0212 36.3412 71.0659 36.3197 71.1139 36.3119C71.1619 36.3041 71.2111 36.3102 71.2557 36.3296C71.417 36.4083 71.3594 36.5811 71.3114 36.7136C71.2075 36.9569 71.1939 37.2292 71.273 37.4816C71.3474 37.6761 71.4386 37.8637 71.5457 38.0422C71.8778 38.6451 72.3348 39.4688 72.2253 40.6822C72.1543 41.4694 72.3924 42.105 72.642 42.7789C72.8916 43.4528 73.1604 44.1747 73.1277 45.1002H72.9146C72.9473 44.217 72.69 43.5277 72.4423 42.8614C72.1831 42.1645 71.9373 41.5059 72.0122 40.6726C72.1159 39.5206 71.6781 38.7315 71.3594 38.1517C71.2451 37.9617 71.1481 37.7619 71.0695 37.5546C70.9758 37.2585 70.9901 36.9387 71.1098 36.6522C71.1233 36.6118 71.1405 36.56 71.1482 36.5274C71.1226 36.5383 71.0997 36.5547 71.081 36.5754C70.9524 36.6982 70.7623 37.0765 70.8564 37.7139C70.9038 37.9775 70.9919 38.232 71.1175 38.4685C71.3517 38.9696 71.6167 39.5379 71.5015 40.8704C71.442 41.5947 71.5464 42.3231 71.8068 43.0016C72.0101 43.5269 72.113 44.0857 72.1101 44.649L74.1933 49.1878L74.0013 49.2762L72.0813 45.0867V45.1117L71.8701 45.0829C71.8893 44.9466 71.8989 44.816 71.9047 44.6989L68.5447 37.3799C68.5351 37.3568 68.4794 37.2512 68.4372 37.2685C68.395 37.2858 68.4372 37.399 68.4372 37.4202L72.9914 49.7082L72.7917 49.7869Z" fill="#85340A"/>
<path d="M74.1551 49.4985L73.6636 36.4117C73.6636 36.4117 73.6636 36.1641 73.4984 36.1641C73.3333 36.1641 73.3352 36.4117 73.3352 36.4117L72.8418 49.4985M74.7349 45.2745C75.4895 43.6271 74.8424 42.2812 75.5951 40.8431C76.3477 39.405 75.8773 38.2204 75.9272 37.5618C75.9772 36.9033 76.5186 36.7189 76.3804 36.5653C76.2421 36.4117 75.6815 36.7151 75.4607 37.5925C75.2399 38.47 75.766 38.973 74.8636 40.7356C73.9612 42.4981 74.6716 43.293 73.7711 44.8674" fill="#F6B40E"/>
<path d="M74.0495 49.4987L73.8825 44.8907L73.8709 44.9118L73.6789 44.8043C73.7481 44.6853 73.8076 44.5682 73.8594 44.4568L73.5561 36.4101C73.5561 36.3851 73.5445 36.2661 73.4985 36.2661C73.4524 36.2661 73.4409 36.3851 73.4409 36.4062L72.9494 49.4987H72.7305L73.222 36.412C73.2238 36.3598 73.2328 36.3081 73.2489 36.2584C73.2625 36.2039 73.2938 36.1555 73.338 36.1207C73.3821 36.086 73.4365 36.0669 73.4927 36.0664C73.549 36.0671 73.6036 36.0862 73.648 36.1209C73.6924 36.1556 73.7242 36.2039 73.7385 36.2584C73.7545 36.3094 73.7629 36.3624 73.7634 36.4158L74.0534 43.9307C74.1434 43.5749 74.1968 43.2107 74.2127 42.844C74.2327 42.0896 74.4223 41.3493 74.7676 40.6782C75.3436 39.5378 75.3263 38.9406 75.3033 38.4146C75.2762 38.1274 75.2943 37.8378 75.357 37.5563C75.5279 36.8766 75.91 36.4926 76.1942 36.4216C76.2401 36.4059 76.2895 36.4035 76.3367 36.4148C76.384 36.426 76.427 36.4503 76.461 36.485C76.5801 36.6194 76.461 36.7557 76.3631 36.869C76.1744 37.0533 76.0579 37.2992 76.0348 37.5621C76.0289 37.7701 76.0411 37.9783 76.0713 38.1842C76.15 38.8696 76.2633 39.8066 75.6873 40.8856C75.3205 41.5845 75.3033 42.2622 75.2706 42.9822C75.238 43.7022 75.2149 44.4702 74.8309 45.3112L74.6389 45.221C75.0057 44.4203 75.0325 43.685 75.0575 42.9746C75.0863 42.2296 75.1113 41.5288 75.501 40.7858C76.0348 39.7643 75.933 38.8658 75.8601 38.2091C75.8272 37.99 75.8143 37.7682 75.8217 37.5467C75.8483 37.2365 75.9844 36.9459 76.2057 36.7269C76.2352 36.6953 76.2627 36.662 76.2882 36.627C76.2604 36.6265 76.2328 36.6324 76.2076 36.6443C76.0425 36.7096 75.7218 36.988 75.5663 37.6043C75.5085 37.8657 75.4923 38.1347 75.5183 38.4011C75.5413 38.9541 75.5701 39.5819 74.9596 40.7723C74.6277 41.4185 74.4459 42.1313 74.4277 42.8574C74.4147 43.4245 74.2948 43.984 74.0745 44.5067L74.2665 49.4987H74.0495Z" fill="#85340A"/>
<path d="M74.106 49.7492L78.6603 37.4612C78.6603 37.4612 78.7543 37.2346 78.6027 37.1713C78.451 37.1079 78.3569 37.3364 78.3569 37.3364L72.8926 49.2404M76.2603 46.0589C77.587 44.8263 77.5044 43.3345 78.7563 42.2938C80.0081 41.2532 80.0196 39.9898 80.3191 39.3889C80.6187 38.7879 81.187 38.8359 81.1198 38.642C81.0526 38.4481 80.4151 38.5133 79.8756 39.2391C79.3361 39.9649 79.6299 40.6311 78.1207 41.9156C76.6116 43.2001 76.9687 44.2081 75.5307 45.314" fill="#F6B40E"/>
<path d="M74.2062 49.7855L74.0142 49.7106L75.6116 45.3887L75.5924 45.404L75.4619 45.2351C75.5707 45.1506 75.6705 45.0661 75.7614 44.9816L78.5607 37.4322C78.5607 37.4092 78.6049 37.2959 78.5607 37.2767C78.5166 37.2575 78.4628 37.365 78.4551 37.3842L72.9908 49.2882L72.7988 49.1999L78.2612 37.2959C78.2987 37.2028 78.3663 37.1251 78.4532 37.0751C78.4834 37.0616 78.5161 37.0547 78.5492 37.0547C78.5823 37.0547 78.615 37.0616 78.6452 37.0751C78.6816 37.0952 78.7135 37.1224 78.7392 37.1552C78.7648 37.1879 78.7835 37.2255 78.7943 37.2656C78.805 37.3058 78.8076 37.3477 78.8017 37.3888C78.7959 37.43 78.7819 37.4696 78.7604 37.5052L76.1415 44.565C76.361 44.2706 76.5502 43.9548 76.706 43.6223C77.014 42.9325 77.4734 42.3209 78.05 41.8328C79.0254 41.0034 79.2289 40.4428 79.4094 39.9474C79.497 39.6731 79.6265 39.414 79.7934 39.1794C80.2119 38.6168 80.7131 38.4114 81.0011 38.4517C81.0496 38.4539 81.0965 38.4702 81.136 38.4984C81.1755 38.5267 81.206 38.5658 81.2238 38.6111C81.2833 38.782 81.1201 38.8626 80.9876 38.926C80.7412 39.0246 80.5373 39.2067 80.4116 39.4405C80.3283 39.6311 80.2609 39.8283 80.21 40.03C80.018 40.6924 79.7569 41.5986 78.8219 42.38C78.2171 42.885 77.9329 43.5032 77.6353 44.156C77.3377 44.8088 77.0151 45.5116 76.3374 46.1394L76.1915 45.9839C76.8385 45.3829 77.1515 44.7148 77.4395 44.0639C77.7275 43.413 78.0423 42.7487 78.6855 42.2111C79.5707 41.4738 79.8222 40.6021 80.0046 39.9685C80.0585 39.7533 80.1311 39.5433 80.2215 39.3407C80.3652 39.0658 80.6011 38.8503 80.8878 38.732C80.9262 38.7128 80.9761 38.6879 81.003 38.6706C80.9778 38.6588 80.9501 38.6535 80.9223 38.6552C80.7419 38.6552 80.3463 38.7916 79.9623 39.3023C79.8091 39.5219 79.6912 39.7642 79.6129 40.0204C79.4209 40.5407 79.2078 41.1301 78.1902 41.996C77.6357 42.4678 77.1947 43.0584 76.8999 43.724C76.6697 44.2405 76.344 44.7089 75.9399 45.1045L74.2062 49.7855Z" fill="#85340A"/>
<path d="M73.9645 49.9647L82.8695 40.3647C82.8695 40.3647 83.0442 40.19 82.929 40.0748C82.8138 39.9596 82.6391 40.1324 82.6391 40.1324L73.0391 49.0373M77.3687 47.3861C79.0659 46.7544 79.5594 45.3452 81.1088 44.8613C82.6583 44.3775 83.1632 43.2063 83.6643 42.7762C84.1655 42.3461 84.6781 42.5976 84.6896 42.3922C84.7011 42.1868 84.0887 42.0082 83.313 42.4671C82.5373 42.926 82.545 43.6594 80.6672 44.268C78.7895 44.8767 78.728 45.9461 76.9731 46.4165" fill="#F6B40E"/>
<path d="M74.0421 50.0378L73.8827 49.8842L77.0181 46.505H76.995L76.9393 46.2996C77.0737 46.2631 77.1966 46.2228 77.3137 46.1806L82.7915 40.2842C82.8088 40.265 82.8837 40.1748 82.851 40.1421C82.8184 40.1095 82.8337 40.1229 82.7857 40.1421C82.759 40.1557 82.7344 40.1732 82.7128 40.194L73.1147 49.1162L72.9707 48.9607L82.5707 40.0538C82.6083 40.0177 82.651 39.9873 82.6974 39.9636C82.7457 39.9336 82.8028 39.9209 82.8593 39.9275C82.9157 39.9341 82.9683 39.9596 83.0084 39.9999C83.0485 40.0403 83.0737 40.093 83.08 40.1495C83.0863 40.206 83.0733 40.263 83.043 40.3111C83.0184 40.358 82.9874 40.4013 82.9509 40.4398L77.8302 45.9598C78.1455 45.7728 78.4408 45.554 78.7115 45.307C79.2574 44.7869 79.9137 44.3971 80.6315 44.1665C81.8507 43.7729 82.2539 43.3332 82.6091 42.9434C82.794 42.7194 83.0123 42.5252 83.2561 42.3674C83.8571 42.0065 84.3985 42.0046 84.6481 42.1562C84.6922 42.1769 84.7294 42.2097 84.7553 42.2509C84.7811 42.2921 84.7946 42.3399 84.7941 42.3886C84.7825 42.569 84.6021 42.5805 84.4542 42.5901C84.1902 42.588 83.9338 42.6791 83.7304 42.8474C83.58 42.9911 83.4419 43.1472 83.3176 43.314C82.8894 43.8535 82.3 44.5908 81.1384 44.9537C80.3838 45.1898 79.8865 45.6506 79.3605 46.1402C78.8344 46.6298 78.2699 47.154 77.4021 47.4842L77.3291 47.2922C78.1547 46.985 78.6942 46.4839 79.2145 46.0001C79.7349 45.5162 80.2744 45.0151 81.0731 44.7655C82.1752 44.4218 82.7397 43.7134 83.1505 43.1969C83.2837 43.0197 83.4314 42.854 83.5921 42.7015C83.8295 42.5012 84.1302 42.3917 84.4408 42.3924C84.4846 42.3914 84.5282 42.3869 84.5713 42.379C84.5513 42.3604 84.5278 42.3461 84.5022 42.3367C84.339 42.2657 83.9166 42.235 83.3656 42.5652C83.1394 42.7094 82.9373 42.8882 82.7665 43.0951C82.3941 43.5022 81.9697 43.9649 80.6968 44.3758C80.0051 44.5981 79.3725 44.9734 78.8459 45.474C78.438 45.863 77.9606 46.1717 77.4385 46.3841L74.0421 50.0378Z" fill="#85340A"/>
<path d="M72.6717 44.8103C72.5853 43.0727 71.5985 42.3027 71.7924 40.7188C71.3681 41.9706 72.3914 42.9421 72.3338 44.793M73.8026 49.353L70.0605 41.1795L73.1959 49.6045" fill="#85340A"/>
<path d="M74.5274 44.8507C75.113 43.211 74.4966 42.1223 75.2819 40.7323C74.4083 41.7287 74.9843 43.0171 74.2221 44.7047M73.8381 49.4798L73.4982 40.4961L73.1699 49.4817" fill="#85340A"/>
<path d="M76.2273 45.5977C77.3947 44.3074 77.243 43.0652 78.5006 42.0822C77.314 42.6678 77.3486 44.079 76.0046 45.3462M73.8177 49.6105L76.955 41.1836L73.2148 49.359" fill="#85340A"/>
<path d="M77.5111 46.9422C79.0836 46.1953 79.4177 44.9915 80.9556 44.5633C79.6366 44.6497 79.1316 45.9688 77.3998 46.6235M73.7518 49.7243L79.8727 43.1406L73.2891 49.2616" fill="#85340A"/>
<path d="M73.751 50.1071L85.655 44.6447C85.655 44.6447 85.8835 44.5506 85.8201 44.3989C85.7567 44.2473 85.5302 44.3413 85.5302 44.3413L73.2422 48.8937M77.8732 49.0242C79.6838 49.0914 80.6803 47.9778 82.2892 48.1237C83.8982 48.2697 84.8275 47.3884 85.4611 47.1753C86.0947 46.9621 86.4652 47.398 86.5555 47.2137C86.6457 47.0293 86.1484 46.6242 85.2537 46.7548C84.359 46.8853 84.1017 47.565 82.1203 47.4057C80.1388 47.2463 79.6857 48.214 77.8847 47.9817" fill="#F6B40E"/>
<path d="M73.7944 50.2032L73.7061 50.0112L77.8955 48.0912H77.8706L77.8994 47.88C78.0357 47.8992 78.1663 47.9088 78.2834 47.9146L85.6024 44.5546C85.6255 44.5546 85.7311 44.4893 85.7138 44.4471C85.6965 44.4048 85.5813 44.4471 85.5621 44.4471L73.2741 49.0013L73.1992 48.8093L85.4872 44.257C85.5352 44.2382 85.5856 44.2266 85.637 44.2224C85.6929 44.2127 85.7505 44.2223 85.8004 44.2495C85.8502 44.2767 85.8894 44.3199 85.9115 44.3722C85.9826 44.545 85.8463 44.6928 85.6888 44.7562L78.8459 47.8973C79.2086 47.8445 79.565 47.7551 79.9096 47.6304C80.618 47.3525 81.3801 47.2389 82.1387 47.2983C83.4136 47.402 83.9551 47.1485 84.4331 46.9258C84.6887 46.792 84.9632 46.6981 85.2472 46.6474C85.9423 46.5456 86.4434 46.753 86.6162 46.9872C86.6483 47.0236 86.6695 47.0683 86.6773 47.1162C86.6852 47.1641 86.6793 47.2133 86.6603 47.258C86.5816 47.4192 86.4088 47.3616 86.2763 47.3136C86.0329 47.2107 85.7609 47.1971 85.5083 47.2752C85.3139 47.3496 85.1263 47.4408 84.9477 47.5479C84.3448 47.88 83.5192 48.337 82.3077 48.2276C81.5205 48.1565 80.885 48.3946 80.2111 48.6442C79.5371 48.8938 78.8152 49.1626 77.8898 49.13V48.9168C78.7691 48.9476 79.4623 48.6922 80.1285 48.4445C80.8255 48.1853 81.484 47.9396 82.3192 48.0144C83.4712 48.1181 84.2584 47.6804 84.8383 47.3616C85.0282 47.2474 85.2281 47.1503 85.4354 47.0717C85.7315 46.978 86.0512 46.9923 86.3378 47.112C86.3781 47.1255 86.4299 47.1428 86.4626 47.1504C86.4516 47.1248 86.4353 47.1019 86.4146 47.0832C86.2917 46.9565 85.9135 46.7664 85.276 46.8586C85.0125 46.906 84.7579 46.9941 84.5215 47.1197C84.0203 47.354 83.4501 47.6189 82.1195 47.5037C81.3952 47.4443 80.6668 47.5486 79.9883 47.809C79.4632 48.013 78.9043 48.116 78.341 48.1124L73.7944 50.2032Z" fill="#85340A"/>
<path d="M73.5 50.157L86.5867 49.6655C86.5867 49.6655 86.8344 49.6655 86.8344 49.5004C86.8344 49.3353 86.5867 49.3372 86.5867 49.3372L73.5 48.8438M77.724 50.7369C79.3714 51.4914 80.7173 50.8444 82.1554 51.597C83.5934 52.3497 84.7781 51.8793 85.4366 51.9292C86.0952 51.9791 86.2795 52.5206 86.4331 52.3823C86.5867 52.2441 86.2834 51.6834 85.4059 51.4626C84.5285 51.2418 84.0254 51.7679 82.2629 50.8655C80.5003 49.9631 79.7054 50.6735 78.131 49.773" fill="#F6B40E"/>
<path d="M86.387 52.513C86.2859 52.4942 86.194 52.4422 86.1259 52.3652C85.9413 52.1764 85.6957 52.0594 85.4328 52.0349C85.2247 52.0306 85.0166 52.0441 84.8107 52.0752C84.1253 52.1501 83.1883 52.2557 82.1093 51.6912C81.4104 51.3245 80.7326 51.3072 80.0126 51.2746C79.2926 51.242 78.5246 51.2189 77.6837 50.8349L77.7739 50.6429C78.5746 51.0096 79.3099 51.0365 80.0203 51.0615C80.7653 51.0903 81.4661 51.1152 82.2091 51.505C83.2306 52.0388 84.1291 51.937 84.7858 51.864C85.0049 51.8311 85.2267 51.8182 85.4482 51.8256C85.7584 51.8523 86.049 51.9884 86.268 52.2096C86.2996 52.2391 86.3329 52.2667 86.3678 52.2922C86.3684 52.2643 86.3625 52.2367 86.3506 52.2116C86.2853 52.0464 86.0088 51.7258 85.3906 51.5703C85.1291 51.5125 84.8602 51.4963 84.5938 51.5223C84.0408 51.5453 83.413 51.5741 82.2245 50.9636C81.5775 50.6319 80.8642 50.4501 80.1374 50.4317C79.5715 50.4177 79.0133 50.2972 78.492 50.0765L73.5 50.2685V50.0554L78.108 49.8807L78.0869 49.8692L78.1944 49.6772C78.3134 49.7463 78.4306 49.8058 78.5419 49.8576L86.5886 49.5543C86.6136 49.5543 86.7326 49.5428 86.7326 49.4967C86.734 49.4937 86.7347 49.4904 86.7347 49.4871C86.7347 49.4838 86.734 49.4805 86.7326 49.4775C86.6934 49.4516 86.6472 49.4382 86.6002 49.4391L73.5 48.9514V48.7383L86.5867 49.2298C86.6891 49.2307 86.788 49.2666 86.867 49.3316C86.8896 49.3535 86.9073 49.3798 86.9192 49.4088C86.9311 49.4379 86.9369 49.4691 86.9362 49.5005C86.9355 49.5569 86.9163 49.6114 86.8816 49.6558C86.847 49.7002 86.7987 49.732 86.7442 49.7463C86.6932 49.7625 86.6402 49.7709 86.5867 49.7712L79.068 50.0554C79.4239 50.1454 79.788 50.1988 80.1547 50.2148C80.9092 50.2347 81.6494 50.4244 82.3205 50.7696C83.461 51.3456 84.0485 51.3284 84.5842 51.3053C84.8713 51.2782 85.1609 51.2964 85.4424 51.3591C86.1221 51.53 86.5061 51.912 86.5752 52.1962C86.5916 52.2419 86.5945 52.2913 86.5836 52.3387C86.5727 52.386 86.5485 52.4292 86.5138 52.4631C86.4971 52.4795 86.4772 52.4923 86.4555 52.5009C86.4337 52.5095 86.4104 52.5136 86.387 52.513Z" fill="#85340A"/>
<path d="M73.248 50.1041L85.536 54.6583C85.536 54.6583 85.7626 54.7524 85.826 54.6007C85.8893 54.449 85.6608 54.3549 85.6608 54.3549L73.7568 48.8906M76.9383 52.2583C78.1709 53.585 79.6628 53.5025 80.7034 54.7543C81.744 56.0061 83.017 56.0177 83.6084 56.3172C84.1997 56.6167 84.1613 57.185 84.3552 57.1178C84.5492 57.0506 84.4839 56.4132 83.7581 55.8737C83.0324 55.3341 82.3661 55.6279 81.0816 54.1188C79.7972 52.6097 78.7892 52.9668 77.6832 51.5287" fill="#F6B40E"/>
<path d="M84.3143 57.2257C84.1895 57.2257 84.1223 57.0894 84.0685 56.9761C83.9699 56.7296 83.7877 56.5257 83.5539 56.4001C83.3628 56.3165 83.165 56.2491 82.9626 56.1985C82.3021 56.0065 81.3959 55.7454 80.6144 54.8103C80.1095 54.2055 79.4912 53.9214 78.8384 53.6238C78.1856 53.3262 77.4829 53.0036 76.8551 52.3258L77.0106 52.1799C77.6115 52.827 78.2797 53.1399 78.9306 53.4279C79.6064 53.739 80.2458 54.0308 80.7834 54.674C81.5207 55.5591 82.3904 55.8106 83.0259 55.993C83.2411 56.0469 83.4512 56.1195 83.6538 56.21C83.9287 56.3536 84.1442 56.5895 84.2624 56.8762C84.2811 56.9159 84.3022 56.9544 84.3258 56.9914C84.3357 56.9658 84.3403 56.9383 84.3392 56.9108C84.3392 56.7342 84.2087 56.3348 83.6922 55.9508C83.4726 55.7975 83.2303 55.6796 82.9741 55.6014C82.4538 55.4094 81.8643 55.1962 80.9984 54.1786C80.5267 53.6242 79.9361 53.1832 79.2704 52.8884C78.7539 52.6582 78.2856 52.3325 77.8899 51.9284L73.209 50.2004L73.2839 50.0084L77.6077 51.6097L77.5923 51.5905L77.7613 51.4599C77.8458 51.5687 77.9303 51.6686 78.0147 51.7594L85.5642 54.5588C85.5872 54.5703 85.7024 54.6049 85.7197 54.5588C85.737 54.5127 85.6314 54.4609 85.6122 54.4532L73.7082 48.9889L73.7965 48.7969L85.7005 54.2593C85.7935 54.2967 85.8713 54.3643 85.9213 54.4513C85.9348 54.4815 85.9417 54.5142 85.9417 54.5473C85.9417 54.5803 85.9348 54.6131 85.9213 54.6433C85.9012 54.6796 85.874 54.7116 85.8412 54.7372C85.8085 54.7628 85.7709 54.7816 85.7308 54.7923C85.6906 54.8031 85.6487 54.8056 85.6075 54.7998C85.5664 54.794 85.5268 54.7799 85.4912 54.7585L78.4314 52.1396C78.7258 52.3591 79.0416 52.5482 79.3741 52.7041C80.0639 53.0121 80.6755 53.4714 81.1635 54.0481C81.993 55.0234 82.5536 55.227 83.049 55.4074C83.3233 55.495 83.5823 55.6246 83.817 55.7914C84.3795 56.21 84.585 56.7111 84.5447 56.9991C84.5425 57.0477 84.5262 57.0945 84.498 57.1341C84.4697 57.1736 84.4305 57.2041 84.3853 57.2218C84.3621 57.2275 84.338 57.2288 84.3143 57.2257Z" fill="#85340A"/>
<path d="M73.0352 49.9606L82.6352 58.8656C82.6352 58.8656 82.8099 59.0403 82.9251 58.9251C83.0403 58.8099 82.8675 58.6352 82.8675 58.6352L73.9625 49.0352M75.6137 53.3648C76.2454 55.062 77.6547 55.5555 78.1385 57.1049C78.6224 58.6544 79.7936 59.1593 80.2236 59.6604C80.6537 60.1616 80.4022 60.6742 80.6076 60.6857C80.8131 60.6972 80.9916 60.0848 80.5328 59.3091C80.0739 58.5334 79.3404 58.5411 78.7318 56.6633C78.1232 54.7856 77.0537 54.7241 76.5833 52.9692" fill="#F6B40E"/>
<path d="M80.6141 60.7902H80.6025C80.4221 60.7787 80.4105 60.5982 80.4009 60.4503C80.4041 60.1861 80.3129 59.9295 80.1437 59.7265C80 59.5761 79.8439 59.438 79.6771 59.3137C79.1376 58.8856 78.4003 58.2961 78.0374 57.1345C77.8013 56.3799 77.3405 55.8827 76.8509 55.3566C76.3613 54.8305 75.8371 54.266 75.5069 53.3982L75.6989 53.3252C76.0061 54.1508 76.5072 54.6904 76.991 55.2107C77.4749 55.731 77.976 56.2705 78.2256 57.0692C78.5693 58.1713 79.2777 58.7358 79.7942 59.1486C79.9717 59.2806 80.1375 59.4277 80.2896 59.5883C80.4899 59.8256 80.5994 60.1264 80.5987 60.4369C80.5997 60.4807 80.6042 60.5244 80.6121 60.5675C80.6307 60.5475 80.645 60.524 80.6544 60.4983C80.7254 60.3351 80.7561 59.9128 80.4259 59.3617C80.2818 59.136 80.1037 58.934 79.8979 58.7627C79.4889 58.3902 79.0262 57.9659 78.6153 56.6929C78.393 56.0012 78.0176 55.3686 77.5171 54.842C77.1281 54.4342 76.8194 53.9567 76.607 53.4347L72.9609 50.0401L73.1145 49.8807L76.4937 53.0161V52.9931L76.6992 52.9374C76.7357 53.0718 76.776 53.1947 76.8182 53.3118L82.7145 58.7895C82.7337 58.8068 82.824 58.8817 82.8566 58.8491C82.8893 58.8164 82.8144 58.7262 82.799 58.7108L73.8825 49.1127L74.0381 48.9688L82.9449 58.5687C83.0171 58.6409 83.0619 58.736 83.0717 58.8375C83.0717 58.869 83.0654 58.9002 83.0532 58.9292C83.041 58.9582 83.0231 58.9845 83.0006 59.0065C82.9596 59.0461 82.9067 59.071 82.85 59.0773C82.7934 59.0835 82.7363 59.0708 82.6877 59.0411C82.6407 59.0164 82.5975 58.9854 82.559 58.9489L77.039 53.8283C77.226 54.144 77.4455 54.4393 77.6937 54.7095C78.2124 55.2561 78.6015 55.9123 78.8323 56.6295C79.2163 57.8487 79.6656 58.252 80.0553 58.6072C80.2759 58.7928 80.4669 59.011 80.6217 59.2542C80.9827 59.8552 80.9846 60.3966 80.8329 60.6462C80.8127 60.6876 80.7817 60.7228 80.7432 60.7481C80.7047 60.7735 80.6601 60.788 80.6141 60.7902Z" fill="#85340A"/>
<path d="M78.1868 48.6698C79.9148 48.5834 80.6943 47.5965 82.2783 47.7904C81.0265 47.3661 80.055 48.3895 78.2041 48.3319M73.6441 49.8007L81.8175 46.0586L73.3926 49.194" fill="#85340A"/>
<path d="M78.1447 50.5293C79.7844 51.1149 80.873 50.4986 82.2631 51.2839C81.2666 50.4103 79.9783 50.9863 78.2906 50.224M73.5156 49.84L82.4993 49.5002L73.5137 49.1719" fill="#85340A"/>
<path d="M77.3995 52.2273C78.6898 53.3947 79.932 53.243 80.915 54.5006C80.3294 53.314 78.9182 53.3486 77.651 52.0046M73.3867 49.8177L81.8136 52.955L73.6382 49.2148" fill="#85340A"/>
<path d="M76.0575 53.5111C76.8044 55.0836 78.0082 55.4177 78.4364 56.9556C78.35 55.6366 77.0309 55.1316 76.3762 53.3998M73.2754 49.7518L79.8591 55.8727L73.7381 49.2891" fill="#85340A"/>
<path d="M73.4998 54.8355C76.4455 54.8355 78.8335 52.4475 78.8335 49.5017C78.8335 46.556 76.4455 44.168 73.4998 44.168C70.554 44.168 68.166 46.556 68.166 49.5017C68.166 52.4475 70.554 54.8355 73.4998 54.8355Z" fill="#F6B40E"/>
<path d="M73.4992 54.979C72.4158 54.979 71.3568 54.6577 70.456 54.0558C69.5552 53.4539 68.8531 52.5984 68.4385 51.5975C68.0239 50.5965 67.9154 49.4951 68.1267 48.4325C68.3381 47.37 68.8598 46.3939 69.6259 45.6278C70.392 44.8618 71.368 44.3401 72.4306 44.1287C73.4932 43.9173 74.5946 44.0258 75.5955 44.4404C76.5964 44.855 77.4519 45.5571 78.0538 46.4579C78.6557 47.3587 78.977 48.4178 78.977 49.5012C78.9755 50.9535 78.3979 52.3459 77.3709 53.3729C76.344 54.3998 74.9516 54.9774 73.4992 54.979ZM73.4992 44.3172C72.4739 44.3172 71.4717 44.6212 70.6192 45.1909C69.7667 45.7605 69.1022 46.5701 68.7099 47.5174C68.3175 48.4646 68.2148 49.507 68.4149 50.5125C68.6149 51.5181 69.1086 52.4418 69.8336 53.1668C70.5586 53.8918 71.4823 54.3856 72.4879 54.5856C73.4935 54.7856 74.5358 54.683 75.4831 54.2906C76.4303 53.8982 77.24 53.2338 77.8096 52.3813C78.3792 51.5288 78.6832 50.5265 78.6832 49.5012C78.6797 48.1274 78.1324 46.8109 77.161 45.8395C76.1896 44.8681 74.873 44.3207 73.4992 44.3172Z" fill="#85340A"/>
<path d="M75.3182 48.3598C75.1363 48.3547 74.9561 48.3967 74.7953 48.4818C74.6345 48.5669 74.4984 48.6923 74.4004 48.8456C74.8113 49.2142 75.7175 49.2545 76.3319 48.8033C76.2015 48.6649 76.0445 48.5543 75.8703 48.478C75.6961 48.4018 75.5083 48.3616 75.3182 48.3598ZM75.3182 48.4443C75.6734 48.4443 76.0036 48.5998 76.0497 48.7611C75.8601 48.9597 75.6022 49.0789 75.3281 49.0946C75.054 49.1103 74.7842 49.0213 74.5732 48.8456C74.6527 48.7205 74.7629 48.618 74.8933 48.5477C75.0237 48.4775 75.17 48.4418 75.3182 48.4443Z" fill="#843511"/>
<path d="M75.3857 48.1055C74.8519 48.1055 74.7291 48.2283 74.4833 48.4338C74.3628 48.5311 74.2226 48.6012 74.0724 48.6392C74.0321 48.6795 74.0724 48.8024 74.155 48.7621C74.3318 48.6735 74.4969 48.5632 74.6465 48.4338C74.8571 48.2724 75.122 48.1988 75.3857 48.2283C76.1249 48.2283 76.5377 48.8447 76.6164 48.8043C76.6951 48.764 76.2055 48.1074 75.3857 48.1074V48.1055Z" fill="#85340A"/>
<path d="M76.8635 48.3471C75.9208 47.5272 74.7304 47.4043 74.0737 48.0187C73.919 48.2198 73.8144 48.4547 73.7684 48.7042C73.6859 49.1707 73.8318 49.6757 74.1966 50.1941C74.1354 50.2041 74.0785 50.2322 74.0334 50.2747C73.7159 49.7063 73.5983 49.0478 73.6993 48.4047C73.7271 48.2447 73.7702 48.0879 73.828 47.9362C74.7304 47.1989 75.9611 47.1163 76.8635 48.3471Z" fill="#85340A"/>
<path d="M75.3042 49.1279C75.5078 49.1279 75.6728 48.9629 75.6728 48.7593C75.6728 48.5557 75.5078 48.3906 75.3042 48.3906C75.1006 48.3906 74.9355 48.5557 74.9355 48.7593C74.9355 48.9629 75.1006 49.1279 75.3042 49.1279Z" fill="#85340A"/>
<path d="M76.3791 49.0083C75.6821 49.5421 74.9832 49.4999 74.5743 49.2541C74.1653 49.0083 74.1634 48.9258 74.2459 48.9258C74.3285 48.9258 74.4091 49.0083 74.7375 49.1715C75.0658 49.3347 75.5573 49.3367 76.3791 49.0083Z" fill="#85340A"/>
<path d="M72.6823 50.2383C72.5975 50.2549 72.5211 50.3006 72.4664 50.3676C72.4117 50.4345 72.3821 50.5185 72.3828 50.605C72.3831 50.6533 72.3929 50.7011 72.4117 50.7456C72.4304 50.7902 72.4578 50.8305 72.4923 50.8644C72.5267 50.8983 72.5675 50.9251 72.6123 50.9432C72.6571 50.9613 72.7051 50.9703 72.7534 50.9698C72.8125 50.9704 72.8709 50.9565 72.9234 50.9294C72.9759 50.9023 73.021 50.8628 73.0548 50.8143C73.1867 50.8991 73.3417 50.9407 73.4983 50.9333C73.5143 50.9343 73.5304 50.9343 73.5463 50.9333C73.7029 50.9398 73.8576 50.8983 73.9899 50.8143C74.0233 50.8626 74.0681 50.9021 74.1203 50.9292C74.1725 50.9563 74.2306 50.9702 74.2894 50.9698C74.3823 50.972 74.4726 50.939 74.5422 50.8774C74.6118 50.8159 74.6556 50.7303 74.6648 50.6378C74.674 50.5454 74.648 50.4529 74.5919 50.3788C74.5358 50.3047 74.4538 50.2545 74.3623 50.2383C74.4046 50.2533 74.442 50.2795 74.4706 50.3141C74.4991 50.3488 74.5177 50.3905 74.5244 50.4348C74.5311 50.4792 74.5256 50.5246 74.5085 50.566C74.4914 50.6075 74.4633 50.6436 74.4273 50.6704C74.3913 50.6972 74.3487 50.7137 74.3041 50.7181C74.2595 50.7226 74.2144 50.7149 74.1739 50.6957C74.1333 50.6766 74.0986 50.6468 74.0737 50.6095C74.0487 50.5722 74.0343 50.5289 74.0321 50.484C73.988 50.5823 73.9164 50.6658 73.826 50.7243C73.7355 50.7829 73.6301 50.814 73.5223 50.814C73.4146 50.814 73.3092 50.7829 73.2187 50.7243C73.1283 50.6658 73.0567 50.5823 73.0126 50.484C73.0092 50.547 72.9818 50.6064 72.9362 50.6499C72.8905 50.6934 72.8299 50.7179 72.7668 50.7183C72.7088 50.718 72.6528 50.6973 72.6084 50.6599C72.5641 50.6225 72.5343 50.5707 72.5243 50.5135C72.5142 50.4564 72.5245 50.3976 72.5534 50.3473C72.5823 50.297 72.6279 50.2584 72.6823 50.2383Z" fill="#85340A"/>
<path d="M73.0853 51.3281C72.6744 51.3281 72.5093 51.7006 72.1426 51.9464C72.3677 51.8214 72.5863 51.6849 72.7973 51.5374C73.0853 51.3742 73.3291 51.5739 73.4923 51.5739C73.6555 51.5739 73.9013 51.3819 74.1874 51.5374C74.4003 51.6851 74.6207 51.8216 74.8479 51.9464C74.4792 51.7006 74.3103 51.3281 73.8994 51.3281C73.7566 51.3429 73.6183 51.386 73.4923 51.4548C73.3664 51.386 73.228 51.3429 73.0853 51.3281Z" fill="#85340A"/>
<path d="M72.9452 51.8165C72.7128 51.8325 72.4833 51.877 72.2617 51.9489C72.999 51.7838 73.1622 52.0315 73.4905 52.0315C73.8188 52.0315 73.982 51.7838 74.7212 51.9489C73.9014 51.7032 73.7382 51.8645 73.4905 51.8645C73.3099 51.8374 73.1278 51.8213 72.9452 51.8165Z" fill="#85340A"/>
<path d="M72.3001 51.9423H72.1445C73.0066 52.0248 72.5919 52.5183 73.4885 52.5183C74.3909 52.5183 73.982 52.0248 74.8441 51.9423C73.9417 51.8597 74.2277 52.3935 73.4885 52.3935C72.7954 52.3935 73.0085 51.9269 72.2943 51.9365L72.3001 51.9423Z" fill="#85340A"/>
<path d="M74.2392 53.273C74.2443 53.1728 74.229 53.0727 74.1942 52.9787C74.1594 52.8847 74.1058 52.7988 74.0368 52.7261C73.9677 52.6534 73.8846 52.5956 73.7925 52.556C73.7004 52.5165 73.6012 52.4961 73.5009 52.4961C73.4007 52.4961 73.3015 52.5165 73.2094 52.556C73.1172 52.5956 73.0341 52.6534 72.9651 52.7261C72.896 52.7988 72.8425 52.8847 72.8077 52.9787C72.7729 53.0727 72.7576 53.1728 72.7627 53.273C72.8087 53.1127 72.9056 52.9717 73.0387 52.8713C73.1719 52.771 73.3342 52.7167 73.5009 52.7167C73.6677 52.7167 73.8299 52.771 73.9631 52.8713C74.0963 52.9717 74.1932 53.1127 74.2392 53.273Z" fill="#85340A"/>
<path d="M70.1836 48.3471C71.1263 47.5272 72.3167 47.4043 72.9734 48.0187C73.128 48.2198 73.2327 48.4547 73.2786 48.7042C73.3612 49.1707 73.2153 49.6757 72.8505 50.1941C72.9117 50.2041 72.9685 50.2322 73.0137 50.2747C73.3312 49.7063 73.4488 49.0478 73.3478 48.4047C73.32 48.2447 73.2769 48.0879 73.2191 47.9362C72.3167 47.1989 71.086 47.1163 70.1836 48.3471Z" fill="#85340A"/>
<path d="M71.6609 48.1055C72.1946 48.1055 72.3175 48.2283 72.5633 48.4338C72.6838 48.5311 72.824 48.6012 72.9741 48.6392C73.0145 48.6795 72.9741 48.8024 72.8916 48.7621C72.7147 48.6735 72.5496 48.5632 72.4 48.4338C72.1894 48.2724 71.9245 48.1988 71.6609 48.2283C70.9217 48.2283 70.5089 48.8447 70.4301 48.8043C70.3514 48.764 70.841 48.1074 71.6609 48.1074V48.1055Z" fill="#85340A"/>
<path d="M71.6346 48.3598C71.4527 48.3547 71.2725 48.3967 71.1117 48.4818C70.9509 48.5669 70.8148 48.6923 70.7168 48.8456C71.1258 49.2142 72.032 49.2545 72.6483 48.8033C72.5179 48.6649 72.3609 48.5543 72.1867 48.478C72.0125 48.4018 71.8247 48.3616 71.6346 48.3598ZM71.6346 48.4443C71.9878 48.4443 72.32 48.5998 72.3661 48.7611C72.1765 48.9597 71.9186 49.0789 71.6445 49.0946C71.3704 49.1103 71.1006 49.0213 70.8896 48.8456C70.9691 48.7205 71.0793 48.618 71.2097 48.5477C71.3402 48.4775 71.4864 48.4418 71.6346 48.4443Z" fill="#843511"/>
<path d="M71.6831 49.1279C71.8867 49.1279 72.0517 48.9629 72.0517 48.7593C72.0517 48.5557 71.8867 48.3906 71.6831 48.3906C71.4795 48.3906 71.3145 48.5557 71.3145 48.7593C71.3145 48.9629 71.4795 49.1279 71.6831 49.1279Z" fill="#85340A"/>
<path d="M70.6758 49.0083C71.3727 49.5421 72.0716 49.4999 72.4806 49.2541C72.8895 49.0083 72.8915 48.9258 72.8089 48.9258C72.7263 48.9258 72.6457 49.0083 72.3174 49.1715C71.9891 49.3347 71.4975 49.3367 70.6758 49.0083Z" fill="#85340A"/>
</g>
<rect x="1.5" y="1.5" width="144" height="96" stroke="#151519" stroke-width="3" stroke-linecap="round"/>
<defs>
<clipPath id="clip0_210_106986">
<rect x="1.5" y="1.5" width="144" height="96" fill="white"/>
</clipPath>
</defs>
</svg>
