<svg width="147" height="99" viewBox="0 0 147 99" fill="none" xmlns="http://www.w3.org/2000/svg">
<g clip-path="url(#clip0_210_106987)">
<path d="M145.5 1.5H1.5V97.5H145.5V1.5Z" fill="#012169"/>
<path d="M1.5 5.52486L29.4501 19.4999L1.5 33.475V37.4999H9.54984L37.5 23.5248L65.4501 37.4999H73.4999V33.475L45.5498 19.4999L73.4999 5.52486V1.49994H65.4501L37.5 15.475L9.54983 1.49994H1.5L1.5 5.52486Z" fill="white"/>
<path d="M1.5 4.18328L32.1334 19.5H37.5L1.5 37.5H6.86655L37.5 22.1833V19.5L73.4999 37.5V34.8167L42.8665 19.5H37.5L73.4999 1.5H68.1334L37.5 16.8167V19.5L1.5 1.5L1.5 4.18328Z" fill="#E4002B"/>
<path fill-rule="evenodd" clip-rule="evenodd" d="M31.5 13.5V1.5H43.4999V13.5H73.4999V25.5H43.4999V37.5H31.5V25.5H1.5V13.5H31.5Z" fill="white"/>
<path fill-rule="evenodd" clip-rule="evenodd" d="M33.9 15.9V1.5H41.0999V15.9H73.4999V23.1H41.0999V37.5H33.9V23.1H1.5V15.9H33.9Z" fill="#E4002B"/>
<path d="M37.4999 54.0586L40.2768 62.6924L48.7583 59.4803L43.7394 67.0345L51.5389 71.6629L42.5036 72.4489L43.7478 81.4325L37.4999 74.8586L31.252 81.4325L32.4962 72.4489L23.4609 71.6629L31.2604 67.0345L26.2415 59.4803L34.723 62.6924L37.4999 54.0586Z" fill="white"/>
<path d="M113.221 68.8867L114.316 72.2909L117.66 71.0244L115.681 74.0029L118.756 75.8278L115.194 76.1378L115.684 79.6799L113.221 77.0879L110.757 79.6799L111.248 76.1378L107.686 75.8278L110.761 74.0029L108.782 71.0244L112.126 72.2909L113.221 68.8867Z" fill="white"/>
<path d="M93.3498 37.4219L94.4447 40.8261L97.7888 39.5596L95.81 42.5381L98.8852 44.363L95.3227 44.6729L95.8133 48.215L93.3498 45.623L90.8863 48.215L91.3769 44.6729L87.8145 44.363L90.8897 42.5381L88.9108 39.5596L92.2549 40.8261L93.3498 37.4219Z" fill="white"/>
<path d="M113.221 15.8945L114.316 19.2987L117.66 18.0322L115.681 21.0107L118.756 22.8356L115.194 23.1456L115.684 26.6877L113.221 24.0957L110.757 26.6877L111.248 23.1456L107.686 22.8356L110.761 21.0107L108.782 18.0322L112.126 19.2987L113.221 15.8945Z" fill="white"/>
<path d="M130.887 32.125L131.982 35.5292L135.326 34.2627L133.347 37.2412L136.422 39.0661L132.86 39.376L133.35 42.9181L130.887 40.3261L128.423 42.9181L128.914 39.376L125.352 39.0661L128.427 37.2412L126.448 34.2627L129.792 35.5292L130.887 32.125Z" fill="white"/>
<path d="M121.169 48.0664L122.035 50.1875L124.319 50.3549L122.569 51.8333L123.116 54.0579L121.169 52.8504L119.223 54.0579L119.769 51.8333L118.02 50.3549L120.304 50.1875L121.169 48.0664Z" fill="white"/>
</g>
<rect x="1.5" y="1.5" width="144" height="96" stroke="#151519" stroke-width="3" stroke-linecap="round"/>
<defs>
<clipPath id="clip0_210_106987">
<rect x="1.5" y="1.5" width="144" height="96" fill="white"/>
</clipPath>
</defs>
</svg>
