<svg width="147" height="99" viewBox="0 0 147 99" fill="none" xmlns="http://www.w3.org/2000/svg">
<g clip-path="url(#clip0_210_106991)">
<path d="M145.5 1.5L1.5 1.5L1.5 97.5L145.5 97.5L145.5 1.5Z" fill="#002395"/>
<path d="M28.3809 1.5L124.375 1.5L124.375 97.5L28.3809 1.5Z" fill="#FECB00"/>
<path d="M11.1091 3.90828L16.4702 7.80419L14.4212 1.5L7.79705 1.5L5.74805 7.80419L11.1091 3.90828Z" fill="white"/>
<path d="M23.1107 15.9036L28.4662 19.7995L26.4228 13.5009L31.7782 9.60497L25.1541 9.60497L23.1107 3.30078L21.0617 9.60497H14.4375L19.793 13.5009L17.7496 19.7995L23.1107 15.9036Z" fill="white"/>
<path d="M38.4208 25.4992L43.7819 21.6033L37.1577 21.6033L35.1087 15.3047L33.0597 21.6033H26.4355L31.7966 25.4992L29.7476 31.8034L35.1087 27.9075L40.4698 31.8034L38.4208 25.4992Z" fill="white"/>
<path d="M47.1087 39.9036L52.4642 43.7995L50.4208 37.4953L55.7763 33.605H49.1521L47.1087 27.3008L45.0597 33.605H38.4355L43.791 37.4953L41.7476 43.7995L47.1087 39.9036Z" fill="white"/>
<path d="M59.1048 51.9075L64.4659 55.8034L62.4169 49.4992L67.778 45.6033H61.1538L59.1048 39.3047L57.0558 45.6033H50.4316L55.7927 49.4992L53.7437 55.8034L59.1048 51.9075Z" fill="white"/>
<path d="M74.4208 61.5009L79.7763 57.605H73.1521L71.1087 51.3008L69.0597 57.605H62.4355L67.791 61.5009L65.7476 67.7995L71.1087 63.9036L76.4642 67.7995L74.4208 61.5009Z" fill="white"/>
<path d="M83.1009 75.9075L88.462 79.8034L86.413 73.4992L91.7741 69.6033H85.1499L83.1009 63.3047L81.0519 69.6033H74.4277L79.7888 73.4992L77.7398 79.8034L83.1009 75.9075Z" fill="white"/>
<path d="M95.1029 87.9036L100.458 91.7995L98.415 85.4953L103.77 81.605H97.1463L95.1029 75.3008L93.0539 81.605H86.4297L91.7852 85.4953L89.7418 91.7995L95.1029 87.9036Z" fill="white"/>
<path d="M110.413 97.4992L115.774 93.6033H109.15L107.101 87.3047L105.052 93.6033H98.4277L103.789 97.4992H110.413Z" fill="white"/>
</g>
<rect x="1.5" y="1.5" width="144" height="96" stroke="#151519" stroke-width="3" stroke-linecap="round"/>
<defs>
<clipPath id="clip0_210_106991">
<rect x="1.5" y="1.5" width="144" height="96" fill="white"/>
</clipPath>
</defs>
</svg>
