<svg width="147" height="99" viewBox="0 0 147 99" fill="none" xmlns="http://www.w3.org/2000/svg">
<g clip-path="url(#clip0_210_106992)">
<path d="M145.5 1.5H1.5V97.5H145.5V1.5Z" fill="#009B3A"/>
<path d="M17.1562 49.4991L74.0705 85.842L130.985 49.4991L74.0705 13.1562L17.1562 49.4991Z" fill="#FEDF00"/>
<path d="M74.0723 73.5C87.3271 73.5 98.0723 62.7548 98.0723 49.5C98.0723 36.2452 87.3271 25.5 74.0723 25.5C60.8174 25.5 50.0723 36.2452 50.0723 49.5C50.0723 62.7548 60.8174 73.5 74.0723 73.5Z" fill="#002776"/>
<mask id="mask0_210_106992" style="mask-type:luminance" maskUnits="userSpaceOnUse" x="50" y="25" width="49" height="49">
<path d="M74.0723 73.5C87.3271 73.5 98.0723 62.7548 98.0723 49.5C98.0723 36.2452 87.3271 25.5 74.0723 25.5C60.8174 25.5 50.0723 36.2452 50.0723 49.5C50.0723 62.7548 60.8174 73.5 74.0723 73.5Z" fill="white"/>
</mask>
<g mask="url(#mask0_210_106992)">
<path d="M2.07227 97.5006C2.07227 82.0422 8.21307 67.217 19.1438 56.2863C30.0745 45.3556 44.8997 39.2148 60.358 39.2148C75.8163 39.2148 90.6415 45.3556 101.572 56.2863C112.503 67.217 118.644 82.0422 118.644 97.5006H115.215C115.215 82.9515 109.436 68.9984 99.1479 58.7107C88.8601 48.423 74.907 42.6434 60.358 42.6434C45.809 42.6434 31.8558 48.423 21.5681 58.7107C11.2804 68.9984 5.50084 82.9515 5.50084 97.5006H2.07227Z" fill="white"/>
</g>
<path fill-rule="evenodd" clip-rule="evenodd" d="M53.6022 42.4868C53.873 42.4536 54.118 42.3022 54.2833 42.066C54.4486 41.8297 54.5208 41.528 54.4838 41.2272C54.4469 40.9263 54.3039 40.651 54.0863 40.4618C53.8687 40.2726 53.5944 40.1849 53.3236 40.2182C53.0529 40.2514 52.8079 40.4028 52.6425 40.639C52.4772 40.8753 52.4051 41.177 52.442 41.4779C52.479 41.7787 52.6219 42.054 52.8395 42.2432C53.0571 42.4325 53.3314 42.5201 53.6022 42.4868ZM53.5505 42.0655C53.7095 42.046 53.8528 41.9521 53.9488 41.8046C54.0448 41.6571 54.0857 41.468 54.0625 41.2789C54.0393 41.0898 53.9538 40.9162 53.825 40.7963C53.6961 40.6764 53.5344 40.62 53.3754 40.6395C53.2164 40.659 53.0731 40.7529 52.977 40.9004C52.881 41.0479 52.8401 41.237 52.8633 41.4261C52.8866 41.6152 52.972 41.7888 53.1009 41.9087C53.2297 42.0287 53.3914 42.085 53.5505 42.0655Z" fill="#009B3A"/>
<path fill-rule="evenodd" clip-rule="evenodd" d="M55.4714 42.2804L55.8934 42.2522L55.8314 41.4029L56.7403 41.3419C56.9296 41.3292 57.1057 41.2413 57.2298 41.0976C57.3539 40.9538 57.4158 40.766 57.4019 40.5754C57.388 40.3848 57.2995 40.2071 57.1557 40.0813C57.012 39.9555 56.8248 39.892 56.6355 39.9047L55.3371 39.9917L55.4714 42.2804ZM55.8005 40.9782L56.6768 40.9195C56.7543 40.9143 56.8264 40.8783 56.8771 40.8195C56.9279 40.7607 56.9532 40.6839 56.9475 40.6059C56.9418 40.5279 56.9056 40.4552 56.8468 40.4038C56.788 40.3523 56.7114 40.3263 56.634 40.3315L55.7576 40.3903L55.8005 40.9782Z" fill="#009B3A"/>
<path d="M57.4044 42.1434C57.3807 41.8177 57.3284 41.1013 56.8397 41.134L56.2207 41.1756C56.9375 41.1275 56.9897 41.844 57.0135 42.1696" fill="#009B3A"/>
<path fill-rule="evenodd" clip-rule="evenodd" d="M58.3622 42.0976L59.4395 42.0788C59.5682 42.0766 59.6951 42.049 59.8131 41.9977C59.931 41.9464 60.0377 41.8724 60.1271 41.7799C60.2165 41.6873 60.2867 41.5781 60.3339 41.4584C60.381 41.3387 60.4041 41.2109 60.4019 41.0823L60.3962 40.7558C60.3939 40.6272 60.3664 40.5003 60.3151 40.3823C60.2638 40.2643 60.1898 40.1576 60.0972 40.0682C60.0047 39.9789 59.8955 39.9086 59.7758 39.8615C59.6561 39.8143 59.5283 39.7912 59.3997 39.7935L58.3223 39.8123L58.3622 42.0976ZM58.7792 41.6658L59.3995 41.655C59.564 41.6521 59.7206 41.584 59.8349 41.4656C59.9492 41.3473 60.0118 41.1884 60.009 41.0238L60.0056 40.8279C60.0027 40.6634 59.9346 40.5068 59.8162 40.3925C59.6979 40.2782 59.5389 40.2156 59.3744 40.2185L58.7541 40.2293L58.7792 41.6658Z" fill="#009B3A"/>
<path d="M61.264 42.0692L63.3199 42.141L63.3347 41.7168L61.6704 41.6587L61.6909 41.0713L62.9962 41.1169L63.0099 40.7253L61.7046 40.6797L61.7205 40.2228L63.2869 40.2775L63.3017 39.8533L61.3438 39.7849L61.264 42.0692Z" fill="#009B3A"/>
<path d="M64.1641 42.1948L64.5544 42.2289L64.691 40.6675L65.0098 42.2687L65.3676 42.3001L65.9596 40.7785L65.823 42.3399L66.2134 42.374L66.4126 40.097L65.8433 40.0472L65.2513 41.5688L64.9325 39.9675L64.3633 39.9177L64.1641 42.1948Z" fill="#009B3A"/>
<path d="M68.8997 42.7264L70.5892 43.0167L70.6556 42.6306L69.3522 42.4066L69.4407 41.8917L70.5027 42.0742L70.569 41.688L69.507 41.5055L69.5679 41.1515L70.831 41.3686L70.8973 40.9824L69.248 40.699L68.8997 42.7264Z" fill="#009B3A"/>
<path fill-rule="evenodd" clip-rule="evenodd" d="M73.2402 43.5799L73.6512 43.6862L73.8637 42.8642L74.7489 43.0931C74.9334 43.1408 75.1292 43.1133 75.2934 43.0166C75.4575 42.9199 75.5766 42.762 75.6243 42.5775C75.672 42.3931 75.6444 42.1972 75.5477 42.033C75.451 41.8689 75.2931 41.7499 75.1086 41.7022L73.8441 41.3751L73.2402 43.5799ZM73.97 42.4532L74.8236 42.674C74.899 42.6935 74.9792 42.6822 75.0463 42.6427C75.1135 42.6031 75.1622 42.5385 75.1817 42.4631C75.2012 42.3876 75.1899 42.3075 75.1504 42.2403C75.1108 42.1732 75.0462 42.1245 74.9707 42.105L74.1172 41.8842L73.97 42.4532Z" fill="#009B3A"/>
<path fill-rule="evenodd" clip-rule="evenodd" d="M76.0441 44.3472L76.4447 44.4709L76.7076 43.6541L77.5705 43.9206C77.7503 43.9761 77.9461 43.9566 78.115 43.8662C78.2839 43.7759 78.4119 43.6222 78.4709 43.4389C78.5299 43.2556 78.515 43.0577 78.4296 42.8889C78.3442 42.72 78.1952 42.5939 78.0154 42.5384L76.7828 42.1577L76.0441 44.3472ZM76.8391 43.2458L77.6711 43.5027C77.7447 43.5254 77.8248 43.5174 77.8939 43.4805C77.963 43.4435 78.0153 43.3806 78.0395 43.3056C78.0636 43.2306 78.0575 43.1497 78.0226 43.0806C77.9876 43.0115 77.9267 42.96 77.8531 42.9373L77.0211 42.6803L76.8391 43.2458Z" fill="#009B3A"/>
<path d="M77.8872 44.9122C77.9884 44.5977 78.2111 43.9058 77.7483 43.7628L77.1621 43.5818C77.8409 43.7914 77.6182 44.4833 77.5169 44.7978" fill="#009B3A"/>
<path fill-rule="evenodd" clip-rule="evenodd" d="M79.7684 45.583C80.0239 45.6785 80.3112 45.6574 80.5669 45.5242C80.8226 45.391 81.026 45.1566 81.1321 44.8727C81.2383 44.5888 81.2385 44.2786 81.1329 44.0103C81.0273 43.742 80.8244 43.5376 80.5689 43.442C80.3134 43.3465 80.0262 43.3676 79.7704 43.5008C79.5147 43.634 79.3114 43.8684 79.2052 44.1523C79.0991 44.4362 79.0988 44.7464 79.2044 45.0147C79.31 45.283 79.5129 45.4874 79.7684 45.583ZM79.9171 45.1854C80.0672 45.2415 80.2376 45.2244 80.3909 45.1379C80.5442 45.0514 80.6678 44.9025 80.7345 44.7241C80.8012 44.5456 80.8056 44.3522 80.7467 44.1863C80.6877 44.0204 80.5703 43.8957 80.4202 43.8396C80.2702 43.7835 80.0998 43.8006 79.9465 43.8871C79.7932 43.9736 79.6696 44.1225 79.6028 44.3009C79.5361 44.4794 79.5317 44.6728 79.5907 44.8387C79.6496 45.0046 79.767 45.1293 79.9171 45.1854Z" fill="#009B3A"/>
<mask id="mask1_210_106992" style="mask-type:luminance" maskUnits="userSpaceOnUse" x="81" y="44" width="4" height="4">
<path d="M81.5141 46.2879L82.4531 44.1658L84.3121 44.9601L83.3731 47.0822L81.5141 46.2879ZM83.0741 45.2602L82.9131 45.624L83.8426 46.0211L84.0035 45.6573L83.0741 45.2602Z" fill="white"/>
</mask>
<g mask="url(#mask1_210_106992)">
<path fill-rule="evenodd" clip-rule="evenodd" d="M82.4439 46.6844C82.6906 46.7899 82.9766 46.7794 83.2389 46.6551C83.5013 46.5309 83.7185 46.3031 83.8428 46.0218C83.9672 45.7406 83.9884 45.429 83.9018 45.1555C83.8153 44.882 83.6281 44.6691 83.3814 44.5636C83.1347 44.4581 82.8487 44.4686 82.5863 44.5929C82.324 44.7171 82.1067 44.9449 81.9824 45.2262C81.8581 45.5074 81.8369 45.819 81.9234 46.0925C82.0099 46.366 82.1971 46.5789 82.4439 46.6844ZM82.618 46.2905C82.7629 46.3525 82.9329 46.3417 83.0906 46.2605C83.2483 46.1793 83.3808 46.0344 83.4589 45.8576C83.5371 45.6809 83.5545 45.4867 83.5073 45.3179C83.4601 45.1491 83.3522 45.0194 83.2073 44.9575C83.0624 44.8955 82.8924 44.9063 82.7347 44.9875C82.577 45.0687 82.4445 45.2136 82.3663 45.3904C82.2882 45.5671 82.2708 45.7613 82.318 45.9301C82.3652 46.0989 82.4731 46.2286 82.618 46.2905Z" fill="#009B3A"/>
</g>
<path d="M83.8581 46.0289L83.0684 45.6892L82.9344 45.994L83.7242 46.3337L83.8581 46.0289Z" fill="#009B3A"/>
<path d="M83.8579 46.0305L83.5645 45.9041L83.1028 46.9559L83.3962 47.0823L83.8579 46.0305Z" fill="#009B3A"/>
<path fill-rule="evenodd" clip-rule="evenodd" d="M84.1698 47.4545L84.5457 47.64L84.9317 46.8734L85.7413 47.2731C85.91 47.3564 86.1062 47.368 86.2868 47.3052C86.4673 47.2425 86.6174 47.1105 86.704 46.9385C86.7907 46.7665 86.8067 46.5684 86.7487 46.3878C86.6906 46.2073 86.5632 46.059 86.3945 45.9757L85.2379 45.4047L84.1698 47.4545ZM85.1247 46.4901L85.9054 46.8755C85.9744 46.9096 86.0547 46.9143 86.1285 46.8887C86.2024 46.863 86.2638 46.809 86.2992 46.7386C86.3347 46.6683 86.3412 46.5872 86.3175 46.5134C86.2937 46.4395 86.2416 46.3788 86.1726 46.3448L85.3919 45.9593L85.1247 46.4901Z" fill="#009B3A"/>
<path d="M85.8992 48.3014C86.0479 48.0062 86.3748 47.3568 85.9406 47.1424L85.3906 46.8709C86.0275 47.1853 85.7005 47.8347 85.5519 48.1299" fill="#009B3A"/>
<path d="M86.7573 48.7509L88.5477 49.7639L88.7567 49.3944L87.3073 48.5744L87.5968 48.0628L88.7336 48.706L88.9265 48.3649L87.7897 47.7218L88.0148 47.3239L89.379 48.0957L89.588 47.7262L87.8828 46.7615L86.7573 48.7509Z" fill="#009B3A"/>
<path d="M90.0915 49.8716C89.9687 50.0644 90.0932 50.2792 90.3686 50.4547C90.6439 50.6301 90.8315 50.6238 90.9107 50.5C91.1607 50.1076 89.7154 49.5352 90.1609 48.8511C90.545 48.2634 91.2021 48.7208 91.45 48.8787C91.6978 49.0366 92.0958 49.445 91.7863 49.9157L91.3663 49.6481C91.4979 49.4416 91.3534 49.243 91.1331 49.1027C90.9196 48.9667 90.7462 48.9046 90.619 49.1043C90.406 49.4235 91.8226 50.0259 91.3883 50.7075C91.0681 51.2101 90.511 50.9907 90.1393 50.7538C89.8225 50.5521 89.3493 50.0764 89.6577 49.5953L90.0915 49.8716Z" fill="#009B3A"/>
<path d="M92.5435 51.4926C92.4108 51.6787 92.5239 51.8997 92.7897 52.0893C93.0556 52.2789 93.2432 52.2824 93.3288 52.163C93.599 51.7842 92.1856 51.137 92.6662 50.4771C93.0806 49.9103 93.7129 50.4015 93.9521 50.5721C94.1914 50.7428 94.5675 51.1715 94.2337 51.6253L93.8283 51.3361C93.9705 51.1367 93.8366 50.9309 93.6239 50.7792C93.4179 50.6322 93.248 50.5612 93.1105 50.7539C92.8811 51.0615 94.2642 51.7372 93.7949 52.3952C93.4488 52.8803 92.904 52.632 92.5451 52.3761C92.2394 52.158 91.7917 51.6582 92.1249 51.1939L92.5435 51.4926Z" fill="#009B3A"/>
<path fill-rule="evenodd" clip-rule="evenodd" d="M94.8625 54.1203C95.076 54.2901 95.3557 54.3587 95.6401 54.3111C95.9245 54.2634 96.1903 54.1034 96.379 53.8662C96.5676 53.629 96.6638 53.334 96.6463 53.0462C96.6287 52.7584 96.4989 52.5013 96.2854 52.3315C96.0719 52.1617 95.7922 52.093 95.5079 52.1407C95.2235 52.1883 94.9577 52.3484 94.769 52.5856C94.5803 52.8228 94.4842 53.1178 94.5017 53.4056C94.5193 53.6934 94.6491 53.9505 94.8625 54.1203ZM95.1268 53.7881C95.2522 53.8878 95.4195 53.9242 95.5921 53.8893C95.7646 53.8544 95.9281 53.751 96.0468 53.6019C96.1654 53.4528 96.2293 53.2702 96.2245 53.0943C96.2197 52.9183 96.1466 52.7634 96.0212 52.6637C95.8958 52.564 95.7284 52.5275 95.5559 52.5624C95.3834 52.5974 95.2198 52.7007 95.1012 52.8498C94.9826 52.9989 94.9187 53.1816 94.9235 53.3575C94.9283 53.5335 95.0014 53.6884 95.1268 53.7881Z" fill="#009B3A"/>
<path d="M54.4785 44.1602L54.1607 45.1384L54.6498 45.2973" fill="white"/>
<path d="M54.4785 44.1602L54.7964 45.1384L54.3072 45.2973" fill="white"/>
<path d="M55.4512 44.8828L54.4286 44.8713L54.4346 45.3741" fill="white"/>
<path d="M55.457 44.8789L54.6312 45.477L54.3257 45.0581" fill="white"/>
<path d="M53.5 44.8789L54.3258 45.477L54.6313 45.0581" fill="white"/>
<path d="M53.5059 44.8828L54.5284 44.8713L54.5224 45.3741" fill="white"/>
<path d="M55.084 46.0237L54.7615 45.0421L54.277 45.1977" fill="white"/>
<path d="M55.0879 46.0198L54.2524 45.4115L54.5514 44.9991" fill="white"/>
<path d="M53.8711 46.0193L54.7066 45.411L54.4076 44.9987" fill="white"/>
<path d="M53.875 46.0232L54.1975 45.0417L54.682 45.1973" fill="white"/>
<path d="M56.6016 54.25L56.2837 55.2282L56.7728 55.3872" fill="white"/>
<path d="M56.6016 54.25L56.9194 55.2282L56.4303 55.3872" fill="white"/>
<path d="M57.5742 54.9727L56.5517 54.9612L56.5577 55.464" fill="white"/>
<path d="M57.5801 54.9688L56.7543 55.5668L56.4487 55.1479" fill="white"/>
<path d="M55.623 54.9688L56.4489 55.5668L56.7544 55.1479" fill="white"/>
<path d="M55.6289 54.9727L56.6515 54.9612L56.6454 55.464" fill="white"/>
<path d="M57.207 56.1135L56.8845 55.132L56.4001 55.2875" fill="white"/>
<path d="M57.2109 56.1096L56.3755 55.5013L56.6744 55.089" fill="white"/>
<path d="M55.9941 56.1092L56.8296 55.5009L56.5307 55.0885" fill="white"/>
<path d="M55.998 56.1131L56.3206 55.1315L56.805 55.2871" fill="white"/>
<path d="M53.6621 56.5781L53.3972 57.3933L53.8048 57.5258" fill="white"/>
<path d="M53.6621 56.5781L53.927 57.3933L53.5194 57.5258" fill="white"/>
<path d="M54.4727 57.1795L53.6205 57.1699L53.6256 57.5889" fill="white"/>
<path d="M54.4785 57.1756L53.7903 57.674L53.5357 57.3249" fill="white"/>
<path d="M52.8457 57.1758L53.5339 57.6742L53.7885 57.3251" fill="white"/>
<path d="M52.8516 57.1797L53.7037 57.1701L53.6987 57.5891" fill="white"/>
<path d="M54.166 58.1328L53.8972 57.3148L53.4935 57.4445" fill="white"/>
<path d="M54.1699 58.1289L53.4737 57.622L53.7228 57.2784" fill="white"/>
<path d="M53.1543 58.1289L53.8505 57.622L53.6014 57.2784" fill="white"/>
<path d="M53.1582 58.1328L53.427 57.3148L53.8307 57.4445" fill="white"/>
<path d="M58.9551 53.3203L58.8037 53.7861L59.0366 53.8618" fill="white"/>
<path d="M58.9551 53.3203L59.1064 53.7861L58.8735 53.8618" fill="white"/>
<path d="M59.416 53.668L58.9291 53.6625L58.932 53.9019" fill="white"/>
<path d="M59.4199 53.6641L59.0267 53.9488L58.8812 53.7494" fill="white"/>
<path d="M58.4883 53.6602L58.8815 53.9449L59.027 53.7455" fill="white"/>
<path d="M58.4902 53.6641L58.9772 53.6586L58.9743 53.898" fill="white"/>
<path d="M59.2422 54.207L59.0886 53.7396L58.8579 53.8137" fill="white"/>
<path d="M59.2441 54.207L58.8431 53.9151L58.9848 53.7196" fill="white"/>
<path d="M58.6621 54.207L59.0631 53.9151L58.9215 53.7196" fill="white"/>
<path d="M58.6641 54.207L58.8176 53.7396L59.0483 53.8137" fill="white"/>
<path d="M61.5977 56.8047L61.3328 57.6199L61.7404 57.7523" fill="white"/>
<path d="M61.5977 56.8047L61.8625 57.6199L61.4549 57.7523" fill="white"/>
<path d="M62.4082 57.4061L61.5561 57.3965L61.5611 57.8155" fill="white"/>
<path d="M62.4141 57.4022L61.7259 57.9005L61.4713 57.5515" fill="white"/>
<path d="M60.7812 57.4023L61.4694 57.9007L61.724 57.5516" fill="white"/>
<path d="M60.7871 57.4062L61.6392 57.3967L61.6342 57.8157" fill="white"/>
<path d="M62.1016 58.3594L61.8328 57.5414L61.4291 57.6711" fill="white"/>
<path d="M62.1055 58.3555L61.4092 57.8486L61.6584 57.5049" fill="white"/>
<path d="M61.0898 58.3555L61.7861 57.8486L61.537 57.5049" fill="white"/>
<path d="M61.0938 58.3594L61.3625 57.5414L61.7662 57.6711" fill="white"/>
<path d="M60.8809 59.3594L60.669 60.0115L60.995 60.1175" fill="white"/>
<path d="M60.8809 59.3594L61.0928 60.0115L60.7667 60.1175" fill="white"/>
<path d="M61.5254 59.8398L60.8437 59.8322L60.8477 60.1674" fill="white"/>
<path d="M61.5293 59.8359L60.9787 60.2346L60.7751 59.9554" fill="white"/>
<path d="M60.2266 59.8398L60.7771 60.2385L60.9808 59.9593" fill="white"/>
<path d="M60.2305 59.8438L60.9122 59.8361L60.9082 60.1713" fill="white"/>
<path d="M61.2812 60.6016L61.0662 59.9472L60.7433 60.0509" fill="white"/>
<path d="M61.2832 60.5977L60.7262 60.1921L60.9255 59.9172" fill="white"/>
<path d="M60.4746 60.6016L61.0316 60.196L60.8323 59.9211" fill="white"/>
<path d="M60.4766 60.6016L60.6916 59.9472L61.0145 60.0509" fill="white"/>
<path d="M81.5156 41.0273L81.1978 42.0056L81.6869 42.1645" fill="white"/>
<path d="M81.5156 41.0273L81.8335 42.0056L81.3444 42.1645" fill="white"/>
<path d="M82.4883 41.75L81.4657 41.7385L81.4718 42.2413" fill="white"/>
<path d="M82.4941 41.7461L81.6683 42.3441L81.3628 41.9252" fill="white"/>
<path d="M80.5371 41.7461L81.3629 42.3441L81.6685 41.9252" fill="white"/>
<path d="M80.543 41.75L81.5655 41.7385L81.5595 42.2413" fill="white"/>
<path d="M82.1211 42.8909L81.7986 41.9093L81.3141 42.0649" fill="white"/>
<path d="M82.125 42.8869L81.2895 42.2787L81.5885 41.8663" fill="white"/>
<path d="M80.9082 42.8865L81.7437 42.2782L81.4447 41.8659" fill="white"/>
<path d="M80.9121 42.8904L81.2346 41.9089L81.7191 42.0644" fill="white"/>
<path d="M90.8867 56.8945L90.5689 57.8728L91.058 58.0317" fill="white"/>
<path d="M90.8867 56.8945L91.2046 57.8728L90.7154 58.0317" fill="white"/>
<path d="M91.8594 57.6172L90.8368 57.6057L90.8429 58.1085" fill="white"/>
<path d="M91.8652 57.6133L91.0394 58.2113L90.7339 57.7924" fill="white"/>
<path d="M89.9082 57.6133L90.734 58.2113L91.0396 57.7924" fill="white"/>
<path d="M89.9141 57.6172L90.9366 57.6057L90.9306 58.1085" fill="white"/>
<path d="M91.4922 58.758L91.1697 57.7765L90.6852 57.9321" fill="white"/>
<path d="M91.4961 58.7541L90.6606 58.1459L90.9596 57.7335" fill="white"/>
<path d="M90.2793 58.7537L91.1148 58.1454L90.8158 57.733" fill="white"/>
<path d="M90.2832 58.7576L90.6057 57.776L91.0902 57.9316" fill="white"/>
<path d="M94.2207 57.4688L94.0088 58.1209L94.3349 58.2269" fill="white"/>
<path d="M94.2207 57.4688L94.4326 58.1209L94.1065 58.2269" fill="white"/>
<path d="M94.8652 57.9492L94.1835 57.9416L94.1876 58.2768" fill="white"/>
<path d="M94.8691 57.9453L94.3186 58.344L94.1149 58.0647" fill="white"/>
<path d="M93.5664 57.9492L94.117 58.3479L94.3206 58.0687" fill="white"/>
<path d="M93.5703 57.9531L94.252 57.9455L94.248 58.2807" fill="white"/>
<path d="M94.6211 58.7109L94.4061 58.0566L94.0831 58.1603" fill="white"/>
<path d="M94.623 58.707L94.0661 58.3015L94.2654 58.0266" fill="white"/>
<path d="M93.8145 58.7109L94.3714 58.3054L94.1721 58.0305" fill="white"/>
<path d="M93.8164 58.7109L94.0314 58.0566L94.3544 58.1603" fill="white"/>
<path d="M91.8672 59.1914L91.6023 60.0066L92.0099 60.139" fill="white"/>
<path d="M91.8672 59.1914L92.1321 60.0066L91.7245 60.139" fill="white"/>
<path d="M92.6777 59.7928L91.8256 59.7832L91.8306 60.2022" fill="white"/>
<path d="M92.6836 59.7889L91.9954 60.2873L91.7408 59.9382" fill="white"/>
<path d="M91.0508 59.7891L91.739 60.2874L91.9936 59.9384" fill="white"/>
<path d="M91.0566 59.793L91.9088 59.7834L91.9037 60.2024" fill="white"/>
<path d="M92.3711 60.7461L92.1023 59.9281L91.6986 60.0578" fill="white"/>
<path d="M92.375 60.7422L91.6788 60.2353L91.9279 59.8916" fill="white"/>
<path d="M91.3594 60.7422L92.0556 60.2353L91.8065 59.8916" fill="white"/>
<path d="M91.3633 60.7461L91.632 59.9281L92.0357 60.0578" fill="white"/>
<path d="M86.0879 64.2188L85.823 65.0339L86.2306 65.1664" fill="white"/>
<path d="M86.0879 64.2188L86.3528 65.0339L85.9452 65.1664" fill="white"/>
<path d="M86.8984 64.8201L86.0463 64.8106L86.0513 65.2296" fill="white"/>
<path d="M86.9043 64.8162L86.2161 65.3146L85.9615 64.9655" fill="white"/>
<path d="M85.2715 64.8164L85.9597 65.3148L86.2143 64.9657" fill="white"/>
<path d="M85.2773 64.8203L86.1295 64.8107L86.1244 65.2298" fill="white"/>
<path d="M86.5918 65.7734L86.323 64.9555L85.9193 65.0851" fill="white"/>
<path d="M86.5957 65.7695L85.8995 65.2626L86.1486 64.919" fill="white"/>
<path d="M85.5801 65.7695L86.2763 65.2626L86.0272 64.919" fill="white"/>
<path d="M85.584 65.7734L85.8528 64.9555L86.2565 65.0851" fill="white"/>
<path d="M86.0566 66.8047L85.8447 67.4568L86.1708 67.5628" fill="white"/>
<path d="M86.0566 66.8047L86.2685 67.4568L85.9425 67.5628" fill="white"/>
<path d="M86.7012 67.2852L86.0195 67.2775L86.0235 67.6127" fill="white"/>
<path d="M86.7051 67.2812L86.1545 67.6799L85.9508 67.4007" fill="white"/>
<path d="M85.4023 67.2852L85.9529 67.6839L86.1566 67.4046" fill="white"/>
<path d="M85.4062 67.2891L86.0879 67.2814L86.0839 67.6166" fill="white"/>
<path d="M86.457 68.0469L86.242 67.3925L85.9191 67.4962" fill="white"/>
<path d="M86.459 68.043L85.902 67.6375L86.1013 67.3625" fill="white"/>
<path d="M85.6504 68.0469L86.2074 67.6414L86.0081 67.3664" fill="white"/>
<path d="M85.6523 68.0469L85.8674 67.3925L86.1903 67.4962" fill="white"/>
<path d="M88.4746 62.4961L88.2627 63.1482L88.5888 63.2542" fill="white"/>
<path d="M88.4746 62.4961L88.6865 63.1482L88.3604 63.2542" fill="white"/>
<path d="M89.1191 62.9766L88.4374 62.9689L88.4415 63.3041" fill="white"/>
<path d="M89.123 62.9727L88.5725 63.3714L88.3688 63.0921" fill="white"/>
<path d="M87.8203 62.9766L88.3709 63.3753L88.5745 63.096" fill="white"/>
<path d="M87.8242 62.9805L88.5059 62.9728L88.5019 63.308" fill="white"/>
<path d="M88.875 63.7383L88.66 63.0839L88.337 63.1876" fill="white"/>
<path d="M88.877 63.7344L88.32 63.3289L88.5193 63.0539" fill="white"/>
<path d="M88.0684 63.7383L88.6253 63.3328L88.426 63.0579" fill="white"/>
<path d="M88.0703 63.7383L88.2853 63.0839L88.6083 63.1876" fill="white"/>
<path d="M90.3965 61.1172L90.1316 61.9324L90.5392 62.0648" fill="white"/>
<path d="M90.3965 61.1172L90.6614 61.9324L90.2538 62.0648" fill="white"/>
<path d="M91.207 61.7186L90.3549 61.709L90.3599 62.128" fill="white"/>
<path d="M91.2129 61.7147L90.5247 62.213L90.2701 61.864" fill="white"/>
<path d="M89.5801 61.7148L90.2683 62.2132L90.5229 61.8641" fill="white"/>
<path d="M89.5859 61.7188L90.4381 61.7092L90.433 62.1282" fill="white"/>
<path d="M90.9004 62.6719L90.6316 61.8539L90.2279 61.9836" fill="white"/>
<path d="M90.9043 62.668L90.2081 62.1611L90.4572 61.8174" fill="white"/>
<path d="M89.8887 62.668L90.5849 62.1611L90.3358 61.8174" fill="white"/>
<path d="M89.8926 62.6719L90.1613 61.8539L90.565 61.9836" fill="white"/>
<path d="M85.9902 62.0391L85.7783 62.6912L86.1044 62.7972" fill="white"/>
<path d="M85.9902 62.0391L86.2021 62.6912L85.8761 62.7972" fill="white"/>
<path d="M86.6348 62.5195L85.9531 62.5119L85.9571 62.8471" fill="white"/>
<path d="M86.6387 62.5156L86.0881 62.9143L85.8844 62.6351" fill="white"/>
<path d="M85.3359 62.5195L85.8865 62.9182L86.0902 62.639" fill="white"/>
<path d="M85.3398 62.5234L86.0215 62.5158L86.0175 62.851" fill="white"/>
<path d="M86.3906 63.2812L86.1756 62.6269L85.8527 62.7306" fill="white"/>
<path d="M86.3926 63.2773L85.8356 62.8718L86.0349 62.5969" fill="white"/>
<path d="M85.584 63.2812L86.141 62.8757L85.9417 62.6008" fill="white"/>
<path d="M85.5859 63.2812L85.801 62.6269L86.1239 62.7306" fill="white"/>
<path d="M64.9277 49.6211L64.6629 50.4363L65.0705 50.5687" fill="white"/>
<path d="M64.9277 49.6211L65.1926 50.4363L64.785 50.5687" fill="white"/>
<path d="M65.7383 50.2225L64.8862 50.2129L64.8912 50.6319" fill="white"/>
<path d="M65.7441 50.2186L65.056 50.7169L64.8013 50.3679" fill="white"/>
<path d="M64.1113 50.2188L64.7995 50.7171L65.0541 50.368" fill="white"/>
<path d="M64.1172 50.2227L64.9693 50.2131L64.9643 50.6321" fill="white"/>
<path d="M65.4316 51.1758L65.1629 50.3578L64.7592 50.4875" fill="white"/>
<path d="M65.4355 51.1719L64.7393 50.665L64.9884 50.3213" fill="white"/>
<path d="M64.4199 51.1719L65.1162 50.665L64.867 50.3213" fill="white"/>
<path d="M64.4238 51.1758L64.6926 50.3578L65.0963 50.4875" fill="white"/>
<path d="M80.6035 47.6055L80.3916 48.2576L80.7177 48.3636" fill="white"/>
<path d="M80.6035 47.6055L80.8154 48.2576L80.4893 48.3636" fill="white"/>
<path d="M81.248 48.0859L80.5663 48.0783L80.5704 48.4135" fill="white"/>
<path d="M81.252 48.082L80.7014 48.4807L80.4977 48.2015" fill="white"/>
<path d="M79.9492 48.0859L80.4998 48.4846L80.7035 48.2054" fill="white"/>
<path d="M79.9531 48.0898L80.6348 48.0822L80.6308 48.4174" fill="white"/>
<path d="M81.0039 48.8477L80.7889 48.1933L80.4659 48.297" fill="white"/>
<path d="M81.0059 48.8438L80.4489 48.4382L80.6482 48.1633" fill="white"/>
<path d="M80.1973 48.8477L80.7542 48.4421L80.555 48.1672" fill="white"/>
<path d="M80.1992 48.8477L80.4142 48.1933L80.7372 48.297" fill="white"/>
<path d="M74.0703 59.2461L73.7525 60.2243L74.2416 60.3832" fill="white"/>
<path d="M74.0703 59.2461L74.3882 60.2243L73.899 60.3832" fill="white"/>
<path d="M75.043 59.9688L74.0204 59.9573L74.0264 60.4601" fill="white"/>
<path d="M75.0488 59.9648L74.223 60.5629L73.9175 60.144" fill="white"/>
<path d="M73.0918 59.9648L73.9176 60.5629L74.2231 60.144" fill="white"/>
<path d="M73.0977 59.9688L74.1202 59.9573L74.1142 60.4601" fill="white"/>
<path d="M74.6758 61.1096L74.3533 60.128L73.8688 60.2836" fill="white"/>
<path d="M74.6797 61.1057L73.8442 60.4974L74.1432 60.0851" fill="white"/>
<path d="M73.4629 61.1053L74.2984 60.497L73.9994 60.0846" fill="white"/>
<path d="M73.4668 61.1092L73.7893 60.1276L74.2738 60.2832" fill="white"/>
<path d="M76.8457 54.6523L76.5808 55.4675L76.9884 55.6" fill="white"/>
<path d="M76.8457 54.6523L77.1106 55.4675L76.703 55.6" fill="white"/>
<path d="M77.6562 55.2537L76.8041 55.2442L76.8091 55.6632" fill="white"/>
<path d="M77.6621 55.2498L76.9739 55.7482L76.7193 55.3991" fill="white"/>
<path d="M76.0293 55.25L76.7175 55.7484L76.9721 55.3993" fill="white"/>
<path d="M76.0352 55.2539L76.8873 55.2443L76.8823 55.6633" fill="white"/>
<path d="M77.3496 56.207L77.0808 55.3891L76.6771 55.5187" fill="white"/>
<path d="M77.3535 56.2031L76.6573 55.6962L76.9064 55.3526" fill="white"/>
<path d="M76.3379 56.2031L77.0341 55.6962L76.785 55.3526" fill="white"/>
<path d="M76.3418 56.207L76.6106 55.3891L77.0143 55.5187" fill="white"/>
<path d="M74.0703 52.4961L73.8054 53.3113L74.213 53.4437" fill="white"/>
<path d="M74.0703 52.4961L74.3352 53.3113L73.9276 53.4437" fill="white"/>
<path d="M74.8809 53.0975L74.0287 53.0879L74.0338 53.5069" fill="white"/>
<path d="M74.8867 53.0936L74.1985 53.5919L73.9439 53.2429" fill="white"/>
<path d="M73.2539 53.0938L73.9421 53.5921L74.1967 53.243" fill="white"/>
<path d="M73.2598 53.0977L74.1119 53.0881L74.1069 53.5071" fill="white"/>
<path d="M74.5742 54.0508L74.3055 53.2328L73.9018 53.3625" fill="white"/>
<path d="M74.5781 54.0469L73.8819 53.54L74.131 53.1963" fill="white"/>
<path d="M73.5625 54.0469L74.2587 53.54L74.0096 53.1963" fill="white"/>
<path d="M73.5664 54.0508L73.8352 53.2328L74.2389 53.3625" fill="white"/>
<path d="M71.6582 54.8242L71.4463 55.4764L71.7724 55.5823" fill="white"/>
<path d="M71.6582 54.8242L71.8701 55.4764L71.544 55.5823" fill="white"/>
<path d="M72.3027 55.3047L71.621 55.297L71.6251 55.6322" fill="white"/>
<path d="M72.3066 55.3008L71.7561 55.6995L71.5524 55.4202" fill="white"/>
<path d="M71.0039 55.3047L71.5545 55.7034L71.7581 55.4241" fill="white"/>
<path d="M71.0078 55.3086L71.6895 55.3009L71.6855 55.6361" fill="white"/>
<path d="M72.0586 56.0664L71.8436 55.412L71.5206 55.5158" fill="white"/>
<path d="M72.0605 56.0625L71.5036 55.657L71.7029 55.3821" fill="white"/>
<path d="M71.252 56.0664L71.8089 55.6609L71.6096 55.386" fill="white"/>
<path d="M71.2539 56.0664L71.4689 55.412L71.7919 55.5158" fill="white"/>
<path d="M72.8652 56.6836L72.7139 57.1494L72.9468 57.2251" fill="white"/>
<path d="M72.8652 56.6836L73.0166 57.1494L72.7837 57.2251" fill="white"/>
<path d="M73.3262 57.0312L72.8392 57.0258L72.8421 57.2652" fill="white"/>
<path d="M73.3301 57.0273L72.9368 57.3121L72.7913 57.1127" fill="white"/>
<path d="M72.3984 57.0234L72.7917 57.3082L72.9372 57.1087" fill="white"/>
<path d="M72.4004 57.0273L72.8873 57.0219L72.8844 57.2613" fill="white"/>
<path d="M73.1523 57.5703L72.9988 57.1029L72.7681 57.177" fill="white"/>
<path d="M73.1543 57.5703L72.7533 57.2783L72.8949 57.0829" fill="white"/>
<path d="M72.5723 57.5703L72.9733 57.2783L72.8316 57.0829" fill="white"/>
<path d="M72.5742 57.5703L72.7278 57.1029L72.9585 57.177" fill="white"/>
<path d="M81.2539 64.8047L80.989 65.6199L81.3966 65.7523" fill="white"/>
<path d="M81.2539 64.8047L81.5188 65.6199L81.1112 65.7523" fill="white"/>
<path d="M82.0645 65.4061L81.2123 65.3965L81.2174 65.8155" fill="white"/>
<path d="M82.0703 65.4022L81.3821 65.9005L81.1275 65.5515" fill="white"/>
<path d="M80.4375 65.4023L81.1257 65.9007L81.3803 65.5516" fill="white"/>
<path d="M80.4434 65.4062L81.2955 65.3967L81.2905 65.8157" fill="white"/>
<path d="M81.7578 66.3594L81.489 65.5414L81.0853 65.6711" fill="white"/>
<path d="M81.7617 66.3555L81.0655 65.8486L81.3146 65.5049" fill="white"/>
<path d="M80.7461 66.3555L81.4423 65.8486L81.1932 65.5049" fill="white"/>
<path d="M80.75 66.3594L81.0188 65.5414L81.4225 65.6711" fill="white"/>
<path d="M83.3145 62.8555L83.1026 63.5076L83.4286 63.6136" fill="white"/>
<path d="M83.3145 62.8555L83.5264 63.5076L83.2003 63.6136" fill="white"/>
<path d="M83.959 63.3359L83.2773 63.3283L83.2813 63.6635" fill="white"/>
<path d="M83.9629 63.332L83.4123 63.7307L83.2087 63.4515" fill="white"/>
<path d="M82.6602 63.3359L83.2107 63.7346L83.4144 63.4554" fill="white"/>
<path d="M82.6641 63.3398L83.3458 63.3322L83.3417 63.6674" fill="white"/>
<path d="M83.7148 64.0977L83.4998 63.4433L83.1769 63.547" fill="white"/>
<path d="M83.7168 64.0938L83.1598 63.6882L83.3591 63.4133" fill="white"/>
<path d="M82.9082 64.0977L83.4652 63.6921L83.2659 63.4172" fill="white"/>
<path d="M82.9102 64.0977L83.1252 63.4433L83.4481 63.547" fill="white"/>
<path d="M79.3652 62.2656L79.1533 62.9178L79.4794 63.0237" fill="white"/>
<path d="M79.3652 62.2656L79.5771 62.9178L79.2511 63.0237" fill="white"/>
<path d="M80.0098 62.7461L79.3281 62.7384L79.3321 63.0736" fill="white"/>
<path d="M80.0137 62.7422L79.4631 63.1409L79.2594 62.8616" fill="white"/>
<path d="M78.7109 62.7461L79.2615 63.1448L79.4652 62.8655" fill="white"/>
<path d="M78.7148 62.75L79.3965 62.7423L79.3925 63.0776" fill="white"/>
<path d="M79.7656 63.5078L79.5506 62.8534L79.2277 62.9572" fill="white"/>
<path d="M79.7676 63.5039L79.2106 63.0984L79.4099 62.8235" fill="white"/>
<path d="M78.959 63.5078L79.516 63.1023L79.3167 62.8274" fill="white"/>
<path d="M78.9609 63.5078L79.176 62.8534L79.4989 62.9572" fill="white"/>
<path d="M64.4375 61.207L64.1197 62.1853L64.6088 62.3442" fill="white"/>
<path d="M64.4375 61.207L64.7553 62.1853L64.2662 62.3442" fill="white"/>
<path d="M65.4102 61.9297L64.3876 61.9182L64.3936 62.421" fill="white"/>
<path d="M65.416 61.9258L64.5902 62.5238L64.2847 62.1049" fill="white"/>
<path d="M63.459 61.9258L64.2848 62.5238L64.5903 62.1049" fill="white"/>
<path d="M63.4648 61.9297L64.4874 61.9182L64.4814 62.421" fill="white"/>
<path d="M65.043 63.0705L64.7204 62.089L64.236 62.2446" fill="white"/>
<path d="M65.0469 63.0666L64.2114 62.4584L64.5103 62.046" fill="white"/>
<path d="M63.8301 63.0662L64.6656 62.4579L64.3666 62.0455" fill="white"/>
<path d="M63.834 63.0701L64.1565 62.0885L64.6409 62.2441" fill="white"/>
<path d="M74.0703 67.9336L73.9644 68.2597L74.1274 68.3126" fill="white"/>
<path d="M74.0703 67.9336L74.1763 68.2597L74.0132 68.3126" fill="white"/>
<path d="M74.3965 68.1758L74.0556 68.172L74.0576 68.3396" fill="white"/>
<path d="M74.3984 68.1719L74.1232 68.3712L74.0213 68.2316" fill="white"/>
<path d="M73.7461 68.1719L74.0214 68.3712L74.1232 68.2316" fill="white"/>
<path d="M73.748 68.1758L74.0889 68.172L74.0869 68.3396" fill="white"/>
<path d="M74.2715 68.5547L74.164 68.2275L74.0025 68.2794" fill="white"/>
<path d="M74.2734 68.5508L73.9927 68.3464L74.0919 68.2096" fill="white"/>
<path d="M73.8691 68.5547L74.1499 68.3503L74.0507 68.2135" fill="white"/>
<path d="M73.8691 68.5547L73.9766 68.2275L74.1381 68.2794" fill="white"/>
</g>
<rect x="1.5" y="1.5" width="144" height="96" stroke="#151519" stroke-width="3" stroke-linecap="round"/>
<defs>
<clipPath id="clip0_210_106992">
<rect x="1.5" y="1.5" width="144" height="96" fill="white"/>
</clipPath>
</defs>
</svg>
