<svg width="147" height="99" viewBox="0 0 147 99" fill="none" xmlns="http://www.w3.org/2000/svg">
<g clip-path="url(#clip0_210_106994)">
<path d="M1.5 97.5L145.5 97.5L145.5 1.5L1.5 1.5L1.5 97.5Z" fill="#003893"/>
<path d="M1.49609 74.0338L145.5 74.0338V49.5391L1.49609 49.5391L1.49609 74.0338Z" fill="white"/>
<path d="M1.49609 65.8686L145.5 65.8686V57.7031L1.49609 57.7031L1.49609 65.8686Z" fill="#CF2027"/>
<path d="M30.1806 65.8678L31.1965 68.9891H34.4873L31.8252 70.92L32.8427 74.0429L30.1806 72.1135L27.5185 74.0429L28.536 70.92L25.8739 68.9891H29.1631M29.9086 49.5273L30.9261 52.6486H34.2169L31.5548 54.578L32.5723 57.6992L29.9102 55.7698L27.2481 57.6992L28.2656 54.578L25.6035 52.6486H28.8927M76.4328 49.5369L77.4503 52.6518H80.7411L78.079 54.578L79.0965 57.6928L76.4344 55.7682L73.7723 57.6928L74.7898 54.578L72.1277 52.6518H75.4169" fill="#F7D116"/>
<path d="M76.127 65.875L77.1445 68.9914H80.4353L77.7732 70.9176L78.7907 74.034L76.1286 72.1095L73.4665 74.034L74.4824 70.9176L71.8203 68.9914H75.1095" fill="#F7D116"/>
<path d="M53.1645 32.7227L54.182 35.8519H57.4728L54.8107 37.7861L55.8282 40.9153L53.1661 38.9811L50.504 40.9153L51.5215 37.7861L48.8594 35.8519H52.1486" fill="#F7D116"/>
<path d="M53.1758 81.7539L54.1917 84.8831H57.4825L54.8204 86.8173L55.8379 89.9465L53.1758 88.0124L50.5137 89.9465L51.5312 86.8173L48.8691 84.8831H52.1584" fill="#F7D116"/>
<path d="M38.7836 37.3906L39.8011 40.5199H43.0919L40.4298 42.454L41.4473 45.5833L38.7852 43.6491L36.1231 45.5833L37.1406 42.454L34.4785 40.5199H37.7677" fill="#F7D116"/>
<path d="M67.5303 77.0986L68.5462 80.2278H71.837L69.1749 82.162L70.1924 85.2912L67.5303 83.357L64.8682 85.2912L65.8857 82.162L63.2236 80.2278H66.5128M39.2856 77.4697L40.303 80.599H43.5939L40.9318 82.5331L41.9493 85.6624L39.2872 83.7282L36.6251 85.6624L37.6426 82.5331L34.9805 80.599H38.2713M67.1127 37.0312L68.1302 40.1605H71.421L68.7589 42.0947L69.7764 45.2239L67.1143 43.2897L64.4522 45.2239L65.4697 42.0947L62.8076 40.1605H66.0968" fill="#F7D116"/>
</g>
<rect x="1.5" y="1.5" width="144" height="96" stroke="#151519" stroke-width="3" stroke-linecap="round"/>
<defs>
<clipPath id="clip0_210_106994">
<rect x="1.5" y="1.5" width="144" height="96" fill="white"/>
</clipPath>
</defs>
</svg>
