<svg width="147" height="99" viewBox="0 0 147 99" fill="none" xmlns="http://www.w3.org/2000/svg">
<g clip-path="url(#clip0_210_106993)">
<path d="M1.5 1.5H145.5V97.5H1.5V1.5Z" fill="#D52B1E"/>
<path d="M36.2793 1.5H110.722V97.5H36.2793V1.5Z" fill="white"/>
<path d="M74.2386 68.4219L74.9778 82.5966H72.0213L72.7604 68.4219C72.7711 68.1888 72.7295 67.9563 72.6384 67.7414C72.5474 67.5265 72.4093 67.3348 72.2344 67.1804C72.0595 67.0259 71.8521 66.9127 71.6276 66.849C71.4031 66.7853 71.1672 66.7727 70.9372 66.8123L56.8282 69.2924L58.7335 64.0365C58.8108 63.8273 58.8207 63.5993 58.7618 63.3842C58.7029 63.1692 58.5781 62.978 58.405 62.8375L42.9492 50.3217L46.4313 48.6956C46.6665 48.5845 46.853 48.3913 46.9558 48.1524C47.0586 47.9135 47.0707 47.6452 46.9897 47.3981L43.9347 38.003L52.837 39.8919C53.0782 39.9422 53.3293 39.9075 53.5479 39.7937C53.7664 39.68 53.9389 39.4941 54.036 39.2677L55.7606 35.2108L62.7084 42.6677C62.8672 42.8353 63.0761 42.9468 63.3037 42.9856C63.5314 43.0244 63.7654 42.9884 63.9708 42.8829C64.1762 42.7774 64.3419 42.6082 64.443 42.4006C64.5441 42.193 64.5751 41.9582 64.5315 41.7315L61.1808 24.4525L66.5518 27.5568C66.6779 27.6307 66.8178 27.6779 66.9629 27.6955C67.108 27.7132 67.2552 27.7008 67.3953 27.6592C67.5354 27.6177 67.6655 27.5478 67.7775 27.4539C67.8895 27.3599 67.9811 27.244 68.0465 27.1133L73.4995 16.4043L78.9526 27.1133C79.018 27.244 79.1095 27.3599 79.2215 27.4539C79.3335 27.5478 79.4636 27.6177 79.6037 27.6592C79.7439 27.7008 79.891 27.7132 80.0361 27.6955C80.1812 27.6779 80.3211 27.6307 80.4472 27.5568L85.8182 24.4525L82.4675 41.7315C82.4239 41.9582 82.455 42.193 82.556 42.4006C82.6571 42.6082 82.8228 42.7774 83.0282 42.8829C83.2336 42.9884 83.4677 43.0244 83.6953 42.9856C83.9229 42.9468 84.1318 42.8353 84.2907 42.6677L91.2384 35.2108L92.963 39.2677C93.0602 39.4941 93.2326 39.68 93.4512 39.7937C93.6697 39.9075 93.9208 39.9422 94.162 39.8919L103.064 38.003L100.009 47.3981C99.9283 47.6452 99.9404 47.9135 100.043 48.1524C100.146 48.3913 100.333 48.5845 100.568 48.6956L104.05 50.3217L88.594 62.8375C88.4209 62.978 88.2961 63.1692 88.2372 63.3842C88.1783 63.5993 88.1882 63.8273 88.2655 64.0365L90.1708 69.2924L76.0618 66.8123C75.8318 66.7727 75.5959 66.7853 75.3714 66.849C75.1469 66.9127 74.9396 67.0259 74.7646 67.1804C74.5897 67.3348 74.4516 67.5265 74.3606 67.7414C74.2696 67.9563 74.2279 68.1888 74.2386 68.4219Z" fill="#D52B1E"/>
</g>
<rect x="1.5" y="1.5" width="144" height="96" stroke="#151519" stroke-width="3" stroke-linecap="round"/>
<defs>
<clipPath id="clip0_210_106993">
<rect x="1.5" y="1.5" width="144" height="96" fill="white"/>
</clipPath>
</defs>
</svg>
