<svg width="147" height="99" viewBox="0 0 147 99" fill="none" xmlns="http://www.w3.org/2000/svg">
<g clip-path="url(#clip0_210_107003)">
<path d="M1.5 1.5H145.5V97.5H1.5V1.5Z" fill="black"/>
<path d="M1.5 1.5H145.5V65.5H1.5V1.5Z" fill="white"/>
<path d="M1.5 1.5H145.5V33.5H1.5V1.5Z" fill="#CE1126"/>
<path d="M73.6203 49.8858L84.5787 60.0586L83.7979 41.5834C83.6827 38.7834 81.2507 39.425 79.4827 40.4362C77.6923 41.5834 75.6491 41.5834 73.4907 40.8266C71.3339 41.585 69.2907 41.585 67.5003 40.4362C65.7323 39.4266 63.3003 38.7834 63.1851 41.5834L62.4043 60.0586L73.6203 49.8858Z" fill="white"/>
<path d="M84.5796 60.162C84.554 60.162 84.53 60.1524 84.5108 60.1348L73.6212 50.026L62.474 60.1364C62.4436 60.1636 62.4004 60.17 62.362 60.1524C62.3252 60.1348 62.3012 60.0964 62.3028 60.0564L63.0836 41.5812C63.122 40.634 63.426 39.9972 63.986 39.6868C65.09 39.0772 66.8468 39.9476 67.5508 40.3492C69.1956 41.4036 71.1812 41.53 73.458 40.7316C73.4804 40.7236 73.5028 40.7236 73.5252 40.7316C75.802 41.53 77.7876 41.4036 79.4276 40.3524C80.1364 39.9476 81.8948 39.0772 82.9972 39.6868C83.5572 39.9972 83.8612 40.634 83.8996 41.5812L84.6804 60.0564C84.682 60.098 84.6596 60.1364 84.6212 60.1524C84.6084 60.1588 84.5924 60.162 84.578 60.162H84.5796ZM64.8996 39.6772C64.6052 39.6772 64.3268 39.7316 64.0852 39.8644C63.5924 40.138 63.3236 40.7172 63.2884 41.5892L62.5188 59.8212L73.554 49.8116C73.5924 49.7764 73.6532 49.7764 73.6916 49.8116L84.4692 59.8164L83.6996 41.5876C83.6644 40.7156 83.3956 40.1348 82.9028 39.8628C81.89 39.3028 80.2116 40.138 79.5364 40.5236C77.8532 41.602 75.8196 41.7412 73.4948 40.9332C71.17 41.7412 69.1364 41.602 67.4484 40.522C66.938 40.2308 65.842 39.6756 64.9012 39.6756L64.8996 39.6772Z" fill="#C09300"/>
<path d="M64.4498 40.9414L63.693 58.9126L62.4082 60.0598L63.189 41.5846C63.5554 41.3318 64.1986 40.9414 64.4514 40.9414H64.4498ZM65.989 42.2278L65.3458 57.2598L64.061 58.575L64.8418 41.2166C65.0946 41.4694 65.8514 42.0886 65.989 42.2262V42.2278ZM67.389 43.375L66.885 55.9126L65.8514 56.9222L66.4946 42.6166C66.7458 42.8694 67.2514 43.2358 67.389 43.3734V43.375ZM68.9042 44.0182L68.3986 54.7046L67.389 55.5238L67.8946 43.6294C68.1474 43.7446 68.653 44.0198 68.9042 44.0198V44.0182ZM70.3042 44.0182L69.9362 52.9238L68.9026 53.9334L69.293 44.1334C69.5458 44.1334 70.1874 44.1334 70.3026 44.0182H70.3042Z" fill="#C09300"/>
<path d="M82.5399 40.9414L83.2967 58.9126L84.5816 60.0598L83.8008 41.5846C83.4344 41.3318 82.7911 40.9414 82.5383 40.9414H82.5399ZM81.0007 42.2278L81.6439 57.2598L82.9288 58.575L82.1479 41.2166C81.8951 41.4694 81.1383 42.0886 81.0007 42.2262V42.2278ZM79.6007 43.375L80.1047 55.9126L81.1383 56.9222L80.4951 42.6166C80.2439 42.8694 79.7383 43.2358 79.6007 43.3734V43.375ZM78.0855 44.0182L78.5911 54.7046L79.6007 55.5238L79.0951 43.6294C78.8423 43.7446 78.3367 44.0198 78.0855 44.0198V44.0182ZM76.6855 44.0182L77.0535 52.9238L78.0871 53.9334L77.6967 44.1334C77.4439 44.1334 76.8023 44.1334 76.6871 44.0182H76.6855Z" fill="#C09300"/>
<path d="M74.0023 51.9102L75.5399 58.9118L75.0343 59.4174L74.5063 59.027L73.6343 52.7838L74.0023 59.027L73.4967 59.6702L72.9911 59.027L73.3591 52.7838L72.4871 59.027L71.9591 59.4174L71.4551 58.9118L72.9927 51.9102H74.0023Z" fill="#C09300"/>
<path d="M73.4989 59.8089L72.9069 59.0553L73.1501 54.9225L72.5693 59.0761L71.9517 59.5321L71.3613 58.9417L72.9245 51.8281H74.0733L75.6365 58.9417L75.0461 59.5321L74.4301 59.0761L73.8493 54.9225L74.0925 59.0569L73.4989 59.8105V59.8089ZM73.0813 58.9993L73.4989 59.5305L73.9165 58.9993L73.5517 52.7881L73.7229 52.7705L74.5901 58.9769L75.0301 59.3017L75.4493 58.8825L73.9357 51.9945H73.0637L71.5501 58.8825L71.9693 59.3017L72.4093 58.9769L73.2765 52.7705L73.4477 52.7881L73.0829 58.9993H73.0813Z" fill="#C09300"/>
<path d="M70.0567 48.8359L67.0039 59.6679L71.2039 60.3111L72.9943 52.1639L70.0567 48.8359Z" fill="white"/>
<path d="M71.2052 60.4087C71.2052 60.4087 71.1956 60.4087 71.1908 60.4087L66.9908 59.7655C66.9636 59.7607 66.9396 59.7463 66.9252 59.7223C66.9108 59.6999 66.906 59.6711 66.914 59.6455L69.9668 48.8119C69.9764 48.7783 70.0036 48.7527 70.0372 48.7447C70.0708 48.7367 70.106 48.7479 70.13 48.7751L73.0676 52.1031C73.0884 52.1255 73.0964 52.1575 73.0884 52.1863L71.298 60.3335C71.2884 60.3783 71.2484 60.4087 71.2052 60.4087ZM67.1252 59.5927L71.1316 60.2055L72.8916 52.1927L70.1012 49.0327L67.1252 59.5943V59.5927Z" fill="#C09300"/>
<path d="M69.4155 53.5274C69.4155 53.5274 69.4011 53.5274 69.3947 53.5258C69.3611 53.5194 69.3339 53.4954 69.3211 53.465L68.9531 52.5706L69.1403 52.4938L69.4507 53.2506L71.3275 51.457L71.4683 51.6042L69.4827 53.5002C69.4635 53.5178 69.4379 53.529 69.4123 53.529L69.4155 53.5274Z" fill="#C09300"/>
<path d="M70.4664 60.3445L70.0312 59.0197L69.388 60.1109C69.3672 60.1461 69.3288 60.1653 69.2888 60.1605C69.2488 60.1557 69.2152 60.1269 69.204 60.0885L68.7112 58.4533L67.9832 59.4757L67.8184 59.3573L68.6536 58.1845L68.0104 55.8277C68.0008 55.7925 68.0104 55.7557 68.036 55.7301L69.3432 54.3893C69.3688 54.3637 69.4056 54.3525 69.4408 54.3621C69.476 54.3717 69.5032 54.3973 69.5128 54.4325L69.8664 55.6917L70.6776 54.5925C70.7016 54.5605 70.7432 54.5445 70.7816 54.5541C70.8216 54.5637 70.852 54.5957 70.8584 54.6341L71.2056 56.5429L72.0808 55.2133L71.5576 53.4069L70.9176 54.2437C70.892 54.2773 70.8488 54.2901 70.8088 54.2805C70.7688 54.2693 70.74 54.2341 70.7352 54.1941L70.3192 50.2981L70.5208 50.2773L70.9096 53.9189L72.0168 52.4693L72.1784 52.5925L71.708 53.2069L72.2248 54.9909L72.468 54.6229L72.6376 54.7349L72.3 55.2485L72.38 55.5253L72.1848 55.5813L72.1528 55.4709L71.2568 56.8309L71.692 58.8901L71.4936 58.9317L71.0952 57.0501L70.2776 58.3221C70.2568 58.3541 70.2184 58.3717 70.18 58.3685C70.1416 58.3637 70.108 58.3365 70.0968 58.2997L69.66 56.9717L68.8664 58.2773L69.3272 59.8069L69.9672 58.7221C69.988 58.6885 70.0248 58.6677 70.0664 58.6725C70.1064 58.6773 70.14 58.7045 70.1512 58.7413L70.6568 60.2789L70.4632 60.3429L70.4664 60.3445ZM69.6904 56.6309C69.6904 56.6309 69.6984 56.6309 69.7016 56.6309C69.7416 56.6357 69.7736 56.6629 69.7864 56.6997L70.2248 58.0341L71.0392 56.7669L70.7 54.9013L69.9048 55.9781C69.8824 56.0101 69.8424 56.0245 69.8056 56.0181C69.7672 56.0117 69.7368 55.9829 69.7256 55.9461L69.364 54.6565L68.22 55.8309L68.8072 57.9877L69.6024 56.6805C69.6216 56.6501 69.6536 56.6325 69.6888 56.6325L69.6904 56.6309Z" fill="#C09300"/>
<path d="M76.9435 48.8359L79.9963 59.6679L75.7963 60.3111L74.0059 52.1639L76.9435 48.8359Z" fill="white"/>
<path d="M75.7957 60.408C75.7525 60.408 75.7125 60.3776 75.7029 60.3328L73.9125 52.1855C73.9061 52.1551 73.9125 52.1248 73.9333 52.1024L76.8709 48.7744C76.8933 48.7488 76.9285 48.7376 76.9637 48.744C76.9973 48.752 77.0245 48.7775 77.0341 48.8111L80.0869 59.6448C80.0949 59.6704 80.0901 59.6992 80.0757 59.7215C80.0613 59.7439 80.0373 59.76 80.0101 59.7648L75.8101 60.408C75.8101 60.408 75.8005 60.408 75.7957 60.408ZM74.1093 52.192L75.8693 60.2048L79.8757 59.592L76.8997 49.0303L74.1093 52.1903V52.192Z" fill="#C09300"/>
<path d="M77.5817 53.529C77.5561 53.529 77.5305 53.5194 77.5113 53.5002L75.5273 51.6042L75.6681 51.457L77.5449 53.2506L77.8553 52.4938L78.0425 52.5706L77.6745 53.465C77.6617 53.4954 77.6345 53.5194 77.6009 53.5258C77.5945 53.5258 77.5865 53.5274 77.5801 53.5274L77.5817 53.529Z" fill="#C09300"/>
<path d="M76.5318 60.3469L76.3382 60.2829L76.8438 58.7453C76.8566 58.7069 76.8902 58.6797 76.9286 58.6764C76.9686 58.6716 77.007 58.6909 77.0278 58.7261L77.6678 59.8109L78.1286 58.2812L77.335 56.9757L76.8982 58.3037C76.8854 58.3405 76.8534 58.3677 76.815 58.3725C76.7766 58.3773 76.7382 58.3597 76.7174 58.3261L75.8998 57.0541L75.5014 58.9357L75.303 58.8941L75.7382 56.8349L74.8422 55.4749L74.8102 55.5853L74.615 55.5293L74.695 55.2525L74.3574 54.7389L74.527 54.6269L74.7702 54.9949L75.287 53.2109L74.8166 52.5965L74.9782 52.4733L76.0854 53.9229L76.4742 50.2812L76.6758 50.3021L76.2598 54.1981C76.255 54.2397 76.2262 54.2733 76.1862 54.2845C76.1462 54.2957 76.103 54.2813 76.0774 54.2477L75.4374 53.4109L74.9142 55.2173L75.7894 56.5469L76.1366 54.6381C76.143 54.5981 76.1734 54.5661 76.2134 54.5581C76.2534 54.5485 76.2934 54.5645 76.3174 54.5965L77.1286 55.6957L77.4822 54.4365C77.4918 54.4012 77.519 54.3741 77.5542 54.3661C77.5894 54.3565 77.6262 54.3661 77.6518 54.3933L78.959 55.7341C78.9846 55.7597 78.9942 55.7965 78.9846 55.8317L78.3414 58.1885L79.1766 59.3612L79.0118 59.4797L78.2838 58.4573L77.791 60.0925C77.7798 60.1309 77.7462 60.1597 77.7062 60.1645C77.6646 60.1693 77.6262 60.1501 77.607 60.1149L76.9638 59.0237L76.5286 60.3485L76.5318 60.3469ZM75.9574 56.7709L76.7718 58.0381L77.2102 56.7037C77.223 56.6653 77.255 56.6397 77.295 56.6349C77.335 56.6301 77.3734 56.6493 77.3942 56.6829L78.1894 57.9901L78.7766 55.8333L77.6326 54.6589L77.271 55.9485C77.2598 55.9853 77.2294 56.0141 77.191 56.0205C77.1526 56.0285 77.1142 56.0125 77.0918 55.9805L76.2966 54.9037L75.9574 56.7693V56.7709Z" fill="#C09300"/>
<path d="M73.4872 64.5113C76.6776 64.5113 79.7304 64.2585 81.5208 63.7545C82.2792 63.6169 82.2792 63.2265 82.2792 62.7209C83.0376 62.4681 82.6456 61.5737 83.1736 61.5737C82.6456 61.7113 82.5304 60.6793 81.8888 60.8169C81.8888 59.9209 80.9928 59.8073 80.236 60.0585C78.7208 60.5641 76.036 60.6793 73.4872 60.6793C70.94 60.5641 68.276 60.5641 66.7384 60.0585C65.9816 59.8057 65.0856 59.9209 65.0856 60.8169C64.4424 60.6793 64.3272 61.7113 63.8008 61.5737C64.3288 61.5737 63.9384 62.4681 64.6952 62.7209C64.6952 63.2265 64.6952 63.6169 65.476 63.7545C67.244 64.2601 70.2968 64.5113 73.4872 64.5113Z" fill="white"/>
<path d="M73.4879 64.7031C70.0703 64.7031 67.1359 64.4247 65.4335 63.9415C64.5823 63.7879 64.5119 63.3255 64.5071 62.8503C64.1135 62.6599 64.0255 62.2951 63.9647 62.0455C63.9215 61.8631 63.8959 61.7991 63.8623 61.7767C63.8271 61.7735 63.7919 61.7687 63.7535 61.7591C63.6607 61.7351 63.6015 61.6455 63.6127 61.5511C63.6255 61.4567 63.7055 61.3847 63.8015 61.3847C63.8431 61.3847 63.8815 61.3879 63.9151 61.3959C64.0047 61.3831 64.0895 61.2871 64.2287 61.1079C64.3839 60.9079 64.5887 60.6471 64.9103 60.6183C64.9615 60.2775 65.1375 60.0807 65.2895 59.9719C65.6415 59.7175 66.2063 59.6839 66.7983 59.8807C68.0351 60.2871 70.0207 60.3607 72.1247 60.4375C72.5807 60.4551 73.0399 60.4711 73.4959 60.4919C76.7567 60.4919 78.9455 60.2919 80.1759 59.8807C80.7695 59.6839 81.3327 59.7175 81.6863 59.9719C81.8383 60.0807 82.0143 60.2791 82.0655 60.6183C82.3871 60.6471 82.5919 60.9079 82.7471 61.1079C82.8863 61.2871 82.9711 61.3815 83.0607 61.3959C83.0959 61.3895 83.1327 61.3847 83.1743 61.3847C83.2703 61.3847 83.3503 61.4551 83.3631 61.5511C83.3759 61.6455 83.3151 61.7351 83.2223 61.7591C83.1839 61.7687 83.1487 61.7751 83.1135 61.7767C83.0783 61.7991 83.0543 61.8631 83.0111 62.0455C82.9503 62.2951 82.8623 62.6583 82.4687 62.8503C82.4623 63.3239 82.3951 63.7863 81.5647 63.9399C79.8415 64.4247 76.8975 64.7015 73.4879 64.7015V64.7031ZM64.2383 61.6567C64.2863 61.7543 64.3119 61.8631 64.3359 61.9575C64.3983 62.2167 64.4527 62.4407 64.7583 62.5431C64.8367 62.5687 64.8879 62.6423 64.8879 62.7239C64.8879 63.2295 64.8879 63.4599 65.5103 63.5687C65.5167 63.5687 65.5231 63.5719 65.5295 63.5735C67.1727 64.0439 70.1487 64.3239 73.4879 64.3239C76.8703 64.3239 79.7791 64.0503 81.4703 63.5735C81.4767 63.5735 81.4815 63.5703 81.4879 63.5687C82.0895 63.4599 82.0895 63.2295 82.0895 62.7223C82.0895 62.6407 82.1423 62.5671 82.2191 62.5415C82.5247 62.4407 82.5775 62.2151 82.6415 61.9559C82.6639 61.8615 82.6911 61.7511 82.7391 61.6551C82.6255 61.5687 82.5311 61.4487 82.4479 61.3415C82.2447 61.0807 82.1263 60.9639 81.9311 61.0039C81.8751 61.0167 81.8159 61.0023 81.7711 60.9655C81.7263 60.9287 81.7007 60.8743 81.7007 60.8183C81.7007 60.5735 81.6223 60.3911 81.4655 60.2791C81.2159 60.0983 80.7679 60.0839 80.2991 60.2407C79.0287 60.6647 76.8015 60.8711 73.4895 60.8711C73.0255 60.8503 72.5679 60.8343 72.1135 60.8167C69.9839 60.7383 67.9711 60.6647 66.6815 60.2407C66.2111 60.0839 65.7631 60.0983 65.5135 60.2791C65.3567 60.3911 65.2783 60.5735 65.2783 60.8183C65.2783 60.8759 65.2527 60.9303 65.2079 60.9655C65.1631 61.0023 65.1039 61.0167 65.0479 61.0039C64.8511 60.9623 64.7343 61.0807 64.5295 61.3415C64.4463 61.4487 64.3519 61.5687 64.2383 61.6551V61.6567Z" fill="#C09300"/>
<path d="M69.1503 59.6706C70.1823 59.8082 71.3311 59.9234 72.2271 59.8082C72.7311 59.8082 73.0991 60.6802 72.0895 60.8178C71.1951 60.933 69.7935 60.8178 69.0367 60.6802C68.3935 60.565 66.9935 60.3138 66.0991 60.0594C65.2047 59.669 65.8463 58.9122 66.3519 59.0274C67.1327 59.2802 68.1423 59.533 69.1535 59.6706H69.1503ZM77.8271 59.6706C76.7935 59.8082 75.6463 59.9234 74.7743 59.8082C74.2463 59.8082 73.8783 60.6802 74.8895 60.8178C75.7855 60.933 77.1855 60.8178 77.9423 60.6802C78.5855 60.565 79.9855 60.3138 80.8799 60.0594C81.7759 59.669 81.1327 58.9122 80.6271 59.0274C79.8463 59.2802 78.8367 59.533 77.8271 59.6706Z" fill="white"/>
<path d="M75.7564 60.967C75.4428 60.967 75.1404 60.9526 74.8764 60.919C74.1692 60.823 74.142 60.407 74.1516 60.2822C74.1724 59.9702 74.4588 59.7062 74.7756 59.7062C75.6796 59.8246 76.8732 59.695 77.8156 59.5686C79.03 59.4038 80.0796 59.0982 80.598 58.9302C80.9276 58.855 81.3004 59.0694 81.4044 59.3878C81.4412 59.5014 81.518 59.8934 80.9228 60.1526C79.9868 60.4182 78.5164 60.6806 77.9612 60.7798C77.4476 60.8726 76.5644 60.967 75.758 60.967H75.7564ZM74.7612 59.9094C74.542 59.9094 74.366 60.1142 74.3532 60.2966C74.3388 60.5142 74.5388 60.6678 74.902 60.7174C75.822 60.8358 77.222 60.7078 77.9228 60.5798C78.4748 60.4806 79.9388 60.2198 80.8524 59.9622C81.1436 59.8342 81.2748 59.6518 81.2092 59.4518C81.1388 59.2358 80.8668 59.079 80.6492 59.127C80.134 59.2934 79.07 59.6038 77.8396 59.7718C76.886 59.8998 75.6732 60.0294 74.7596 59.9094H74.7612ZM71.222 60.967C70.4156 60.967 69.5324 60.8742 69.0188 60.7798C68.4652 60.6806 66.9916 60.4182 66.0716 60.1574C65.4636 59.8934 65.5404 59.5014 65.5772 59.3878C65.6812 59.0694 66.054 58.855 66.374 58.9286C66.9004 59.0982 67.9516 59.4038 69.166 59.5686C70.1068 59.6934 71.3036 59.823 72.2156 59.7062C72.534 59.7062 72.8092 59.967 72.83 60.2774C72.838 60.4038 72.8108 60.8214 72.1036 60.919C71.8396 60.9526 71.5372 60.967 71.222 60.967ZM66.2428 59.1158C66.0492 59.1158 65.8316 59.2614 65.7692 59.4518C65.7036 59.6518 65.8348 59.8342 66.1388 59.967C67.038 60.2198 68.502 60.4822 69.054 60.5798C69.7548 60.7078 71.1564 60.8342 72.0764 60.7174C72.4412 60.6678 72.6428 60.5126 72.6268 60.2918C72.614 60.0918 72.422 59.9094 72.2268 59.9094C71.3036 60.0294 70.0908 59.8982 69.1372 59.7702C67.9084 59.6022 66.8444 59.2934 66.3196 59.1238C66.2956 59.1174 66.2684 59.1158 66.2428 59.1158Z" fill="#C09300"/>
<path d="M65.9795 59.1666C65.1987 59.029 64.8323 59.9234 65.0851 60.429C65.2003 60.1762 65.7283 60.1762 65.8419 59.9234C65.9795 59.533 65.7267 59.533 65.9795 59.1666ZM69.0323 61.5138C69.0323 61.0098 69.5363 61.0706 69.5363 60.5666C69.5363 60.3138 69.3987 59.9234 69.1459 59.9234C68.8931 59.9234 68.6403 60.1762 68.6403 60.429C68.5251 60.9346 69.0307 61.0098 69.0307 61.5138H69.0323ZM72.6659 60.061C73.4227 60.061 73.3475 61.0706 72.9811 61.5762C72.9811 61.2082 72.3379 61.0706 72.3379 60.8194C72.3379 60.429 72.9187 60.429 72.6659 60.061ZM80.9907 59.1666C81.7715 59.029 82.1379 59.9234 81.8867 60.429C81.7715 60.1762 81.2435 60.1762 81.1299 59.9234C80.9923 59.533 81.2451 59.533 80.9923 59.1666H80.9907ZM77.9379 61.5138C77.9379 61.0098 77.4339 61.0706 77.4339 60.5666C77.4339 60.3138 77.5715 59.9234 77.8243 59.9234C78.0771 59.9234 78.3299 60.1762 78.3299 60.429C78.4451 60.9346 77.9395 61.0098 77.9395 61.5138H77.9379ZM74.3043 60.061C73.5475 60.061 73.6227 61.0706 73.9891 61.5762C73.9891 61.2082 74.6323 61.0706 74.6323 60.8194C74.6323 60.429 74.0515 60.429 74.3043 60.061Z" fill="white"/>
<path d="M73.9907 61.6771C73.9587 61.6771 73.9283 61.6627 73.9091 61.6355C73.6611 61.2947 73.5155 60.6867 73.7139 60.2995C73.7923 60.1443 73.9603 59.9587 74.3059 59.9587C74.3443 59.9587 74.3779 59.9795 74.3955 60.0131C74.4131 60.0467 74.4099 60.0867 74.3891 60.1187C74.3059 60.2387 74.3331 60.2675 74.4723 60.3795C74.5827 60.4691 74.7347 60.5939 74.7347 60.8179C74.7347 60.9859 74.5795 61.0931 74.4147 61.2051C74.2563 61.3139 74.0931 61.4275 74.0931 61.5747C74.0931 61.6195 74.0643 61.6579 74.0227 61.6707C74.0131 61.6739 74.0019 61.6755 73.9907 61.6755V61.6771ZM74.1443 60.1827C74.0323 60.2147 73.9491 60.2851 73.8947 60.3907C73.7667 60.6435 73.8243 61.0371 73.9667 61.3331C74.0499 61.2115 74.1843 61.1187 74.2995 61.0387C74.4083 60.9635 74.5315 60.8787 74.5315 60.8179C74.5315 60.6979 74.4611 60.6323 74.3443 60.5363C74.2499 60.4595 74.1187 60.3523 74.1443 60.1827ZM72.9827 61.6771C72.9715 61.6771 72.9619 61.6771 72.9507 61.6723C72.9091 61.6595 72.8803 61.6195 72.8803 61.5763C72.8803 61.4291 72.7171 61.3171 72.5587 61.2067C72.3939 61.0931 72.2387 60.9859 72.2387 60.8195C72.2387 60.5939 72.3907 60.4707 72.5011 60.3795C72.6403 60.2659 72.6659 60.2387 72.5843 60.1187C72.5635 60.0883 72.5603 60.0467 72.5779 60.0131C72.5955 59.9795 72.6307 59.9587 72.6675 59.9587C73.0131 59.9587 73.1811 60.1443 73.2595 60.2995C73.4563 60.6867 73.3123 61.2947 73.0643 61.6355C73.0451 61.6627 73.0147 61.6771 72.9827 61.6771ZM72.8307 60.1827C72.8563 60.3523 72.7251 60.4595 72.6307 60.5363C72.5139 60.6323 72.4435 60.6979 72.4435 60.8179C72.4435 60.8787 72.5667 60.9635 72.6755 61.0387C72.7923 61.1187 72.9267 61.2115 73.0083 61.3331C73.1507 61.0371 73.2083 60.6435 73.0803 60.3907C73.0259 60.2851 72.9427 60.2147 72.8307 60.1827ZM77.9411 61.6147C77.8851 61.6147 77.8403 61.5699 77.8403 61.5139C77.8403 61.3075 77.7443 61.2243 77.6227 61.1171C77.4947 61.0051 77.3363 60.8659 77.3363 60.5667C77.3363 60.2675 77.5075 59.8227 77.8275 59.8227C78.1299 59.8227 78.4259 60.1155 78.4339 60.4179C78.4995 60.7267 78.3619 60.9059 78.2387 61.0627C78.1379 61.1923 78.0435 61.3139 78.0435 61.5139C78.0435 61.5699 77.9987 61.6147 77.9427 61.6147H77.9411ZM77.8259 60.0243C77.6579 60.0243 77.5379 60.3475 77.5379 60.5651C77.5379 60.7715 77.6339 60.8563 77.7555 60.9635C77.8131 61.0147 77.8787 61.0723 77.9315 61.1459C77.9747 61.0675 78.0275 60.9987 78.0771 60.9363C78.1923 60.7891 78.2819 60.6723 78.2323 60.4499C78.2307 60.4419 78.2291 60.4355 78.2291 60.4275C78.2291 60.2323 78.0211 60.0243 77.8259 60.0243ZM69.0355 61.6147C68.9795 61.6147 68.9347 61.5699 68.9347 61.5139C68.9347 61.3123 68.8403 61.1907 68.7395 61.0627C68.6163 60.9043 68.4787 60.7267 68.5443 60.4179C68.5523 60.1155 68.8483 59.8227 69.1507 59.8227C69.4707 59.8227 69.6419 60.2547 69.6419 60.5667C69.6419 60.8787 69.4835 61.0051 69.3555 61.1171C69.2339 61.2243 69.1379 61.3075 69.1379 61.5139C69.1379 61.5699 69.0931 61.6147 69.0371 61.6147H69.0355ZM69.1507 60.0243C68.9539 60.0243 68.7475 60.2323 68.7475 60.4275C68.7475 60.4355 68.7475 60.4419 68.7443 60.4499C68.6931 60.6723 68.7843 60.7891 68.8995 60.9363C68.9491 61.0003 69.0019 61.0675 69.0451 61.1459C69.0979 61.0707 69.1635 61.0131 69.2211 60.9619C69.3427 60.8547 69.4387 60.7715 69.4387 60.5635C69.4387 60.3459 69.3171 60.0227 69.1507 60.0227V60.0243ZM81.8899 60.5299H81.8883C81.8499 60.5299 81.8147 60.5059 81.7971 60.4707C81.7571 60.3827 81.6131 60.3251 81.4739 60.2707C81.2979 60.2019 81.1139 60.1299 81.0403 59.9651C80.9667 59.7587 80.9859 59.6435 81.0019 59.5507C81.0179 59.4563 81.0275 59.3939 80.9123 59.2243C80.8931 59.1955 80.8883 59.1587 80.9027 59.1267C80.9171 59.0947 80.9443 59.0723 80.9795 59.0659C81.3283 59.0051 81.6483 59.1299 81.8563 59.4083C82.0883 59.7203 82.1411 60.1571 81.9827 60.4723C81.9651 60.5059 81.9299 60.5283 81.8915 60.5283L81.8899 60.5299ZM81.1635 59.2547C81.2259 59.3875 81.2195 59.4803 81.2019 59.5843C81.1891 59.6643 81.1763 59.7411 81.2291 59.8899C81.2659 59.9699 81.4099 60.0275 81.5491 60.0819C81.6563 60.1235 81.7651 60.1667 81.8515 60.2307C81.8995 60.0035 81.8403 59.7315 81.6915 59.5315C81.6115 59.4227 81.4419 59.2595 81.1635 59.2547ZM65.0883 60.5299C65.0499 60.5299 65.0147 60.5075 64.9971 60.4739C64.8387 60.1587 64.8915 59.7203 65.1235 59.4099C65.3315 59.1299 65.6515 59.0051 66.0003 59.0675C66.0339 59.0739 66.0627 59.0963 66.0771 59.1283C66.0899 59.1603 66.0867 59.1971 66.0675 59.2243C65.9507 59.3939 65.9619 59.4563 65.9779 59.5507C65.9939 59.6435 66.0131 59.7587 65.9427 59.9571C65.8643 60.1299 65.6819 60.2003 65.5059 60.2707C65.3667 60.3251 65.2227 60.3811 65.1827 60.4707C65.1667 60.5059 65.1315 60.5299 65.0915 60.5299H65.0899H65.0883ZM65.8147 59.2547C65.5363 59.2595 65.3683 59.4227 65.2867 59.5315C65.1363 59.7315 65.0787 60.0051 65.1267 60.2307C65.2131 60.1667 65.3219 60.1235 65.4291 60.0819C65.5683 60.0275 65.7123 59.9699 65.7523 59.8819C65.8019 59.7411 65.7891 59.6659 65.7747 59.5843C65.7571 59.4787 65.7507 59.3875 65.8131 59.2531L65.8147 59.2547Z" fill="#C09300"/>
<path d="M66.2422 59.418C66.495 59.418 66.8854 59.5332 67.0006 59.6708L66.2422 59.418ZM67.503 59.8084C67.6406 59.8084 68.1462 59.9236 68.399 60.0612L67.503 59.8084ZM72.095 60.3124C71.8422 60.3124 71.3382 60.3124 71.2006 60.4276L72.095 60.3124ZM70.695 60.3124C70.5574 60.1748 70.0518 60.1748 69.8006 60.3124H70.695ZM80.7494 59.418C80.4966 59.418 80.1302 59.5332 79.991 59.6708L80.7494 59.418ZM79.487 59.8084C79.3494 59.8084 78.8438 59.9236 78.591 60.0612L79.487 59.8084ZM74.895 60.3124C75.1478 60.3124 75.6534 60.3124 75.791 60.4276L74.895 60.3124ZM76.295 60.3124C76.4326 60.1748 76.9382 60.1748 77.191 60.3124H76.295Z" fill="white"/>
<path d="M71.2003 60.4985C71.1715 60.4985 71.1459 60.4825 71.1347 60.4553C71.1219 60.4265 71.1299 60.3929 71.1539 60.3721C71.2979 60.2521 71.7075 60.2409 72.0835 60.2409C72.1123 60.2361 72.1395 60.2505 72.1539 60.2745C72.1667 60.2969 72.1683 60.3241 72.1539 60.3465C72.1411 60.3689 72.1139 60.3833 72.0899 60.3833L71.2067 60.4969C71.2067 60.4969 71.2003 60.4969 71.1971 60.4969L71.2003 60.4985ZM75.7907 60.4985C75.7907 60.4985 75.7843 60.4985 75.7811 60.4985L74.8963 60.3849C74.8771 60.3849 74.8595 60.3769 74.8467 60.3641C74.8259 60.3417 74.8195 60.3081 74.8339 60.2809C74.8483 60.2537 74.8755 60.2377 74.9075 60.2409C75.2835 60.2409 75.6947 60.2521 75.8387 60.3721C75.8627 60.3929 75.8707 60.4265 75.8579 60.4553C75.8467 60.4809 75.8211 60.4985 75.7923 60.4985H75.7907ZM77.1907 60.3849H76.2947C76.2547 60.3849 76.2227 60.3529 76.2227 60.3129C76.2227 60.2889 76.2339 60.2681 76.2515 60.2553C76.4307 60.0921 76.9699 60.1097 77.2243 60.2505C77.2531 60.2665 77.2675 60.2985 77.2595 60.3305C77.2515 60.3625 77.2227 60.3833 77.1907 60.3833V60.3849ZM70.6947 60.3849H69.8003C69.7683 60.3849 69.7395 60.3625 69.7315 60.3321C69.7235 60.3017 69.7379 60.2681 69.7667 60.2521C70.0259 60.1113 70.5763 60.0937 70.7459 60.2649C70.7667 60.2857 70.7731 60.3161 70.7619 60.3433C70.7507 60.3705 70.7251 60.3865 70.6963 60.3865L70.6947 60.3849ZM68.3987 60.1337C68.3987 60.1337 68.3859 60.1337 68.3795 60.1305L67.4931 59.8809C67.4755 59.8777 67.4595 59.8697 67.4483 59.8553C67.4291 59.8297 67.4275 59.7961 67.4451 59.7705C67.4611 59.7465 67.4883 59.7353 67.5155 59.7401C67.6803 59.7449 68.1779 59.8617 68.4339 60.0009C68.4659 60.0185 68.4803 60.0569 68.4659 60.0905C68.4547 60.1177 68.4275 60.1353 68.4003 60.1353L68.3987 60.1337ZM78.5923 60.1337C78.5635 60.1337 78.5379 60.1161 78.5267 60.0889C78.5123 60.0553 78.5267 60.0169 78.5587 59.9993C78.8147 59.8601 79.3123 59.7433 79.4771 59.7385C79.5059 59.7337 79.5347 59.7465 79.5507 59.7721C79.5667 59.7993 79.5619 59.8361 79.5395 59.8585C79.5283 59.8697 79.5139 59.8761 79.4995 59.8793L78.6131 60.1305C78.6131 60.1305 78.6003 60.1337 78.5939 60.1337H78.5923ZM79.9923 59.7433C79.9683 59.7433 79.9443 59.7305 79.9315 59.7097C79.9139 59.6809 79.9187 59.6457 79.9411 59.6217C80.1027 59.4601 80.4963 59.3481 80.7491 59.3481C80.7843 59.3481 80.8131 59.3737 80.8195 59.4073C80.8243 59.4425 80.8051 59.4745 80.7715 59.4857L80.0131 59.7385C80.0131 59.7385 79.9987 59.7417 79.9907 59.7417L79.9923 59.7433ZM67.0003 59.7433C67.0003 59.7433 66.9859 59.7433 66.9779 59.7401L66.2259 59.4889C66.2259 59.4889 66.2099 59.4841 66.2035 59.4793C66.1731 59.4585 66.1635 59.4201 66.1795 59.3881C66.1923 59.3609 66.2227 59.3449 66.2515 59.3481C66.5203 59.3497 66.9267 59.4713 67.0563 59.6265C67.0771 59.6505 67.0787 59.6857 67.0611 59.7129C67.0483 59.7321 67.0259 59.7433 67.0019 59.7433H67.0003Z" fill="#C09300"/>
<path d="M66.029 61.4348C65.9442 61.4188 65.8994 61.3516 65.9202 61.2716C65.9458 61.174 66.0242 61.118 66.0978 61.1452C66.1442 61.1612 66.2306 61.2476 66.2306 61.2796C66.2306 61.3148 66.1858 61.3996 66.1666 61.3996C66.1586 61.3996 66.1458 61.4076 66.1378 61.4156C66.1218 61.4348 66.0722 61.4444 66.029 61.4348ZM74.8178 62.062C74.7858 62.0508 74.7346 61.9788 74.7362 61.9468C74.7362 61.8844 74.8274 61.7836 74.885 61.7836C74.9138 61.7836 74.989 61.8236 75.0178 61.8524C75.069 61.9068 75.0578 61.9948 74.9938 62.046C74.9618 62.0716 74.8658 62.0796 74.8194 62.062H74.8178ZM74.8754 62.4588C74.8082 62.4364 74.7842 62.4028 74.7778 62.3292C74.7714 62.2508 74.7794 62.2396 74.861 62.1948L74.9202 62.1628L74.9762 62.1868C75.053 62.2204 75.0866 62.2572 75.0898 62.31C75.093 62.366 75.0514 62.422 74.9874 62.4508C74.9314 62.4764 74.9282 62.4764 74.8754 62.4588ZM66.7346 60.7164C66.6786 60.7148 66.6034 60.766 66.5602 60.7916C66.4562 60.8156 66.3362 60.8796 66.2354 60.8124C66.1362 60.782 66.005 60.806 65.9906 60.9276C66.0162 61.0316 66.1618 61.0908 66.2514 61.022C66.317 60.9356 66.4962 60.886 66.517 61.0316C66.4434 61.142 66.453 61.2892 66.3922 61.406C66.3826 61.4796 66.3522 61.5484 66.3122 61.6108C66.2386 61.6188 66.1602 61.6108 66.0978 61.6556C65.997 61.6604 65.8962 61.7116 65.837 61.7964C65.773 61.8892 65.7106 61.9836 65.6914 62.0956C65.709 62.2108 65.8418 62.2444 65.941 62.2508C66.0482 62.2796 66.1538 62.318 66.261 62.3516C66.4354 62.39 66.597 62.454 66.7714 62.4908C67.0242 62.5676 67.2914 62.6028 67.5458 62.6716C67.573 62.6812 67.597 62.6876 67.6258 62.6908C67.7314 62.7132 67.7874 62.598 67.7954 62.5116C67.8482 62.326 67.8882 62.1372 67.941 61.9516C67.9762 61.8764 68.021 61.7084 67.8754 61.7468C67.7922 61.7964 67.7234 61.87 67.621 61.8764C67.4818 61.8844 67.5602 62.0284 67.6162 62.086C67.629 62.1804 67.5986 62.2924 67.5362 62.366C67.453 62.4188 67.349 62.3564 67.261 62.3356C67.1698 62.3356 66.9858 62.2908 67.0706 62.166C67.101 62.0732 67.1042 61.9724 67.141 61.8812C67.1874 61.7836 67.1954 61.6748 67.2162 61.5708C67.1586 61.446 67.0594 61.6124 66.981 61.6252C66.9266 61.662 66.7234 61.678 66.8306 61.7756C66.9234 61.846 66.8514 61.9676 66.8354 62.0556C66.829 62.1788 66.701 62.2076 66.6002 62.1804C66.4994 62.1756 66.3602 62.1004 66.445 61.99C66.4642 61.8972 66.4962 61.8076 66.5154 61.7148L66.6258 61.3852C66.6434 61.286 66.6786 61.1916 66.725 61.1052C66.7282 60.9948 66.8018 60.9004 66.8002 60.79C66.7922 60.7356 66.7682 60.7164 66.7346 60.7148V60.7164ZM66.1602 61.8764C66.173 61.8748 66.1826 61.8764 66.1954 61.8812C66.2354 61.8988 66.237 61.9308 66.1954 61.966C66.1778 61.982 66.157 61.9964 66.1506 61.9964C66.0754 61.99 66.053 61.9788 66.0514 61.9516C66.0482 61.9276 66.0562 61.9212 66.1058 61.8972C66.1314 61.886 66.1474 61.8796 66.1602 61.878V61.8764ZM65.9938 62.6796C65.9138 62.6044 65.9266 62.55 66.045 62.4636C66.0946 62.4268 66.125 62.43 66.1826 62.4828C66.2706 62.5628 66.2738 62.614 66.197 62.6828C66.1586 62.7164 66.141 62.7244 66.0962 62.7244C66.0498 62.7244 66.0354 62.7196 65.9938 62.6796ZM66.4818 62.8268C66.4082 62.8092 66.3618 62.7356 66.3794 62.6604C66.3794 62.6572 66.3794 62.6556 66.381 62.6524C66.4018 62.5836 66.413 62.5756 66.5154 62.5756C66.629 62.5756 66.6514 62.5932 66.653 62.694C66.653 62.75 66.6498 62.7644 66.621 62.79C66.5874 62.8204 66.5234 62.838 66.4802 62.8268H66.4818ZM80.7394 62.8396C80.7026 62.8092 80.6962 62.7964 80.6946 62.758C80.6946 62.6924 80.7314 62.6444 80.8146 62.6076C80.9234 62.558 80.9682 62.5644 81.0098 62.638C81.0642 62.734 81.0626 62.774 80.997 62.838C80.9602 62.8732 80.9538 62.8764 80.8706 62.8764C80.789 62.8764 80.7794 62.8748 80.7394 62.8412V62.8396ZM67.1298 63.0236C67.0722 63.0076 67.0418 62.9644 67.0402 62.894C67.0402 62.8412 67.0434 62.8316 67.0802 62.8028C67.1042 62.7836 67.1426 62.7676 67.173 62.7628C67.2162 62.7564 67.2306 62.7612 67.2658 62.7852C67.3538 62.8476 67.373 62.9084 67.3218 62.9676C67.2674 63.0316 67.2162 63.046 67.1298 63.022V63.0236ZM70.637 63.1804C70.6242 63.1644 70.5954 63.1548 70.5922 63.134C70.597 63.046 70.6018 62.9548 70.6306 62.87C70.6466 62.7868 70.6322 62.6988 70.661 62.6172C70.6914 62.4684 70.6914 62.3164 70.725 62.1692C70.7266 62.094 70.7346 62.0172 70.7554 61.9436C70.781 61.8284 70.757 61.7068 70.7922 61.5932C70.789 61.55 70.8386 61.4364 70.8818 61.5036C70.9442 61.5964 71.0274 61.67 71.109 61.7468C71.1794 61.7868 71.1154 61.846 71.0658 61.8668C70.9986 61.8924 70.9826 61.966 70.9874 62.03C70.9778 62.0956 70.9522 62.1596 70.949 62.2268C70.9346 62.326 70.9378 62.4268 70.925 62.5276C70.8962 62.6252 70.9074 62.7292 70.8978 62.83C70.8978 62.894 70.869 62.9516 70.8722 63.0156C70.8642 63.0812 70.861 63.158 70.8066 63.2028C70.7538 63.23 70.6786 63.2252 70.6354 63.1804H70.637ZM75.389 61.6124C75.3122 61.67 75.2434 61.7404 75.1746 61.8076C75.0802 61.8796 75.253 61.9212 75.2738 61.982C75.2994 62.0764 75.2978 62.1756 75.3042 62.2716C75.333 62.3596 75.3458 62.454 75.3394 62.5468C75.3314 62.646 75.2018 62.6252 75.1442 62.6812C75.0658 62.7148 75.0338 62.7916 74.9746 62.846C74.9346 62.9228 74.925 63.0188 74.9202 63.1068C74.9266 63.1788 74.8722 63.2588 74.9202 63.3212C74.9266 63.3308 74.9346 63.342 74.9394 63.3516C74.9554 63.3756 74.9938 63.3564 75.0194 63.3612C75.0994 63.3564 75.1842 63.3692 75.2594 63.3356C75.453 63.302 75.6482 63.2988 75.845 63.2908C75.965 63.294 76.0802 63.2524 76.2002 63.2556C76.2946 63.2764 76.3362 63.174 76.3346 63.1004C76.2818 62.9964 76.3266 62.8716 76.285 62.766C76.2482 62.6588 76.2626 62.5372 76.245 62.4268C76.2434 62.3388 76.1314 62.3068 76.0754 62.3724C76.021 62.4268 75.933 62.438 75.8898 62.5068C75.8418 62.6028 75.9906 62.6028 76.0146 62.6764C76.0434 62.75 76.0338 62.8332 76.0402 62.9116C76.0578 63.006 75.9554 63.0124 75.8898 63.022C75.8034 63.054 75.6834 63.0764 75.6354 62.9724C75.605 62.8956 75.6098 62.814 75.6002 62.7324C75.5986 62.59 75.5634 62.4492 75.5554 62.3068C75.5474 62.1308 75.517 61.9564 75.5058 61.782C75.5042 61.7084 75.4946 61.59 75.3906 61.6124H75.389ZM75.2898 62.9324L75.3394 62.9372L75.3442 62.998L75.349 63.0572L75.2834 63.078C75.2626 63.0844 75.2402 63.0892 75.2178 63.0924C75.2082 63.086 75.197 63.0796 75.1874 63.0716C75.1522 63.046 75.1618 63.0108 75.2066 62.9612C75.2322 62.934 75.245 62.9292 75.2866 62.9308L75.2898 62.9324ZM70.4946 61.4476C70.4338 61.4684 70.357 61.558 70.2946 61.558C70.1538 61.5676 70.173 61.7052 70.2738 61.7532C70.2866 61.7948 70.2738 61.8476 70.2786 61.894C70.2978 62.0204 70.2178 62.1212 70.2338 62.2492C70.2274 62.3884 70.1842 62.5244 70.1794 62.6636C70.1394 62.8076 70.1394 62.9564 70.1138 63.1036C70.0978 63.2348 70.0018 63.1884 69.9186 63.1532C69.9186 63.0956 69.9138 63.0396 69.9138 62.9836C69.949 62.8524 69.8434 62.814 69.7394 62.798C69.629 62.8076 69.5762 62.7148 69.5986 62.6172C69.645 62.5612 69.765 62.5772 69.8386 62.5676C69.9954 62.5996 69.989 62.39 69.909 62.318C69.8546 62.2156 69.717 62.1724 69.6786 62.0684C69.6946 61.9292 69.6018 61.7916 69.4882 61.7228C69.3138 61.71 69.1826 61.8604 69.1186 62.0076C69.0466 62.0284 68.9746 62.0508 68.9042 62.078C68.7906 62.1068 68.629 62.3036 68.7842 62.3772C68.8706 62.4012 69.1362 62.462 69.0194 62.582C68.9538 62.6956 68.8274 62.6972 68.7138 62.6668C68.5986 62.6668 68.469 62.6108 68.4738 62.4764C68.4498 62.3564 68.4546 62.2268 68.3986 62.1164C68.3746 61.982 68.2226 62.014 68.213 62.1356C68.0962 62.2204 68.1106 62.3596 68.1938 62.4604C68.245 62.5772 68.1938 62.7132 68.1442 62.8204C68.1138 62.9612 67.9586 62.9644 67.8498 63.0108C67.7954 63.0316 67.589 62.998 67.6642 63.1164C67.7842 63.1596 67.9282 63.1964 68.0546 63.166C68.1858 63.15 68.301 63.0604 68.365 62.9468C68.453 62.8572 68.605 62.9036 68.7202 62.902C68.8434 62.902 68.9698 62.9884 69.0898 62.9324C69.125 62.8428 69.285 62.6924 69.3346 62.8476C69.3266 62.9852 69.4482 63.0604 69.5746 63.0428C69.7122 63.0348 69.661 63.1404 69.6594 63.222C69.669 63.3708 69.765 63.4492 69.8898 63.5116C69.933 63.5228 69.9762 63.5196 70.0194 63.5116C70.1394 63.4732 70.2674 63.4204 70.3042 63.286C70.3522 63.1772 70.3538 63.054 70.389 62.9404C70.4178 62.7596 70.4546 62.5788 70.4594 62.3948C70.5042 62.2284 70.4914 62.0524 70.525 61.8844C70.5458 61.7596 70.5618 61.6348 70.5746 61.51C70.5602 61.4428 70.5314 61.4316 70.4946 61.4444V61.4476ZM69.4098 62.1132C69.4338 62.1164 69.4482 62.1452 69.4498 62.198C69.453 62.2556 69.4834 62.3036 69.5202 62.3132C69.549 62.3212 69.5474 62.3516 69.5154 62.374C69.4962 62.3868 69.4642 62.3948 69.405 62.3932C69.3122 62.3932 69.2546 62.3692 69.205 62.318L69.1746 62.2876L69.2194 62.2572C69.2514 62.2316 69.2802 62.206 69.309 62.1772C69.3538 62.1308 69.3842 62.11 69.4082 62.1116L69.4098 62.1132ZM79.9746 60.8524C79.8834 60.8572 79.7922 60.8716 79.709 60.8924C79.5426 60.8828 79.4594 61.0572 79.6194 61.142C79.7154 61.3868 79.8658 61.0908 80.0194 61.1116C80.2498 61.1564 80.269 61.4044 80.3042 61.5916C80.317 61.7772 80.3698 61.9564 80.4242 62.1324C80.5778 62.3036 80.309 62.4108 80.1938 62.278C80.0962 62.1724 79.8866 62.0412 79.7682 62.1884C79.6242 62.2492 79.6178 62.4428 79.4978 62.4988C79.3042 62.558 79.2802 62.3196 79.1778 62.2188C79.0834 62.0876 78.9042 62.0748 78.757 62.0284C78.6882 61.8892 78.7234 61.6524 78.5826 61.558C78.4626 61.606 78.245 61.83 78.4274 61.9324C78.6066 62.086 78.349 62.1564 78.2674 62.262C78.1506 62.3916 78.1314 62.5724 78.1122 62.7372C77.9106 62.8492 77.8722 62.6108 77.8466 62.462C77.8306 62.2844 77.6802 62.3356 77.5762 62.4012C77.4242 62.4636 77.3474 62.6076 77.2418 62.7212C77.229 62.8252 77.2482 62.9388 77.2466 63.046C77.2818 63.1756 77.4386 63.1148 77.5362 63.1052C77.693 63.0396 77.757 63.206 77.6306 63.3004C77.5458 63.4092 77.2754 63.3516 77.301 63.526C77.3874 63.5356 77.4786 63.5324 77.5666 63.526C77.741 63.478 77.9282 63.3548 77.9458 63.1612C77.9682 62.9916 78.213 63.022 78.3458 62.9868C78.5122 62.9388 78.7122 62.926 78.7506 63.1372C78.8642 63.2556 79.1106 63.39 79.2354 63.2268C79.3618 63.1484 79.4242 63.0124 79.4146 62.8668C79.389 62.742 79.6178 62.7372 79.6738 62.806C79.757 62.9436 80.0178 62.902 80.1442 62.8268C80.2786 62.7276 80.3074 62.5532 80.4994 62.5516C80.7842 62.4668 81.0802 62.4172 81.3586 62.3116C81.5842 62.262 81.325 62.1196 81.269 62.0364C81.0978 61.9516 80.9474 62.2988 80.7538 62.126C80.6034 62.0108 80.6146 61.7932 80.5586 61.6252C80.5202 61.4076 80.5298 61.158 80.373 60.9852C80.2658 60.8716 80.1186 60.8428 79.9682 60.8508L79.9746 60.8524ZM78.885 62.3676C78.9058 62.3676 78.9282 62.3772 78.965 62.398C79.0354 62.4364 79.085 62.5004 79.085 62.5532C79.085 62.5868 79.077 62.59 79.0258 62.614C78.9938 62.6284 78.9586 62.6444 78.9458 62.6444C78.917 62.6444 78.8466 62.5868 78.8466 62.5644C78.8466 62.5548 78.837 62.518 78.8258 62.4892C78.8066 62.438 78.8098 62.438 78.8354 62.4044C78.8514 62.382 78.8658 62.3692 78.885 62.3692V62.3676ZM79.9298 62.422C79.989 62.4188 80.0242 62.4364 80.0498 62.4828C80.0786 62.5356 80.0594 62.5756 79.9842 62.6076C79.9522 62.622 79.9186 62.6332 79.9138 62.6332C79.909 62.6332 79.8818 62.6172 79.853 62.598C79.8098 62.5692 79.8034 62.5564 79.8034 62.5228C79.8034 62.4716 79.8594 62.4268 79.9282 62.422H79.9298ZM78.4994 62.4364C78.517 62.4332 78.533 62.4428 78.5538 62.462C78.5826 62.486 78.5922 62.5068 78.5986 62.5564C78.6034 62.5916 78.6034 62.6364 78.5986 62.6556C78.5906 62.6924 78.5906 62.6908 78.509 62.6908C78.4066 62.6908 78.397 62.6812 78.3986 62.5852C78.3986 62.5244 78.4002 62.5084 78.4338 62.4748C78.4594 62.4492 78.4818 62.438 78.4994 62.4348V62.4364ZM77.6194 62.6668C77.6514 62.6748 77.6818 62.6988 77.6898 62.7372C77.701 62.7884 77.6898 62.8108 77.6498 62.8316C77.6146 62.8492 77.533 62.8556 77.509 62.8412C77.501 62.8364 77.4866 62.8252 77.4786 62.8108C77.4674 62.7916 77.469 62.782 77.4834 62.7708C77.493 62.7628 77.5042 62.7516 77.5026 62.7452C77.501 62.7388 77.5138 62.7196 77.5282 62.7004C77.5522 62.67 77.5858 62.6572 77.6178 62.6652L77.6194 62.6668ZM79.0994 62.8572C79.1282 62.8572 79.1522 62.8668 79.1698 62.8828C79.2002 62.9084 79.1986 62.9468 79.165 62.9724C79.1426 62.9884 79.0258 62.9868 78.9858 62.9724C78.9682 62.966 78.9602 62.9564 78.9602 62.9372C78.9602 62.9148 78.9666 62.9004 79.005 62.8828C79.037 62.8668 79.0722 62.8572 79.0994 62.8572ZM76.3522 63.6284C76.3362 63.6188 76.3138 63.6092 76.3378 63.5932C76.365 63.5452 76.421 63.5276 76.469 63.51C76.557 63.4716 76.6322 63.4076 76.6882 63.3308C76.6962 63.278 76.7554 63.2492 76.7554 63.1932C76.7554 63.1164 76.7602 63.0396 76.7426 62.9644C76.7218 62.8956 76.6706 62.8444 76.6098 62.8092C76.5682 62.7772 76.5026 62.7676 76.4866 62.7116C76.4786 62.6572 76.5266 62.6156 76.5442 62.566C76.5794 62.4988 76.6098 62.4284 76.6482 62.3612C76.6898 62.3148 76.7538 62.358 76.7746 62.4028C76.805 62.4476 76.8322 62.4956 76.8466 62.5468C76.8946 62.5996 76.9378 62.662 76.9554 62.7324C76.9794 62.782 77.0162 62.8284 77.0146 62.8876C77.0146 62.9548 77.0514 63.014 77.0498 63.0812C77.0514 63.1708 77.0514 63.2636 77.0194 63.3484C76.997 63.3948 76.9522 63.4236 76.9218 63.4652C76.8706 63.5132 76.8146 63.558 76.749 63.5836C76.7026 63.598 76.6754 63.6524 76.6178 63.638C76.5362 63.638 76.4514 63.6508 76.3698 63.638C76.3746 63.646 76.3442 63.6236 76.3506 63.6284H76.3522ZM75.2562 63.7004C75.2178 63.6604 75.2082 63.6428 75.2082 63.6044C75.2082 63.5644 75.2146 63.5484 75.253 63.51C75.3234 63.4396 75.357 63.438 75.4786 63.4988C75.5938 63.558 75.6338 63.5628 75.6434 63.5212C75.653 63.4812 75.7202 63.4444 75.7826 63.4444C75.8226 63.4444 75.845 63.4524 75.877 63.4764C75.917 63.5084 75.9186 63.5132 75.9202 63.5852C75.9202 63.6588 75.9202 63.662 75.8738 63.7036C75.829 63.742 75.8226 63.7452 75.7666 63.7388C75.6962 63.7324 75.6546 63.7004 75.6434 63.6444C75.6354 63.6044 75.621 63.5948 75.6098 63.622C75.6066 63.63 75.589 63.6412 75.5714 63.646C75.5394 63.654 75.4834 63.6892 75.445 63.726C75.4306 63.7404 75.4034 63.7468 75.3618 63.7468C75.3042 63.7468 75.2962 63.7436 75.253 63.6988L75.2562 63.7004ZM72.085 62.2764C71.9794 62.2764 71.8642 62.3676 71.8498 62.4716C71.8738 62.5916 71.9746 62.71 71.9106 62.8364C71.9554 62.998 71.789 63.0604 71.6754 62.966C71.6066 62.8108 71.573 62.6396 71.4706 62.5004C71.3426 62.4636 71.2866 62.67 71.1954 62.7404C71.2402 62.862 71.3714 62.9692 71.3858 63.1196C71.4178 63.2652 71.3282 63.4284 71.2002 63.5052C71.0898 63.6092 70.9394 63.5724 70.805 63.5948C70.6418 63.6908 70.925 63.726 71.0002 63.7292C71.1682 63.7468 71.3426 63.7244 71.4658 63.5996C71.589 63.5404 71.5794 63.3276 71.7266 63.3052C71.981 63.294 72.2322 63.3436 72.4866 63.35C72.6226 63.382 72.8322 63.334 72.9266 63.4348C72.9266 63.6124 73.077 63.7212 73.221 63.79C73.301 63.8124 73.3842 63.7132 73.4658 63.6956C73.621 63.646 73.573 63.4556 73.6658 63.3804C73.9298 63.366 74.197 63.3692 74.461 63.366C74.5106 63.366 74.5266 63.2956 74.5618 63.2668C74.5554 63.1644 74.5522 63.0636 74.5362 62.9612C74.485 62.8316 74.5442 62.6668 74.4514 62.5564C74.3186 62.5196 74.205 62.6412 74.0722 62.6508C73.9234 62.7164 73.7986 62.854 73.7922 63.0204C73.7042 63.1644 73.5634 62.9948 73.6114 62.8748C73.6066 62.822 73.6226 62.7628 73.6066 62.7148C73.525 62.6172 73.3842 62.6492 73.2722 62.6348C73.109 62.6412 72.9506 62.606 72.7874 62.6092C72.645 62.598 72.4962 62.622 72.357 62.5836C72.1922 62.5788 72.2146 62.4172 72.1874 62.3036C72.1586 62.2812 72.1234 62.2732 72.0882 62.2732L72.085 62.2764ZM72.405 62.8668C72.4594 62.8668 72.5122 62.8748 72.565 62.8812C72.6338 62.8924 72.7074 62.8572 72.7746 62.8812C72.9314 62.9084 73.0866 62.902 73.245 62.9164C73.2866 62.9164 73.317 62.9452 73.3442 62.9708V63.3004C73.3394 63.342 73.357 63.3964 73.3186 63.4252C73.3074 63.4332 73.293 63.4428 73.2786 63.4444C73.2354 63.4332 73.189 63.4044 73.1682 63.3644C73.1618 63.3068 73.1714 63.2524 73.173 63.1948C73.173 63.1804 73.1794 63.1564 73.173 63.1452C73.1394 63.1212 73.101 63.1052 73.0578 63.1052C72.9218 63.1004 72.789 63.0908 72.653 63.086C72.5394 63.0796 72.4242 63.0956 72.3138 63.0668C72.2706 63.0508 72.2146 63.0572 72.189 63.0124C72.1522 62.9692 72.205 62.9164 72.2434 62.8972C72.2946 62.8748 72.349 62.8668 72.4034 62.8668H72.405ZM74.2098 62.9068C74.2354 62.9068 74.2434 62.9148 74.2546 62.9612L74.2738 63.0412C74.2802 63.0604 74.2706 63.0668 74.2434 63.0764C74.165 63.1068 74.085 63.1036 74.0578 63.0668C74.045 63.0508 74.0594 62.998 74.0834 62.9772C74.1298 62.9356 74.181 62.9068 74.2082 62.9068H74.2098Z" fill="#C09300"/>
<path d="M75.4682 41.9961C75.5754 42.0025 75.3242 41.4249 75.3242 41.4249C75.6074 41.7129 76.673 41.7833 76.673 41.7833C76.033 41.5001 75.393 39.3673 75.4682 37.6681C75.537 35.9625 75.2234 35.2905 74.9722 35.0393C74.6522 34.7193 73.6234 34.4377 72.9466 34.3993C72.5642 34.3801 72.6266 34.6873 72.6266 34.6873C71.9178 34.5049 71.209 34.4361 70.889 34.6489C70.5882 34.8505 70.5258 35.8537 70.745 35.6777C71.2778 35.2505 71.7418 35.6393 72.0618 36.1049C72.3434 36.5129 72.3258 37.6665 71.9178 39.0153C71.4906 40.4329 70.3242 41.8505 70.3242 41.8505C70.9578 41.8505 71.849 41.2857 71.849 41.2857L71.6362 42.1705C72.3082 41.8505 72.841 41.3545 72.841 41.3545L73.481 42.0265C73.6938 41.7449 74.121 41.3545 74.121 41.3545C74.121 41.3545 74.6538 41.9193 75.4698 41.9945L75.4682 41.9961Z" fill="white"/>
<path d="M71.4916 42.3482L71.6996 41.4874C71.394 41.657 70.7988 41.9498 70.3236 41.9498H70.1172L70.2484 41.7898C70.2596 41.7754 71.4084 40.3706 71.8244 38.9882C72.2468 37.593 72.2228 36.5098 71.9812 36.161C71.7508 35.8266 71.5092 35.6314 71.282 35.5978C71.122 35.5738 70.9668 35.625 70.8052 35.7546C70.7348 35.8106 70.6724 35.7978 70.642 35.785C70.5716 35.7546 70.5316 35.6762 70.5204 35.5434C70.4964 35.2842 70.5812 34.737 70.834 34.569C71.2196 34.3114 72.018 34.441 72.5316 34.5642C72.5412 34.5178 72.5604 34.4666 72.6004 34.4202C72.674 34.3338 72.7924 34.2938 72.9508 34.3018C73.6628 34.3418 74.706 34.6362 75.0404 34.9706C75.3188 35.249 75.634 35.9418 75.5636 37.6714C75.4868 39.4154 76.1556 41.449 76.7108 41.6938L76.6644 41.8794C76.5748 41.873 75.9332 41.8266 75.5188 41.657C75.6244 41.9578 75.5844 42.0154 75.5652 42.0426C75.5412 42.0762 75.5028 42.0954 75.4612 42.0922H75.458C74.778 42.0298 74.2916 41.6474 74.1172 41.489C73.9908 41.609 73.7124 41.8794 73.5556 42.0842L73.4868 42.1754L72.8324 41.489C72.6628 41.6362 72.2164 41.9994 71.6756 42.257L71.4916 42.345V42.3482ZM71.9988 41.0762L71.778 41.9882C72.338 41.6842 72.7668 41.289 72.7716 41.2842L72.842 41.2186L73.4708 41.8778C73.6964 41.6074 74.0356 41.297 74.0516 41.2826L74.122 41.2186L74.1876 41.2874C74.1876 41.2874 74.6676 41.785 75.3844 41.8874C75.3604 41.7882 75.2948 41.6106 75.2308 41.4634L75.3892 41.3562C75.5428 41.513 76.0036 41.6058 76.354 41.6522C75.7764 40.9914 75.2996 39.169 75.3668 37.6618C75.4372 35.9162 75.1044 35.3114 74.8996 35.1066C74.6004 34.8074 73.5988 34.5322 72.9364 34.4954C72.8724 34.4922 72.7876 34.4986 72.746 34.545C72.7044 34.5914 72.7172 34.6666 72.7172 34.6682L72.7444 34.8186L72.5972 34.7818C71.8132 34.5802 71.1924 34.561 70.938 34.7306C70.8532 34.7866 70.7748 34.9594 70.7332 35.1802C70.6996 35.3578 70.7028 35.5018 70.7156 35.5738C70.9092 35.4314 71.106 35.3754 71.306 35.4042C71.5924 35.4458 71.8708 35.6634 72.138 36.049C72.4548 36.5066 72.402 37.7386 72.0068 39.0426C71.6644 40.1834 70.8628 41.305 70.5364 41.7322C71.106 41.633 71.7844 41.2074 71.7924 41.2026L71.9956 41.0746L71.9988 41.0762Z" fill="#C09300"/>
<path d="M75.2371 41.4823C74.6259 40.5847 74.4787 38.2007 74.4739 38.0999L74.6771 38.0887C74.6771 38.1127 74.8275 40.5175 75.4067 41.3687L75.2387 41.4823H75.2371ZM72.9267 41.4039L72.7475 41.3063C73.1955 40.4823 73.3363 37.8631 73.3379 37.8359L73.5411 37.8471C73.5347 37.9559 73.3971 40.5399 72.9267 41.4039ZM74.0211 41.3895C73.8419 40.8839 73.8403 38.0695 73.8403 37.9495H74.0435C74.0435 38.7543 74.0739 40.9287 74.2131 41.3223L74.0211 41.3895ZM71.9219 41.3543L71.7715 41.2183C72.4147 40.5031 72.7715 37.9239 72.7747 37.8983L72.9763 37.9255C72.9619 38.0343 72.6067 40.5943 71.9219 41.3543Z" fill="#C09300"/>
<path d="M72.231 36.6416C72.199 36.4096 72.143 36.2272 72.0614 36.1088C71.7414 35.6448 71.2774 35.256 70.7446 35.6816C70.7446 35.6816 70.927 35.1168 71.3158 35.0976C71.6166 35.0784 72.2998 35.3232 72.903 36.352C72.903 36.352 72.4582 36.2512 72.351 36.3456C72.1494 36.5216 72.231 36.64 72.231 36.64V36.6416ZM70.6886 34.9856C70.7318 34.8416 70.8022 34.7088 70.8902 34.6528C71.2102 34.44 71.919 34.5088 72.6278 34.6912C72.6278 34.6912 72.5654 34.384 72.9478 34.4032C73.6246 34.4416 74.6534 34.7232 74.9734 35.0432C75.0486 35.1248 75.1366 35.2448 75.2118 35.4256H75.199C75.0422 35.2064 74.5974 35.2192 74.4902 35.232C74.3206 35.2512 74.2134 35.2448 73.9878 35.3008C73.8806 35.3264 73.7174 35.3568 73.631 35.4256C73.5622 35.4816 73.5062 35.6896 73.399 35.6896C73.2294 35.6896 73.2422 35.6464 73.1974 35.5952C73.1414 35.5264 73.1094 35.4256 73.0534 35.432C72.8774 35.464 72.5958 35.3248 72.2374 35.0432C71.879 34.7616 71.7414 34.6912 71.2774 34.7232C70.8198 34.7616 70.6758 35.0176 70.6758 35.0176L70.6886 34.9856Z" fill="#C09300"/>
<path d="M72.2068 36.6567C72.2068 36.6567 72.178 36.6135 72.1876 36.5479C72.1556 36.3639 72.1044 36.2215 72.0372 36.1239C71.7924 35.7687 71.5412 35.5687 71.2916 35.5319C71.114 35.5063 70.9364 35.5639 70.762 35.7031L70.6884 35.7623L70.7172 35.6727C70.7252 35.6487 70.9092 35.0887 71.314 35.0695C71.6228 35.0471 72.3156 35.2951 72.9268 36.3383L72.9604 36.3943L72.8964 36.3799C72.73 36.3431 72.4388 36.3063 72.37 36.3671C72.2852 36.4407 72.2548 36.5031 72.2468 36.5479C72.2516 36.5767 72.2564 36.6071 72.2612 36.6375L72.21 36.6567H72.2068ZM71.2084 35.4695C71.2388 35.4695 71.2692 35.4711 71.2996 35.4759C71.5652 35.5159 71.8292 35.7223 72.0836 36.0919C72.1428 36.1783 72.1908 36.2983 72.2244 36.4471C72.2468 36.4103 72.2804 36.3687 72.3316 36.3255C72.4244 36.2439 72.7124 36.2871 72.8452 36.3127C72.1076 35.0919 71.3492 35.1239 71.3172 35.1271C71.0436 35.1399 70.8756 35.4455 70.8068 35.6023C70.9396 35.5143 71.074 35.4711 71.2084 35.4711V35.4695ZM73.3988 35.7159C73.258 35.7159 73.2276 35.6871 73.1956 35.6375C73.1908 35.6295 73.1844 35.6199 73.1764 35.6119C73.1556 35.5863 73.1396 35.5591 73.1236 35.5351C73.0996 35.4967 73.0756 35.4599 73.0564 35.4583C72.8756 35.4919 72.5924 35.3575 72.2196 35.0631C71.8628 34.7815 71.7348 34.7175 71.2788 34.7495C70.8436 34.7847 70.7012 35.0279 70.6996 35.0295L70.6484 35.0055L70.6612 34.9751C70.6916 34.8775 70.7588 34.7015 70.874 34.6279C71.258 34.3719 72.0996 34.5271 72.5956 34.6519C72.5956 34.6055 72.602 34.5287 72.6548 34.4663C72.714 34.3975 72.8132 34.3655 72.9492 34.3719C73.6468 34.4103 74.6708 34.6967 74.994 35.0199C75.0948 35.1287 75.1748 35.2567 75.2388 35.4119L75.2548 35.4503H75.186L75.178 35.4391C75.0372 35.2423 74.6276 35.2407 74.4948 35.2567C74.4484 35.2615 74.4052 35.2647 74.3636 35.2679C74.258 35.2759 74.1572 35.2839 73.9956 35.3239L73.9572 35.3319C73.858 35.3543 73.722 35.3863 73.6484 35.4439C73.6276 35.4615 73.6052 35.4999 73.5812 35.5415C73.5348 35.6215 73.482 35.7127 73.3988 35.7127V35.7159ZM73.058 35.4023C73.1092 35.4023 73.1412 35.4519 73.1732 35.5063C73.1876 35.5303 73.2036 35.5559 73.2196 35.5767C73.2292 35.5863 73.2356 35.5975 73.242 35.6071C73.2628 35.6391 73.2772 35.6599 73.3972 35.6599C73.4484 35.6599 73.4916 35.5831 73.53 35.5159C73.5572 35.4695 73.5812 35.4263 73.6116 35.4023C73.6948 35.3367 73.8388 35.3031 73.9428 35.2791L73.9796 35.2711C74.146 35.2295 74.2484 35.2215 74.3556 35.2135C74.3956 35.2103 74.4372 35.2071 74.4836 35.2023C74.4884 35.2023 74.898 35.1607 75.1284 35.3207C75.0772 35.2215 75.018 35.1367 74.9492 35.0615C74.6404 34.7527 73.6164 34.4679 72.9428 34.4311C72.8244 34.4263 72.7428 34.4503 72.6948 34.5063C72.6308 34.5799 72.6516 34.6855 72.6516 34.6855L72.6596 34.7303L72.6164 34.7191C71.8004 34.5095 71.1764 34.4951 70.9012 34.6775C70.8452 34.7127 70.7924 34.7879 70.7508 34.8887C70.8436 34.8103 71.0068 34.7175 71.2724 34.6951C71.7428 34.6647 71.8868 34.7335 72.2516 35.0215C72.6068 35.3015 72.8804 35.4343 73.0452 35.4055C73.0484 35.4055 73.0516 35.4055 73.0548 35.4055L73.058 35.4023Z" fill="#C09300"/>
<path d="M73.3079 35.401C73.4122 35.401 73.4967 35.3165 73.4967 35.2122C73.4967 35.108 73.4122 35.0234 73.3079 35.0234C73.2037 35.0234 73.1191 35.108 73.1191 35.2122C73.1191 35.3165 73.2037 35.401 73.3079 35.401Z" fill="white"/>
<path d="M73.4928 53.8558C78.7152 49.8382 78.2672 43.955 78.2672 43.955C78.1296 43.9822 77.9984 43.9966 77.8608 43.9966C76.7648 43.9966 74.152 43.3694 73.5424 42.5742C72.8896 43.2942 70.2192 43.9966 69.1312 43.9966C68.9936 43.9966 68.856 43.9822 68.7248 43.955C68.7248 43.955 68.2704 49.8398 73.4928 53.8558Z" fill="white"/>
<path d="M73.4927 53.9744L73.4367 53.9312C68.2351 49.9296 68.6287 44.0096 68.6335 43.9504L68.6415 43.8464L68.7439 43.8672C68.8687 43.8928 68.9983 43.9072 69.1311 43.9072C70.2351 43.9072 72.8495 43.2048 73.4751 42.5152L73.5487 42.4336L73.6159 42.5216C74.1967 43.28 76.7855 43.9088 77.8607 43.9088C77.9903 43.9088 78.1135 43.896 78.2495 43.8688L78.3519 43.848L78.3599 43.952C78.3647 44.0112 78.7519 49.9328 73.5487 53.9328L73.4927 53.976V53.9744ZM68.8111 44.0656C68.7855 44.8592 68.8015 50.0928 73.4927 53.7408C78.1839 50.0912 78.2063 44.8576 78.1807 44.064C78.0735 44.08 77.9695 44.088 77.8607 44.088C76.8047 44.088 74.2751 43.4976 73.5375 42.7088C72.7327 43.4576 70.1391 44.088 69.1311 44.088C69.0223 44.088 68.9151 44.08 68.8111 44.064V44.0656Z" fill="#C09300"/>
<path d="M73.4918 53.4081L73.4454 53.3713C71.511 51.8305 70.143 49.7617 69.4886 47.3889C69.2742 46.6113 69.1398 45.8225 69.0886 45.0465C69.0774 44.8769 69.063 44.6225 69.0646 44.3777V44.2913L69.151 44.3073C69.1974 44.3153 69.2374 44.3201 69.2742 44.3201C70.2566 44.3201 72.5814 43.7441 73.4822 43.0625L73.5286 43.0273L73.5734 43.0657C74.4662 43.8321 76.7942 44.3217 77.7142 44.3217L77.9222 44.3153V44.3905C77.9222 44.5697 77.9078 44.8769 77.8982 45.0433C77.847 45.8209 77.711 46.6081 77.4966 47.3873C76.8406 49.7633 75.471 51.8337 73.535 53.3745L73.4886 53.4113L73.4918 53.4081ZM69.2118 44.4625C69.2118 44.6753 69.2246 44.8881 69.2358 45.0369C69.287 45.8033 69.4198 46.5825 69.631 47.3505C70.2822 49.7089 71.5798 51.6833 73.4918 53.2209C75.4054 51.6817 76.7046 49.7057 77.3574 47.3457C77.5702 46.5777 77.703 45.7985 77.7542 45.0321C77.7622 44.8897 77.775 44.6417 77.7766 44.4641H77.7174C76.767 44.4657 74.4838 43.9905 73.5238 43.2129C72.5574 43.9073 70.2838 44.4657 69.2742 44.4657C69.2534 44.4657 69.2326 44.4657 69.2118 44.4625Z" fill="#C09300"/>
<mask id="mask0_210_107003" style="mask-type:luminance" maskUnits="userSpaceOnUse" x="69" y="43" width="9" height="11">
<path d="M77.811 44.4185L77.6766 44.4233C76.6942 44.4233 74.4126 43.9193 73.5342 43.1641C72.6126 43.8617 70.2942 44.4233 69.3278 44.4233C69.283 44.4233 69.2382 44.4185 69.1934 44.4089L69.2158 45.0649C69.267 45.8409 69.403 46.6185 69.6094 47.3689C70.259 49.7273 71.5902 51.7305 73.499 53.2505C75.4094 51.7289 76.7422 49.7241 77.3934 47.3641C77.603 46.6121 77.7342 45.8393 77.7886 45.0601C77.8014 44.8457 77.8094 44.6329 77.8126 44.4185H77.811Z" fill="white"/>
</mask>
<g mask="url(#mask0_210_107003)">
<path fill-rule="evenodd" clip-rule="evenodd" d="M69.1172 43.0625H72.0388V53.3521H69.1172V43.0625Z" fill="#C09300"/>
<path fill-rule="evenodd" clip-rule="evenodd" d="M72.0371 43.0625H74.9587V53.3521H72.0371V43.0625Z" fill="white"/>
<path fill-rule="evenodd" clip-rule="evenodd" d="M74.959 43.0625H77.8806V53.3521H74.959V43.0625Z" fill="#C09300"/>
</g>
</g>
<rect x="1.5" y="1.5" width="144" height="96" stroke="#151519" stroke-width="3" stroke-linecap="round"/>
<defs>
<clipPath id="clip0_210_107003">
<rect x="1.5" y="1.5" width="144" height="96" fill="white"/>
</clipPath>
</defs>
</svg>
