<svg width="147" height="99" viewBox="0 0 147 99" fill="none" xmlns="http://www.w3.org/2000/svg">
<g clip-path="url(#clip0_210_107009)">
<path d="M157.5 1.5H-10.5V97.5H157.5V1.5Z" fill="#DA0000"/>
<path d="M157.5 1.5H-10.5V65.5H157.5V1.5Z" fill="white"/>
<path d="M157.5 1.5H-10.5V33.5H157.5V1.5Z" fill="#239F40"/>
<path d="M5.92104 32.0068H2.18771V30.5134H-0.0522919V31.2601H1.44104V32.0068H-0.798958V29.7668H2.18771V28.2734H2.93437V31.2601H3.68104V28.2734H4.42771V31.2601H5.17438V28.2734H5.92104V32.0068ZM-1.54563 32.0068H-5.27896V30.5134H-7.51896V32.0068H-8.26562V29.7668H-4.53229V31.2601H-2.29229V30.5134H-3.78562V29.7668H-1.54563V32.0068ZM-6.02563 32.0068H-6.77229V31.2601H-6.02563V32.0068ZM1.44104 29.0201H-8.26562V28.2734H1.44104V29.0201Z" fill="white"/>
<path d="M5.92104 34.2472H-0.798958V32.7539H5.92104V34.2472ZM-1.54563 34.2472H-8.26562V32.7539H-1.54563V34.2472Z" fill="white"/>
<path d="M5.92104 66.2472H-0.798958V64.7539H5.92104V66.2472ZM-1.54563 66.2472H-8.26562V64.7539H-1.54563V66.2472Z" fill="white"/>
<path d="M-7.51896 70.7255H-8.26562V68.4855H-4.53229V69.9788H-2.29229V69.2322H-3.78562V68.4855H-1.54563V70.7255H-5.27896V69.2322H-7.51896V70.7255ZM5.92104 70.7255H2.18771V69.2322H-0.0522919V69.9788H1.44104V70.7255H-0.798958V68.4855H2.18771V66.9922H2.93437V69.9788H3.68104V66.9922H4.42771V69.9788H5.17438V66.9922H5.92104V70.7255ZM-6.02563 70.7255H-6.77229V69.9788H-6.02563V70.7255ZM1.44104 67.7389H-8.26562V66.9922H1.44104V67.7389Z" fill="white"/>
<path d="M20.8624 32.0068H17.1291V30.5134H14.8891V31.2601H16.3824V32.0068H14.1424V29.7668H17.1291V28.2734H17.8758V31.2601H18.6224V28.2734H19.3691V31.2601H20.1158V28.2734H20.8624V32.0068ZM13.3958 32.0068H9.66245V30.5134H7.42245V32.0068H6.67578V29.7668H10.4091V31.2601H12.6491V30.5134H11.1558V29.7668H13.3958V32.0068ZM8.91578 32.0068H8.16911V31.2601H8.91578V32.0068ZM16.3824 29.0201H6.67578V28.2734H16.3824V29.0201Z" fill="white"/>
<path d="M20.8624 34.2472H14.1424V32.7539H20.8624V34.2472ZM13.3958 34.2472H6.67578V32.7539H13.3958V34.2472Z" fill="white"/>
<path d="M20.8624 66.2472H14.1424V64.7539H20.8624V66.2472ZM13.3958 66.2472H6.67578V64.7539H13.3958V66.2472Z" fill="white"/>
<path d="M7.42245 70.7255H6.67578V68.4855H10.4091V69.9788H12.6491V69.2322H11.1558V68.4855H13.3958V70.7255H9.66245V69.2322H7.42245V70.7255ZM20.8624 70.7255H17.1291V69.2322H14.8891V69.9788H16.3824V70.7255H14.1424V68.4855H17.1291V66.9922H17.8758V69.9788H18.6224V66.9922H19.3691V69.9788H20.1158V66.9922H20.8624V70.7255ZM8.91578 70.7255H8.16911V69.9788H8.91578V70.7255ZM16.3824 67.7389H6.67578V66.9922H16.3824V67.7389Z" fill="white"/>
<path d="M35.7882 32.0068H32.0549V30.5134H29.8149V31.2601H31.3082V32.0068H29.0682V29.7668H32.0549V28.2734H32.8016V31.2601H33.5482V28.2734H34.2949V31.2601H35.0416V28.2734H35.7882V32.0068ZM28.3216 32.0068H24.5882V30.5134H22.3482V32.0068H21.6016V29.7668H25.3349V31.2601H27.5749V30.5134H26.0816V29.7668H28.3216V32.0068ZM23.8416 32.0068H23.0949V31.2601H23.8416V32.0068ZM31.3082 29.0201H21.6016V28.2734H31.3082V29.0201Z" fill="white"/>
<path d="M35.7882 34.2472H29.0682V32.7539H35.7882V34.2472ZM28.3216 34.2472H21.6016V32.7539H28.3216V34.2472Z" fill="white"/>
<path d="M35.7882 66.2472H29.0682V64.7539H35.7882V66.2472ZM28.3216 66.2472H21.6016V64.7539H28.3216V66.2472Z" fill="white"/>
<path d="M22.3482 70.7255H21.6016V68.4855H25.3349V69.9788H27.5749V69.2322H26.0816V68.4855H28.3216V70.7255H24.5882V69.2322H22.3482V70.7255ZM35.7882 70.7255H32.0549V69.2322H29.8149V69.9788H31.3082V70.7255H29.0682V68.4855H32.0549V66.9922H32.8016V69.9788H33.5482V66.9922H34.2949V69.9788H35.0416V66.9922H35.7882V70.7255ZM23.8416 70.7255H23.0949V69.9788H23.8416V70.7255ZM31.3082 67.7389H21.6016V66.9922H31.3082V67.7389Z" fill="white"/>
<path d="M50.7257 32.0068H46.9924V30.5134H44.7524V31.2601H46.2457V32.0068H44.0057V29.7668H46.9924V28.2734H47.7391V31.2601H48.4857V28.2734H49.2324V31.2601H49.9791V28.2734H50.7257V32.0068ZM43.2591 32.0068H39.5257V30.5134H37.2857V32.0068H36.5391V29.7668H40.2724V31.2601H42.5124V30.5134H41.0191V29.7668H43.2591V32.0068ZM38.7791 32.0068H38.0324V31.2601H38.7791V32.0068ZM46.2457 29.0201H36.5391V28.2734H46.2457V29.0201Z" fill="white"/>
<path d="M50.7257 34.2472H44.0057V32.7539H50.7257V34.2472ZM43.2591 34.2472H36.5391V32.7539H43.2591V34.2472Z" fill="white"/>
<path d="M50.7257 66.2472H44.0057V64.7539H50.7257V66.2472ZM43.2591 66.2472H36.5391V64.7539H43.2591V66.2472Z" fill="white"/>
<path d="M37.2857 70.7255H36.5391V68.4855H40.2724V69.9788H42.5124V69.2322H41.0191V68.4855H43.2591V70.7255H39.5257V69.2322H37.2857V70.7255ZM50.7257 70.7255H46.9924V69.2322H44.7524V69.9788H46.2457V70.7255H44.0057V68.4855H46.9924V66.9922H47.7391V69.9788H48.4857V66.9922H49.2324V69.9788H49.9791V66.9922H50.7257V70.7255ZM38.7791 70.7255H38.0324V69.9788H38.7791V70.7255ZM46.2457 67.7389H36.5391V66.9922H46.2457V67.7389Z" fill="white"/>
<path d="M65.6476 32.0068H61.9143V30.5134H59.6743V31.2601H61.1676V32.0068H58.9276V29.7668H61.9143V28.2734H62.6609V31.2601H63.4076V28.2734H64.1543V31.2601H64.9009V28.2734H65.6476V32.0068ZM58.1809 32.0068H54.4476V30.5134H52.2076V32.0068H51.4609V29.7668H55.1943V31.2601H57.4343V30.5134H55.9409V29.7668H58.1809V32.0068ZM53.7009 32.0068H52.9543V31.2601H53.7009V32.0068ZM61.1676 29.0201H51.4609V28.2734H61.1676V29.0201Z" fill="white"/>
<path d="M65.6476 34.2472H58.9276V32.7539H65.6476V34.2472ZM58.1809 34.2472H51.4609V32.7539H58.1809V34.2472Z" fill="white"/>
<path d="M65.6476 66.2472H58.9276V64.7539H65.6476V66.2472ZM58.1809 66.2472H51.4609V64.7539H58.1809V66.2472Z" fill="white"/>
<path d="M52.2076 70.7255H51.4609V68.4855H55.1943V69.9788H57.4343V69.2322H55.9409V68.4855H58.1809V70.7255H54.4476V69.2322H52.2076V70.7255ZM65.6476 70.7255H61.9143V69.2322H59.6743V69.9788H61.1676V70.7255H58.9276V68.4855H61.9143V66.9922H62.6609V69.9788H63.4076V66.9922H64.1543V69.9788H64.9009V66.9922H65.6476V70.7255ZM53.7009 70.7255H52.9543V69.9788H53.7009V70.7255ZM61.1676 67.7389H51.4609V66.9922H61.1676V67.7389Z" fill="white"/>
<path d="M80.589 32.0068H76.8557V30.5134H74.6157V31.2601H76.109V32.0068H73.869V29.7668H76.8557V28.2734H77.6023V31.2601H78.349V28.2734H79.0957V31.2601H79.8423V28.2734H80.589V32.0068ZM73.1223 32.0068H69.389V30.5134H67.149V32.0068H66.4023V29.7668H70.1357V31.2601H72.3757V30.5134H70.8823V29.7668H73.1223V32.0068ZM68.6423 32.0068H67.8957V31.2601H68.6423V32.0068ZM76.109 29.0201H66.4023V28.2734H76.109V29.0201Z" fill="white"/>
<path d="M80.589 34.2472H73.869V32.7539H80.589V34.2472ZM73.1223 34.2472H66.4023V32.7539H73.1223V34.2472Z" fill="white"/>
<path d="M80.589 66.2472H73.869V64.7539H80.589V66.2472ZM73.1223 66.2472H66.4023V64.7539H73.1223V66.2472Z" fill="white"/>
<path d="M67.149 70.7255H66.4023V68.4855H70.1357V69.9788H72.3757V69.2322H70.8823V68.4855H73.1223V70.7255H69.389V69.2322H67.149V70.7255ZM80.589 70.7255H76.8557V69.2322H74.6157V69.9788H76.109V70.7255H73.869V68.4855H76.8557V66.9922H77.6023V69.9788H78.349V66.9922H79.0957V69.9788H79.8423V66.9922H80.589V70.7255ZM68.6423 70.7255H67.8957V69.9788H68.6423V70.7255ZM76.109 67.7389H66.4023V66.9922H76.109V67.7389Z" fill="white"/>
<path d="M95.5148 32.0068H91.7815V30.5134H89.5415V31.2601H91.0348V32.0068H88.7948V29.7668H91.7815V28.2734H92.5281V31.2601H93.2748V28.2734H94.0215V31.2601H94.7681V28.2734H95.5148V32.0068ZM88.0481 32.0068H84.3148V30.5134H82.0748V32.0068H81.3281V29.7668H85.0615V31.2601H87.3015V30.5134H85.8081V29.7668H88.0481V32.0068ZM83.5681 32.0068H82.8215V31.2601H83.5681V32.0068ZM91.0348 29.0201H81.3281V28.2734H91.0348V29.0201Z" fill="white"/>
<path d="M95.5148 34.2472H88.7948V32.7539H95.5148V34.2472ZM88.0481 34.2472H81.3281V32.7539H88.0481V34.2472Z" fill="white"/>
<path d="M95.5148 66.2472H88.7948V64.7539H95.5148V66.2472ZM88.0481 66.2472H81.3281V64.7539H88.0481V66.2472Z" fill="white"/>
<path d="M82.0748 70.7255H81.3281V68.4855H85.0615V69.9788H87.3015V69.2322H85.8081V68.4855H88.0481V70.7255H84.3148V69.2322H82.0748V70.7255ZM95.5148 70.7255H91.7815V69.2322H89.5415V69.9788H91.0348V70.7255H88.7948V68.4855H91.7815V66.9922H92.5281V69.9788H93.2748V66.9922H94.0215V69.9788H94.7681V66.9922H95.5148V70.7255ZM83.5681 70.7255H82.8215V69.9788H83.5681V70.7255ZM91.0348 67.7389H81.3281V66.9922H91.0348V67.7389Z" fill="white"/>
<path d="M110.46 32.0068H106.727V30.5134H104.487V31.2601H105.98V32.0068H103.74V29.7668H106.727V28.2734H107.473V31.2601H108.22V28.2734H108.967V31.2601H109.713V28.2734H110.46V32.0068ZM102.993 32.0068H99.2601V30.5134H97.0201V32.0068H96.2734V29.7668H100.007V31.2601H102.247V30.5134H100.753V29.7668H102.993V32.0068ZM98.5134 32.0068H97.7668V31.2601H98.5134V32.0068ZM105.98 29.0201H96.2734V28.2734H105.98V29.0201Z" fill="white"/>
<path d="M110.46 34.2472H103.74V32.7539H110.46V34.2472ZM102.993 34.2472H96.2734V32.7539H102.993V34.2472Z" fill="white"/>
<path d="M110.46 66.2472H103.74V64.7539H110.46V66.2472ZM102.993 66.2472H96.2734V64.7539H102.993V66.2472Z" fill="white"/>
<path d="M97.0201 70.7255H96.2734V68.4855H100.007V69.9788H102.247V69.2322H100.753V68.4855H102.993V70.7255H99.2601V69.2322H97.0201V70.7255ZM110.46 70.7255H106.727V69.2322H104.487V69.9788H105.98V70.7255H103.74V68.4855H106.727V66.9922H107.473V69.9788H108.22V66.9922H108.967V69.9788H109.713V66.9922H110.46V70.7255ZM98.5134 70.7255H97.7668V69.9788H98.5134V70.7255ZM105.98 67.7389H96.2734V66.9922H105.98V67.7389Z" fill="white"/>
<path d="M125.382 32.0068H121.649V30.5134H119.409V31.2601H120.902V32.0068H118.662V29.7668H121.649V28.2734H122.395V31.2601H123.142V28.2734H123.889V31.2601H124.635V28.2734H125.382V32.0068ZM117.915 32.0068H114.182V30.5134H111.942V32.0068H111.195V29.7668H114.929V31.2601H117.169V30.5134H115.675V29.7668H117.915V32.0068ZM113.435 32.0068H112.689V31.2601H113.435V32.0068ZM120.902 29.0201H111.195V28.2734H120.902V29.0201Z" fill="white"/>
<path d="M125.382 34.2472H118.662V32.7539H125.382V34.2472ZM117.915 34.2472H111.195V32.7539H117.915V34.2472Z" fill="white"/>
<path d="M125.382 66.2472H118.662V64.7539H125.382V66.2472ZM117.915 66.2472H111.195V64.7539H117.915V66.2472Z" fill="white"/>
<path d="M111.942 70.7255H111.195V68.4855H114.929V69.9788H117.169V69.2322H115.675V68.4855H117.915V70.7255H114.182V69.2322H111.942V70.7255ZM125.382 70.7255H121.649V69.2322H119.409V69.9788H120.902V70.7255H118.662V68.4855H121.649V66.9922H122.395V69.9788H123.142V66.9922H123.889V69.9788H124.635V66.9922H125.382V70.7255ZM113.435 70.7255H112.689V69.9788H113.435V70.7255ZM120.902 67.7389H111.195V66.9922H120.902V67.7389Z" fill="white"/>
<path d="M140.323 32.0068H136.59V30.5134H134.35V31.2601H135.843V32.0068H133.603V29.7668H136.59V28.2734H137.337V31.2601H138.083V28.2734H138.83V31.2601H139.577V28.2734H140.323V32.0068ZM132.857 32.0068H129.123V30.5134H126.883V32.0068H126.137V29.7668H129.87V31.2601H132.11V30.5134H130.617V29.7668H132.857V32.0068ZM128.377 32.0068H127.63V31.2601H128.377V32.0068ZM135.843 29.0201H126.137V28.2734H135.843V29.0201Z" fill="white"/>
<path d="M140.323 34.2472H133.603V32.7539H140.323V34.2472ZM132.857 34.2472H126.137V32.7539H132.857V34.2472Z" fill="white"/>
<path d="M140.323 66.2472H133.603V64.7539H140.323V66.2472ZM132.857 66.2472H126.137V64.7539H132.857V66.2472Z" fill="white"/>
<path d="M126.883 70.7255H126.137V68.4855H129.87V69.9788H132.11V69.2322H130.617V68.4855H132.857V70.7255H129.123V69.2322H126.883V70.7255ZM140.323 70.7255H136.59V69.2322H134.35V69.9788H135.843V70.7255H133.603V68.4855H136.59V66.9922H137.337V69.9788H138.083V66.9922H138.83V69.9788H139.577V66.9922H140.323V70.7255ZM128.377 70.7255H127.63V69.9788H128.377V70.7255ZM135.843 67.7389H126.137V66.9922H135.843V67.7389Z" fill="white"/>
<path d="M155.265 32.0068H151.531V30.5134H149.291V31.2601H150.785V32.0068H148.545V29.7668H151.531V28.2734H152.278V31.2601H153.025V28.2734H153.771V31.2601H154.518V28.2734H155.265V32.0068ZM147.798 32.0068H144.065V30.5134H141.825V32.0068H141.078V29.7668H144.811V31.2601H147.051V30.5134H145.558V29.7668H147.798V32.0068ZM143.318 32.0068H142.571V31.2601H143.318V32.0068ZM150.785 29.0201H141.078V28.2734H150.785V29.0201Z" fill="white"/>
<path d="M155.265 34.2472H148.545V32.7539H155.265V34.2472ZM147.798 34.2472H141.078V32.7539H147.798V34.2472Z" fill="white"/>
<path d="M155.265 66.2472H148.545V64.7539H155.265V66.2472ZM147.798 66.2472H141.078V64.7539H147.798V66.2472Z" fill="white"/>
<path d="M141.825 70.7255H141.078V68.4855H144.811V69.9788H147.051V69.2322H145.558V68.4855H147.798V70.7255H144.065V69.2322H141.825V70.7255ZM155.265 70.7255H151.531V69.2322H149.291V69.9788H150.785V70.7255H148.545V68.4855H151.531V66.9922H152.278V69.9788H153.025V66.9922H153.771V69.9788H154.518V66.9922H155.265V70.7255ZM143.318 70.7255H142.571V69.9788H143.318V70.7255ZM150.785 67.7389H141.078V66.9922H150.785V67.7389Z" fill="white"/>
<path d="M66.9219 59.5387C69.3298 60.3355 71.9398 60.2703 74.3049 59.3544C76.67 58.4385 78.6431 56.7288 79.8864 54.5181C81.1296 52.3074 81.5655 49.7333 81.1196 47.2365C80.6736 44.7397 79.3735 42.4757 77.4419 40.832C78.6895 42.6776 79.3988 44.834 79.4903 47.0598C79.5817 49.2856 79.0518 51.493 77.9599 53.4347C76.8679 55.3764 75.257 56.9759 73.3076 58.0539C71.3581 59.132 69.147 59.6461 66.9219 59.5387Z" fill="#DA0000"/>
<path d="M80.9211 57.4348C82.5013 56.5214 83.7729 55.1572 84.5731 53.5168C85.3733 51.8764 85.6657 50.0345 85.4128 48.227C85.1599 46.4194 84.3732 44.7285 83.1535 43.3707C81.9338 42.0129 80.3366 41.0501 78.5664 40.6055C81.1096 42.5178 82.7891 45.3619 83.2357 48.5124C83.6823 51.6629 82.8593 54.8617 80.9477 57.4055L80.9291 57.4321" fill="#DA0000"/>
<path d="M73.4984 61.4988L72.8984 49.4988L73.4984 40.0508C73.8624 40.5605 74.3495 40.9697 74.9144 41.2401V48.2934L74.4318 60.2134L73.4984 61.4988Z" fill="#DA0000"/>
<path d="M73.2617 39.3001L73.5017 39.5267C73.7449 39.8763 74.1084 40.1239 74.5228 40.2223C74.9371 40.3206 75.3732 40.2628 75.7475 40.0597C76.1218 39.8567 76.4082 39.5228 76.5518 39.1219C76.6953 38.721 76.6861 38.2812 76.5257 37.8867C76.4647 38.2155 76.3044 38.5177 76.0663 38.7525C75.8281 38.9873 75.5237 39.1435 75.1941 39.1999C74.8645 39.2562 74.5255 39.2102 74.2229 39.0679C73.9202 38.9256 73.6685 38.6939 73.5017 38.4041" fill="#DA0000"/>
<path d="M80.079 59.5387C77.6711 60.3355 75.0611 60.2703 72.696 59.3544C70.3309 58.4385 68.3577 56.7288 67.1145 54.5181C65.8713 52.3074 65.4353 49.7333 65.8813 47.2365C66.3272 44.7397 67.6274 42.4757 69.559 40.832C68.3114 42.6776 67.6021 44.834 67.5106 47.0598C67.4191 49.2856 67.949 51.493 69.041 53.4347C70.133 55.3764 71.7439 56.9759 73.6933 58.0539C75.6428 59.132 77.8539 59.6461 80.079 59.5387Z" fill="#DA0000"/>
<path d="M66.0801 57.4348C64.4999 56.5214 63.2283 55.1572 62.4281 53.5168C61.6279 51.8764 61.3355 50.0345 61.5884 48.227C61.8414 46.4194 62.628 44.7285 63.8477 43.3707C65.0674 42.0129 66.6646 41.0501 68.4348 40.6055C65.8916 42.5178 64.2121 45.3619 63.7655 48.5124C63.3189 51.6629 64.1419 54.8617 66.0535 57.4055L66.0721 57.4321" fill="#DA0000"/>
<path d="M73.5019 61.4988L74.1019 49.4988L73.5019 40.0508C73.138 40.5605 72.6508 40.9697 72.0859 41.2401V48.2934L72.5686 60.2134L73.5019 61.4988Z" fill="#DA0000"/>
<path d="M73.7429 39.3001L73.5029 39.5267C73.2598 39.8763 72.8962 40.1239 72.4819 40.2223C72.0676 40.3206 71.6315 40.2628 71.2572 40.0597C70.8828 39.8567 70.5965 39.5228 70.4529 39.1219C70.3093 38.721 70.3186 38.2812 70.4789 37.8867C70.5399 38.2155 70.7003 38.5177 70.9384 38.7525C71.1765 38.9873 71.4809 39.1435 71.8106 39.1999C72.1402 39.2562 72.4792 39.2102 72.7818 39.0679C73.0844 38.9256 73.3361 38.6939 73.5029 38.4041" fill="#DA0000"/>
</g>
<rect x="1.5" y="1.5" width="144" height="96" stroke="#151519" stroke-width="3" stroke-linecap="round"/>
<defs>
<clipPath id="clip0_210_107009">
<rect x="1.5" y="1.5" width="144" height="96" fill="white"/>
</clipPath>
</defs>
</svg>
