<svg width="147" height="99" viewBox="0 0 147 99" fill="none" xmlns="http://www.w3.org/2000/svg">
<g clip-path="url(#clip0_210_107010)">
<path d="M1.5 1.5L145.5 1.5L145.5 97.5L1.5 97.5L1.5 1.5Z" fill="white"/>
<path d="M1.5 1.5L145.5 1.5V33.4999L1.5 33.4999L1.5 1.5Z" fill="#CD1125"/>
<path d="M1.5 65.5L145.5 65.5V97.4999L1.5 97.4999L1.5 65.5Z" fill="black"/>
<path d="M72.578 56.2268H49.1235C48.9396 57.8795 47.2347 59.0908 45.3155 58.9324C45.107 58.9152 44.9008 58.8819 44.6992 58.8329C47.984 57.2208 47.778 55.5845 45.7052 51.9481C46.8568 51.5359 47.0385 51.4269 48.2022 50.639C47.3779 53.136 50.3355 52.833 52.5173 52.833C52.5173 51.9602 52.6022 50.9663 51.9476 50.8329C52.7961 50.5299 52.8688 50.4328 54.2143 49.2936V52.6512H70.3962V50.3481C70.3962 50.0804 70.1791 49.8633 69.9114 49.8633C69.6436 49.8633 69.4265 50.0804 69.4265 50.3481V51.6814C69.4265 51.8822 69.2638 52.0451 69.0629 52.0451H56.6993V49.8633L65.984 40.8935C65.9234 41.3541 66.8811 42.5905 67.281 42.7966C66.9779 42.8451 66.6385 42.7844 66.4203 43.0026L58.8203 50.3479H67.2446C67.2446 48.3964 69.0627 48.3964 69.9112 47.7056C70.7597 48.3966 72.5778 48.3966 72.5778 50.3479V56.2268H72.578ZM74.3356 56.2268V40.8934C75.1962 41.366 75.8628 41.9115 76.9296 42.1782C76.8811 42.7842 76.3356 42.9781 76.3356 43.4025V52.8328C77.5236 53.0994 77.7902 52.4086 78.3599 52.0571C78.5053 53.5602 79.463 55.0388 79.4266 56.2268L74.3356 56.2268ZM90.3598 45.9843L92.2386 44.4086V52.651H93.5719V43.2814C94.2265 42.7359 95.075 42.1419 95.4506 41.4511V56.2269H83.6325C83.4629 53.1724 83.4629 50.0329 87.0265 50.7118V49.4634C87.0265 49.1725 86.5902 49.4028 86.5902 49.1361L89.0265 47.0997V52.6512H90.3598V45.9845V45.9843ZM89.7416 41.7661C89.5113 41.7783 89.1598 40.5177 89.2447 40.2751C89.3296 39.9964 89.6447 39.9964 89.778 40.1298C89.9961 40.3358 89.9719 41.754 89.7416 41.7661ZM87.5477 43.4752C86.8809 43.0873 86.9901 42.9298 87.5719 43.0994C88.5779 43.4025 89.0872 43.1479 89.8144 42.4084L90.3598 42.6872C91.0749 43.0509 91.5114 42.8932 91.7659 42.0205C91.8387 41.7538 92.0568 41.8266 92.1175 42.1296C92.3477 43.3418 91.4265 43.7175 90.4932 43.378C89.9842 43.2084 89.8993 43.2084 89.6447 43.4023C89.0872 43.8386 88.2872 43.9114 87.5478 43.4751L87.5477 43.4752ZM97.2083 56.2268V40.8934C98.0689 41.366 98.7354 41.9115 99.8023 42.1782C99.7537 42.7842 99.2083 42.9781 99.2083 43.4025V52.8328C100.396 53.0994 100.663 52.4086 101.233 52.0571C101.378 53.5602 102.336 55.0388 102.299 56.2268L97.2083 56.2268ZM51.2567 57.9238C51.2567 57.5288 51.5768 57.2087 51.9718 57.2087C52.3668 57.2087 52.6869 57.5288 52.6869 57.9238C52.6869 58.3187 52.3668 58.6388 51.9718 58.6388C51.5768 58.6388 51.2567 58.3187 51.2567 57.9238ZM85.9356 52.348C85.9356 52.5756 86.1797 52.7602 86.481 52.7602C86.7823 52.7602 87.0265 52.5756 87.0265 52.348C87.0265 52.1203 86.7823 51.9358 86.481 51.9358C86.1797 51.9358 85.9356 52.1203 85.9356 52.348Z" fill="#017B3D"/>
</g>
<rect x="1.5" y="1.5" width="144" height="96" stroke="#151519" stroke-width="3" stroke-linecap="round"/>
<defs>
<clipPath id="clip0_210_107010">
<rect x="1.5" y="1.5" width="144" height="96" fill="white"/>
</clipPath>
</defs>
</svg>
