<svg width="147" height="99" viewBox="0 0 147 99" fill="none" xmlns="http://www.w3.org/2000/svg">
<g clip-path="url(#clip0_210_107017)">
<path d="M1.5 1.5L145.5 1.5L145.5 97.5L1.5 97.5L1.5 1.5Z" fill="#D20023"/>
<path d="M87.6064 68.9145L73.5005 58.6661L59.3945 68.9145L64.7824 52.332L50.6758 42.083H68.1124L73.5005 25.5L78.8885 42.083L96.3251 42.083L82.2185 52.332L87.6064 68.9145ZM66.7232 53.7421L63.7342 62.9412L71.5595 57.256L66.7232 53.7421ZM75.4413 57.256L83.2665 62.9412L80.2775 53.7421L75.4413 57.2558V57.256ZM67.4645 51.4606L73.5003 55.8458L79.5361 51.4606L77.2305 44.3647H69.7699L67.4643 51.4606H67.4645ZM79.6298 44.3647L81.4772 50.0505L89.303 44.3647L79.6298 44.3647ZM57.6979 44.3647L65.5237 50.0505L67.3711 44.3647H57.6979ZM70.5115 42.083H76.4894L73.5005 32.8837L70.5115 42.083Z" fill="#006233"/>
</g>
<rect x="1.5" y="1.5" width="144" height="96" stroke="#151519" stroke-width="3" stroke-linecap="round"/>
<defs>
<clipPath id="clip0_210_107017">
<rect x="1.5" y="1.5" width="144" height="96" fill="white"/>
</clipPath>
</defs>
</svg>
