<svg width="147" height="99" viewBox="0 0 147 99" fill="none" xmlns="http://www.w3.org/2000/svg">
<g clip-path="url(#clip0_210_107020)">
<path d="M166.352 1.5L-25.6484 1.5L-25.6484 97.5L166.352 97.5L166.352 1.5Z" fill="#012169"/>
<path d="M45.5496 19.5L73.5 5.5248V1.5L65.4504 1.5L37.5 15.4752L9.5496 1.5L1.5 1.5L1.5 5.5248L29.4504 19.5L1.5 33.4752L1.5 37.5H9.5496L37.5 23.5248L65.4504 37.5L73.5 37.5V33.4752L45.5496 19.5Z" fill="white"/>
<path d="M1.5 4.1832L32.1336 19.5L37.5 19.5L1.5 1.5L1.5 4.1832Z" fill="#C8102E"/>
<path d="M6.8664 37.5L37.5 22.1832V19.5L1.5 37.5H6.8664Z" fill="#C8102E"/>
<path d="M37.4961 19.5L73.4961 37.5V34.8168L42.8625 19.5H37.4961Z" fill="#C8102E"/>
<path d="M68.1297 1.5L37.4961 16.8168V19.5L73.4961 1.5L68.1297 1.5Z" fill="#C8102E"/>
<path d="M43.5 37.5H31.5L31.5 25.5L1.5 25.5L1.5 13.5L31.5 13.5L31.5 1.5L43.5 1.5V13.5L73.5 13.5V25.5L43.5 25.5V37.5Z" fill="white"/>
<path d="M41.1 37.5H33.9L33.9 23.1L1.5 23.1L1.5 15.9L33.9 15.9V1.5L41.1 1.5V15.9L73.5 15.9V23.1L41.1 23.1L41.1 37.5Z" fill="#C8102E"/>
<path d="M113.804 21.6017L118.294 18.3409L112.745 18.3409L111.03 13.0625L109.314 18.3409H103.766L108.255 21.6017L106.54 26.8801L111.03 23.6177L115.519 26.8801L113.804 21.6017Z" fill="white"/>
<path d="M112.866 21.2995L115.833 19.1436H112.165L111.032 15.6562L109.899 19.1436H106.23L109.198 21.2995L108.065 24.7885L111.032 22.6326L113.999 24.7885L112.866 21.2995Z" fill="#C8102E"/>
<path d="M132.513 38.0303L136.51 35.127H131.571L130.044 30.4297L128.519 35.127H123.578L127.574 38.0303L126.048 42.7292L130.044 39.8244L134.04 42.7292L132.513 38.0303Z" fill="white"/>
<path d="M131.573 37.7233L134.045 35.9276H130.988L130.044 33.0195L129.1 35.9276H126.043L128.516 37.7233L127.571 40.6313L130.044 38.834L132.517 40.6313L131.573 37.7233Z" fill="#C8102E"/>
<path d="M91.6204 43.9181L96.11 40.6557H90.5612L88.846 35.3789L87.1308 40.6557H81.582L86.0716 43.9181L84.3564 49.1949L88.846 45.9341L93.3356 49.1949L91.6204 43.9181Z" fill="white"/>
<path d="M90.6824 43.6136L93.6496 41.4577H89.9814L88.8482 37.9688L87.7151 41.4577H84.0469L87.0141 43.6136L85.881 47.1009L88.8482 44.9451L91.8155 47.1009L90.6824 43.6136Z" fill="#C8102E"/>
<path d="M114.109 79.3026L119.093 75.6818H112.933L111.029 69.8242L109.125 75.6818H102.965L107.949 79.3026L106.045 85.1618L111.029 81.541L116.013 85.1618L114.109 79.3026Z" fill="white"/>
<path d="M113.167 78.9983L116.629 76.484H112.349L111.027 72.4141L109.705 76.484H105.426L108.888 78.9983L107.566 83.0683L111.027 80.554L114.489 83.0683L113.167 78.9983Z" fill="#C8102E"/>
</g>
<rect x="1.5" y="1.5" width="144" height="96" stroke="#151519" stroke-width="3" stroke-linecap="round"/>
<defs>
<clipPath id="clip0_210_107020">
<rect x="1.5" y="1.5" width="144" height="96" fill="white"/>
</clipPath>
</defs>
</svg>
