<svg width="147" height="99" viewBox="0 0 147 99" fill="none" xmlns="http://www.w3.org/2000/svg">
<g clip-path="url(#clip0_210_107023)">
<path d="M145.5 -2.86328L1.5 -2.86328L1.5 101.864L145.5 101.864L145.5 -2.86328Z" fill="#CB0028"/>
<path d="M66.9545 101.864L40.7727 101.864L40.7727 62.5913H1.5L1.5 36.4094L40.7727 36.4094L40.7727 -2.86328L66.9545 -2.86328V36.4094L145.5 36.4094V62.5913L66.9545 62.5913V101.864Z" fill="white"/>
<path d="M60.4091 101.864H47.3182L47.3182 56.0458L1.5 56.0458L1.5 42.9549L47.3182 42.9549L47.3182 -2.86328L60.4091 -2.86328L60.4091 42.9549L145.5 42.9549V56.0458L60.4091 56.0458L60.4091 101.864Z" fill="#00205B"/>
</g>
<rect x="1.5" y="1.5" width="144" height="96" stroke="#151519" stroke-width="3" stroke-linecap="round"/>
<defs>
<clipPath id="clip0_210_107023">
<rect x="1.5" y="1.5" width="144" height="96" fill="white"/>
</clipPath>
</defs>
</svg>
