<svg width="147" height="99" viewBox="0 0 147 99" fill="none" xmlns="http://www.w3.org/2000/svg">
<g clip-path="url(#clip0_210_107025)">
<path d="M-13.7734 1.5L160.772 1.5L160.772 97.5L-13.7734 97.5L-13.7734 1.5Z" fill="#0038A8"/>
<path d="M-13.7734 1.5L160.772 1.5V65.5L-13.7734 65.5L-13.7734 1.5Z" fill="white"/>
<path d="M-13.7734 1.5L160.772 1.5V33.5L-13.7734 33.5L-13.7734 1.5Z" fill="#D52B1E"/>
<path d="M85.668 49.4964C85.668 56.2193 80.2222 61.668 73.4993 61.668C66.7764 61.668 61.332 56.2193 61.332 49.4964C61.332 42.7735 66.7808 37.332 73.4993 37.332C80.2179 37.332 85.668 42.7779 85.668 49.4964Z" fill="white"/>
<path d="M73.4989 61.9352C66.6421 61.9352 61.0625 56.3556 61.0625 49.496C61.0625 42.6363 66.6407 37.0625 73.4989 37.0625C80.357 37.0625 85.9352 42.6392 85.9352 49.496C85.9352 56.3527 80.3556 61.9352 73.4989 61.9352ZM73.4989 37.5992C66.9374 37.5992 61.5992 42.936 61.5992 49.496C61.5992 56.056 66.9374 61.3985 73.4989 61.3985C80.0603 61.3985 85.3985 56.0589 85.3985 49.496C85.3985 42.933 80.0603 37.5992 73.4989 37.5992Z" fill="black"/>
<path d="M79.3827 47.6097C79.0874 47.598 79.0859 47.9239 79.0859 47.9239C79.0859 47.9239 79.0961 47.8279 79.0874 47.937C79.0816 48.0446 79.1354 48.3079 79.3536 48.3297C79.5834 48.35 79.6605 48.081 79.6619 47.95C79.6619 47.8977 79.6445 47.6155 79.3827 47.6097Z" fill="#009B3A"/>
<path d="M79.3768 48.4033C79.3666 48.4033 79.3564 48.4033 79.3463 48.4033C79.0786 48.3771 79.0073 48.076 79.0146 47.9349C79.0146 47.932 79.0146 47.9276 79.0146 47.9247H79.0117C79.0117 47.9175 79.0146 47.7385 79.131 47.6265C79.1964 47.564 79.2823 47.5364 79.3826 47.5393C79.6575 47.5465 79.7317 47.8025 79.7317 47.9509C79.7317 48.0411 79.6968 48.2185 79.5804 48.3247C79.5237 48.3771 79.4524 48.4033 79.3754 48.4033H79.3768ZM79.1601 47.8884C79.1601 47.9058 79.1601 47.9247 79.1586 47.9422C79.1543 48.0193 79.195 48.2418 79.3608 48.2578C79.4088 48.2622 79.451 48.2491 79.4859 48.2171C79.5601 48.1502 79.5892 48.0193 79.5906 47.9495C79.5906 47.9058 79.5804 47.6862 79.3812 47.6818C79.3186 47.6789 79.2706 47.6949 79.2343 47.7298C79.1863 47.7764 79.1688 47.8462 79.1615 47.8884H79.1601Z" fill="black"/>
<path d="M65.8661 54.3699L65.7614 54.1968C65.7512 54.1779 65.7236 54.1459 65.6799 54.0993C65.6596 54.0761 65.6305 54.0615 65.5999 54.0601C65.5665 54.0557 65.533 54.0615 65.5054 54.079C65.4647 54.1037 65.4385 54.1371 65.4341 54.1764C65.4268 54.2171 65.4457 54.2739 65.4908 54.351L65.5956 54.5299L65.8647 54.3699H65.8661ZM66.8959 54.3102L65.5723 55.0971L65.1679 54.4179C65.0923 54.2899 65.0472 54.1895 65.0297 54.1095C65.0094 54.0281 65.0181 53.9524 65.053 53.8768C65.0865 53.7997 65.1476 53.7371 65.2319 53.6862C65.2974 53.647 65.3716 53.6237 65.4472 53.6193C65.5214 53.6193 65.5883 53.6382 65.6552 53.6717C65.6959 53.695 65.7425 53.7313 65.7948 53.7837C65.7832 53.727 65.7759 53.6819 65.7788 53.6484C65.7832 53.6281 65.7919 53.5946 65.8108 53.5422C65.8283 53.4928 65.8457 53.4579 65.8559 53.4361L66.1236 53.0099L66.397 53.4724L66.1236 53.9321C66.0901 53.9902 66.0683 54.0353 66.0654 54.0659C66.0639 54.1095 66.0727 54.1459 66.0945 54.1837L66.1177 54.2215L66.6545 53.903L66.8988 54.3117L66.8959 54.3102ZM64.5657 53.2324L64.1614 52.0251L64.4727 51.9204L64.7257 52.6768L64.9599 52.5982L64.7214 51.8957L65.021 51.7982L65.2567 52.4979L65.5432 52.4048L65.2843 51.6251L65.6145 51.5131L66.0247 52.7437L64.5643 53.2324H64.5657ZM64.6094 50.7742L64.5934 50.6608C64.5832 50.5662 64.5599 50.5051 64.525 50.4746C64.4901 50.4426 64.4421 50.4281 64.3941 50.4339C64.3476 50.4411 64.3083 50.4615 64.2792 50.495C64.2487 50.5313 64.2385 50.5924 64.2516 50.6811L64.2647 50.8164L64.6094 50.7742ZM64.0101 51.3255L63.9185 50.5415C63.8996 50.3728 63.9243 50.239 63.9941 50.1444C64.0668 50.0499 64.1788 49.9931 64.3272 49.9771C64.4814 49.9582 64.6094 49.9917 64.7054 50.0731C64.8014 50.1561 64.8625 50.2942 64.8858 50.4833L64.9148 50.7422L65.4821 50.6768L65.5374 51.151L64.0101 51.3284V51.3255ZM63.9563 48.3233L64.0057 47.8506L64.9192 47.9495C65.005 47.9597 65.0894 47.983 65.1679 48.0193C65.2465 48.0542 65.3134 48.1081 65.3657 48.175C65.4181 48.2433 65.4559 48.3088 65.4734 48.3786C65.4967 48.4717 65.5039 48.5851 65.4879 48.7146C65.4792 48.7961 65.4647 48.8761 65.4457 48.9546C65.4268 49.0419 65.3963 49.1131 65.3599 49.1684C65.3207 49.2266 65.2697 49.2775 65.2116 49.3182C65.1548 49.3575 65.0908 49.3851 65.0239 49.3982C64.9221 49.4186 64.8363 49.423 64.7607 49.4142L63.8516 49.3182L63.901 48.8441L64.8348 48.9459C64.9192 48.9546 64.9861 48.9386 65.0385 48.8964C65.0908 48.8542 65.1199 48.7946 65.1301 48.7146C65.1388 48.6302 65.1214 48.5648 65.0807 48.5153C65.0399 48.463 64.9774 48.4353 64.893 48.4251L63.9607 48.3248L63.9563 48.3233ZM65.4865 47.0302L65.5679 46.8019C65.5927 46.7248 65.5999 46.6651 65.5825 46.6215C65.5665 46.5808 65.5316 46.5488 65.4894 46.5371C65.4428 46.5211 65.4065 46.5241 65.3687 46.5473C65.3308 46.5706 65.2974 46.6201 65.2712 46.6971L65.1897 46.927L65.485 47.0302H65.4865ZM64.9163 46.8295L64.9847 46.6361C65.0079 46.5648 65.0152 46.511 64.9977 46.4761C64.9847 46.4411 64.9556 46.4135 64.909 46.4004C64.8727 46.3859 64.8319 46.3873 64.797 46.4048C64.7636 46.4251 64.7359 46.4673 64.7127 46.5342L64.6399 46.7335L64.9163 46.8295ZM64.1905 47.0855L64.4828 46.2433C64.5337 46.1037 64.605 46.0091 64.7025 45.9568C64.7941 45.9073 64.9017 45.9001 64.9992 45.935C65.0836 45.9684 65.1476 46.0193 65.1912 46.095C65.2174 46.1444 65.2334 46.2099 65.2334 46.2855C65.2945 46.1895 65.3643 46.1284 65.4414 46.1022C65.5199 46.0746 65.6072 46.0761 65.7003 46.1081C65.773 46.1328 65.8356 46.175 65.8836 46.2302C65.9301 46.2884 65.9607 46.3524 65.9752 46.4237C65.9825 46.4702 65.9781 46.5328 65.9621 46.6099C65.9374 46.7175 65.9243 46.7859 65.9112 46.8179L65.6407 47.5931L64.189 47.0855H64.1905ZM64.9745 45.1146L65.2232 44.7088L66.2137 45.3095L66.5992 44.6753L66.9221 44.8731L66.2937 45.9117L64.9745 45.1146ZM65.9912 43.6004L66.2967 43.2353L67.4705 44.2273L67.1636 44.5924L65.9897 43.6004H65.9912ZM68.1236 42.7728L68.5236 42.6011C68.5745 42.7088 68.6036 42.8106 68.6079 42.9124C68.6123 43.0084 68.5919 43.1044 68.5512 43.1917C68.5047 43.2804 68.4305 43.3662 68.3287 43.4564C68.1977 43.5626 68.0785 43.6324 67.965 43.663C67.853 43.6921 67.7279 43.6848 67.5883 43.6411C67.453 43.5961 67.325 43.5001 67.2014 43.3546C67.0399 43.1568 66.9657 42.9648 66.9817 42.7742C66.9977 42.5808 67.101 42.4077 67.2916 42.2477C67.4414 42.1226 67.581 42.0586 67.7192 42.047C67.853 42.0339 67.9956 42.0746 68.1396 42.1648L67.8763 42.5051C67.8356 42.479 67.8036 42.4615 67.7745 42.4557C67.7323 42.4426 67.6887 42.4426 67.6465 42.4542C67.6028 42.4644 67.5636 42.4833 67.5301 42.5124C67.4472 42.5822 67.4108 42.6681 67.4225 42.7713C67.4297 42.8484 67.4792 42.9386 67.5636 43.0448C67.6741 43.1757 67.7701 43.2484 67.8487 43.2644C67.9316 43.2819 68.0072 43.2586 68.0785 43.199C68.1483 43.1393 68.1847 43.0768 68.1861 43.0099C68.1876 42.9371 68.1687 42.8586 68.1236 42.7742M69.6799 41.8491L69.2785 41.4331L69.3803 42.0033L69.6814 41.8491H69.6799ZM69.9199 42.1022L69.4385 42.3466L69.4879 42.607L69.0559 42.8266L68.8727 41.1931L69.3352 40.9575L70.5497 42.0659L70.1076 42.2928L69.9228 42.1022H69.9199ZM71.7905 40.4993L71.9083 41.3299L72.0232 41.3124C72.1221 41.3008 72.1919 41.279 72.2297 41.2513C72.2676 41.2208 72.2937 41.1815 72.3083 41.1219C72.3257 41.0651 72.3257 40.9764 72.3083 40.8542C72.285 40.6942 72.2428 40.5866 72.1832 40.5357C72.1221 40.4848 72.0305 40.4659 71.9068 40.4848L71.789 40.5008L71.7905 40.4993ZM71.2727 40.2215L71.9708 40.1211C72.109 40.1022 72.221 40.1037 72.3097 40.1299C72.4028 40.1561 72.4785 40.1982 72.5454 40.2608C72.6108 40.3233 72.6617 40.399 72.6996 40.4877C72.7403 40.5808 72.7665 40.6782 72.7796 40.7786C72.8043 40.9401 72.8043 41.0695 72.7781 41.1626C72.7563 41.2542 72.7156 41.3386 72.6574 41.4128C72.5992 41.4811 72.5337 41.5335 72.4625 41.5626C72.3752 41.6033 72.2821 41.631 72.1861 41.647L71.4865 41.7459L71.2727 40.2244V40.2215ZM73.3657 39.9233L74.6356 40.0179L74.6123 40.3451L73.8181 40.2855L73.7992 40.5299L74.5367 40.5837L74.5105 40.895L73.7774 40.8426L73.7556 41.1422L74.573 41.2033L74.5468 41.5495L73.2523 41.4535L73.3657 39.9219V39.9233ZM75.3221 40.1022L75.7788 40.2302L75.4632 41.3473L76.1774 41.5495L76.0727 41.9117L74.9017 41.5801L75.3221 40.1022ZM77.917 41.8084L78.0159 41.8724C78.0916 41.9233 78.1556 41.9437 78.2021 41.9393C78.2487 41.9364 78.2923 41.9102 78.3156 41.8681C78.3403 41.8288 78.3505 41.7851 78.3447 41.7386C78.3359 41.6935 78.2937 41.647 78.2196 41.599L78.1061 41.5219L77.9185 41.8099L77.917 41.8084ZM77.8792 40.9982L78.5396 41.4346C78.6821 41.5291 78.7665 41.6353 78.7927 41.7488C78.8203 41.8651 78.7927 41.9873 78.7068 42.1124C78.6239 42.2404 78.5177 42.3161 78.3912 42.3379C78.2632 42.3582 78.1221 42.319 77.9621 42.2128L77.7454 42.0688L77.4327 42.5444L77.0341 42.2811L77.8792 40.9982ZM79.5476 43.343L79.8152 42.831L79.3061 43.1059L79.5476 43.343ZM79.3847 43.6484L78.9992 43.2688L78.7665 43.3968L78.4203 43.0579L79.1301 42.7291L79.9127 42.367L80.2807 42.7306L79.6116 44.2331L79.2581 43.8826L79.3832 43.647L79.3847 43.6484ZM80.813 44.3161L80.9207 44.4877C80.9337 44.5051 80.957 44.5386 81.005 44.5837C81.0268 44.6055 81.0574 44.6186 81.0879 44.6201C81.1199 44.6244 81.1519 44.6157 81.1796 44.5968C81.2203 44.5706 81.2436 44.5386 81.2508 44.4964C81.2567 44.4571 81.2348 44.3975 81.1868 44.3248L81.0763 44.1488L80.8116 44.3161H80.813ZM79.7847 44.4077L81.0807 43.5801L81.5068 44.2477C81.5854 44.3713 81.6363 44.4717 81.6596 44.5502C81.6785 44.6288 81.6712 44.7102 81.6392 44.7844C81.6072 44.863 81.5505 44.927 81.469 44.9793C81.3948 45.0259 81.325 45.0521 81.2523 45.0521C81.1839 45.0564 81.1127 45.039 81.0428 45.0099C80.9919 44.9793 80.9454 44.9415 80.9017 44.9008C80.9148 44.9575 80.9236 45.0026 80.9221 45.0346C80.9148 45.071 80.9061 45.1059 80.8945 45.1408C80.8828 45.1786 80.8668 45.215 80.8479 45.2499L80.5977 45.6848L80.3068 45.231L80.5672 44.7655C80.6021 44.703 80.6196 44.6593 80.6196 44.6273C80.621 44.5851 80.6152 44.5459 80.5876 44.511L80.5672 44.4761L80.0392 44.8121L79.7832 44.4091L79.7847 44.4077ZM81.6028 46.479L82.0639 46.1313L81.4879 46.1633L81.6028 46.479ZM81.3236 46.6855L81.1388 46.1764L80.877 46.1953L80.7097 45.7386L82.3534 45.7575L82.5308 46.2433L81.2828 47.3124L81.1112 46.8426L81.3236 46.6855ZM82.0596 48.3219L82.3767 48.2797L82.4683 49.0128L81.8181 49.0913C81.7076 48.9633 81.6247 48.8499 81.5796 48.7451C81.5301 48.6419 81.4981 48.5168 81.4792 48.3699C81.4559 48.1895 81.4676 48.0368 81.5185 47.9161C81.5636 47.7939 81.645 47.6935 81.7599 47.6135C81.8748 47.5379 82.0101 47.4884 82.1672 47.4681C82.333 47.4462 82.4828 47.4637 82.6152 47.5175C82.7461 47.5699 82.8523 47.6586 82.9337 47.7822C82.9963 47.8811 83.0385 48.0164 83.0588 48.191C83.0821 48.3582 83.0821 48.4862 83.0603 48.5735C83.0443 48.6579 83.0036 48.7379 82.9439 48.8004C82.8814 48.8688 82.8043 48.9211 82.7185 48.9546L82.5803 48.511C82.6356 48.4833 82.6763 48.4484 82.6996 48.3975C82.7243 48.3495 82.7316 48.2884 82.7243 48.2215C82.7068 48.1168 82.6647 48.0397 82.5861 47.9873C82.5061 47.935 82.3868 47.919 82.2312 47.9379C82.0654 47.9582 81.9534 48.0062 81.8894 48.0746C81.8283 48.1473 81.805 48.239 81.8167 48.3495C81.8225 48.4019 81.8385 48.4513 81.8574 48.4964C81.8792 48.5444 81.9112 48.5939 81.9563 48.6535L82.1017 48.6331L82.061 48.3175L82.0596 48.3219ZM83.0327 50.6288L82.9788 51.1001L82.0697 50.9982C81.9825 50.9895 81.8981 50.9648 81.8181 50.927C81.741 50.8906 81.6741 50.8368 81.6217 50.7713C81.5694 50.7044 81.5345 50.6375 81.517 50.5691C81.4952 50.4702 81.4894 50.3611 81.5039 50.2302C81.5141 50.1561 81.5287 50.0746 81.5461 49.9888C81.5665 49.9015 81.597 49.8317 81.6363 49.7764C81.6756 49.7182 81.7265 49.6688 81.7832 49.6281C81.8501 49.5859 81.9112 49.5597 81.9723 49.5495C82.0727 49.5306 82.1614 49.5248 82.2356 49.535L83.1461 49.6382L83.0923 50.1081L82.1599 50.0004C82.0756 49.9917 82.0087 50.0062 81.9548 50.0484C81.9039 50.0906 81.8734 50.1502 81.8647 50.2317C81.8559 50.3146 81.8705 50.3815 81.9127 50.431C81.9534 50.4819 82.0159 50.5124 82.0988 50.5255L83.0312 50.6288H83.0327ZM81.6174 52.3786L82.1963 52.399L81.7279 52.0571L81.6159 52.3771L81.6174 52.3786ZM81.2741 52.3611L81.4501 51.8506L81.2348 51.6964L81.3948 51.2368L82.6588 52.287L82.4843 52.7786L80.845 52.8193L81.0065 52.3481L81.2727 52.3597L81.2741 52.3611ZM82.1236 53.7764L81.8559 54.2317H81.2508L81.5403 54.7655L81.2741 55.215L80.8072 54.2462L80.253 53.919L80.4959 53.5073L81.0501 53.8361L82.1236 53.775V53.7764Z" fill="black"/>
<path d="M73.4969 59.7971C67.8213 59.7971 63.2031 55.1789 63.2031 49.5018C63.2031 43.8248 67.8213 39.2109 73.4969 39.2109C79.1726 39.2109 83.7893 43.8277 83.7893 49.5018C83.7893 55.1789 79.1726 59.7971 73.4969 59.7971ZM73.4969 39.4248C67.9391 39.4248 63.4184 43.9455 63.4184 49.5004C63.4184 55.0553 67.9406 59.5818 73.4984 59.5818C79.0562 59.5818 83.5769 55.0597 83.5769 49.5004C83.5769 43.944 79.0562 39.4248 73.4984 39.4248H73.4969Z" fill="black"/>
<path d="M73.4973 57.1558C69.2588 57.1558 65.8086 53.7071 65.8086 49.4671C65.8086 45.2271 69.2573 41.7812 73.4959 41.7812C77.7344 41.7812 81.1831 45.2285 81.1831 49.4671C81.1831 53.7071 77.7344 57.1558 73.4973 57.1558ZM73.4973 41.9951C69.3766 41.9951 66.0239 45.3463 66.0239 49.4656C66.0239 53.5849 69.3766 56.9405 73.4973 56.9405C77.618 56.9405 80.9693 53.5878 80.9693 49.4656C80.9693 47.47 80.1926 45.5936 78.7817 44.1827C77.3708 42.7718 75.4944 41.9936 73.4973 41.9936V41.9951Z" fill="black"/>
<path d="M73.497 46.7383L74.134 48.5608L76.0599 48.6045L74.5253 49.7725L75.0839 51.6197L73.4984 50.5216L71.9115 51.6197L72.4671 49.7725L70.9297 48.6045L72.8599 48.5608L73.4984 46.7383H73.497Z" fill="#FEDF00"/>
<path d="M75.1625 51.7255L73.4985 50.5735L71.8345 51.7255L72.4178 49.788L70.8047 48.5633L72.8294 48.5182L73.5 46.6055L74.1676 48.5182L76.1894 48.5633L74.5792 49.788L75.1654 51.7255H75.1625ZM71.0563 48.6447L72.5181 49.7546L71.9901 51.5102L73.4985 50.4658L75.0069 51.5102L74.476 49.7546L75.9363 48.6447L74.1051 48.604L73.5 46.8716L72.8934 48.604L71.0578 48.6447H71.0563Z" fill="black"/>
<path d="M76.9988 54.6978C76.9348 54.7516 76.6759 54.7807 76.6075 54.7923C76.5377 54.801 76.2672 54.8039 76.1522 54.8083C76.0897 54.8127 75.9675 54.8301 75.9035 54.8301C75.3464 54.7661 76.8082 54.7749 76.9988 54.6978ZM75.5399 54.2672C75.5763 54.2018 75.7595 53.7959 75.825 53.681C75.8919 53.5676 76.0432 53.265 76.1333 53.1399C76.1799 53.0716 76.3617 52.8752 76.4053 52.9625C76.0897 53.2359 75.8395 53.713 75.7072 54.0345C75.6897 54.0694 75.5864 54.2483 75.5472 54.2949C75.5093 54.3414 75.5253 54.4272 75.4672 54.4345C75.4061 54.4418 75.4483 54.4534 75.4483 54.4534C75.4483 54.4534 75.5006 54.3356 75.5413 54.2672H75.5399ZM77.6388 54.5785C77.6388 54.5785 77.3872 54.5407 77.2315 54.4854C77.0759 54.433 76.8155 54.3923 76.593 54.3981C76.3733 54.401 76.1712 54.4679 75.9908 54.5363C75.8119 54.6032 75.5806 54.609 75.5806 54.609C75.5806 54.609 75.4497 54.6294 75.5108 54.5989C75.569 54.5698 75.7726 54.4112 75.7726 54.4112L75.9035 54.2323C75.9413 54.2221 76.6075 53.3479 76.5348 53.1138C76.6366 52.9407 76.7559 52.6338 76.7108 52.58C76.689 52.5581 76.193 52.737 76.0839 52.8359C75.9573 52.945 75.8686 53.172 75.8308 53.3029C75.7944 53.4323 75.6024 53.5399 75.6024 53.5399C75.4468 53.6519 75.3348 54.0054 75.281 54.2949C75.2272 54.5799 74.5232 54.7385 74.5232 54.7385C74.5232 54.7385 74.3282 54.8112 74.5013 54.8665C74.5319 54.8752 74.609 55.0061 74.6701 55.0076C74.7559 55.0178 75.1937 54.8301 75.2606 54.8447C75.409 54.8781 75.5559 54.9189 75.7013 54.9654C75.8686 55.0221 76.0053 55.0512 76.1232 55.0076C76.241 54.9654 76.4112 54.9814 76.5377 55.0061C76.6628 55.0323 76.8024 55.0221 76.8824 54.9974C76.9682 54.9712 77.1952 54.8447 77.1952 54.8447C77.1952 54.8447 77.441 54.7385 77.5821 54.6716C77.7246 54.6047 77.6373 54.5756 77.6373 54.5756" fill="#009B3A"/>
<path d="M75.9997 55.083C75.8979 55.083 75.7888 55.0525 75.6841 55.0176C75.5416 54.9725 75.3961 54.9317 75.2492 54.8983C75.2274 54.8968 75.0848 54.9434 74.9947 54.9754C74.8245 55.0336 74.7183 55.0685 74.6645 55.0627C74.6063 55.0612 74.5539 55.0001 74.5117 54.9521C74.5001 54.939 74.4841 54.9201 74.4783 54.9157C74.4594 54.9099 74.3779 54.8852 74.375 54.8154C74.3736 54.7441 74.4652 54.7019 74.5045 54.6874C74.6979 54.6437 75.1896 54.4896 75.2274 54.2845C75.2536 54.1376 75.3583 53.6474 75.5706 53.4947C75.623 53.4641 75.7525 53.3754 75.7786 53.2867C75.7961 53.2285 75.8877 52.9317 76.0492 52.7936C76.1103 52.7383 76.6776 52.4648 76.7517 52.5405C76.839 52.6452 76.6441 53.0292 76.5947 53.1208C76.6048 53.1819 76.5917 53.2939 76.4565 53.5397C76.3285 53.7725 76.0536 54.1681 75.9488 54.2627L75.8077 54.4532C75.7976 54.4619 75.7452 54.5027 75.687 54.5448C75.7685 54.5361 75.879 54.5187 75.9736 54.4837C76.1612 54.4125 76.3663 54.3456 76.5932 54.3427C76.8056 54.3368 77.0776 54.3747 77.2506 54.4328C77.4005 54.4852 77.6463 54.523 77.6492 54.523L77.6419 54.5754L77.6594 54.5259C77.687 54.5347 77.7205 54.5608 77.7219 54.6016C77.7248 54.6612 77.6637 54.6976 77.6085 54.7237C77.4659 54.7907 77.2201 54.8968 77.2201 54.8968C77.2012 54.907 76.9903 55.0234 76.9016 55.051C76.8157 55.0772 76.6674 55.0917 76.5292 55.0612C76.4361 55.0437 76.2616 55.019 76.1452 55.0612C76.1001 55.0787 76.0521 55.0845 76.0027 55.0845L75.9997 55.083ZM75.2536 54.7892C75.2608 54.7892 75.2681 54.7892 75.2739 54.7907C75.4237 54.8241 75.5736 54.8648 75.719 54.9128C75.8557 54.9594 75.9954 54.9957 76.1045 54.9565C76.2397 54.9085 76.4201 54.9274 76.5481 54.9521C76.6674 54.9783 76.7968 54.9652 76.8667 54.9448C76.9336 54.9245 77.1081 54.8314 77.1692 54.7965C77.1736 54.7936 77.4179 54.6888 77.559 54.6219C77.5605 54.6219 77.5619 54.6205 77.5634 54.619C77.4761 54.6045 77.3219 54.5739 77.2114 54.5347C77.0499 54.4808 76.7954 54.4445 76.5917 54.4503C76.3808 54.4532 76.1874 54.5172 76.0085 54.5841C75.8223 54.6539 75.5896 54.6597 75.5794 54.6597C75.5226 54.6685 75.4572 54.6801 75.4397 54.6248C75.4339 54.6059 75.4325 54.5725 75.4834 54.5463C75.5212 54.5274 75.6521 54.4299 75.7292 54.3688L75.8761 54.1783C75.9779 54.0837 76.535 53.3041 76.4797 53.1267L76.4725 53.1034L76.4841 53.083C76.5728 52.9347 76.6514 52.7252 76.6616 52.6379C76.5394 52.6699 76.2005 52.7994 76.1176 52.875C76.0099 52.9681 75.9226 53.1717 75.8805 53.3172C75.8383 53.4641 75.6477 53.5747 75.6259 53.5877C75.4892 53.6867 75.3816 54.0357 75.3321 54.3048C75.2739 54.6176 74.6077 54.7761 74.5321 54.7921C74.5234 54.7965 74.5103 54.8023 74.5001 54.8096C74.5045 54.811 74.5088 54.8125 74.5146 54.8154C74.5394 54.8227 74.5597 54.8459 74.5903 54.8808C74.6092 54.9027 74.6514 54.9507 74.6703 54.955C74.7096 54.9608 74.8565 54.907 74.9554 54.8736C75.1183 54.8183 75.2012 54.7921 75.2492 54.7921L75.2536 54.7892ZM75.9023 54.8837C75.783 54.8707 75.7205 54.8634 75.7219 54.8023C75.7248 54.7354 75.7437 54.7339 76.2325 54.7107C76.5132 54.6976 76.8972 54.6787 76.9772 54.6467L76.9976 54.6976L77.0325 54.7397C76.9714 54.7907 76.8143 54.8168 76.6601 54.8401L76.615 54.8474C76.5626 54.8547 76.4216 54.8576 76.2979 54.8605C76.2412 54.8605 76.1888 54.8634 76.1525 54.8648C76.1306 54.8663 76.0987 54.8692 76.0652 54.8736C76.007 54.8794 75.943 54.8867 75.9008 54.8867L75.9023 54.8837ZM75.4776 54.5172L75.4325 54.5056C75.3888 54.4939 75.3757 54.4648 75.3772 54.4401C75.3786 54.4125 75.3961 54.3979 75.415 54.3892C75.4339 54.3485 75.4659 54.283 75.4921 54.2379C75.5081 54.2103 75.5474 54.1259 75.5925 54.0299C75.6608 53.8859 75.7379 53.7216 75.7772 53.6517C75.8005 53.6125 75.831 53.5543 75.8674 53.4874C75.9387 53.355 76.0274 53.1921 76.0885 53.1048C76.0885 53.1048 76.2528 52.8736 76.3779 52.8823C76.4114 52.8852 76.439 52.9041 76.455 52.9347L76.4739 52.9725L76.4419 53.0001C76.0826 53.3099 75.8281 53.883 75.7583 54.0517C75.7408 54.0881 75.6347 54.2728 75.591 54.3252C75.5837 54.3339 75.5794 54.3528 75.5736 54.3717C75.5648 54.4067 75.5503 54.4619 75.495 54.4808L75.4805 54.5143L75.4776 54.5172Z" fill="black"/>
<path d="M75.7238 55.4254C75.7238 55.4254 74.7551 54.9178 74.7027 54.9062C74.6722 54.9018 74.2634 54.6764 74.0758 54.6182C73.9405 54.5745 73.7529 54.5629 73.686 54.5673C73.526 54.5789 73.2656 54.6487 73.2656 54.6487L73.5071 54.7476C73.5071 54.7476 73.7325 54.8582 73.8431 54.9178C74.0016 55.0007 74.0089 55.1025 74.0089 55.1025L74.886 55.488L75.0634 55.616C75.0634 55.616 75.2249 55.392 75.7223 55.424" fill="#009B3A"/>
<path d="M75.0751 55.6792L74.8613 55.5265L73.9667 55.1337V55.1076C73.9667 55.1076 73.9536 55.0276 73.8227 54.9577C73.7122 54.8981 73.4867 54.7876 73.4867 54.7876L73.1289 54.6407L73.254 54.6072C73.2642 54.6043 73.5202 54.5359 73.6831 54.5243C73.7515 54.5199 73.9464 54.5316 74.0889 54.5767C74.2125 54.6145 74.4293 54.7236 74.5718 54.7963C74.6344 54.8283 74.6998 54.8603 74.7129 54.8647C74.7667 54.8763 75.5158 55.2676 75.7442 55.3883L75.7209 55.4712C75.2569 55.4436 75.1013 55.6428 75.0998 55.6457L75.0736 55.6807L75.0751 55.6792ZM74.0482 55.0741L74.9049 55.4508L75.0591 55.5614C75.1158 55.5061 75.2627 55.4014 75.5449 55.3839C75.1871 55.1977 74.7333 54.965 74.6911 54.9519C74.6795 54.9519 74.6547 54.9388 74.5325 54.8777C74.3914 54.8065 74.1791 54.7003 74.0627 54.6639C73.9362 54.6232 73.7558 54.6116 73.6889 54.6145C73.606 54.6203 73.494 54.6436 73.4067 54.6625L73.5231 54.7105C73.5231 54.7105 73.7529 54.8239 73.8634 54.8836C73.9929 54.9519 74.0336 55.0334 74.0467 55.0756L74.0482 55.0741Z" fill="black"/>
<path d="M76.7002 53.4116C77.0057 53.1396 77.154 52.7527 77.4057 52.5389C77.4464 52.568 77.4464 52.616 77.3969 52.7018C77.3489 52.7861 77.2864 52.8152 77.2588 52.8589C77.2079 52.9272 77.0551 53.0538 77.013 53.1309C76.9766 53.2036 76.9286 53.304 76.7962 53.3811C76.6639 53.4596 76.706 53.5861 76.6944 53.6385C76.6842 53.6967 76.4806 53.8422 76.3817 54.0225C76.3628 54.2102 76.354 54.1316 76.2406 54.1985C76.4486 53.8858 76.5577 53.6836 76.7017 53.4102M76.0166 54.2712C75.9962 54.312 75.3955 54.6538 75.5831 54.6029C75.7693 54.5534 76.325 54.3527 76.4835 54.2829C76.677 54.1985 76.7919 54.0211 76.9373 53.8785C77.0857 53.7316 77.5424 53.2938 77.6224 53.1251C77.6995 52.952 77.7708 52.7105 77.4595 52.168C77.4595 52.168 77.4115 52.2712 77.2951 52.3731C77.1802 52.4763 77.01 52.5912 77.01 52.5912L76.8108 52.7789C76.8108 52.7789 76.1082 54.0705 76.0151 54.2712" fill="#009B3A"/>
<path d="M75.5559 54.668C75.5327 54.668 75.508 54.6607 75.4949 54.6316C75.4687 54.5705 75.5123 54.5414 75.7785 54.3698C75.8483 54.3247 75.9443 54.2636 75.9676 54.2432C76.0723 54.0207 76.7327 52.8076 76.7618 52.7552L76.7734 52.7407L76.9727 52.5531C76.9814 52.5458 77.1487 52.4338 77.2578 52.3334C77.3625 52.2418 77.4076 52.1472 77.4076 52.1472L77.4556 52.0469L77.5109 52.1429C77.8149 52.6738 77.7698 52.9414 77.6752 53.1523C77.601 53.3109 77.2374 53.6687 77.0425 53.8592L76.9785 53.9218C76.9407 53.9596 76.9043 54.0003 76.868 54.0396C76.7661 54.1531 76.6599 54.2709 76.5072 54.3378C76.3443 54.4105 75.7829 54.6127 75.5981 54.6607C75.5894 54.6636 75.5734 54.668 75.5559 54.668ZM76.065 54.2956L76.0694 54.2985C76.0563 54.3247 76.0272 54.3465 75.8498 54.46C76.0781 54.3814 76.3545 54.2796 76.4607 54.2316C76.5901 54.1749 76.6832 54.0716 76.7821 53.9611C76.8199 53.9189 76.8578 53.8767 76.897 53.8374L76.961 53.7749C77.137 53.6018 77.505 53.2411 77.5705 53.1014C77.6418 52.9414 77.6956 52.7334 77.457 52.2825C77.428 52.3218 77.3887 52.3698 77.3349 52.4163C77.2199 52.5211 77.0512 52.6345 77.0439 52.6389L76.8592 52.8149C76.7996 52.924 76.1567 54.1065 76.0694 54.2956H76.065ZM76.2701 54.2491L76.193 54.1676C76.3981 53.8578 76.5072 53.6571 76.6512 53.3836L76.6876 53.4025C76.6876 53.4025 76.6905 53.3996 76.6905 53.3981L76.6629 53.3676C76.8141 53.2323 76.9276 53.0651 77.0367 52.9051C77.1414 52.7494 77.2418 52.6025 77.3683 52.4934L77.4032 52.4643L77.4396 52.4905C77.508 52.54 77.5109 52.62 77.4469 52.7305C77.4149 52.7887 77.3756 52.8236 77.345 52.8512C77.329 52.8658 77.3145 52.8789 77.3072 52.8891C77.281 52.9254 77.2403 52.9647 77.1981 53.0069C77.1472 53.0578 77.0847 53.1203 77.0643 53.1567C77.0236 53.2367 76.9683 53.3472 76.8258 53.4287C76.753 53.4723 76.7545 53.532 76.7545 53.5887C76.7545 53.6091 76.7545 53.6294 76.7516 53.6483C76.7443 53.6891 76.7036 53.7298 76.6381 53.7981C76.5727 53.8651 76.4912 53.948 76.4389 54.0396C76.4272 54.1574 76.4156 54.1996 76.3356 54.2214C76.3181 54.2258 76.2992 54.2316 76.2716 54.2476L76.2701 54.2491ZM77.3363 52.6912C77.3232 52.7058 77.3116 52.7218 77.2985 52.7363C77.3116 52.7232 77.3247 52.7087 77.3363 52.6912Z" fill="black"/>
<path d="M78.4605 53.8203C78.4605 53.8203 78.075 53.7854 78.0416 53.7854C78.0052 53.7854 77.7943 53.7563 77.4874 53.7563C77.1805 53.7563 77.0699 53.861 76.9899 53.9469C76.9041 54.0414 76.6641 54.261 76.6641 54.261L76.7936 54.2494C77.1019 54.0094 77.3405 54.0981 77.4365 54.0909C77.5368 54.0879 77.6561 54.0967 77.9645 53.9876C78.2772 53.8785 78.2583 53.9803 78.2248 53.9905C78.075 54.0443 77.9194 54.0763 77.7608 54.0836C77.5281 54.0967 77.3245 54.1418 77.2343 54.1418C77.1441 54.1418 76.4648 54.3265 76.4648 54.3265C76.4648 54.3265 77.1979 54.3701 77.2765 54.3963C77.355 54.4283 77.4787 54.4138 77.5805 54.3643C77.8612 54.2349 77.9878 54.2101 78.1041 54.1839C78.2205 54.1621 78.3587 54.0821 78.3587 54.0821C78.3587 54.0821 78.4328 54.0356 78.5012 53.9105C78.571 53.7825 78.4605 53.8174 78.4605 53.8174M78.8198 51.8087C78.8663 51.6938 78.9812 51.4247 79.1048 51.3185C79.179 51.253 79.3085 51.2225 79.3768 51.1934C79.4059 51.1832 79.6168 51.173 79.3536 51.2458C79.2445 51.2749 79.0976 51.3389 79.0321 51.4494C78.9405 51.7039 78.8605 51.9265 78.6888 52.0894C78.5637 52.2203 78.4838 52.3919 78.4838 52.3919L78.3499 52.4385C78.5958 52.2872 78.7034 52.0079 78.8212 51.8072L78.8198 51.8087ZM80.011 51.6647C79.8699 51.7112 79.8219 51.7505 79.8219 51.7505C79.5078 51.845 79.3798 52.0414 79.2416 52.2028C79.1718 52.2872 79.0728 52.3498 78.7427 52.4923C78.4401 52.6218 78.2059 52.8239 78.2001 52.8239C78.2001 52.8239 78.1041 52.8443 78.123 52.8909C78.1303 52.9127 78.2118 52.8952 78.2118 52.8952C78.2118 52.8952 78.8358 52.8065 79.0961 52.6479C79.2619 52.5432 79.3565 52.4676 79.5136 52.2247C79.5834 52.117 79.6634 51.9149 79.6663 52.0458C79.6779 52.3905 79.1427 52.725 78.9085 52.8283C78.7834 52.8807 78.6161 52.9039 78.3994 52.9389C78.1841 52.9781 78.0532 52.9665 78.0692 52.9185C78.091 52.8501 78.1158 52.8356 78.1739 52.7672C78.2772 52.645 78.5245 52.6014 78.7063 52.5156C78.9216 52.4181 79.1267 52.277 79.2299 52.1549C79.3347 52.0312 79.371 51.9861 79.4001 51.8829C79.4801 51.6109 79.4845 51.461 79.5587 51.3636C79.8219 51.0392 79.8612 50.9345 79.8743 50.789C79.8772 50.7556 79.7376 50.8661 79.6648 50.9069C79.5223 50.9912 79.4699 50.9912 79.179 51.0669C78.8838 51.141 78.891 51.3301 78.8445 51.4203C78.8314 51.4567 78.7121 51.605 78.6539 51.6327C78.5972 51.6618 78.4561 51.8639 78.4052 51.9832C78.3674 52.0705 78.2976 52.133 78.2438 52.1258C78.1856 52.1156 78.3543 51.4858 78.3907 51.3825C78.4314 51.2792 78.4387 51.077 78.4387 51.0101C78.4387 50.9432 78.4416 50.7745 78.3267 50.7541C78.2132 50.7352 78.2074 50.5781 78.2074 50.5781C77.9339 50.8138 78.0867 51.2312 78.1157 51.477C78.1448 51.7214 78.059 52.1752 78.059 52.1752C78.3223 52.2872 78.1158 52.6087 78.0328 52.7119C77.947 52.8167 77.7827 52.837 77.7099 52.9287C77.6328 53.0247 77.0801 53.7927 77.0801 53.7927L77.7667 53.5978C77.7667 53.5978 77.8307 53.6094 77.7274 53.5309C77.6227 53.4567 77.7608 53.1672 77.8496 53.0974C78.0183 52.965 78.2467 53.061 78.2467 53.061C78.2467 53.061 78.5652 53.1105 78.9565 52.9549C79.2823 52.8254 79.4234 52.6174 79.5776 52.4603C79.6619 52.3745 79.8161 52.0909 79.9121 51.9221C79.9703 51.8247 80.075 51.6399 80.011 51.6618" fill="#009B3A"/>
<path d="M77.3758 54.4692C77.3307 54.4692 77.2899 54.4619 77.255 54.4474C77.2085 54.4328 76.7619 54.3994 76.4609 54.3819L76.4492 54.2743C76.4798 54.2656 76.5408 54.2496 76.6165 54.2292L76.6281 54.219C76.6281 54.219 76.8667 54.0008 76.951 53.9092C76.9598 53.9005 76.9685 53.8918 76.9772 53.8816L76.9438 53.8903L77.0354 53.7623C77.0587 53.7303 77.5896 52.9914 77.6667 52.8954C77.7103 52.8416 77.7743 52.8096 77.8369 52.779C77.8965 52.7499 77.9532 52.7223 77.9896 52.6787C78.0536 52.5972 78.1554 52.4314 78.1278 52.3223C78.1176 52.2801 78.087 52.2496 78.0361 52.2278L77.9954 52.2103L78.0041 52.1667C78.0041 52.1667 78.087 51.7187 78.0594 51.4859C78.0536 51.4408 78.0449 51.3885 78.0332 51.3347C77.9867 51.0888 77.9227 50.7514 78.1685 50.539L78.2543 50.4648L78.2587 50.5783C78.2587 50.5783 78.2645 50.6903 78.3314 50.7019C78.4885 50.7281 78.4885 50.9317 78.4885 51.0074C78.4885 51.0219 78.4885 51.2721 78.4376 51.4045C78.3998 51.5121 78.2965 51.9121 78.2834 52.0576C78.3052 52.0401 78.3314 52.0096 78.3518 51.9645C78.4027 51.8467 78.5496 51.6256 78.6267 51.5863C78.6689 51.5659 78.7779 51.4336 78.791 51.403C78.8012 51.3827 78.807 51.3623 78.8143 51.3419C78.8478 51.2387 78.8972 51.0816 79.1634 51.0161C79.2245 51.0001 79.2754 50.987 79.319 50.9768C79.4805 50.9361 79.5285 50.9245 79.6332 50.8619C79.6579 50.8474 79.6899 50.827 79.7205 50.8067C79.8165 50.7427 79.8558 50.7165 79.8965 50.7398L79.9256 50.7572V50.7965C79.9096 50.9638 79.8587 51.0801 79.5983 51.4001C79.559 51.451 79.5416 51.5281 79.5154 51.6445C79.4994 51.7143 79.4805 51.7958 79.4528 51.8932C79.5401 51.8176 79.6492 51.7492 79.7976 51.7041C79.8194 51.6896 79.8776 51.6561 79.9939 51.6168C80.039 51.6008 80.0652 51.627 80.071 51.6358C80.0987 51.6692 80.1059 51.7128 79.959 51.9572L79.9052 52.0503C79.8049 52.2278 79.6899 52.4285 79.6158 52.5056C79.5867 52.5347 79.5576 52.5667 79.5285 52.5987C79.399 52.7412 79.2507 52.9041 78.9758 53.0118C78.5758 53.1703 78.2514 53.1238 78.2383 53.1208C78.2238 53.1165 78.0245 53.035 77.8834 53.1456C77.8296 53.1878 77.7423 53.3521 77.7452 53.4496C77.7452 53.4641 77.7481 53.4845 77.7598 53.4918C77.8019 53.5238 77.8587 53.5674 77.8354 53.6198C77.8252 53.6445 77.8019 53.659 77.7714 53.6576L77.6085 53.7041C77.7787 53.7085 77.9081 53.7201 77.9852 53.7274C78.0129 53.7303 78.0332 53.7318 78.0405 53.7318C78.0739 53.7318 78.3721 53.7579 78.4536 53.7652C78.4899 53.7565 78.5321 53.7608 78.5583 53.7928C78.6005 53.8438 78.5583 53.9165 78.5467 53.9412C78.4725 54.0765 78.3896 54.1303 78.3852 54.1318C78.3765 54.1361 78.2354 54.2161 78.1118 54.2408L78.0943 54.2452C77.9852 54.2699 77.8616 54.2976 77.6012 54.4168C77.527 54.4518 77.447 54.4707 77.3743 54.4707L77.3758 54.4692ZM76.823 54.2961C77.0267 54.3107 77.2478 54.3296 77.2943 54.3441C77.3598 54.3703 77.4674 54.3587 77.5576 54.315C77.8296 54.1899 77.959 54.1608 78.0725 54.1347L78.0914 54.1303C78.1976 54.1099 78.3285 54.0372 78.3314 54.0358C78.3314 54.0358 78.3939 53.9921 78.4536 53.8859C78.4652 53.8641 78.4696 53.8525 78.4696 53.8481L78.4609 53.8205L78.4565 53.8743C78.3096 53.8612 78.0667 53.8394 78.0434 53.8394C78.0332 53.8394 78.0114 53.8379 77.9779 53.835C77.8863 53.8263 77.7161 53.8103 77.4907 53.8103C77.1954 53.8103 77.0979 53.915 77.0325 53.9834C77.0019 54.0168 76.9539 54.0648 76.903 54.1143C77.1052 54.0067 77.2725 54.0227 77.3714 54.0328C77.3976 54.0358 77.4179 54.0372 77.4339 54.0358H77.4703C77.5649 54.0328 77.6812 54.0299 77.9489 53.9354C78.1772 53.8554 78.2441 53.8816 78.2732 53.9092C78.295 53.9281 78.3038 53.9558 78.2979 53.9834C78.2921 54.011 78.2703 54.0358 78.2427 54.043C78.0899 54.0983 77.9285 54.1303 77.7656 54.139C77.639 54.1463 77.5198 54.1623 77.4252 54.1768C77.3438 54.1885 77.2812 54.1972 77.2361 54.1972C77.1983 54.1972 77.0267 54.2379 76.8376 54.2859C76.8347 54.2874 76.8318 54.2903 76.8303 54.2918L76.8259 54.2961H76.823ZM78.2063 53.9398C78.2063 53.9398 78.2049 53.9398 78.2034 53.9398C78.2034 53.9398 78.2049 53.9398 78.2063 53.9398ZM78.119 52.1478C78.1932 52.1914 78.2223 52.251 78.2339 52.2961C78.279 52.4736 78.1234 52.6874 78.0754 52.7485C78.023 52.8125 77.9503 52.8474 77.8849 52.8794C77.831 52.9056 77.7801 52.9303 77.7525 52.9652C77.6958 53.035 77.3758 53.4772 77.2158 53.6998L77.6827 53.5674C77.6609 53.547 77.6376 53.5107 77.6361 53.4496C77.6332 53.3187 77.7321 53.1238 77.8165 53.0568C77.8848 53.003 77.9619 52.9812 78.0318 52.9754C78.0143 52.955 78.0085 52.9274 78.0172 52.9012C78.0376 52.8387 78.0623 52.811 78.0972 52.7718C78.1074 52.7601 78.119 52.7485 78.1321 52.7325C78.2107 52.6394 78.3532 52.5899 78.4914 52.5405C78.5219 52.5303 78.5539 52.5187 78.5845 52.507C78.6281 52.4838 78.6747 52.4619 78.7227 52.4416C78.7561 52.427 78.7867 52.4139 78.8158 52.4008C78.9729 52.315 79.111 52.2118 79.1881 52.1201C79.2914 51.9994 79.3219 51.9601 79.3467 51.8685C79.3758 51.7696 79.3947 51.6867 79.4107 51.6168C79.4398 51.4918 79.4601 51.4001 79.5154 51.3288C79.7074 51.0918 79.7758 50.9783 79.8019 50.8808C79.7961 50.8852 79.7903 50.8896 79.7845 50.8925C79.751 50.9158 79.7161 50.9376 79.6914 50.9521C79.5736 51.0219 79.5125 51.0365 79.3481 51.0772C79.3045 51.0874 79.2536 51.1005 79.1925 51.1165C78.9845 51.1688 78.951 51.275 78.9205 51.3696C78.9118 51.3972 78.903 51.4219 78.8929 51.4423C78.8783 51.4845 78.7474 51.6459 78.6776 51.6794C78.6427 51.6983 78.5089 51.8801 78.455 52.0023C78.4056 52.1158 78.3154 52.187 78.2354 52.1768L78.2078 52.1739L78.1874 52.1448C78.1292 52.043 78.3343 51.3667 78.3372 51.3608C78.3736 51.2663 78.3823 51.0728 78.3823 51.0059C78.3823 50.9507 78.3823 50.8154 78.3168 50.8052C78.2441 50.7936 78.2019 50.7441 78.1787 50.6888C78.0609 50.8619 78.1059 51.1063 78.1452 51.3085C78.1554 51.3667 78.1656 51.4205 78.1714 51.467C78.1961 51.6765 78.1423 52.0227 78.1219 52.1405L78.119 52.1478ZM78.2689 53.0147C78.2819 53.0147 78.5801 53.0496 78.9365 52.9085C79.1416 52.827 79.271 52.7121 79.3772 52.6001C79.2114 52.7354 79.0281 52.8358 78.9307 52.8794C78.8143 52.9288 78.6718 52.9521 78.4899 52.9812L78.4085 52.9943C78.3576 53.0045 78.311 53.0103 78.2689 53.0147ZM78.6281 52.6103C78.4769 52.6903 78.3547 52.779 78.2878 52.8285C78.4667 52.7979 78.8754 52.7179 79.0674 52.6016C79.2274 52.5012 79.3147 52.4328 79.4674 52.1958C79.4878 52.1652 79.5081 52.1274 79.527 52.0925C79.5809 51.9921 79.6114 51.9368 79.6681 51.9499C79.7205 51.9616 79.7219 52.0212 79.7219 52.0445C79.7234 52.0939 79.7161 52.1434 79.7001 52.1914C79.7394 52.1259 79.7787 52.0561 79.8136 51.995L79.8674 51.9005C79.9067 51.8336 79.9343 51.7856 79.9518 51.7492C79.8849 51.7768 79.8587 51.7958 79.8587 51.7972L79.8412 51.8059C79.5823 51.883 79.4587 52.0328 79.3394 52.1783C79.3219 52.2001 79.3045 52.2205 79.287 52.2423C79.2143 52.3296 79.1139 52.3936 78.8638 52.5041C78.8201 52.5274 78.775 52.5492 78.7299 52.5696C78.6979 52.5841 78.6645 52.5987 78.6296 52.6118L78.6281 52.6103ZM78.3678 52.4939L78.3212 52.395C78.5045 52.283 78.6092 52.0867 78.7009 51.915C78.7241 51.8699 78.7474 51.8278 78.7707 51.787C78.8419 51.611 78.951 51.3812 79.0689 51.2794C79.1314 51.2241 79.2216 51.1936 79.2929 51.1688C79.3161 51.1601 79.3379 51.1528 79.3554 51.1456C79.3598 51.1441 79.4776 51.1165 79.5198 51.1543L79.543 51.1761L79.5372 51.211C79.5285 51.2488 79.495 51.2663 79.3685 51.3012C79.3176 51.3143 79.1459 51.3681 79.079 51.4801C78.9889 51.7332 78.9074 51.9601 78.727 52.1318C78.6121 52.2525 78.535 52.4168 78.5336 52.4183L78.5234 52.4401L78.3678 52.4939Z" fill="black"/>
<path d="M78.0619 53.5159C78.1143 53.4941 78.1215 53.4853 78.219 53.3806C78.3135 53.2759 78.2306 53.0984 78.0837 53.1057C78.0124 53.11 77.9353 53.094 77.7957 53.2831C77.6604 53.4722 77.8612 53.542 77.9368 53.5493C77.9688 53.5508 78.0124 53.5362 78.0619 53.5159Z" fill="#009B3A"/>
<path d="M77.9409 53.6092C77.9409 53.6092 77.9351 53.6092 77.9322 53.6092C77.8653 53.602 77.746 53.5656 77.7024 53.4696C77.682 53.4231 77.6719 53.3474 77.7446 53.2456C77.8784 53.0652 77.9671 53.0478 78.0602 53.0434H78.0791C78.1722 53.0376 78.2566 53.0885 78.2973 53.1743C78.3366 53.2587 78.3249 53.3518 78.2639 53.4187C78.1664 53.5263 78.1489 53.5438 78.0849 53.57C78.0224 53.5962 77.9788 53.6092 77.9409 53.6092ZM78.0908 53.1656C78.0908 53.1656 78.0864 53.1656 78.0849 53.1656H78.0631C78.0064 53.1685 77.9526 53.1714 77.842 53.3183C77.8217 53.3474 77.7984 53.3896 77.8129 53.4202C77.8304 53.458 77.8988 53.4842 77.9409 53.4885C77.9555 53.49 77.9889 53.4798 78.0369 53.4594C78.0748 53.4434 78.0748 53.4434 78.1649 53.346C78.2028 53.3038 78.1984 53.2587 78.1853 53.2281C78.1708 53.1976 78.1388 53.1656 78.0908 53.1656Z" fill="black"/>
<path d="M77.7081 52.3142C77.6165 52.4669 77.5685 52.6415 77.6398 52.6953C77.6558 52.704 77.7198 52.7593 77.7721 52.7593C77.8245 52.7593 77.9743 52.688 78.0587 52.5556C78.1445 52.4276 78.2143 52.288 78.0398 52.2007C77.8812 52.1222 77.7721 52.1949 77.7067 52.3127" fill="#009B3A"/>
<path d="M77.7718 52.8236C77.7093 52.8236 77.6497 52.7814 77.6177 52.7581L77.6017 52.7465C77.4882 52.6607 77.558 52.444 77.6526 52.2854C77.7486 52.1152 77.8998 52.0658 78.0671 52.1487C78.1413 52.1851 78.1864 52.236 78.2039 52.2971C78.23 52.396 78.1748 52.4978 78.1108 52.5938C78.0177 52.7363 77.8504 52.8251 77.7718 52.8251V52.8236ZM77.6758 52.6461C77.6758 52.6461 77.6831 52.6505 77.6904 52.6563C77.7064 52.668 77.7486 52.6985 77.7718 52.6985C77.8038 52.6985 77.9333 52.6374 78.006 52.524C78.0497 52.46 78.0962 52.38 78.0817 52.3276C78.0744 52.3014 78.0511 52.2796 78.0104 52.2592C77.9711 52.2403 77.8519 52.1807 77.7602 52.3451L77.7035 52.3131L77.7602 52.3465C77.6628 52.508 77.654 52.6287 77.6758 52.6461Z" fill="black"/>
<path d="M78.2264 50.4579C78.2264 50.4579 78.241 50.4347 78.1813 50.3721C78.0868 50.2747 77.9675 50.1016 77.9675 50.1016C77.7784 50.2048 77.7159 50.4128 77.7159 50.4957C77.7159 50.5787 77.7479 50.7692 77.7188 50.9612C77.7086 51.0267 77.6984 51.1008 77.6053 51.3365C77.5093 51.5692 77.6184 51.7845 77.6402 51.8601C77.6562 51.9357 77.7348 52.1685 77.7348 52.1685C77.7348 52.1685 77.809 52.1205 77.8337 52.1161C77.8628 52.1088 77.9631 52.1132 77.9631 52.1132C77.9631 52.1132 78.0766 51.9081 78.081 51.7932C78.0839 51.7088 78.0693 51.5663 78.0301 51.3467C77.9748 51.0281 77.9777 50.9365 78.0155 50.7576C78.0533 50.5772 78.2279 50.4579 78.2279 50.4579" fill="#009B3A"/>
<path d="M77.7039 52.2552L77.6821 52.1883C77.6792 52.1782 77.6036 51.9512 77.5861 51.8742C77.5832 51.8669 77.5788 51.8538 77.573 51.8378C77.5381 51.7403 77.4654 51.5367 77.5541 51.3185C77.6428 51.0931 77.6545 51.0218 77.6646 50.9592C77.685 50.824 77.6748 50.6931 77.6676 50.5971C77.6646 50.5578 77.6617 50.5229 77.6617 50.4982C77.6617 50.4036 77.7301 50.1709 77.9425 50.0545L77.9861 50.0312L78.0137 50.072C78.0137 50.072 78.1316 50.2422 78.2217 50.3352C78.3003 50.4167 78.2886 50.4662 78.2741 50.488L78.2275 50.4589L78.2581 50.504C78.2581 50.504 78.1025 50.6131 78.069 50.7702C78.0326 50.9447 78.0297 51.0291 78.0835 51.3389C78.1199 51.5425 78.1388 51.6967 78.1359 51.7956C78.1315 51.9192 78.0239 52.1185 78.0108 52.1403L77.9948 52.1694H77.9614C77.9134 52.1665 77.861 52.1665 77.8479 52.1694C77.8363 52.1723 77.797 52.1942 77.765 52.216L77.7054 52.2538L77.7039 52.2552ZM77.9526 50.1782C77.8174 50.2756 77.7708 50.4342 77.7708 50.4996C77.7708 50.5229 77.7737 50.5534 77.7766 50.5898C77.7839 50.6902 77.7955 50.8283 77.7737 50.9723C77.7635 51.0422 77.7505 51.1236 77.6559 51.3607C77.5832 51.5396 77.6443 51.7098 77.6763 51.8014C77.6836 51.8203 77.6894 51.8363 77.6923 51.8494C77.7025 51.8989 77.7403 52.0167 77.765 52.0909C77.7854 52.0792 77.8072 52.0691 77.8217 52.0662C77.845 52.0603 77.8945 52.0603 77.9308 52.0603C77.9657 51.992 78.0239 51.8654 78.0268 51.7942C78.0283 51.7316 78.021 51.6036 77.9759 51.3592C77.9192 51.0349 77.9221 50.9374 77.9614 50.7498C77.9934 50.5971 78.1083 50.4865 78.1635 50.44C78.1592 50.4327 78.1519 50.424 78.1417 50.4138C78.0734 50.344 77.9948 50.2378 77.9526 50.1796V50.1782Z" fill="black"/>
<path d="M78.5066 50.7747C78.5066 50.7747 78.6142 50.7486 78.6681 50.6526C78.7364 50.5347 78.7175 50.4111 78.7175 50.4111C78.5517 50.0896 78.3277 50.3486 78.3277 50.3486C78.1284 50.7573 78.5051 50.7747 78.5051 50.7747" fill="#009B3A"/>
<path d="M78.5035 50.8346C78.4962 50.8346 78.3231 50.8245 78.2461 50.6935C78.1908 50.599 78.201 50.4739 78.2751 50.3212L78.2839 50.3081C78.2839 50.3081 78.4002 50.1728 78.5442 50.1888C78.6344 50.199 78.7115 50.2645 78.7726 50.3808L78.7784 50.3997C78.7784 50.3997 78.7988 50.5466 78.7202 50.6805C78.6548 50.7983 78.5268 50.8303 78.521 50.8317L78.5064 50.7735L78.5035 50.8332V50.8346ZM78.3784 50.3823C78.342 50.4594 78.3086 50.5641 78.3479 50.6325C78.3842 50.695 78.4701 50.711 78.4991 50.7139C78.521 50.7066 78.582 50.6819 78.614 50.6223C78.6606 50.5408 78.6606 50.455 78.6577 50.4274C78.6184 50.3546 78.5748 50.3154 78.5282 50.3095C78.4671 50.3037 78.4031 50.3546 78.377 50.3823H78.3784Z" fill="black"/>
<path d="M79.0773 50.1865C78.83 50.1996 78.7078 50.6447 78.7078 50.6447C78.7078 50.6447 78.6671 50.7553 78.5362 50.8396C78.3951 50.9269 78.478 51.0505 78.478 51.2731C78.478 51.4956 78.3238 51.8869 78.3238 51.8869L78.2656 52.0193C78.2656 52.0193 78.2714 52.1196 78.3616 51.9378C78.5158 51.6324 78.6831 51.7065 78.7471 51.3793C78.7878 51.1349 79.1907 51.0578 79.1907 51.0578L79.0773 51.036C78.6569 50.8396 79.102 50.348 79.1733 50.2607C79.2489 50.1734 79.3216 50.1734 79.0773 50.1851" fill="#009B3A"/>
<path d="M78.2801 52.1183C78.2801 52.1183 78.2685 52.1183 78.2627 52.1168C78.222 52.1081 78.1943 52.0717 78.1914 52.0237V52.0063L78.2554 51.8579C78.2554 51.8565 78.4038 51.4783 78.4038 51.2732C78.4038 51.2107 78.3965 51.1539 78.3907 51.1045C78.3747 50.9852 78.3587 50.863 78.4954 50.7787C78.603 50.7103 78.638 50.6201 78.638 50.6187C78.6496 50.5736 78.7805 50.1285 79.0714 50.1139H79.099C79.2503 50.1052 79.2881 50.1037 79.31 50.159C79.3303 50.2114 79.2896 50.2463 79.2678 50.2667C79.2561 50.2768 79.2401 50.2899 79.2241 50.3088L79.2125 50.3234C79.0278 50.543 78.9478 50.7132 78.9725 50.8296C78.9856 50.8878 79.0263 50.9328 79.0976 50.9677L79.2023 50.9867V51.1277C79.1034 51.1467 78.8416 51.2325 78.8154 51.391C78.7747 51.6005 78.6903 51.6732 78.6089 51.743C78.5478 51.7954 78.4852 51.8492 78.4241 51.9714C78.3863 52.047 78.3441 52.1198 78.2816 52.1198L78.2801 52.1183ZM79.0787 50.2565C78.9187 50.2652 78.8023 50.559 78.7747 50.6623C78.7703 50.6739 78.7223 50.8019 78.5725 50.8979C78.5172 50.9314 78.5158 50.959 78.5332 51.0841C78.5405 51.1379 78.5478 51.199 78.5478 51.2703C78.5478 51.3867 78.5099 51.5423 78.4707 51.6703C78.4867 51.6558 78.5012 51.6427 78.5158 51.631C78.5899 51.567 78.6438 51.5205 78.6743 51.3634C78.7005 51.2063 78.8401 51.1103 78.9667 51.0536C78.8954 51.0027 78.8518 50.9372 78.8343 50.8587C78.7849 50.6332 78.987 50.3699 79.083 50.255H79.0801L79.0787 50.2565Z" fill="black"/>
<path d="M79.0005 50.7129C78.887 50.9558 79.2099 50.9675 79.2841 50.9253C79.3147 50.9078 79.383 50.8264 79.383 50.8264C79.5139 50.6387 79.3947 50.5107 79.3263 50.4918C79.2608 50.47 79.1198 50.4526 79.0019 50.7115" fill="#009B3A"/>
<path d="M79.1808 51.0066C79.1067 51.0066 79.0237 50.9862 78.9714 50.9382C78.9336 50.9033 78.8797 50.8248 78.9437 50.688C79.0776 50.3971 79.2521 50.4058 79.3437 50.4364C79.3917 50.4495 79.4572 50.4989 79.4863 50.5789C79.5096 50.64 79.5183 50.7389 79.4325 50.8626C79.4063 50.8931 79.3496 50.9586 79.3147 50.9789C79.2841 50.9964 79.2361 51.0066 79.1823 51.0066H79.1808ZM79.2594 50.544C79.1823 50.544 79.1139 50.6095 79.0543 50.7389C79.0179 50.816 79.0456 50.8408 79.0543 50.848C79.1023 50.8917 79.2245 50.8902 79.2536 50.8728C79.2652 50.8655 79.303 50.8262 79.335 50.7884C79.3757 50.7288 79.3903 50.6691 79.3714 50.6211C79.3554 50.5789 79.3219 50.5571 79.3088 50.5528C79.2928 50.5469 79.2754 50.544 79.2594 50.544Z" fill="black"/>
<path d="M78.3905 49.7694C78.4749 49.9265 78.712 50.3658 78.7673 50.3396C78.8022 50.3221 78.7745 50.2334 78.7745 50.2334C78.7745 50.2334 78.7673 50.1141 78.7295 49.9716C78.6916 49.8261 78.7004 49.6414 78.6247 49.5221C78.552 49.4029 78.376 49.2618 78.3062 49.0756C78.2378 48.888 78.2916 48.5316 78.2974 48.488C78.3047 48.4472 78.3251 48.4734 78.2887 48.4312C78.2524 48.3847 77.9527 48.2261 77.9527 48.2261C77.9527 48.2261 77.9702 48.3425 77.9629 48.552C77.96 48.6029 77.9455 48.6625 77.9382 48.7512C77.9309 48.8356 77.9818 48.9418 78.104 49.1832C78.2465 49.464 78.3149 49.6356 78.3905 49.7723M80.1855 47.6836C80.1855 47.6836 80.0996 47.8276 80.0691 47.8596C80.0371 47.8916 79.5498 48.3105 79.5222 48.328C79.4989 48.3469 79.2444 48.4283 79.0131 49.0538C78.7804 49.6778 78.8807 50.261 78.8807 50.261L78.9927 50.2465L79.0116 50.1854C79.0116 50.1854 79.0495 49.9789 79.0785 49.8218C79.1105 49.6661 79.2851 49.4509 79.4 49.2909C79.5105 49.1338 79.5978 48.9098 79.5978 48.9098C79.7287 48.6465 79.7913 48.4109 79.9207 48.2276C79.9251 48.4458 79.0945 49.7898 79.0058 50.248L79.2516 50.2101C79.448 50.0312 79.7054 49.653 79.88 49.4101C80.0545 49.1658 80.1302 48.7847 80.1607 48.616C80.1913 48.4487 80.184 47.685 80.184 47.685" fill="#009B3A"/>
<path d="M78.7579 50.3985C78.6997 50.3985 78.6153 50.3025 78.3433 49.7963C78.3041 49.7265 78.2692 49.6494 78.2226 49.552C78.179 49.4574 78.1266 49.3454 78.0553 49.2073C77.9302 48.96 77.875 48.8465 77.8837 48.7462C77.8881 48.6982 77.8939 48.6589 77.8997 48.6254C77.9041 48.5963 77.9084 48.5716 77.9099 48.5483C77.9172 48.3476 77.8997 48.2342 77.8997 48.2327L77.8837 48.1251L77.9797 48.176C78.0728 48.2254 78.2924 48.3462 78.3332 48.3956C78.355 48.4203 78.3841 48.4553 78.3521 48.496C78.3186 48.7534 78.3201 48.9498 78.3593 49.056C78.4001 49.1665 78.4844 49.2625 78.5586 49.3469C78.6023 49.3978 78.6444 49.4458 78.6735 49.4923C78.7288 49.5782 78.7433 49.6887 78.7564 49.7963C78.7637 49.8531 78.771 49.9083 78.7841 49.9563C78.7928 49.9913 78.8001 50.0232 78.8073 50.0538C78.7972 49.824 78.8102 49.4385 78.9615 49.0312C79.1055 48.6429 79.2801 48.3913 79.4837 48.2836C79.5244 48.256 79.9972 47.8516 80.0306 47.8167C80.0481 47.7993 80.1048 47.7091 80.1397 47.6523L80.1863 47.6814H80.2415C80.2415 47.712 80.2488 48.4523 80.2168 48.6225C80.1877 48.7753 80.1121 49.1811 79.9259 49.4385L79.8546 49.5389C79.6815 49.7833 79.4662 50.0873 79.2902 50.2473L79.2786 50.2589L78.9397 50.3113V50.3069L78.8408 50.3185C78.8364 50.3462 78.8233 50.3738 78.7928 50.3898C78.7812 50.3956 78.771 50.4 78.7593 50.4L78.7579 50.3985ZM78.0161 48.3214C78.019 48.3782 78.0204 48.4553 78.0175 48.5527C78.0161 48.5803 78.0117 48.608 78.0073 48.6414C78.003 48.6734 77.9972 48.7098 77.9928 48.7549C77.987 48.8247 78.0437 48.9411 78.1528 49.1578C78.2241 49.2974 78.2764 49.4109 78.3215 49.5069C78.3666 49.6029 78.4015 49.6785 78.4379 49.7454C78.5848 50.0203 78.6706 50.1571 78.7186 50.2254C78.7142 50.1818 78.7026 50.0902 78.675 49.9854C78.6604 49.9302 78.6532 49.8691 78.6444 49.8123C78.6313 49.7163 78.6183 49.6174 78.5775 49.552C78.5528 49.5127 78.5135 49.4676 78.4728 49.4196C78.3928 49.328 78.3012 49.2233 78.2546 49.0938C78.1964 48.9353 78.2153 48.6778 78.2415 48.4887C78.2415 48.48 78.2444 48.4727 78.2459 48.4669C78.2139 48.4378 78.1179 48.3796 78.0161 48.3229V48.3214ZM79.5506 48.3709C79.5506 48.3709 79.5433 48.3752 79.5332 48.3811C79.3106 48.5003 79.155 48.8218 79.0619 49.0705C78.8772 49.568 78.9092 50.0436 78.9252 50.1978L78.9484 50.1949L78.9572 50.1672L79.0226 49.8094C79.0532 49.664 79.1841 49.4865 79.299 49.3294L79.3528 49.2553C79.4575 49.1069 79.5433 48.8887 79.5448 48.8858C79.5972 48.7811 79.6364 48.6836 79.6757 48.5905C79.7353 48.4451 79.7921 48.3083 79.875 48.192L79.971 48.0567L79.9753 48.2225C79.9782 48.3345 79.8284 48.6283 79.5841 49.0996C79.3819 49.488 79.1564 49.9243 79.0793 50.1774L79.2277 50.1556C79.3921 50 79.5986 49.7105 79.7644 49.4763L79.8357 49.376C80.0073 49.1374 80.0801 48.7491 80.1077 48.6036C80.1281 48.4931 80.131 48.1032 80.131 47.8676C80.1222 47.8792 80.1135 47.8894 80.1077 47.8967C80.0801 47.9243 79.5855 48.352 79.5506 48.3738V48.3709Z" fill="black"/>
<path d="M78.5272 47.8194C78.4021 47.703 78.3047 47.6681 78.3047 47.6681C78.3047 47.6681 78.3352 47.8965 78.3352 48.0347C78.3352 48.1728 78.3469 48.407 78.3396 48.5321C78.3352 48.6557 78.2727 48.8623 78.3614 49.0645C78.4516 49.2637 78.5534 49.3641 78.6261 49.4892C78.6916 49.6114 78.8123 50.2485 78.8123 50.2485C78.8123 50.2485 78.7687 49.3874 78.8065 49.1445C78.8414 48.9059 78.853 48.5321 78.7992 48.3459C78.744 48.1583 78.6509 47.9387 78.5287 47.8194M79.1018 46.9787C79.1396 46.9045 79.2283 46.7532 79.2647 46.5219C79.2778 46.4245 79.288 46.2645 79.2836 46.1539C79.2807 46.0797 79.2516 45.9517 79.2836 45.943C79.3127 45.9357 79.288 45.9823 79.304 46.0914C79.3112 46.1307 79.285 46.2383 79.2807 46.3765C79.2749 46.487 79.269 46.5787 79.221 46.7285C79.1789 46.8594 79.2167 47.0063 79.1905 47.047C79.1614 47.0892 79.0858 47.2463 79.0858 47.2463C79.0858 47.2463 79.0392 47.3743 79.048 47.4892C79.0523 47.6085 79.0596 47.7365 79.0596 47.7365C79.0596 47.7365 79.1149 47.6347 79.237 47.6172C79.237 47.6172 79.2647 47.4179 79.2647 47.3554C79.2647 47.2928 79.3447 46.8856 79.3854 46.7605C79.4407 46.5787 79.48 46.2601 79.3912 45.8921C79.3665 45.7932 79.3491 45.4805 79.3491 45.4805C79.3491 45.4805 79.2312 45.575 79.1614 45.9299C79.1396 46.0376 79.1861 46.3285 79.1672 46.6368C79.16 46.807 78.997 47.4979 78.9738 47.5416" fill="#009B3A"/>
<path d="M78.7561 50.2579C78.7081 50.0048 78.6208 49.599 78.5757 49.5146C78.551 49.471 78.5219 49.4303 78.4899 49.3866C78.4332 49.3066 78.3692 49.2179 78.3096 49.087C78.2354 48.9183 78.2572 48.7495 78.2732 48.6259C78.2776 48.5895 78.2819 48.5575 78.2834 48.5299C78.2877 48.4528 78.2834 48.3335 78.2819 48.2186C78.2805 48.1517 78.279 48.0863 78.279 48.0354C78.279 47.9015 78.2499 47.6775 78.2499 47.6761L78.2383 47.5874L78.3226 47.6179C78.3226 47.6179 78.4317 47.6572 78.5641 47.7808C78.7125 47.9263 78.8056 48.1881 78.8492 48.3321C78.9045 48.5255 78.8943 48.9008 78.8579 49.1539C78.8216 49.3895 78.8637 50.239 78.8652 50.2477L78.7561 50.2608V50.2579ZM78.3706 47.7663C78.3794 47.8448 78.3881 47.9539 78.3881 48.0354C78.3881 48.0863 78.3896 48.1503 78.391 48.2157C78.3939 48.3335 78.3968 48.4543 78.391 48.5357C78.391 48.5663 78.3852 48.6012 78.3808 48.6405C78.3663 48.7568 78.3474 48.9023 78.4085 49.0419C78.4637 49.1626 78.5219 49.2441 78.5786 49.3226C78.6121 49.3692 78.6441 49.4143 78.6703 49.4608C78.6892 49.4957 78.711 49.5655 78.7343 49.6485C78.7314 49.4419 78.7343 49.2368 78.7488 49.1335C78.7852 48.8877 78.7925 48.5299 78.743 48.3583C78.6761 48.1328 78.583 47.9495 78.487 47.8565C78.4419 47.8157 78.4012 47.7852 78.3677 47.7634L78.3706 47.7663ZM79.015 47.9292L79.0048 47.7415C79.0048 47.7415 79.0005 47.6543 78.9961 47.5568L78.9277 47.5219C78.9408 47.4899 79.0106 47.2048 79.0615 46.9605L79.0528 46.9561L79.0645 46.9328C79.0645 46.9328 79.0659 46.9299 79.0674 46.927C79.0921 46.8034 79.111 46.6928 79.1139 46.639C79.1226 46.4775 79.1139 46.3205 79.1081 46.1939C79.1023 46.0746 79.0965 45.9801 79.1081 45.9234C79.1794 45.5583 79.3015 45.4521 79.3146 45.4419L79.3975 45.375L79.4034 45.4812C79.4077 45.567 79.4252 45.8055 79.4441 45.8826C79.5532 46.3365 79.4659 46.6841 79.4368 46.7801C79.3946 46.9081 79.319 47.3066 79.319 47.359C79.319 47.423 79.2943 47.6063 79.2914 47.6281L79.2856 47.6688L79.2448 47.6746C79.1532 47.6877 79.1096 47.7619 79.1081 47.7648L79.0165 47.9292H79.015ZM79.1357 47.2717C79.1357 47.2717 79.095 47.3866 79.1023 47.4885C79.1037 47.5306 79.1052 47.5743 79.1081 47.6121C79.1299 47.5975 79.1575 47.5845 79.1881 47.5757C79.1968 47.5074 79.2099 47.3997 79.2099 47.3605C79.2099 47.2863 79.2943 46.8688 79.3335 46.7495C79.3583 46.6666 79.4325 46.3728 79.3539 45.9815C79.3539 45.9845 79.3539 45.9859 79.3539 45.9888C79.3539 46.0121 79.3539 46.0441 79.3597 46.0892C79.3655 46.1154 79.3597 46.1517 79.3525 46.2085C79.3466 46.2565 79.3379 46.3161 79.3365 46.383C79.3292 46.5023 79.3234 46.5983 79.2739 46.7495C79.2521 46.815 79.255 46.8877 79.2565 46.9459C79.2565 47.0055 79.2594 47.0477 79.239 47.0797C79.2186 47.1088 79.1677 47.2106 79.1386 47.2732L79.1357 47.2717ZM79.3059 45.6485C79.2754 45.7139 79.2419 45.8085 79.2157 45.9437C79.207 45.9888 79.2114 46.0805 79.2172 46.1881C79.2201 46.239 79.223 46.2943 79.2245 46.3539C79.2288 46.2841 79.2303 46.2114 79.2288 46.1561C79.2288 46.1357 79.2245 46.111 79.2216 46.0848C79.2099 45.9903 79.2012 45.9088 79.2695 45.8914L79.2957 45.8841L79.3277 45.903C79.3277 45.903 79.3365 45.9103 79.3394 45.9146C79.3394 45.9117 79.3394 45.9103 79.3379 45.9074C79.3248 45.8535 79.3132 45.743 79.3059 45.6485Z" fill="black"/>
<path d="M79.1024 46.9805C79.0955 46.9925 79.0938 46.9977 79.0938 46.9977C79.0938 46.9977 79.0989 46.9925 79.1024 46.9805Z" fill="#009B3A"/>
<path d="M79.1288 47.036L79.043 46.9706L79.0517 46.9531H79.0546C79.0546 46.9531 79.0473 46.9633 79.0473 46.9648L79.0721 46.972L79.0575 46.956L79.1521 46.9953C79.1448 47.0186 79.1332 47.0317 79.1273 47.0375L79.1288 47.036Z" fill="black"/>
<path d="M78.6358 45.1869C78.6983 45.1869 78.6983 45.2553 78.6852 45.3091C78.675 45.3644 78.6765 45.4662 78.6765 45.488C78.6765 45.5127 78.7027 45.6582 78.723 45.7353C78.7463 45.8138 78.7856 45.8386 78.7681 45.9956C78.7565 46.0946 78.6547 46.2109 78.691 46.3796C78.7099 46.4684 78.7739 46.5615 78.8045 46.6371C78.8307 46.6895 78.8161 46.8204 78.8234 46.9266C78.8263 47.0298 78.883 47.0996 78.883 47.0996C78.883 47.0996 78.8132 47.232 78.7885 47.0662C78.7623 46.8771 78.755 46.7927 78.7187 46.7069C78.659 46.5673 78.6052 46.3142 78.6968 46.1207C78.7128 46.0829 78.7245 46.0131 78.7245 45.9302C78.7245 45.8473 78.6721 45.7018 78.6634 45.6131C78.6547 45.5418 78.6605 45.3935 78.6605 45.3396M78.3303 46.1309C78.3448 46.2371 78.3798 46.2982 78.5005 46.5309C78.5383 46.608 78.6212 46.8029 78.6343 46.8655C78.6488 46.928 78.6619 47.0022 78.6619 47.0226C78.6619 47.0429 78.675 47.1898 78.675 47.1898V47.2509C78.675 47.2509 78.3419 47.056 78.195 46.9527C78.0496 46.848 77.8837 46.704 77.779 46.6182C77.6597 46.5193 77.3747 46.1818 77.3703 45.9113L77.2394 45.792C77.2394 45.792 77.139 46.3942 77.6118 46.784C77.7485 46.896 77.8968 47.0182 78.2139 47.1622C78.5325 47.3091 78.4903 47.44 78.6227 47.7222C78.7536 48.0058 78.835 48.1673 78.851 48.2473C78.8627 48.3331 78.8147 49.536 78.8147 49.536L78.8263 49.6451C78.8263 49.6451 79.1172 48.5309 79.2568 48.4058C79.2568 48.4058 78.979 48.3636 79.0023 47.9273L78.9543 47.6393C78.9543 47.6393 78.899 47.2946 79.0023 47.0793C79.0023 47.0793 79.1259 46.6866 79.0838 46.3476C79.0576 46.144 79.0474 46.0844 79.0227 45.8895C78.9848 45.5869 78.8641 45.1535 78.8496 45.1011C78.8088 44.9484 78.7943 44.9251 78.7448 44.8058C78.7303 44.7636 78.7041 44.6226 78.659 44.6211C78.6328 44.6196 78.5936 44.8015 78.5936 44.8015C78.5936 44.8015 78.5354 44.9993 78.5237 45.0531C78.4859 45.2131 78.3972 45.3469 78.3565 45.7062C78.3492 45.7716 78.3419 45.9462 78.3347 45.9709C78.3303 45.9913 78.3216 46.0946 78.3303 46.1338" fill="#009B3A"/>
<path d="M78.8816 49.6551L78.7739 49.6464L78.7623 49.5373C78.7797 49.0661 78.8059 48.3097 78.7987 48.2501C78.787 48.1977 78.7332 48.0828 78.6517 47.9082L78.5747 47.741C78.5398 47.6682 78.5179 47.6057 78.4976 47.549C78.4408 47.3933 78.4103 47.3075 78.1936 47.2086C77.8736 47.0646 77.7208 46.9381 77.5856 46.8275C77.0896 46.4188 77.1856 45.8064 77.1899 45.7802L77.2059 45.6813L77.4285 45.8835V45.9068C77.4314 46.1555 77.7048 46.4799 77.8168 46.573L77.9012 46.6442C77.9987 46.7257 78.1208 46.8275 78.2299 46.9061C78.3274 46.9744 78.5107 47.0864 78.6198 47.1504C78.6154 47.1053 78.6096 47.0341 78.6096 47.021C78.6096 47.0079 78.5979 46.9395 78.5834 46.877C78.5718 46.8217 78.4917 46.6326 78.4539 46.5541L78.4321 46.5133C78.3288 46.3155 78.2939 46.2486 78.2794 46.1395C78.2692 46.0871 78.2794 45.9766 78.2838 45.9562C78.2881 45.9373 78.2925 45.8646 78.2954 45.8166C78.2983 45.7701 78.3012 45.725 78.3041 45.6973C78.3318 45.4457 78.3841 45.3017 78.4248 45.1839C78.4437 45.1315 78.4597 45.085 78.4714 45.037C78.483 44.9831 78.5427 44.7824 78.5427 44.7824C78.5877 44.5759 78.6212 44.5599 78.6634 44.5628C78.739 44.5657 78.7652 44.6646 78.7885 44.7519C78.7914 44.765 78.7957 44.7766 78.7972 44.7839L78.819 44.8362C78.851 44.9148 78.867 44.9541 78.9034 45.0835L78.9107 45.1111C78.9979 45.4384 79.0547 45.6959 79.0779 45.8791C79.091 45.9853 79.0997 46.0522 79.1099 46.125L79.1376 46.3388C79.1812 46.6864 79.059 47.0777 79.0547 47.0937C78.9572 47.2973 79.0067 47.6246 79.0081 47.6275L79.0561 47.9141C79.0372 48.3024 79.2568 48.3461 79.2656 48.3475L79.3776 48.3664L79.2932 48.4421C79.2001 48.525 78.9907 49.229 78.8801 49.6537L78.8816 49.6551ZM77.2888 45.9053C77.2859 46.0886 77.3238 46.4697 77.6496 46.7388C77.7907 46.8551 77.9318 46.9715 78.2387 47.1097C78.4976 47.229 78.5412 47.3482 78.6008 47.5126C78.6197 47.5664 78.6416 47.6261 78.675 47.6944L78.7521 47.8617C78.8394 48.0493 78.8932 48.1628 78.9077 48.2326C78.9165 48.2981 78.8976 48.8682 78.8845 49.2362C78.9688 48.9468 79.0823 48.5875 79.1739 48.429C79.0794 48.3795 78.9339 48.2501 78.9499 47.9228L78.9019 47.6479C78.9005 47.6348 78.8583 47.3701 78.9194 47.1504C78.899 47.1781 78.8656 47.213 78.8205 47.2042C78.755 47.1926 78.7419 47.1068 78.7376 47.0748L78.7303 47.021C78.7099 46.8741 78.7012 46.7999 78.6707 46.7301C78.6008 46.5657 78.5543 46.301 78.6503 46.0988C78.6605 46.0755 78.6736 46.0144 78.6736 45.9315C78.6736 45.8908 78.6576 45.8268 78.6416 45.7642C78.6285 45.7119 78.6168 45.6624 78.611 45.6202C78.6038 45.5635 78.6052 45.4631 78.6067 45.3919V45.341H78.627C78.627 45.3264 78.6299 45.3133 78.6328 45.3002C78.6416 45.2639 78.6387 45.245 78.6357 45.2406V45.1344C78.6823 45.1344 78.7085 45.1562 78.7216 45.1737C78.755 45.2173 78.7492 45.2799 78.739 45.3235C78.7318 45.3657 78.7317 45.453 78.7317 45.4821C78.7317 45.5097 78.7565 45.645 78.7768 45.7221C78.7812 45.7395 78.7885 45.7541 78.7943 45.7686C78.8161 45.8195 78.8379 45.8719 78.8234 46.0028C78.819 46.045 78.8016 46.0842 78.7856 46.1279C78.7565 46.2006 78.7259 46.2762 78.7448 46.3708C78.755 46.4202 78.7841 46.4741 78.8118 46.5279C78.8278 46.5599 78.8452 46.5904 78.8568 46.6195C78.8787 46.6617 78.8787 46.733 78.8772 46.8144C78.8772 46.8522 78.8772 46.8901 78.8801 46.925C78.883 47.0093 78.9281 47.0675 78.9281 47.0675L78.9412 47.085C78.9456 47.0748 78.9499 47.0661 78.9543 47.0559C78.9543 47.0559 79.0707 46.6762 79.0299 46.3548L79.0023 46.1424C78.9921 46.0697 78.9834 46.0042 78.9703 45.8966C78.9485 45.7191 78.8932 45.4661 78.8059 45.1431L78.7987 45.1155C78.7652 44.9933 78.7507 44.9584 78.7201 44.8828L78.6968 44.8275C78.6925 44.8159 78.6881 44.8013 78.6852 44.7853C78.6823 44.7737 78.6765 44.7548 78.6707 44.7344C78.6634 44.7591 78.6561 44.7868 78.6503 44.8144C78.6503 44.8188 78.5921 45.0137 78.579 45.0675C78.5659 45.1213 78.5485 45.1708 78.5296 45.2275C78.4903 45.3381 78.4408 45.4777 78.4147 45.7162C78.4117 45.7424 78.4088 45.7861 78.4059 45.8297C78.3987 45.9388 78.3957 45.9737 78.3899 45.9911C78.3885 46.0028 78.3812 46.0959 78.387 46.125V46.1293C78.4001 46.2195 78.4278 46.2719 78.5296 46.4682L78.5514 46.5104C78.5848 46.5788 78.675 46.7853 78.691 46.8581C78.7041 46.9133 78.7201 46.9977 78.7201 47.0253C78.7201 47.0457 78.7332 47.1868 78.7332 47.1868V47.3482L78.6503 47.3002C78.6372 47.293 78.3128 47.1039 78.1659 46.9991C78.0539 46.9177 77.9303 46.8144 77.8314 46.7315L77.747 46.6617C77.6408 46.5744 77.3397 46.2341 77.3194 45.9373L77.2888 45.9097V45.9053Z" fill="black"/>
<path d="M78.5792 47.6512C78.5792 47.6512 78.5312 47.5436 78.4818 47.4883C78.3829 47.372 78.249 47.2731 77.8709 47.0869C77.4927 46.8992 77.3938 46.5894 77.2003 46.4614C77.1116 46.4003 76.9414 46.3712 76.9414 46.3712C76.9414 46.3712 77.1101 46.6025 77.1494 46.6825C77.2003 46.7843 77.2134 46.8541 77.4214 47.0476C77.6279 47.2425 77.881 47.3094 78.0425 47.3589C78.2723 47.4301 78.5807 47.6498 78.5807 47.6498M77.3909 45.8621C77.401 45.8927 77.4985 46.2258 77.7036 46.4832C78.0163 46.8789 78.6185 47.161 78.6185 47.161C78.5618 46.9152 78.4643 46.6301 78.3858 46.5051C78.1123 46.0629 77.3894 45.8461 77.3894 45.8461C77.3894 45.8461 77.3763 45.8287 77.3909 45.8621ZM78.2549 46.0483C78.4163 45.6934 77.9334 45.3545 77.7967 45.1072C77.8476 45.0665 77.9072 45.1727 77.9625 45.2425C78.041 45.3472 78.265 45.6527 78.265 45.6527L78.3334 45.3283L77.7574 44.8047C77.7501 44.8803 77.5727 44.9429 77.5727 44.9429C77.4869 45.4287 78.2549 46.0483 78.2549 46.0483Z" fill="#009B3A"/>
<path d="M78.5473 47.694C78.5473 47.694 78.2433 47.4788 78.0251 47.4104L78.0033 47.4046C77.8389 47.3566 77.5888 47.2824 77.3822 47.0875C77.1975 46.9159 77.1597 46.8344 77.119 46.75L77.0986 46.7079C77.068 46.6453 76.9415 46.4679 76.8949 46.4039L76.8164 46.2948L76.9488 46.3166C76.956 46.3166 77.1335 46.3486 77.2295 46.4155C77.311 46.4693 77.3764 46.5522 77.4448 46.6395C77.551 46.7748 77.6717 46.9275 77.8928 47.0366C78.2913 47.2315 78.4208 47.3319 78.5211 47.4511C78.575 47.5108 78.6244 47.6228 78.6273 47.6271L78.5779 47.649L78.5459 47.694H78.5473ZM77.0724 46.4606C77.1219 46.5304 77.1771 46.6133 77.199 46.657C77.2062 46.673 77.2135 46.6875 77.2208 46.702C77.2571 46.7806 77.2891 46.849 77.4593 47.006C77.6469 47.1835 77.8724 47.249 78.0368 47.297L78.0586 47.3042C78.1604 47.3362 78.2768 47.3944 78.3757 47.4526C78.2855 47.3682 78.1459 47.2795 77.8477 47.134C77.6048 47.0133 77.471 46.8431 77.3619 46.7064C77.295 46.622 77.2382 46.5508 77.1713 46.5057C77.1451 46.4882 77.1102 46.4722 77.0739 46.4606H77.0724ZM78.6942 47.2577L78.5924 47.2097C78.5677 47.198 77.9742 46.9173 77.6571 46.5159C77.5291 46.3544 77.4157 46.1304 77.3386 45.886L77.3459 45.8817V45.8788L77.3371 45.8817C77.3299 45.8657 77.308 45.8177 77.3517 45.7915L77.3939 45.7668L77.4171 45.7959C77.5306 45.8322 78.1662 46.0504 78.428 46.4737C78.5066 46.6002 78.607 46.8839 78.6666 47.1471L78.6913 47.2562L78.6942 47.2577ZM77.4695 45.9311C77.5408 46.1319 77.6368 46.3137 77.743 46.4475C77.967 46.7297 78.348 46.9566 78.5328 47.0555C78.476 46.8417 78.3975 46.6293 78.3364 46.5319C78.1357 46.209 77.6731 46.0068 77.4695 45.9311ZM78.2171 46.0897C78.1851 46.0635 77.4244 45.4439 77.516 44.9319L77.5219 44.8999L77.5524 44.8897C77.6295 44.862 77.6979 44.817 77.7008 44.7966L77.711 44.6875L78.3917 45.3071L78.3044 45.7202C78.348 45.8322 78.3582 45.95 78.303 46.0708L78.2535 46.0475L78.2186 46.0897H78.2171ZM77.6193 44.9813C77.5844 45.3464 78.0528 45.7988 78.2244 45.9515C78.2593 45.7551 78.0877 45.5559 77.9335 45.377C77.8579 45.2897 77.788 45.2082 77.7459 45.1326L77.724 45.0919L77.7604 45.0628C77.7808 45.0468 77.8055 45.0395 77.8302 45.0424C77.887 45.0497 77.9291 45.1079 77.9742 45.1675C77.9844 45.1806 77.9931 45.1937 78.0033 45.2068C78.0542 45.2737 78.1619 45.4206 78.2346 45.5195L78.271 45.345L77.7677 44.8868C77.7255 44.9304 77.663 44.961 77.6193 44.9799V44.9813Z" fill="black"/>
<path d="M77.2501 45.2276C77.1105 45.2901 77.0625 45.2901 77.0625 45.2901L77.1396 45.4952L77.1847 45.5505C77.1847 45.5505 77.365 45.8123 77.4712 45.8443C77.5149 45.8603 77.6807 45.8894 77.845 45.9607C78.053 46.0494 78.3934 46.3461 78.3934 46.3461C78.3934 46.3461 77.829 45.709 77.6123 45.2319L77.5396 44.957L77.3345 44.9701C77.3345 44.9701 77.3912 45.1636 77.2516 45.2276" fill="#009B3A"/>
<path d="M78.355 46.3879C78.355 46.3879 78.019 46.0955 77.8226 46.0112C77.7106 45.9632 77.5986 45.9355 77.5245 45.9166C77.491 45.9079 77.4648 45.9021 77.4503 45.8963C77.3354 45.8613 77.1696 45.6286 77.1376 45.5821L77.0866 45.5137L76.9805 45.2344H77.059C77.059 45.2344 77.1041 45.2315 77.2248 45.1763C77.3194 45.1326 77.2786 44.9857 77.2786 44.9843L77.2597 44.9188L77.5783 44.8984L77.6627 45.217C77.8707 45.6737 78.4263 46.3035 78.4321 46.3093L78.355 46.3864V46.3879ZM77.1856 45.4672L77.2248 45.5166C77.2976 45.6228 77.4241 45.7741 77.4852 45.793C77.4997 45.7988 77.5216 45.8032 77.5506 45.8104C77.6277 45.8293 77.7456 45.8584 77.8648 45.9108C77.9201 45.9341 77.9827 45.9704 78.0452 46.0126C77.8736 45.7901 77.6714 45.5035 77.5594 45.2548L77.4954 45.0148L77.3965 45.0206C77.4037 45.1093 77.3834 45.2257 77.2714 45.2766C77.2117 45.3028 77.1667 45.3188 77.1347 45.329L77.187 45.4672H77.1856Z" fill="black"/>
<path d="M75.1351 44.8154C75.2296 44.9012 75.3329 44.9768 75.442 45.0437C75.5671 45.1194 75.9264 45.3303 76.194 45.3812C76.2565 45.3914 76.594 45.4336 76.594 45.4336C76.6071 45.2852 76.7685 45.2721 76.7685 45.2721L76.29 45.2197C75.9045 45.1906 75.6107 45.0306 75.3824 44.7717C75.6893 44.9579 76.1285 45.2503 76.4864 45.2343C77.9525 45.0903 76.0442 45.0539 75.8798 44.9477C75.7038 44.8401 75.5555 44.6597 75.5555 44.6597L75.1264 44.6408C75.1264 44.6408 74.9155 44.6277 75.1351 44.8154Z" fill="#009B3A"/>
<path d="M76.6452 45.4954L76.5885 45.4882C76.5885 45.4882 76.2496 45.446 76.1871 45.4358C75.9951 45.3994 75.7289 45.2802 75.4147 45.0911C75.3027 45.0242 75.1965 44.9442 75.0991 44.8569C75.0307 44.7987 74.958 44.7245 74.9871 44.6518C75.0147 44.5834 75.1121 44.5849 75.1296 44.5864L75.582 44.6067L75.598 44.6256C75.598 44.6256 75.7449 44.8002 75.9092 44.902C75.9572 44.9325 76.2641 44.9645 76.4881 44.9878C77.0089 45.0416 77.0918 45.0562 77.0918 45.1362C77.0918 45.1871 77.0758 45.2176 76.7732 45.2569V45.3253C76.7601 45.3253 76.6569 45.3384 76.6482 45.4358L76.6423 45.4925L76.6452 45.4954ZM75.1718 44.7754C75.2634 44.8584 75.3638 44.9325 75.47 44.9965C75.7725 45.1784 76.0271 45.2933 76.2045 45.3267C76.2511 45.334 76.4561 45.3602 76.5521 45.3718C76.5609 45.3471 76.574 45.3253 76.5885 45.3078L76.4111 45.2889C76.3878 45.2874 76.366 45.2845 76.3427 45.2816L76.286 45.2758C75.9049 45.2482 75.5965 45.0954 75.3434 44.8104L75.4132 44.7274L75.4961 44.7784C75.5805 44.8307 75.6751 44.8874 75.7725 44.9427C75.6591 44.8569 75.566 44.7565 75.5296 44.7158L75.1238 44.6984C75.1151 44.6984 75.1049 44.6984 75.0961 44.6984C75.1049 44.7114 75.1252 44.7362 75.1703 44.774L75.1354 44.8147L75.1703 44.7754H75.1718ZM76.4271 45.1798C76.446 45.1798 76.4663 45.1798 76.4852 45.1798C76.6496 45.1638 76.7616 45.1493 76.8372 45.1376C76.7311 45.1231 76.5914 45.1085 76.4765 45.0969C76.2176 45.0693 76.0314 45.0489 75.9267 45.0227C76.0663 45.0925 76.2103 45.1478 76.3441 45.1696L76.4256 45.1784L76.4271 45.1798Z" fill="black"/>
<path d="M76.8585 45.6557C76.9531 45.6484 77.02 45.631 77.0418 45.5277C77.0607 45.4113 77.0171 45.3269 76.8774 45.2964C76.8003 45.2775 76.6636 45.2731 76.6083 45.4113C76.5472 45.5524 76.7683 45.644 76.7683 45.644C76.7683 45.644 76.8105 45.663 76.86 45.6571M77.0243 44.8164C76.9007 44.8164 76.8585 44.9182 76.8847 45.1146C76.9167 45.3139 77.2221 45.2266 77.2221 45.2266L77.2789 45.1975C77.2789 45.1975 77.3196 45.1655 77.2978 45.007C77.276 44.8455 77.1509 44.8164 77.0258 44.8164" fill="#009B3A"/>
<path d="M76.8395 45.7105C76.7886 45.7105 76.7508 45.6945 76.745 45.6916C76.7304 45.6858 76.5981 45.6291 76.5559 45.5244C76.5384 45.4807 76.5384 45.4327 76.5573 45.3876C76.6184 45.2349 76.7697 45.2116 76.8904 45.2407H76.8977C76.8613 45.2116 76.8395 45.1709 76.8308 45.12C76.8119 44.9745 76.8264 44.8771 76.8788 44.8174C76.9137 44.7782 76.9632 44.7578 77.0242 44.7578C77.2206 44.7578 77.3297 44.8378 77.3501 44.9964C77.3748 45.1665 77.3312 45.2218 77.3108 45.2378L77.2468 45.2727C77.2235 45.28 77.1144 45.3091 77.0126 45.2916C77.0853 45.344 77.1144 45.4269 77.097 45.5331C77.0664 45.68 76.9617 45.7004 76.8657 45.7076C76.857 45.7076 76.8482 45.7076 76.841 45.7076L76.8395 45.7105ZM76.7988 45.3396C76.7464 45.3396 76.6882 45.3585 76.6592 45.4298C76.6504 45.4487 76.6504 45.4647 76.6577 45.4822C76.6795 45.536 76.761 45.5796 76.7886 45.5898C76.7886 45.5898 76.8192 45.6029 76.8541 45.5985H76.857C76.9515 45.5913 76.9777 45.5753 76.9893 45.5127C77.0053 45.4196 76.9675 45.3687 76.8672 45.3469C76.8482 45.3425 76.825 45.3382 76.8002 45.3382L76.7988 45.3396ZM77.0242 44.8684C76.985 44.8684 76.969 44.8814 76.9602 44.8916C76.9399 44.9149 76.921 44.9702 76.9384 45.1054C76.9428 45.1331 76.9544 45.152 76.9762 45.1665C77.0402 45.2073 77.1668 45.184 77.2061 45.1724L77.2395 45.1534C77.2439 45.1418 77.2541 45.1025 77.241 45.0124C77.2279 44.9091 77.1639 44.8684 77.0228 44.8684H77.0242ZM77.4882 45.0167L77.449 44.9324L77.5013 44.8989H77.5173L77.5246 44.9513L77.5275 44.9702L77.5333 45.008L77.4882 45.0167Z" fill="black"/>
<path d="M77.5193 44.9503C77.5193 44.9503 77.5309 44.9445 77.5629 44.9357C77.6255 44.911 77.6909 44.7597 77.6909 44.7597C77.7229 44.5547 77.576 44.5037 77.576 44.5037C77.3273 44.4543 77.3215 44.6725 77.3215 44.6725C77.2531 44.9561 77.4829 44.9532 77.5193 44.9517M76.4153 43.9772C76.4284 44.0717 76.5637 44.2085 76.584 44.2317C76.6087 44.2521 76.7789 44.431 76.8371 44.511C76.8953 44.591 77.0873 44.9532 77.0873 44.9532C77.0873 44.9532 77.1207 44.9474 77.1353 44.9197C77.1687 44.863 77.0073 44.4237 76.9898 44.3932C76.9302 44.2594 76.8342 44.1605 76.7367 44.0557C76.7135 44.0412 76.6335 43.9379 76.5462 43.8274C76.7193 44.0499 77.1644 44.6797 77.2953 44.9605C77.2953 44.9605 77.2793 44.6608 77.2633 44.5008C77.208 44.0325 77.0858 43.887 77.0466 43.8201C76.9782 43.6936 76.8022 43.5699 76.6771 43.5277C76.552 43.4827 76.4036 43.4201 76.2451 43.3692C76.0807 43.3197 76.2073 43.4667 76.2684 43.5947C76.344 43.7459 76.4051 43.8797 76.4182 43.9757" fill="#009B3A"/>
<path d="M77.0551 45.0142L77.0362 44.9793C76.9708 44.8556 76.834 44.604 76.7904 44.5429C76.7366 44.4687 76.5679 44.2927 76.546 44.2723L76.5329 44.2578C76.4646 44.1836 76.3729 44.076 76.3599 43.9843C76.3468 43.8898 76.2799 43.7472 76.2159 43.6192C76.2013 43.5902 76.1853 43.5596 76.1679 43.532C76.1199 43.4491 76.082 43.3836 76.1228 43.3342C76.1606 43.2876 76.2289 43.308 76.258 43.3167C76.3642 43.3502 76.466 43.3894 76.5577 43.4258C76.6057 43.4432 76.6508 43.4607 76.693 43.4767C76.8297 43.5232 77.0159 43.6556 77.093 43.7952L77.1075 43.8185C77.1584 43.9 77.266 44.0687 77.3169 44.4963C77.3169 44.5051 77.3184 44.5152 77.3199 44.5254C77.33 44.5123 77.3417 44.5007 77.3548 44.4891C77.4129 44.4425 77.49 44.4294 77.5875 44.4483C77.6602 44.4731 77.7766 44.5691 77.746 44.7669C77.7257 44.8207 77.6631 44.956 77.5846 44.9865C77.5555 44.9952 77.5482 44.9982 77.5439 44.9996L77.5206 44.9502L77.5235 45.0054C77.4886 45.0054 77.4115 45.0054 77.3475 44.9603L77.2457 44.9851C77.2311 44.9545 77.2137 44.9196 77.1919 44.8818C77.1919 44.9109 77.1919 44.9327 77.1817 44.9473C77.1569 44.9953 77.1017 45.0054 77.0959 45.0069L77.0566 45.0127L77.0551 45.0142ZM77.5089 44.5516C77.474 44.5516 77.4449 44.5603 77.4231 44.5763C77.3795 44.6112 77.3766 44.6738 77.3766 44.6738C77.362 44.7378 77.3548 44.8105 77.3897 44.8527C77.4217 44.892 77.4828 44.8934 77.5089 44.8963C77.5162 44.8934 77.5293 44.8891 77.5497 44.8833C77.5657 44.8774 77.6137 44.8062 77.6413 44.7378C77.6617 44.5982 77.5686 44.5589 77.5584 44.5545C77.5409 44.5516 77.525 44.5502 77.5104 44.5502L77.5089 44.5516ZM76.4689 43.9712C76.4733 44.0032 76.5024 44.0658 76.6144 44.1865L76.6246 44.1967C76.6449 44.2142 76.8209 44.396 76.8806 44.4803C76.9169 44.5312 77.0013 44.684 77.0639 44.7974C77.0464 44.7276 77.0188 44.6374 76.9926 44.5618C76.8151 44.2898 76.6028 43.9945 76.5009 43.8651L76.5868 43.7967L76.6144 43.8316C76.674 43.9058 76.7468 43.9989 76.7642 44.012L76.7875 44.0352C76.8806 44.1342 76.9766 44.2374 77.0377 44.3727C77.0377 44.3727 77.0624 44.4323 77.0915 44.5138C77.138 44.5865 77.1831 44.6563 77.2224 44.7232C77.2166 44.6476 77.2108 44.5691 77.2049 44.5109C77.1569 44.108 77.0595 43.9538 77.0129 43.8796L76.9955 43.852C76.9329 43.7371 76.77 43.6236 76.6551 43.5829C76.6115 43.5669 76.5649 43.5494 76.5169 43.5305C76.4282 43.4971 76.3322 43.4592 76.2319 43.4272C76.2406 43.4447 76.2522 43.4651 76.2609 43.4796C76.2784 43.5102 76.2973 43.5422 76.3119 43.5742C76.3788 43.708 76.45 43.8607 76.466 43.9712H76.4689Z" fill="black"/>
<path d="M75.8031 44.7498C75.9645 44.8865 76.0373 44.9825 76.3733 45.0319C76.7122 45.0843 76.7398 45.0625 76.7398 45.0625C76.7398 45.0625 76.9158 44.9781 76.8256 44.9039C76.3282 44.6858 75.8569 44.4254 75.6183 44.1316C75.6183 44.1316 75.6591 44.0908 75.8322 44.2639C75.9325 44.3658 75.9994 44.4167 76.0605 44.4632C76.2409 44.5898 76.3194 44.6261 76.4998 44.7236C76.5958 44.7759 76.8358 44.8327 76.8358 44.8327C76.8358 44.8327 76.8693 44.7599 76.9013 44.7512C76.9303 44.7439 76.8823 44.6305 76.6743 44.4618C76.558 44.3658 76.4562 44.2538 76.3689 44.1301C76.3689 44.1301 76.1216 44.0763 75.854 44.0312C75.6547 43.9992 75.278 43.7083 75.2853 43.7868C75.2925 43.8683 75.342 44.1214 75.4423 44.2814C75.5442 44.4428 75.6416 44.6072 75.8016 44.7498" fill="#009B3A"/>
<path d="M76.6971 45.1202C76.6433 45.1202 76.5458 45.1115 76.3626 45.0839C76.0498 45.0373 75.948 44.9486 75.8186 44.8351L75.7662 44.79L75.7982 44.7522L75.7647 44.79C75.6106 44.6548 75.5131 44.5006 75.42 44.3508L75.3953 44.3115C75.2891 44.1442 75.2367 43.8853 75.2295 43.7922L75.2266 43.7588L75.2586 43.7297C75.3051 43.6991 75.3662 43.734 75.5102 43.8169C75.6251 43.8824 75.7677 43.9639 75.8607 43.9784C76.1269 44.0235 76.3771 44.0773 76.3786 44.0773L76.3989 44.0817L76.4106 44.0991C76.4935 44.2184 76.5938 44.326 76.7058 44.4191C76.8397 44.5282 76.9778 44.6737 76.9589 44.7551L76.9517 44.7886L76.9109 44.8046C76.9109 44.8046 76.8935 44.8337 76.8833 44.8555L76.8746 44.8759C76.9036 44.9093 76.9051 44.9428 76.9036 44.9617C76.8935 45.0417 76.7931 45.0969 76.7611 45.1115C76.7582 45.1144 76.7495 45.1231 76.6971 45.1231V45.1202ZM75.836 44.7057L75.8898 44.7522C76.0149 44.8613 76.0978 44.934 76.3786 44.9748C76.6477 45.017 76.7117 45.0097 76.7189 45.0082C76.7597 44.9849 76.7916 44.9588 76.7946 44.9457C76.188 44.6809 75.7866 44.4235 75.5742 44.1631L75.5422 44.1239L75.5786 44.0889C75.6324 44.0366 75.7298 44.0817 75.8695 44.2213C75.9626 44.3159 76.0266 44.3653 76.0833 44.4089C76.2375 44.5166 76.3131 44.5573 76.4396 44.6257L76.5255 44.6722C76.5866 44.7057 76.7262 44.7449 76.8077 44.7653C76.8178 44.7493 76.8309 44.7319 76.8455 44.7188C76.8266 44.6839 76.7713 44.6082 76.6389 44.5006C76.524 44.406 76.4222 44.2969 76.3364 44.1762C76.2709 44.1631 76.0644 44.1195 75.8447 44.0831C75.7342 44.0657 75.5815 43.9784 75.4578 43.9086C75.4229 43.8882 75.3822 43.8649 75.3487 43.8489C75.3676 43.9537 75.4127 44.1297 75.4884 44.2504L75.5131 44.2911C75.6076 44.4409 75.6949 44.582 75.8375 44.7057H75.836ZM76.8847 44.6969C76.8847 44.6969 76.8804 44.6969 76.8775 44.6999C76.8804 44.6999 76.8818 44.6984 76.8847 44.6969Z" fill="black"/>
<path d="M73.0066 54.8655C72.8597 54.9091 71.76 55.3222 71.76 55.3222L71.4531 55.4458C71.8779 55.3498 72.2022 55.5636 72.2022 55.5636L73.4269 54.9964C73.4269 54.9964 73.424 54.9775 73.3935 54.9556C73.3615 54.9338 73.1549 54.8218 73.0066 54.8655Z" fill="#009B3A"/>
<path d="M72.1997 55.6146L72.1793 55.6015C72.1793 55.6015 71.8637 55.3993 71.4637 55.4895L71.4375 55.4066L71.7444 55.2829C71.791 55.2655 72.8484 54.8684 72.9953 54.8247C73.18 54.7695 73.4171 54.9193 73.4186 54.9207C73.4608 54.9513 73.4695 54.9804 73.471 54.9891L73.4768 55.0226L72.1982 55.6146H72.1997ZM71.7386 55.3789C71.9742 55.392 72.1473 55.4807 72.2055 55.5142L73.3546 54.9818C73.2993 54.9513 73.135 54.8727 73.0215 54.9076C72.8775 54.9498 71.788 55.3586 71.7779 55.3629L71.74 55.3775L71.7386 55.3789Z" fill="black"/>
<path d="M71.4072 55.4871C71.3985 55.4944 71.3912 55.5235 71.4116 55.5322C71.4726 55.5657 71.4566 55.5802 71.7345 55.6122C72.0137 55.6428 72.197 55.589 72.245 55.5366C72.3017 55.4755 71.5512 55.3606 71.4072 55.4857" fill="#009B3A"/>
<path d="M71.8932 55.6671C71.8437 55.6671 71.7885 55.6642 71.7318 55.6584C71.4932 55.6293 71.4612 55.6148 71.4132 55.5842C71.4074 55.5799 71.4001 55.5769 71.3928 55.5726C71.3739 55.5653 71.3594 55.5449 71.3565 55.5217C71.3521 55.4955 71.3623 55.4679 71.3797 55.4519C71.5339 55.3166 72.2016 55.4082 72.2801 55.4882C72.3034 55.5115 72.3048 55.5449 72.283 55.5682C72.235 55.6206 72.0983 55.6686 71.8947 55.6686L71.8932 55.6671ZM71.4627 55.5057C71.4947 55.526 71.5179 55.5377 71.7419 55.5653C71.9514 55.5886 72.0939 55.5609 72.1637 55.5333C72.0139 55.4882 71.5965 55.4446 71.4627 55.5071V55.5057ZM71.4176 55.4955L71.4394 55.5202C71.4394 55.5202 71.4408 55.5188 71.4423 55.5173C71.4423 55.5173 71.4423 55.5173 71.4408 55.5188L71.419 55.494L71.4176 55.4955ZM71.4321 55.4882C71.4321 55.4882 71.435 55.4882 71.435 55.4897C71.435 55.4897 71.4336 55.4897 71.4321 55.4882Z" fill="black"/>
<path d="M69.6417 51.5285L69.5908 51.1852C69.5908 51.1852 69.5267 50.2558 69.4206 50.0696C69.4002 50.0288 69.4089 49.9314 69.342 49.9299C69.214 49.9198 69.214 50.2223 69.198 50.4972C68.99 51.879 70.0911 52.9336 70.0911 52.9336L69.6402 51.5299L69.6417 51.5285Z" fill="#009B3A"/>
<path d="M70.0519 52.976C70.0403 52.9658 68.929 51.8836 69.1399 50.4858L69.1443 50.4044C69.1559 50.1745 69.1661 49.9767 69.2519 49.8996C69.2795 49.8764 69.313 49.8647 69.3479 49.8676C69.441 49.8691 69.4584 49.9636 69.4686 50.0087C69.4715 50.0204 69.4744 50.0364 69.4774 50.0422C69.585 50.2313 69.6461 51.0836 69.6534 51.1811L69.7028 51.5156L70.1523 52.9149L70.0519 52.9774V52.976ZM69.3363 49.9854C69.2839 50.0334 69.2737 50.2516 69.265 50.4116L69.2606 50.4989C69.1123 51.4822 69.6475 52.3054 69.9472 52.6764L69.5821 51.5374L69.5312 51.1942C69.505 50.8218 69.441 50.2269 69.3683 50.0989C69.3566 50.0756 69.3523 50.0538 69.3479 50.0334C69.345 50.0189 69.3406 49.9942 69.3348 49.9869L69.3363 49.9854Z" fill="black"/>
<path d="M75.1015 55.6239C75.1015 55.6239 74.9866 55.5977 75.0593 55.5075C75.1291 55.4217 75.3371 55.3751 75.3793 55.3751C75.42 55.3737 75.5378 55.3839 75.6236 55.4086C75.7109 55.4304 75.8331 55.5075 75.7967 55.5642C75.7589 55.618 75.6411 55.685 75.4782 55.685C75.3386 55.685 75.2673 55.682 75.2062 55.6646C75.1465 55.6428 75.1 55.6253 75.1 55.6253" fill="#009B3A"/>
<path d="M75.4804 55.7411C75.3407 55.7411 75.2622 55.7382 75.1938 55.7178C75.1385 55.6975 75.0964 55.6815 75.0862 55.6786C75.0658 55.6727 75.0047 55.6538 74.9858 55.5971C74.9771 55.5695 74.9742 55.5273 75.0164 55.4735C75.1022 55.3687 75.3305 55.3207 75.38 55.3207C75.428 55.3178 75.5473 55.3295 75.6404 55.3557C75.7058 55.3717 75.8222 55.4269 75.8527 55.504C75.8658 55.5346 75.8629 55.568 75.8454 55.5942C75.796 55.6655 75.6622 55.7397 75.4804 55.7397V55.7411ZM75.1196 55.5724C75.1196 55.5724 75.1676 55.5898 75.2273 55.6117C75.2782 55.6262 75.3509 55.6291 75.4789 55.6291C75.6345 55.6291 75.7291 55.5651 75.7509 55.5331C75.7422 55.5287 75.6796 55.4822 75.6098 55.4647C75.5269 55.4415 75.4149 55.4327 75.38 55.4342C75.3422 55.4342 75.156 55.4793 75.1007 55.5462C75.0905 55.5593 75.0891 55.5651 75.0891 55.5651C75.0891 55.5622 75.1036 55.5695 75.1124 55.5709L75.1007 55.6218L75.1182 55.5724H75.1196Z" fill="black"/>
<path d="M73.9025 54.9655C73.9025 54.9655 73.5244 54.791 73.1651 54.6164C72.6924 54.3852 72.1236 54.0652 71.7295 53.4775C71.2335 52.7502 70.8029 52.3604 70.6996 52.2819C70.592 52.2033 70.5775 52.1742 70.5382 52.2295C70.5033 52.2775 70.528 52.3197 70.5571 52.3706C70.6589 52.5364 70.9091 52.8477 70.9993 53.015C71.1535 53.3132 71.4735 53.639 71.4705 53.8324C71.4705 53.8586 71.3774 53.8135 71.3774 53.8135C71.3774 53.8135 70.6284 53.5575 70.3244 52.6499C70.1033 51.9924 70.1978 51.799 70.1455 51.4702C70.0582 50.8855 70.0407 50.839 69.7513 50.183C69.744 50.167 69.5738 49.8935 69.552 49.9532C69.52 50.0317 69.5811 50.3241 69.5811 50.3241L69.6116 50.6615C69.6116 50.6615 69.5869 51.4106 69.5869 51.4557C69.5869 51.5008 69.3978 51.9692 70.1993 52.7546C70.1993 52.7546 70.2109 52.8884 70.1033 52.7706C70.0276 52.6862 69.4531 52.2455 69.2785 51.5212C69.0982 50.7953 69.072 50.0695 69.2087 49.7684C69.3324 49.4964 69.5796 48.8303 69.4735 48.2484C69.4618 48.1873 69.4444 48.0099 69.4051 48.0564C69.3891 48.0797 69.3164 48.3735 69.2727 48.4753C69.2116 48.615 69.1185 48.7517 69.0895 48.8477C69.0327 49.0106 68.7564 49.2637 68.8102 49.7277C68.8713 50.2615 68.9062 50.3459 68.9702 50.535C68.992 50.6048 69.0458 50.7808 69.0109 50.7982C68.9789 50.8157 68.8655 50.5873 68.8655 50.5873C68.8655 50.5873 68.3578 49.5895 68.6705 48.7808C68.9876 47.975 69.7804 47.2113 69.7804 47.2113C69.7804 47.2113 70.4247 46.6761 70.5571 46.5524C70.608 46.5044 70.5964 46.4681 70.5789 46.4739C70.4189 46.5146 69.1782 46.7706 68.7418 48.2499C68.7418 48.2499 68.7185 48.3124 68.6865 48.2964C68.6458 48.279 68.6865 48.2092 68.6865 48.2092C68.6865 48.2092 68.96 47.1604 69.7251 46.6848C70.5615 46.1641 70.4625 46.2397 70.7389 46.0753C70.9135 45.9677 71.0705 45.8222 71.2655 45.5008C71.2858 45.4644 71.3644 45.2768 71.3542 45.2448C71.3455 45.2128 71.3076 45.2564 71.2902 45.3102C71.2902 45.3102 71.0531 45.6753 70.6996 45.799C70.3447 45.9226 70.0553 45.7466 69.6989 46.1408C69.3411 46.5379 69.0574 47.0877 69.0574 47.0877C69.0574 47.0877 68.9644 47.2302 68.944 47.2259C68.9047 47.2142 68.9629 47.0746 68.9629 47.0746C68.9629 47.0746 69.44 46.0622 69.824 45.8557C70.208 45.6477 70.5498 45.4499 70.768 45.2812C71.0327 45.0732 71.4895 44.5641 71.6553 44.3881C71.6902 44.3502 71.936 44.1015 71.9898 44.0215C72.0218 43.9779 72.1004 43.9139 72.0873 43.9023C72.0524 43.8761 71.8196 43.9881 71.8196 43.9881C71.8196 43.9881 70.5542 44.3372 69.7687 45.5255C69.7324 45.5808 69.6465 45.6928 69.6 45.7408C69.5156 45.8281 69.4735 45.9735 69.4735 45.9735C69.4225 45.9313 69.9185 45.3117 69.9185 45.3117L70.0058 44.9102C70.0058 44.9102 70.1527 44.3081 70.4611 43.8819C70.4916 43.8426 70.6734 43.6593 70.7054 43.6215C70.7665 43.5546 70.5891 43.6797 70.6211 43.6521C70.6211 43.6521 69.4414 44.4986 69.4414 45.5663C69.4414 45.7583 69.3222 45.9328 69.1578 46.1713C68.9658 46.4477 68.9018 46.6179 68.8175 47.0295C68.7825 47.2026 68.7462 47.3757 68.7098 47.5473C68.7098 47.5473 68.7215 47.7001 68.672 47.6884C68.6211 47.6768 68.6385 47.5517 68.6385 47.5517C68.6385 47.5517 68.7593 46.7561 68.8451 46.5117C68.928 46.2746 68.9833 46.1117 68.9833 46.1117C68.9833 46.1117 68.9338 45.5139 69.0662 45.1866C69.1782 44.9015 69.4633 44.5248 69.5084 44.4303C69.5273 44.3895 69.6596 44.1219 69.696 43.815C69.7004 43.7742 69.6684 43.8077 69.616 43.927C69.4865 44.2193 69.3775 44.2964 69.1651 44.5713C69.1651 44.5713 68.6182 44.967 68.4204 46.1466C68.4204 46.1466 68.4145 46.5859 68.3476 47.2739C68.2996 47.7786 68.3404 48.2513 68.3971 48.535C68.4335 48.7095 68.5033 48.711 68.4596 48.7313C68.4334 48.7444 68.4771 48.7342 68.4145 48.6019C68.3389 48.4448 68.2807 48.2019 68.2807 47.8659C68.2807 47.2506 68.3345 46.7575 68.3345 46.7575C68.3345 46.7575 68.3753 45.7641 67.9622 45.3161C67.9418 45.2928 68.0349 45.5168 68.0756 45.7408C68.1265 46.0186 68.0349 46.4026 68.0073 46.5524C67.9811 46.7037 67.7062 47.3597 67.8036 47.9764C67.8036 47.9764 68.0364 49.0208 68.336 49.5284C68.336 49.5284 68.5222 49.7466 68.3578 49.5415C68.1949 49.3364 67.8589 48.5233 67.8298 48.455C67.8036 48.3881 67.5636 47.8819 67.3382 47.6768C67.2218 47.5677 66.9004 47.3742 66.9004 47.3742C66.9004 47.3742 66.7258 47.2404 66.8582 47.4179C66.9629 47.5575 67.104 47.8077 67.1709 47.9168C67.3105 48.1422 67.4342 48.3764 67.5418 48.6179C67.6494 48.855 67.8996 49.5502 67.8996 49.5502L68.0596 49.991C68.0596 49.991 68.3273 50.1393 68.4742 50.3022C68.5935 50.4332 68.8422 50.7357 69.0473 51.2739C69.1404 51.5124 69.3251 51.7292 69.3251 51.7292C69.3251 51.7292 69.2858 51.8048 69.1214 51.5197C68.9585 51.2302 68.8 50.6892 68.4087 50.2673C68.112 49.9444 67.312 49.6186 67.312 49.6186C67.312 49.6186 67.8255 50.5146 67.9535 50.6746C68.1687 50.9306 68.4815 51.2899 68.5615 51.3844C68.6444 51.4819 69.1287 52.0782 69.2 52.1742C69.312 52.3241 69.3862 52.3895 69.4458 52.4506C69.5738 52.5859 69.9505 52.8346 69.9796 52.8724C69.9855 52.9117 69.9927 52.8797 69.9607 52.8564C69.7935 52.7561 69.5927 52.599 69.3862 52.4637C69.1796 52.327 68.3854 51.9881 67.8487 51.2492C67.7222 51.031 67.6611 50.9437 67.6189 50.9655C67.5535 51.0004 67.9796 52.4113 68.8567 52.8593C68.8567 52.8593 69.824 53.2899 70.0378 53.4193C70.1556 53.4906 70.3927 53.5953 70.5033 53.6826C70.5658 53.735 70.4465 53.7321 70.4378 53.7306C69.9244 53.6899 69.1869 53.623 68.7331 53.3597C68.7331 53.3597 68.5382 53.223 68.6982 53.415C68.8247 53.5633 69.0662 53.9299 69.5302 54.135C69.9956 54.3386 70.672 54.4579 70.9193 54.471C71.1622 54.4841 72.0291 54.4884 72.1949 54.5422C72.3578 54.5975 72.6342 54.775 72.7927 54.8259C72.9367 54.8724 73.3702 55.0382 73.3702 55.0382C73.3702 55.0382 73.5011 55.1095 73.5709 55.1357C73.6495 55.1662 73.9738 55.1648 73.9971 55.1037C74.0189 55.0484 73.904 54.9655 73.904 54.9655" fill="#009B3A"/>
<path d="M73.7477 55.1998C73.6677 55.1998 73.592 55.1925 73.5542 55.1765C73.4829 55.1503 73.3549 55.0805 73.3491 55.0776C73.3491 55.0776 72.92 54.9132 72.7789 54.8681C72.6946 54.8405 72.5811 54.7808 72.4706 54.7227C72.3658 54.6674 72.2582 54.6107 72.1811 54.5845C72.0677 54.5481 71.5644 54.5336 71.2313 54.5248C71.0975 54.5219 70.984 54.519 70.9171 54.5147C70.6757 54.5016 69.9949 54.3867 69.512 54.1758C69.1048 53.9954 68.8677 53.6972 68.7251 53.5198C68.7018 53.4907 68.6815 53.4645 68.664 53.4441C68.6059 53.3743 68.5695 53.3234 68.6044 53.2856C68.632 53.255 68.6757 53.2667 68.7586 53.3248C69.2168 53.591 70.0022 53.6536 70.4313 53.687C70.36 53.639 70.2655 53.5896 70.1797 53.5459C70.1171 53.5139 70.0589 53.4834 70.0153 53.4572C69.8058 53.3307 68.8488 52.9045 68.8386 52.9001C67.9993 52.471 67.5702 51.2056 67.5688 50.9918C67.5688 50.9801 67.5688 50.9438 67.5993 50.9278C67.6822 50.8841 67.752 50.9932 67.8873 51.2274C68.3164 51.8179 68.9157 52.1496 69.2386 52.3285C69.2589 52.3401 69.2778 52.3503 69.2968 52.3605C69.2589 52.3198 69.2153 52.2688 69.1644 52.2019C69.0946 52.1074 68.6088 51.5081 68.5288 51.415C68.5011 51.383 68.4473 51.3205 68.3789 51.2405C68.2466 51.0878 68.0619 50.8725 67.9193 50.7038C67.7899 50.5423 67.2939 49.6783 67.2735 49.6419L67.2095 49.5314L67.3273 49.5794C67.3477 49.5881 67.6691 49.7205 67.9789 49.8979L67.8582 49.5663C67.8582 49.5663 67.608 48.8696 67.5019 48.6368C67.3957 48.3983 67.272 48.1641 67.1338 47.9401C67.1178 47.9139 67.096 47.8776 67.0728 47.8383C67 47.7161 66.9011 47.5488 66.824 47.4441C66.7775 47.3816 66.7455 47.3321 66.7804 47.2972C66.8095 47.2681 66.8502 47.2812 66.9273 47.3394C66.936 47.3452 67.2502 47.5328 67.3695 47.6448C67.6066 47.8616 67.848 48.3779 67.8728 48.439L67.8786 48.4521C67.8829 48.4623 67.8873 48.4725 67.8902 48.4812C67.8131 48.2121 67.7666 48.0041 67.7622 47.9852C67.6837 47.4848 67.8393 46.9699 67.9237 46.6936C67.944 46.6267 67.96 46.5728 67.9659 46.5438C67.9688 46.5234 67.9746 46.4987 67.9804 46.471C68.0139 46.2994 68.0779 45.9794 68.0357 45.7467C68.0109 45.6128 67.9673 45.4776 67.9411 45.3976C67.9149 45.3161 67.9077 45.2928 67.9411 45.2739L67.9731 45.2565L67.9993 45.2856C68.2597 45.5678 68.344 46.0521 68.3717 46.3881C68.3789 46.2325 68.3804 46.1438 68.3804 46.1423C68.5709 45.0019 69.0771 44.583 69.1382 44.5365C69.1964 44.4608 69.2473 44.4012 69.2924 44.3474C69.4117 44.2048 69.4902 44.1118 69.5804 43.9067C69.6444 43.7641 69.672 43.7423 69.7099 43.7539C69.72 43.7568 69.7506 43.7685 69.7448 43.8179C69.7215 44.0128 69.656 44.2281 69.5557 44.439C69.5368 44.4798 69.4975 44.5394 69.4437 44.6208C69.3419 44.7765 69.1862 45.0107 69.112 45.1998C68.984 45.5139 69.0306 46.1001 69.032 46.1059V46.1147L69.0306 46.1234C69.0306 46.1234 68.9753 46.2848 68.8924 46.5234C68.8502 46.6456 68.7979 46.9088 68.7571 47.1401C68.7659 47.0994 68.7731 47.0587 68.7819 47.0179C68.8677 46.5918 68.936 46.4201 69.128 46.1438C69.2822 45.9212 69.4044 45.7452 69.4044 45.5634C69.4044 44.487 70.5535 43.6492 70.6029 43.6143L70.6131 43.6274L70.6073 43.6128C70.6073 43.6128 70.6204 43.6056 70.6306 43.5998C70.6975 43.559 70.7309 43.5372 70.76 43.5721C70.7862 43.6041 70.7557 43.6376 70.7455 43.6492C70.7309 43.6667 70.6829 43.7176 70.6277 43.7758C70.5768 43.8296 70.5186 43.8892 70.504 43.9081C70.2058 44.3198 70.0575 44.9132 70.056 44.919L70.0066 45.1503C70.7848 44.2398 71.8059 43.9503 71.8175 43.9474C72.0662 43.8267 72.1055 43.8558 72.1229 43.8688L72.1389 43.8819L72.1418 43.9052C72.1418 43.9343 72.1215 43.9561 72.0822 43.9968C72.0648 44.0143 72.0458 44.0332 72.0342 44.0492C71.9949 44.1074 71.8684 44.2427 71.736 44.3779L71.6968 44.4187C71.6706 44.4463 71.6371 44.4827 71.5993 44.5234C71.3869 44.7532 71.032 45.1387 70.8051 45.3147C70.6131 45.463 70.3106 45.6463 69.8553 45.8936C69.5033 46.0827 69.0538 47.0063 69.016 47.0878C69.0218 47.079 69.0262 47.0718 69.032 47.0645C69.032 47.063 69.3215 46.5088 69.6778 46.1132C69.9251 45.8398 70.1462 45.8267 70.3615 45.8121C70.4691 45.8048 70.5811 45.799 70.6975 45.7583C71.0131 45.6492 71.2371 45.3307 71.2633 45.2914C71.2735 45.2652 71.304 45.1939 71.3579 45.191C71.3768 45.191 71.4 45.2027 71.4088 45.2332C71.4291 45.2928 71.3171 45.5198 71.3171 45.5212C71.1004 45.879 70.9288 46.0172 70.776 46.1118C70.6946 46.1598 70.6451 46.1874 70.5957 46.215C70.4764 46.2819 70.3542 46.3518 69.7608 46.7212C69.4786 46.8958 69.2648 47.1532 69.1062 47.4048C69.5528 46.7765 70.1695 46.5307 70.5608 46.4347L70.5782 46.4303C70.6 46.423 70.6262 46.4332 70.6393 46.455C70.6553 46.4827 70.6524 46.5307 70.5971 46.583C70.4662 46.7067 69.8451 47.2216 69.8189 47.2434C69.8131 47.2492 69.0306 48.0085 68.7208 48.7954C68.4182 49.5765 68.9084 50.5568 68.9142 50.567C68.9331 50.6048 68.9549 50.6456 68.9753 50.6805C68.968 50.6485 68.9564 50.6048 68.9375 50.5481L68.9273 50.5205C68.8691 50.3474 68.8328 50.2427 68.7746 49.7321C68.7324 49.3758 68.8808 49.1343 68.9782 48.9743C69.0117 48.919 69.0408 48.871 69.0553 48.8318C69.0728 48.7765 69.1091 48.7081 69.1484 48.6354C69.1804 48.5772 69.2138 48.5161 69.24 48.4565C69.2633 48.4041 69.2953 48.2892 69.3215 48.1976C69.3564 48.0768 69.3666 48.0434 69.3768 48.0288C69.4015 47.9983 69.4277 48.0027 69.4379 48.0041C69.4829 48.0158 69.496 48.071 69.5149 48.1932C69.5178 48.2107 69.5208 48.2267 69.5222 48.2368C69.6371 48.8681 69.3462 49.5808 69.2546 49.783C69.1222 50.0768 69.1528 50.8027 69.3273 51.5067C69.4597 52.0579 69.8306 52.4434 70.024 52.6267C69.7317 52.3038 69.4611 51.8776 69.5455 51.4659C69.5455 51.4587 69.5484 51.4543 69.5484 51.4514C69.5484 51.4078 69.5717 50.6878 69.5731 50.6572L69.5426 50.3256C69.5324 50.279 69.4829 50.0201 69.5164 49.9343C69.5237 49.9139 69.5426 49.8994 69.5659 49.8979H69.5673C69.6517 49.8979 69.7957 50.1583 69.7957 50.1612C70.0924 50.8332 70.1084 50.8827 70.1942 51.4601C70.2102 51.5678 70.2131 51.6594 70.2146 51.7568C70.2175 51.959 70.2219 52.1903 70.3717 52.6325C70.664 53.5081 71.3898 53.767 71.3971 53.7685C71.4073 53.7728 71.4175 53.7772 71.4262 53.7816C71.4 53.6768 71.2968 53.5314 71.1964 53.3888C71.1135 53.2725 71.0277 53.1503 70.9666 53.0325C70.9171 52.9408 70.8168 52.8027 70.7193 52.6674C70.6437 52.5627 70.5709 52.4638 70.5259 52.391C70.4939 52.3372 70.456 52.2718 70.5084 52.2019C70.5215 52.183 70.5404 52.1612 70.5709 52.1568C70.6073 52.1525 70.6364 52.1743 70.6858 52.2107C70.6989 52.2208 70.7135 52.2325 70.7324 52.2456C70.8575 52.3401 71.288 52.7401 71.7724 53.4528C72.1535 54.0187 72.7033 54.3387 73.192 54.5772C73.5455 54.7503 73.9237 54.9248 73.928 54.9263L73.9091 54.967L73.9353 54.9307C73.9688 54.9554 74.0749 55.0398 74.0429 55.1198C74.0357 55.1387 74.0182 55.1547 73.992 55.1663C73.9426 55.1881 73.8451 55.1983 73.752 55.1983L73.7477 55.1998ZM68.7644 53.4281C68.7746 53.4398 68.7833 53.4528 68.7949 53.4659C68.9317 53.6376 69.1615 53.9241 69.5484 54.0958C69.9979 54.2936 70.6713 54.4158 70.9215 54.4274C70.9884 54.4318 71.1018 54.4347 71.2342 54.4376C71.6982 54.4492 72.0909 54.4638 72.2088 54.5016C72.2931 54.5307 72.4037 54.5888 72.5113 54.6456C72.6189 54.7023 72.7295 54.7605 72.8066 54.7852C72.9506 54.8318 73.3695 54.9918 73.3869 54.999C73.3942 55.0019 73.5208 55.0718 73.5862 55.095C73.6589 55.1241 73.9237 55.1154 73.96 55.0819C73.9571 55.0732 73.9208 55.0325 73.8815 55.0034C73.8408 54.9845 73.4829 54.8201 73.1469 54.6558C72.648 54.4128 72.0851 54.0841 71.6939 53.5023C71.2168 52.8012 70.7964 52.4085 70.6742 52.3168C70.6568 52.3038 70.6408 52.2921 70.6277 52.2819C70.6102 52.2688 70.5913 52.2543 70.5811 52.2485C70.5797 52.2499 70.5782 52.2528 70.5753 52.2558C70.5593 52.2776 70.5622 52.2907 70.5957 52.3488C70.6393 52.4187 70.7091 52.5161 70.7848 52.6194C70.8837 52.7561 70.9869 52.8972 71.0393 52.9947C71.0989 53.1081 71.1819 53.2274 71.2633 53.3423C71.4 53.5358 71.5178 53.7016 71.5164 53.8339V53.8572L71.4917 53.8761C71.48 53.8834 71.4538 53.8994 71.3593 53.8528C71.3331 53.8441 70.5913 53.5808 70.2844 52.663C70.1317 52.2078 70.1273 51.9707 70.1229 51.7612C70.1215 51.6667 70.12 51.5765 70.104 51.4761C70.0197 50.9088 70.0037 50.8608 69.7128 50.2005C69.6997 50.1758 69.6328 50.0739 69.5877 50.0187C69.5877 50.0943 69.6066 50.2252 69.624 50.3154L69.656 50.6572C69.6473 50.9219 69.6313 51.4208 69.6313 51.4558C69.6313 51.4616 69.6299 51.4718 69.6269 51.4863C69.5368 51.9299 69.9062 52.4041 70.2306 52.7227L70.2422 52.7343V52.7503C70.2451 52.7707 70.248 52.8361 70.2 52.8565C70.1477 52.8798 70.0939 52.8216 70.0735 52.7998C70.0633 52.7881 70.0444 52.7721 70.0197 52.7488C69.8713 52.6121 69.512 52.2805 69.3171 51.7816C69.3128 51.7816 69.3084 51.7816 69.3055 51.7816C69.2662 51.7816 69.2037 51.7525 69.0815 51.5416C69.0335 51.4558 68.9869 51.3525 68.9346 51.2332C68.8066 50.9481 68.648 50.5918 68.3746 50.2979C68.1549 50.0594 67.6473 49.815 67.4131 49.7118C67.5557 49.9576 67.8873 50.5263 67.9848 50.647C68.1259 50.8143 68.3106 51.0281 68.4429 51.1823C68.5113 51.2608 68.5651 51.3248 68.5928 51.3568C68.6771 51.4543 69.1586 52.0492 69.2328 52.1481C69.3229 52.2674 69.3869 52.3314 69.4393 52.3838L69.4742 52.4187C69.5499 52.4987 69.72 52.6238 69.8451 52.7139C69.9571 52.7954 69.9979 52.8259 70.0124 52.8448L70.0197 52.8536V52.8652C70.0269 52.8783 70.0284 52.8928 70.024 52.9059L70.0124 52.9379L69.9789 52.9336C69.9542 52.9307 69.944 52.9132 69.9397 52.8972C69.8422 52.8361 69.7404 52.7634 69.6313 52.6863C69.544 52.6252 69.4539 52.5598 69.3622 52.5001C69.3259 52.4754 69.2677 52.4434 69.1964 52.4041C68.8677 52.2223 68.2568 51.8848 67.8146 51.2739C67.7782 51.2114 67.7055 51.0863 67.6604 51.031C67.7011 51.3001 68.1302 52.4361 68.8778 52.8201C68.9157 52.8361 69.848 53.2521 70.0619 53.3816C70.104 53.4063 70.1608 53.4354 70.2204 53.4674C70.3309 53.5241 70.4575 53.5896 70.5317 53.6492C70.5738 53.6841 70.568 53.7161 70.5608 53.7321C70.5346 53.7874 70.4328 53.7743 70.4313 53.7728C70.0182 53.7408 69.2531 53.6812 68.7673 53.4267L68.7644 53.4281ZM68.0939 49.9619C68.152 49.9954 68.3746 50.1278 68.5055 50.2747C68.7368 50.5292 68.9389 50.8696 69.0873 51.2594C69.128 51.3656 69.1891 51.4674 69.2429 51.5474C69.2429 51.5416 69.24 51.5372 69.2386 51.5314C69.0568 50.7983 69.0291 50.0652 69.1717 49.751C69.2604 49.5532 69.544 48.8638 69.4335 48.2572C69.4306 48.2456 69.4291 48.2296 69.4262 48.2107C69.4248 48.199 69.4219 48.1845 69.4189 48.167C69.4131 48.1859 69.4073 48.2063 69.4029 48.2238C69.3753 48.3227 69.3433 48.4347 69.3186 48.4928C69.2909 48.5568 69.256 48.6194 69.224 48.679C69.1862 48.7474 69.1513 48.8114 69.1368 48.8608C69.1193 48.9103 69.0888 48.9612 69.0509 49.0208C68.9535 49.1794 68.8211 49.3961 68.8589 49.7234C68.9171 50.2252 68.9506 50.327 69.0073 50.4943L69.0175 50.5234C69.0917 50.759 69.0815 50.8172 69.0364 50.8405L69.0204 50.8492L68.9957 50.8434C68.9811 50.839 68.9389 50.8245 68.8313 50.6092C68.8109 50.5685 68.3193 49.5852 68.6349 48.7678C68.952 47.9619 69.7477 47.1896 69.7564 47.1823C69.7651 47.175 70.3557 46.6848 70.5157 46.5394C69.9949 46.6805 69.1368 47.0878 68.7891 48.2645C68.7833 48.2805 68.7644 48.3256 68.728 48.3401C68.7106 48.3474 68.6902 48.3459 68.6742 48.3387C68.6568 48.3299 68.6422 48.3154 68.6349 48.295C68.6233 48.2572 68.6422 48.2136 68.6509 48.1947C68.6757 48.103 68.9564 47.1168 69.7084 46.6499C70.3019 46.279 70.4269 46.2092 70.5462 46.1423C70.5957 46.1147 70.6437 46.087 70.7237 46.0405C70.8662 45.9518 71.0277 45.8223 71.2342 45.4805C71.2386 45.4732 71.2444 45.4616 71.2502 45.447C71.1498 45.5692 70.9622 45.7598 70.7193 45.8441C70.5913 45.8878 70.4749 45.895 70.36 45.9023C70.1448 45.9154 69.9586 45.927 69.736 46.1743C69.3869 46.5627 69.1033 47.1067 69.1004 47.111C68.9884 47.2827 68.9622 47.2768 68.9389 47.271C68.9186 47.2652 68.9055 47.2536 68.8982 47.2376C68.8764 47.1925 68.9069 47.1067 68.9273 47.0601C68.9477 47.0165 69.416 46.0303 69.8088 45.8194C70.2611 45.575 70.5593 45.3932 70.7469 45.2492C70.968 45.0761 71.32 44.695 71.5309 44.4667C71.5702 44.4245 71.6037 44.3881 71.6284 44.3605L71.6691 44.3183C71.7433 44.2412 71.9164 44.0608 71.9586 43.9998C71.9658 43.991 71.9731 43.9808 71.9819 43.9707C71.9382 43.9867 71.8888 44.0085 71.8437 44.0303C71.8233 44.0361 70.5782 44.391 69.8102 45.5518C69.7709 45.6114 69.6822 45.7248 69.6357 45.7728C69.6284 45.7816 69.6197 45.7903 69.6124 45.799C69.6008 45.8165 69.5891 45.8325 69.5804 45.8485C69.5411 45.9168 69.5208 45.9852 69.5208 45.9867L69.5019 46.0507L69.4509 46.0085C69.4306 45.991 69.4029 45.9692 69.5077 45.8005C69.5149 45.7888 69.5222 45.7772 69.5295 45.7656C69.5964 45.6623 69.7069 45.5125 69.8815 45.2928L69.9659 44.9016C69.9717 44.8768 70.1113 44.3154 70.4051 43.8907C70.0648 44.2005 69.4873 44.8347 69.4873 45.5648C69.4873 45.7728 69.3593 45.959 69.1964 46.1947C69.0117 46.4594 68.9462 46.6252 68.8633 47.0368C68.8284 47.2085 68.7935 47.3787 68.7557 47.5503C68.7586 47.6012 68.7571 47.6841 68.7193 47.7176C68.7033 47.7307 68.6844 47.735 68.664 47.7307C68.5797 47.7118 68.5913 47.5838 68.5971 47.5445C68.6015 47.511 68.7193 46.7416 68.8051 46.4958C68.8778 46.2907 68.9273 46.1408 68.9404 46.1045C68.9346 46.0245 68.8997 45.4834 69.0277 45.1678C69.1048 44.9714 69.2633 44.7314 69.368 44.5743C69.416 44.5016 69.4582 44.4376 69.4713 44.4099C69.528 44.2892 69.5731 44.1685 69.6066 44.0536C69.5295 44.2005 69.4553 44.2892 69.3579 44.4056C69.3128 44.4594 69.2619 44.5205 69.2022 44.5976L69.1935 44.6063C69.1935 44.6063 68.6582 45.0092 68.4662 46.1525C68.4662 46.1525 68.4589 46.5961 68.3935 47.2768C68.3455 47.7772 68.3877 48.2499 68.4429 48.5248C68.4488 48.5496 68.4546 48.5699 68.4604 48.5874C68.4677 48.6034 68.4735 48.6194 68.4793 48.6325C68.488 48.6499 68.4968 48.6616 68.5026 48.6703C68.5142 48.6863 68.5259 48.7052 68.52 48.7299C68.5142 48.7547 68.4924 48.7648 68.4837 48.7692L68.4619 48.7808L68.4313 48.7721L68.4095 48.7576V48.727C68.4124 48.711 68.4066 48.6892 68.3993 48.6674C68.3935 48.6543 68.3862 48.6383 68.3789 48.6194C68.3164 48.4885 68.2408 48.2514 68.2408 47.8645C68.2408 47.255 68.2931 46.7561 68.2946 46.7518C68.2946 46.7459 68.3193 46.0492 68.0866 45.575C68.0997 45.6245 68.1128 45.6783 68.1229 45.7321C68.168 45.9808 68.1026 46.311 68.0677 46.4899C68.0618 46.5176 68.0575 46.5408 68.0546 46.5612C68.0488 46.5947 68.0328 46.647 68.0109 46.7212C67.9295 46.9903 67.7768 47.4921 67.8509 47.9707C67.8524 47.9779 68.0502 48.8623 68.312 49.3859C68.344 49.4427 68.3717 49.4863 68.3949 49.5154C68.4837 49.6259 68.4909 49.6347 68.456 49.6638C68.4211 49.6928 68.4168 49.6885 68.3048 49.5576C68.2829 49.5212 68.2626 49.4819 68.2422 49.4412C68.1011 49.1968 67.9106 48.7576 67.7986 48.487L67.7928 48.4725C67.7724 48.4201 67.5353 47.9139 67.3113 47.7103C67.2269 47.6318 67.0291 47.5052 66.9331 47.4456C67.0058 47.5503 67.0873 47.6899 67.1498 47.7947C67.1731 47.8339 67.1935 47.8688 67.2095 47.895C67.3491 48.1219 67.4757 48.359 67.5833 48.6019C67.6909 48.8376 67.9324 49.5081 67.9426 49.5372L68.0968 49.9634L68.0939 49.9619Z" fill="black"/>
<path d="M79.5282 47.6189C79.6256 47.6552 79.6693 47.9461 79.6693 47.9461C79.6693 47.9461 79.6605 47.7789 79.6605 47.6974C79.6605 47.616 79.6198 47.3047 79.6198 47.3047L79.5325 47.3672C79.4278 47.4501 79.3711 47.597 79.3711 47.597C79.3711 47.597 79.4307 47.5869 79.5267 47.6203" fill="#009B3A"/>
<path d="M79.6139 47.9547C79.5935 47.8194 79.5426 47.6841 79.5077 47.671C79.4292 47.6434 79.3782 47.6507 79.3782 47.6507L79.2852 47.6638L79.3186 47.5765C79.3186 47.5765 79.3826 47.415 79.4975 47.3248L79.6619 47.207L79.6735 47.2972C79.675 47.3103 79.7142 47.6128 79.7142 47.6972C79.7142 47.7816 79.723 47.943 79.723 47.943L79.6139 47.9532V47.9547ZM79.4568 47.5445C79.4815 47.5489 79.5121 47.5561 79.5441 47.5663C79.5644 47.5736 79.5819 47.5867 79.5979 47.6027C79.5921 47.5416 79.5833 47.4645 79.5761 47.4005L79.5644 47.4092C79.5179 47.4456 79.4815 47.4994 79.4568 47.543V47.5445Z" fill="black"/>
</g>
<rect x="1.5" y="1.5" width="144" height="96" stroke="#151519" stroke-width="3" stroke-linecap="round"/>
<defs>
<clipPath id="clip0_210_107025">
<rect x="1.5" y="1.5" width="144" height="96" fill="white"/>
</clipPath>
</defs>
</svg>
