<svg width="147" height="99" viewBox="0 0 147 99" fill="none" xmlns="http://www.w3.org/2000/svg">
<g clip-path="url(#clip0_210_107031)">
<path d="M1.5 97.5H145.5V1.5H1.5V97.5Z" fill="#005430"/>
<path d="M109.5 39.6336C109.49 37.9472 108.836 33.4047 108.67 31.8808C108.504 30.3569 108.337 28.9744 108.377 28.6506C108.417 28.3382 108.898 29.085 109.152 29.1453C109.283 29.119 109.225 28.6474 108.986 28.2446C108.824 27.9711 108.273 26.9484 107.938 26.3492C107.781 26.0655 107.746 25.901 107.67 25.8662C107.595 25.8313 106.986 27.0594 107.053 27.1956C107.219 27.4452 107.333 27.5643 107.358 28.0052C107.385 28.446 107.613 31.5935 107.903 33.9792C108.122 35.7791 108.602 39.6567 108.619 42.0675C108.624 42.854 108.536 43.6036 108.432 43.9168C108.163 44.4087 107.743 44.8524 106.18 45.7673C104.422 46.7961 102.077 47.6522 101.069 48.2252C100.442 48.5825 100.65 48.6303 101.195 48.4739C101.74 48.3175 104.554 47.8163 105.921 47.2385C107.205 46.6948 108.038 45.7851 108.671 44.4581C109.452 42.8175 109.511 41.4253 109.5 39.6336Z" fill="white"/>
<path d="M104.061 26.8228C104.196 26.7701 105.321 26.7122 105.624 26.7746C105.425 27.059 104.076 27.6887 104.071 27.8041C104.107 27.8819 105.002 27.6603 105.285 27.5371C105.469 27.4261 105.592 27.2543 105.729 27.1117C106.051 26.7405 106.434 26.0521 106.338 25.9658C106.181 25.8264 104.648 25.9131 104.446 25.9419C104.31 25.9614 103.967 26.5772 103.904 26.7353C103.842 26.8933 103.925 26.8755 104.061 26.8228Z" fill="white"/>
<path d="M106.357 36.8193C106.591 36.0251 106.649 35.0616 106.33 34.0474C106.002 33.0032 105.188 32.3667 104.601 32.0405L104.496 33.0458C104.496 33.0458 105.32 33.455 105.883 34.4854C106.239 35.139 106.388 36.0632 106.106 37.0936C106.059 37.3492 106.242 37.2082 106.357 36.8193Z" fill="white"/>
<path d="M97.6446 41.8597C97.8559 41.1446 97.9076 40.2771 97.621 39.3638C97.3256 38.4234 96.5924 37.85 96.0634 37.5575L95.9688 38.4623C95.9688 38.4623 96.7103 38.831 97.2173 39.758C97.539 40.346 97.6722 41.1794 97.4194 42.1069C97.3773 42.3362 97.5416 42.2098 97.6446 41.8597Z" fill="white"/>
<path d="M67.399 28.1695C67.7382 28.7899 67.8789 29.6683 67.612 30.6469C67.5673 30.8896 67.7399 30.7563 67.8499 30.3867C68.0717 29.6331 68.1269 28.7174 67.8236 27.7534C67.512 26.7611 66.7385 26.157 66.1806 25.8478L66.082 26.8024C66.082 26.8024 66.8643 27.191 67.399 28.1695Z" fill="white"/>
<path d="M46.9797 28.4916C47.2646 29.1594 47.2839 30.0609 46.8237 31.0107C46.7343 31.2493 46.9521 31.1363 47.1349 30.7793C47.5082 30.0496 47.7177 29.1363 47.5284 28.1274C47.3343 27.0901 46.555 26.3831 45.9717 26.0002L45.707 26.9479C45.707 26.9479 46.5305 27.439 46.9797 28.4916Z" fill="white"/>
<path d="M52.6244 43.4178C52.9864 42.746 53.1371 42.2938 53.298 41.498C53.4387 40.7978 53.4479 39.9891 53.397 39.1657C54.4804 38.7241 55.7715 37.9911 56.2054 37.9372C55.9087 38.9558 56.6169 40.0551 58.0473 39.9117C58.1569 41.0636 58.2507 42.0754 58.3076 42.6755C58.4242 43.9056 58.4067 45.4558 58.4032 45.7253C58.3984 45.996 58.5943 45.9449 58.7954 45.342C59.0636 44.5349 59.1465 42.4271 59.0492 41.0332C59.0259 40.6848 58.9865 40.2144 58.9387 39.6783C59.8661 39.2492 60.0203 38.421 60.367 38.0681C60.6799 39.1641 62.4022 39.3128 62.9338 39.0782C63.593 38.7869 63.809 38.263 63.9786 37.047C64.1487 35.8315 63.6534 35.342 63.4764 35.2095C63.4589 35.3566 63.0276 36.7853 63.0276 36.7853C63.0276 36.7853 63.4365 37.2172 63.4571 37.4295C63.124 37.731 62.4215 37.7496 61.8316 37.5576C61.2413 37.3655 61.0603 37.0122 61.0954 36.7751C61.1296 36.5373 61.3517 36.3209 61.3592 36.0312C61.3658 35.7415 61.2268 35.8254 60.9906 36.0819C60.7544 36.3388 60.6019 36.5697 60.275 37.1212C60.0076 37.5721 59.5738 38.1224 58.8086 38.2796C58.6824 36.9554 58.5382 35.5466 58.4418 34.6617C58.3914 34.1945 57.8878 30.1572 57.8519 29.7055C57.8207 29.312 57.7625 28.8481 57.7721 28.6301C57.7817 28.4567 57.8904 28.5256 58.0587 28.7071C58.2274 28.8882 58.5224 29.2042 58.5732 29.1795C58.745 29.0952 58.5693 28.5705 58.3445 28.1005C58.1201 27.6293 57.354 25.7703 57.1932 25.6937C57.1103 25.6548 56.5932 26.7991 56.5625 27.0243C56.6427 27.1653 56.8522 27.387 56.8597 28.0174C56.8623 28.1933 56.9754 29.8513 57.1323 31.419C57.2694 32.8035 57.4513 34.1171 57.4688 34.2699C57.5937 35.3266 57.7454 36.8161 57.8896 38.2804C57.0591 38.1224 56.8382 37.5746 56.8566 37.2622C56.8776 36.9097 57.0367 36.5118 56.9605 36.4218C56.8005 36.3258 55.8486 36.8578 54.5211 37.4295C54.1478 37.59 53.727 37.7622 53.2831 37.9255C53.1674 36.9275 53.0149 35.9785 52.9535 35.2529L52.9461 35.1722C53.8191 35.1159 54.5339 34.6751 54.859 34.2553C55.2653 33.7306 55.5493 32.6507 55.5769 31.8234C55.6045 30.9952 54.9362 29.481 54.7771 28.9996C54.6167 28.5179 54.5339 28.184 54.5198 28.0174C54.5054 27.8509 54.881 28.2103 55.1172 28.2808C55.2771 28.3128 55.2219 27.9664 55.0265 27.7285C54.8323 27.4915 53.7823 25.8979 53.7086 26.0098C53.6635 26.0754 53.2428 27.2476 53.2152 27.4271C53.3808 27.5365 53.5745 27.838 53.5881 28.1269C53.6021 28.4157 53.8335 29.686 54.0899 30.3918C54.3472 31.0977 54.895 32.4518 54.9296 32.8242C54.5382 33.1001 53.6473 33.5673 52.766 33.5393C52.6152 32.3043 52.4241 30.87 52.322 29.8542C52.2826 29.4615 52.2799 29.0426 52.2861 28.8238C52.2909 28.6503 52.4158 28.6743 52.5876 28.8525C52.7603 29.0308 53.025 29.2901 53.0793 29.2715C53.1976 29.2322 53.0951 28.8388 52.8606 28.3716C52.6261 27.9044 51.6944 25.9283 51.531 25.8546C51.4481 25.8169 51.0309 26.9267 51.0046 27.1532C51.0879 27.2934 51.3013 27.5102 51.3223 28.1406C51.339 28.6427 51.5835 31.1029 51.793 33.2699C50.9209 32.8189 50.6233 32.1743 50.5155 31.092C50.4401 30.3375 50.4327 28.9478 50.1636 27.7853C50.012 27.1281 49.6925 26.4603 49.3138 26.1058C49.2236 26.3242 48.8204 27.6649 48.8204 27.6649C48.9518 28.0499 49.3607 29.3461 49.3467 30.4692C49.3331 31.5924 49.2446 32.6905 47.9859 33.4469C46.7282 34.2038 44.8415 33.9028 44.3756 32.7221C43.9098 31.5405 44.9453 28.5782 44.9318 27.8789C44.9177 27.1795 44.7928 27.0831 44.5005 27.1986C44.2086 27.314 43.6113 27.9883 43.0968 29.0851C42.5823 30.1828 42.3535 31.5422 42.0612 32.4664C41.7698 33.3906 41.303 34.327 40.5808 34.2751C39.8585 34.2241 39.4698 33.5632 39.2476 32.6074C39.025 31.6508 39.1613 30.391 39.2218 30.0681C39.3725 29.2593 39.0232 29.4251 38.8094 30.6949C38.677 31.4781 38.5455 32.729 39.0114 34.0381C39.4764 35.3473 40.2692 35.8355 40.9638 35.6682C41.6589 35.5016 42.2698 33.8716 42.4854 33.1394C42.7006 32.4084 43.6635 29.1617 44.2086 29.0021C44.2849 29.3679 43.7849 30.5474 43.6249 31.9271C43.4654 33.3067 43.8374 35.1601 45.5887 35.4806C47.3399 35.8015 48.5281 34.6657 48.9589 33.8772C49.3901 33.0875 49.5913 32.2597 49.6399 31.8428C49.696 32.9012 50.4182 34.5539 51.8211 35.0251L51.9657 35.0669C52.052 35.9332 52.1927 37.064 52.322 38.2516C52.049 38.3359 51.7733 38.4121 51.499 38.4777C51.4639 38.3639 51.4253 38.2524 51.3784 38.1499C50.9503 37.2289 50.2416 36.3801 49.2595 36.4388C48.2563 36.4984 47.1625 37.8371 47.2102 38.8148C47.2418 39.4725 47.6038 40.0122 48.9203 40.1503C49.5216 40.214 50.1601 40.1471 50.8197 40.0033C50.9126 40.2751 50.9713 40.5454 50.9779 40.7917C50.5607 41.2796 47.1086 43.8833 44.5237 44.1337C41.9389 44.3837 41.1505 43.0288 41.1247 41.6686C41.1054 40.6337 41.7277 39.6009 42.1651 38.8862C42.7909 38.4283 43.3045 37.8558 43.6288 37.4141C43.7169 37.4684 43.8006 37.5187 43.8804 37.5653C44.1894 37.7447 44.3125 38.013 44.3125 38.013C44.3695 37.9255 44.6351 37.4473 44.5312 37.2135C44.4834 37.156 44.2498 37.0122 43.9689 36.8416C44.2639 36.1066 44.2599 35.3728 43.8778 35.2095C43.4505 35.0276 42.8926 35.5332 42.652 35.8416C42.5271 36.002 42.4793 36.184 42.4784 36.3367C42.4767 36.5332 42.5691 36.7107 42.7979 36.8687C43.0258 37.0243 43.2375 37.1653 43.4364 37.2926C42.8715 37.8858 41.5366 38.7549 40.7197 39.2654C40.6895 39.1905 40.5698 39.2695 40.409 39.4591L40.1877 39.5956C39.536 39.9943 37.9732 40.8699 37.666 41.0843C37.3583 41.299 37.5512 41.2601 37.666 41.2123C37.8829 41.0952 38.1678 40.9534 38.4877 40.797C38.9409 40.5754 39.4681 40.3246 39.9835 40.0729C39.8309 40.3315 39.6732 40.6337 39.5334 40.9635C38.9185 42.4153 37.9245 45.4242 40.0746 47.2346C42.1318 48.9676 45.6676 48.3084 48.5999 46.5073C51.5327 44.7058 52.166 44.0725 52.6244 43.4178ZM43.0635 36.2606C42.9618 36.1856 42.9478 36.0855 43.0306 36.0158C43.1362 35.9259 43.2712 35.8408 43.4246 35.812C43.7498 35.7516 43.8795 36.1252 43.7489 36.7071C43.5017 36.5559 43.2476 36.3971 43.0635 36.2606ZM49.7898 38.7148C48.2967 38.7217 48.2278 38.4506 48.2559 38.2772C48.2835 38.1046 48.7485 37.6309 49.3384 37.9433C49.5877 38.0758 49.8687 38.3529 50.1285 38.701C50.0137 38.7095 49.9007 38.714 49.7898 38.7148ZM45.2166 46.5669C42.3956 47.3367 39.6438 46.1438 39.4773 43.782C39.3497 41.9785 40.0076 40.6195 40.4318 39.8537C40.8363 39.6536 41.2184 39.4591 41.5344 39.2849C40.796 40.4741 40.3639 42.0669 40.6527 43.4161C40.9796 44.9445 42.3093 45.8712 44.5606 45.5721C46.7895 45.2767 49.8034 43.1568 50.658 42.3574C50.9183 42.0689 51.0901 41.8088 51.3241 41.2788C51.4205 41.0612 51.5559 40.7739 51.6063 40.4494C51.6392 40.2379 51.6567 40.0118 51.6607 39.7816C51.9223 39.7034 52.1853 39.6159 52.45 39.5219C52.5398 40.4895 52.606 41.4433 52.6099 42.2682C51.2211 43.8971 48.0376 45.7966 45.2166 46.5669Z" fill="white"/>
<path d="M94.5605 40.3721C94.465 38.7918 94.2344 35.9316 94.1056 34.4807C93.9917 33.1893 93.7677 31.4195 93.6038 29.8615C93.5626 29.4693 93.5582 29.0937 93.5626 28.8753C93.5674 28.7027 93.7401 28.7692 93.9128 28.9466C94.0854 29.1241 94.3554 29.347 94.4062 29.3198C94.575 29.2323 94.3729 28.7996 94.1358 28.334C93.8987 27.8676 92.9587 25.9385 92.7952 25.8652C92.712 25.8279 92.2715 26.9835 92.2461 27.21C92.3302 27.3494 92.5454 27.5654 92.5686 28.1958C92.5923 28.8267 92.9109 31.727 93.141 34.0726C93.3005 35.7031 93.5065 38.3636 93.6564 40.3696C93.6489 40.3729 93.7979 42.2769 93.8142 42.4908C93.9062 43.7226 93.8584 45.2724 93.8492 45.5414C93.8391 45.8117 94.0368 45.7647 94.2489 45.165C94.465 44.5528 94.5881 43.1857 94.6048 41.9515L94.5605 40.3721Z" fill="white"/>
<path d="M86.55 34.8423C86.2607 34.9307 85.8067 34.6247 85.8413 33.9833C85.8729 33.4039 86.1209 32.8614 86.2165 32.519C86.348 32.0465 86.3488 31.5911 86.2375 31.8492C85.9868 32.4262 85.5201 33.5417 85.4237 34.2986C85.3268 35.0555 85.5722 35.5433 85.9058 35.7098C86.3212 35.9185 86.6205 35.5875 86.823 35.0996C87.0176 34.6324 86.9808 34.0871 86.8458 34.2155C86.7327 34.3496 86.6907 34.799 86.55 34.8423Z" fill="white"/>
<path d="M82.3949 37.172C82.5483 36.7644 82.5842 36.3649 82.4663 36.5841C82.2003 37.0752 81.702 38.0241 81.5561 38.6834C81.4106 39.3426 81.5872 39.7887 81.8677 39.9577C82.2174 40.1692 82.5053 39.8981 82.7231 39.4828C82.9313 39.0853 82.9418 38.6027 82.8138 38.7073C82.7034 38.8175 82.6302 39.2093 82.504 39.2381C82.2415 39.296 81.8672 38.9962 81.9483 38.4338C82.0219 37.9273 82.2836 37.4666 82.3949 37.172Z" fill="white"/>
<path d="M70.2843 45.77C70.5407 45.3539 70.6682 44.9224 70.4903 45.1404C70.0933 45.6274 69.3416 46.5727 69.0384 47.266C68.736 47.9592 68.8324 48.4799 69.1019 48.7169C69.4381 49.0127 69.8128 48.7696 70.1401 48.3567C70.4544 47.9609 70.5718 47.4357 70.4075 47.5253C70.2633 47.6262 70.0985 48.0407 69.9534 48.0484C69.655 48.063 69.3105 47.6655 69.5218 47.0666C69.7128 46.5261 70.0989 46.0715 70.2843 45.77Z" fill="white"/>
<path d="M91.5114 33.6295C91.2174 33.7032 90.7826 33.3738 90.8554 32.7348C90.9216 32.1582 91.2025 31.6295 91.3177 31.2931C91.4781 30.8276 91.5057 30.3734 91.3791 30.6246C91.0951 31.1886 90.5622 32.2778 90.4198 33.029C90.2773 33.7798 90.4925 34.2794 90.8159 34.4629C91.2191 34.6914 91.5364 34.377 91.7687 33.8997C91.9909 33.4435 91.9874 32.8973 91.8441 33.0188C91.7236 33.1477 91.6547 33.5938 91.5114 33.6295Z" fill="white"/>
<path d="M91.4214 41.4668C91.8237 41.6954 92.1428 41.3809 92.3742 40.9036C92.5959 40.4474 92.5929 39.9012 92.4504 40.0227C92.329 40.1508 92.2602 40.5977 92.1169 40.6334C91.8228 40.7067 91.3872 40.3777 91.4608 39.7387C91.527 39.1621 91.8075 38.633 91.9232 38.2971C92.0832 37.8315 92.1108 37.3765 91.9846 37.6285C91.6997 38.1925 91.1677 39.2817 91.0252 40.0321C90.8828 40.7837 91.098 41.2833 91.4214 41.4668Z" fill="white"/>
<path d="M96.5634 31.4545C96.7571 30.8913 96.7905 30.3414 96.6371 30.6457C96.2926 31.3281 95.6484 32.6457 95.4757 33.5554C95.3039 34.4642 95.5647 35.0683 95.956 35.2908C96.4429 35.5671 96.8281 35.1866 97.1091 34.6097C97.3768 34.0574 97.3729 33.3957 97.2002 33.5436C97.0543 33.6988 96.9706 34.2385 96.797 34.2819C96.442 34.371 95.9148 33.9727 96.0038 33.1996C96.084 32.5019 96.4236 31.8621 96.5634 31.4545Z" fill="white"/>
<path d="M55.4691 41.1952C55.786 40.5088 55.9008 39.8216 55.6677 40.1875C55.1457 41.0063 54.1627 42.5918 53.827 43.715C53.4909 44.8386 53.7398 45.6279 54.2022 45.9516C54.7789 46.3536 55.3131 45.9176 55.7413 45.2243C56.1511 44.5594 56.2326 43.7268 55.9964 43.8933C55.7926 44.0716 55.6164 44.7418 55.3929 44.777C54.9336 44.8491 54.3236 44.2892 54.5365 43.3269C54.7294 42.4585 55.2404 41.6919 55.4691 41.1952Z" fill="white"/>
<path d="M99.8372 48C100.08 47.8011 102.192 46.6637 102.58 46.4327C102.58 46.4327 102.978 45.7844 102.859 45.7156C102.739 45.6467 101.968 46.3477 101.489 46.3671C101.009 46.3865 100.352 46.034 100.331 45.7451C100.393 45.5271 100.97 45.1998 101.179 45.1864C101.387 45.1742 101.354 45.6491 101.423 45.7071C101.493 45.7642 101.77 45.3793 101.805 45.2188C101.84 45.0588 101.811 44.3886 101.429 44.4846C100.825 44.6374 99.9135 45.7581 99.8096 46.1106C99.7049 46.4639 100.268 46.7715 100.679 46.9388C100.644 46.9518 100.337 47.0993 100.143 47.2913C100.143 47.2913 99.9345 47.5251 99.8372 48Z" fill="white"/>
<path d="M92.638 49.4102C92.8808 49.2112 94.9923 48.0747 95.381 47.8429C95.381 47.8429 95.7794 47.1946 95.6593 47.1257C95.5397 47.0568 94.7688 47.7578 94.2893 47.7773C93.8095 47.7967 93.1525 47.4442 93.1315 47.1553C93.1937 46.9373 93.7709 46.6099 93.9795 46.5974C94.1881 46.5844 94.1544 47.0589 94.224 47.1164C94.2937 47.1743 94.5711 46.7894 94.6062 46.629C94.6404 46.4689 94.611 45.7987 94.2302 45.8948C93.6258 46.0483 92.7143 47.1683 92.6104 47.5216C92.5057 47.8741 93.0688 48.1816 93.479 48.349C93.4448 48.3619 93.1381 48.509 92.9439 48.7015C92.9439 48.7015 92.7353 48.9353 92.638 49.4102Z" fill="white"/>
<path d="M76.4196 29.0219C76.6089 29.2419 77.8492 30.8176 78.8208 31.8083C79.7919 32.7998 81.4569 34.4043 82.68 35.504C82.9167 35.7171 83.1678 35.9481 83.4233 36.1884C83.7318 38.5571 84.0886 41.5713 84.2384 42.8176C84.3861 44.0449 84.4081 45.5948 84.4111 45.8646C84.4137 46.1349 84.6083 46.0798 84.7933 45.4732C85.0413 44.6592 85.0698 42.5514 84.9383 41.1592C84.8568 40.2994 84.6644 38.6888 84.4782 37.2038C85.2004 37.9173 85.8828 38.6252 86.3425 39.1551C87.1879 40.128 87.8992 40.8618 88.3326 41.9076C88.6394 42.6474 88.6083 43.2362 88.734 43.3525C88.8427 43.453 88.9628 42.5676 88.8287 41.709C88.6113 40.3148 88.3133 39.7236 86.5235 37.7329C85.8407 36.972 85.0369 36.1766 84.2512 35.4331C84.2209 35.2038 84.1933 34.9915 84.1683 34.803C84.1061 34.3375 83.4996 30.3124 83.4518 29.8614C83.411 29.4688 83.3396 29.0065 83.3453 28.7881C83.3497 28.6142 83.4601 28.6819 83.6337 28.8594C83.8063 29.0364 84.1087 29.3464 84.16 29.3193C84.3292 29.2317 84.1407 28.7119 83.9036 28.2455C83.6674 27.78 82.8536 25.938 82.6901 25.865C82.6073 25.8278 82.1195 26.983 82.0945 27.209C82.1791 27.3484 82.3938 27.5656 82.4171 28.1953C82.4236 28.3711 82.5797 30.0267 82.7756 31.5899C82.9491 32.9712 83.1639 34.2812 83.1862 34.4327L83.1871 34.4445C82.3768 33.7054 81.6628 33.0778 81.2298 32.6835C80.2175 31.7633 77.9815 29.5798 77.8917 29.2528C77.8715 29.1495 78.0451 29.2131 78.3641 29.2642C78.6845 29.3156 78.9693 29.4246 78.9181 29.2674C78.8948 29.1932 78.7721 29.0101 78.4667 28.8213C78.1608 28.6321 77.3772 28.1418 76.7943 27.7949C76.2101 27.4485 75.9209 27.158 75.8003 27.2411C75.7407 27.282 75.7938 28.4688 75.8288 28.6167C75.9748 28.6292 76.2311 28.801 76.4196 29.0219Z" fill="white"/>
<path d="M78.0207 26.8892C78.2605 26.8365 79.3964 26.8653 79.8088 26.952C79.6361 27.0719 78.4739 27.6591 78.2442 27.7988C78.0159 27.939 77.9581 28.0201 78.0729 28.0063C78.406 27.9139 79.1567 27.7988 79.5165 27.6112C79.8557 27.4524 80.4338 26.6777 80.6586 26.3888C80.8821 26.0999 80.8821 25.9557 80.8251 25.8783C80.5955 25.7535 79.1151 25.6283 78.4011 25.8053C78.2035 25.9394 77.817 26.6538 77.76 26.8025C77.703 26.952 77.781 26.9419 78.0207 26.8892Z" fill="white"/>
<path d="M84.3336 26.7976C84.5273 26.7551 85.4428 26.7782 85.7746 26.8479C85.6357 26.9447 84.6996 27.418 84.5146 27.5314C84.3292 27.6437 84.2832 27.7093 84.3757 27.698C84.6443 27.6242 85.2496 27.5314 85.5392 27.3795C85.8123 27.2514 86.2781 26.627 86.4591 26.3949C86.6393 26.1615 86.6393 26.0456 86.5932 25.9836C86.4092 25.8819 85.2158 25.7814 84.6404 25.9245C84.4809 26.0322 84.1701 26.608 84.1241 26.7279C84.0772 26.8479 84.1408 26.8402 84.3336 26.7976Z" fill="white"/>
<path d="M89.4748 26.7312C89.6676 26.6887 90.5831 26.7118 90.9149 26.7815C90.7768 26.8783 89.8403 27.3516 89.6549 27.4642C89.4704 27.5773 89.4244 27.6429 89.5168 27.6315C89.7855 27.5578 90.4376 27.4642 90.7273 27.3131C91.0008 27.185 91.3246 26.5606 91.5056 26.3277C91.6866 26.0951 91.6866 25.9784 91.6397 25.9172C91.4557 25.8155 90.3561 25.715 89.7815 25.8572C89.622 25.9658 89.3104 26.5416 89.2644 26.6615C89.2184 26.7815 89.2811 26.7738 89.4748 26.7312Z" fill="white"/>
<path d="M86.2679 29.2324C85.9638 29.7113 86.345 30.0978 86.484 30.4848C86.2964 30.6562 86.008 30.4998 85.9116 30.3495C85.7065 30.0411 85.7753 29.4127 85.5338 29.3158C85.472 29.4856 85.4317 29.674 85.4317 29.674C85.4317 29.674 85.6154 30.1039 85.5693 30.3883C85.54 30.5601 85.3883 30.7607 85.1881 30.7648C84.6543 30.7777 84.9172 29.9876 84.7112 29.5399C84.6692 29.6493 84.6389 29.7668 84.5898 29.8693C84.6275 29.986 84.6481 30.1497 84.6543 30.2441C84.6665 30.4317 84.6516 30.6339 84.6836 30.7939C84.7279 31.0204 84.8537 31.1708 85.0456 31.1853C85.4444 31.217 85.6263 30.894 85.6864 30.629C85.7552 30.8993 86.2824 31.1971 86.5418 30.8653C86.8854 30.4277 86.6106 30.0529 86.4344 29.6412C86.3074 29.3369 86.3442 29.1371 86.2679 29.2324Z" fill="white"/>
<path d="M71.2838 27.9601C71.3114 28.157 71.4126 28.2915 71.5779 28.3118C71.9188 28.3552 72.0915 28.0841 72.1559 27.8588C72.201 28.0942 72.6419 28.3714 72.8817 28.0966C73.1985 27.7332 72.9789 27.3993 72.8466 27.0375C72.7519 26.7693 72.7927 26.5991 72.7226 26.6781C72.4377 27.0776 72.7484 27.4273 72.8497 27.7664C72.6796 27.9058 72.439 27.7595 72.3628 27.627C72.2006 27.3527 72.2891 26.8142 72.0867 26.7206C72.0253 26.8649 71.9819 27.0249 71.9819 27.0249C71.9819 27.0249 72.1191 27.403 72.0656 27.6457C72.0328 27.7928 71.893 27.9593 71.7194 27.9548C71.2597 27.9447 71.5235 27.2745 71.3666 26.8811C71.3259 26.9731 71.2939 27.074 71.2461 27.159C71.2737 27.262 71.2838 27.403 71.2838 27.4852C71.2873 27.6473 71.2645 27.8199 71.2838 27.9601Z" fill="white"/>
<path d="M82.1646 46.5178C82.2158 46.4363 82.3289 46.2126 82.3004 46.0599C82.2719 45.9071 82.0848 45.2698 81.7215 45.1101C81.3604 44.9505 81.0869 45.2852 80.9138 45.7507L80.7937 45.7479C80.7652 45.8168 80.7293 45.9197 80.7008 46.1057C80.6605 46.3743 80.5842 46.5473 80.1236 46.9655C79.7362 47.3156 78.4811 48.1563 77.6677 48.5514C76.8534 48.9473 76.2675 49.2888 76.0514 49.3925C75.8362 49.4947 75.8989 49.5327 76.1141 49.4683C76.3288 49.4043 77.4095 49.0562 77.8403 48.8788C78.2703 48.7001 78.7962 48.4063 79.4299 47.9951C80.1346 47.538 80.5557 47.081 80.6973 46.6758C80.7981 46.3869 80.824 46.2714 80.824 46.2714C80.824 46.2714 81.0887 46.4278 81.5379 46.5303C81.9853 46.6332 82.1124 46.6 82.1646 46.5178ZM81.5572 45.6122C81.7566 45.6879 81.878 45.9051 81.9139 46.0368C81.6851 46.0421 81.264 45.9258 81.0847 45.8447C81.1925 45.6361 81.3801 45.5457 81.5572 45.6122Z" fill="white"/>
<path d="M77.3932 46.9654C76.7683 46.8787 75.1937 46.6393 74.8084 45.7252C75.1319 45.2535 76.6215 44.6563 78.4876 44.0975C80.3536 43.54 82.3034 42.8163 82.8276 42.4671C82.9424 42.4282 83.1646 42.4399 83.1646 42.4399C83.2584 42.1697 83.7269 41.2207 83.7562 41.0222C83.2347 41.0517 80.0201 41.288 78.5923 41.3646C77.1636 41.4415 74.4123 41.4229 73.4954 41.4128C74.0577 41.0084 75.3922 40.2191 77.2995 39.5457C77.5466 39.4582 77.7754 39.3791 77.9888 39.3078C78.1475 39.5906 78.2654 39.8702 78.2899 40.1137C78.4113 39.9889 78.5025 39.5753 78.4718 39.1506C79.5836 38.7957 80.1564 38.6782 80.4036 38.6113C80.5596 38.4091 80.8362 37.5915 80.8773 36.9971C80.7113 36.6944 80.191 36.3176 79.7283 35.9938C79.0906 35.5485 78.403 35.1603 77.7167 35.3301C76.7784 35.5603 76.5904 37.2839 76.8091 37.6494C76.8787 37.7649 77.044 37.9695 77.239 38.2219C76.5536 38.4914 75.8366 38.8082 75.2046 39.1413C73.7969 39.8828 72.2254 40.694 71.767 41.474L71.6355 41.538C71.5987 41.6117 71.3086 42.8188 71.2665 42.9488C71.5592 42.9387 73.7452 42.9428 75.2677 42.8953C76.7893 42.8467 78.1199 42.7985 78.6409 42.7985C77.8692 42.9812 75.8467 43.7329 75.2651 44.1749C74.6835 44.6182 74.318 45.292 74.3084 46.4472C73.7663 46.2349 72.7587 45.7499 71.9002 44.5886C70.9431 43.2945 71.1411 41.9634 70.7581 40.2167C70.2015 37.6818 69.013 35.5416 68.2728 34.8868C68.0234 35.7815 67.9914 36.4557 67.9914 36.4557C67.9914 36.4557 68.9188 38.506 69.3881 39.8147C69.8575 41.1239 70.2585 42.4136 70.2388 42.7025C69.8522 43.5501 67.5641 45.3257 65.6573 46.365C63.8491 47.3504 62.256 47.4565 61.6916 46.7547C61.5807 46.6178 61.5053 46.4557 61.4628 46.2722C61.7082 46.1575 61.9545 46.042 62.2069 45.9265C63.8329 45.1859 66.7205 43.6267 67.3972 42.8086C68.1273 41.8171 68.1172 40.4213 67.689 39.6223C67.2626 38.8236 66.5938 37.899 66.5417 37.572C66.5009 37.4176 66.976 37.6348 67.2565 37.6494C67.3923 37.6393 67.3244 37.4565 67.033 37.1676C66.7998 36.9375 65.8983 36.1907 65.5539 35.8994C65.4675 35.8253 65.4031 35.8552 65.3856 35.9334C65.3185 36.2317 65.1814 36.8702 65.1283 37.1855L65.1651 37.3443C65.2642 37.403 65.3781 37.4691 65.4333 37.634C65.5114 37.8678 65.7844 38.5201 66.2318 39.3435C66.6802 40.1664 67.3279 41.0748 67.3915 41.5335C66.8647 42.2053 64.2084 43.636 61.621 44.8151C61.781 44.3192 62.0334 43.7584 62.3682 43.1356C62.4633 43.0303 62.5501 42.9002 62.6307 42.7535C62.8889 42.2819 62.9138 41.7053 62.7574 41.8273C62.6233 41.9565 62.5269 42.4245 62.3735 42.4561C62.0592 42.5205 61.6184 42.1539 61.7292 41.4833C61.8296 40.8783 62.153 40.3321 62.2928 39.9825C62.4865 39.4987 62.5396 39.0206 62.3928 39.2807C62.0628 39.8617 61.4435 40.9873 61.2533 41.7738C61.064 42.559 61.2651 43.0959 61.5969 43.3038C61.7209 43.3828 61.8397 43.4075 61.9528 43.3921C61.7257 43.824 61.4453 44.354 61.2406 44.9861C60.2002 45.4517 59.1878 45.8678 58.3499 46.1676C55.3378 47.2458 53.1912 47.8812 51.6898 48.3528L51.631 48.3791C51.7415 48.0222 51.7266 47.7175 51.6083 47.809C51.4741 47.9391 51.3782 48.4071 51.2248 48.4379C50.9106 48.5023 50.4697 48.136 50.5801 47.465C50.6809 46.8601 51.0043 46.3147 51.1441 45.9646C51.337 45.4812 51.3904 45.0023 51.2441 45.2628C50.9136 45.8439 50.2948 46.9695 50.1046 47.7556C49.9148 48.5412 50.116 49.0781 50.4473 49.2863C50.8602 49.5457 51.2121 49.2276 51.482 48.7357L51.5767 48.5335C51.6705 48.5335 51.8287 48.5116 52.0649 48.459C52.753 48.3042 54.4731 48.0546 56.8383 47.7462C58.5896 47.5185 59.7987 47.0376 60.9676 46.5023C60.9623 46.6316 60.961 46.7633 60.9667 46.899C61.0302 48.5039 62.082 48.9569 63.5204 48.6567C64.9079 48.3654 66.8428 47.0931 68.0024 46.2349C69.2115 45.3402 69.9092 44.5408 70.0871 44.262C70.4097 43.5785 70.4982 42.8232 70.5201 42.4671C70.6258 43.4484 70.7112 44.8066 71.6394 45.9715C72.494 47.0436 74.2453 48.5396 77.5392 48.5805C77.5501 48.1887 77.3932 46.9654 77.3932 46.9654ZM77.1754 37.0206C77.647 36.4914 78.6532 36.8374 79.4083 37.5084C79.0213 37.5992 78.4959 37.7608 77.9161 37.9679C77.5716 37.5526 77.1873 37.1522 77.1754 37.0206Z" fill="white"/>
<path d="M58.6588 29.7651C58.8727 29.6674 59.527 29.3732 60.2321 28.9624C60.936 28.5544 61.5973 28.06 61.9207 27.7314C62.0448 27.6054 62.1552 27.5069 62.2258 27.3899C62.437 27.4774 62.5825 27.5681 62.6732 27.6038C62.8095 27.6565 62.9914 27.7322 63.1097 27.3441C63.2276 26.9563 63.0711 26.7059 62.8406 26.4069C62.6456 26.1561 62.3362 25.7792 62.0851 25.6856C61.8721 25.6058 61.7709 26.0815 61.8033 26.0698H61.9457L61.9733 26.0831C61.6801 26.231 61.4531 26.6913 61.4303 26.853C61.4071 27.0288 61.4404 27.1585 61.8611 27.2667L62.0303 27.3165C61.6793 27.7322 61.0249 28.1621 60.5792 28.4668C59.9468 28.9004 59.0493 29.4421 58.7938 29.5985C58.5383 29.7541 58.5598 29.8031 58.6588 29.7651ZM62.4593 26.7108L62.4821 26.5029C62.778 26.84 62.9975 27.2411 62.9756 27.2979C62.8397 27.3088 62.6706 27.1832 62.3748 27.0568C62.4076 26.9563 62.4352 26.8453 62.4593 26.7108ZM61.61 26.7112C61.6083 26.648 61.7222 26.4721 61.9632 26.3761C62.2038 26.2792 62.3103 26.5495 62.3314 26.8785L62.2599 27.0102L62.043 26.9352C61.8134 26.868 61.6582 26.8299 61.61 26.7112Z" fill="white"/>
<path d="M74.4299 36.1138C74.777 35.8845 75.7311 35.1957 76.2723 34.7443C76.6488 34.4307 77.091 33.9688 77.3912 33.5782C77.5796 33.7001 77.7554 33.8083 77.9153 33.9023C78.2238 34.0826 78.3479 34.3501 78.3479 34.3501C78.4048 34.2625 78.6704 33.7836 78.5666 33.5506C78.5043 33.4745 78.1248 33.2528 77.7369 33.0154C77.9337 32.5737 78.2046 31.81 77.8167 31.5425C77.485 31.3156 76.9253 31.6912 76.6663 32.1787C76.4524 32.5822 76.4248 32.9246 76.8328 33.205C76.9477 33.284 77.0577 33.3586 77.1655 33.4295C76.7539 33.8796 75.9958 34.5458 75.4563 34.9992C74.7862 35.5599 74.1525 36.1098 74.042 36.2411L74.0101 36.2921C73.8637 35.8845 73.9036 35.6329 73.7949 35.7682C73.3255 36.5044 73.9136 37.1009 74.1275 37.6965C73.8383 37.9591 73.3952 37.718 73.2466 37.4882C72.9302 37.0125 73.0358 36.0466 72.6655 35.8971C72.57 36.158 72.5077 36.4485 72.5077 36.4485C72.5077 36.4485 72.7895 37.1102 72.7181 37.547C72.6738 37.8112 72.4398 38.1203 72.1326 38.1256C71.3104 38.1467 71.7158 36.9303 71.3985 36.2415C71.3341 36.4104 71.2881 36.5911 71.2109 36.7475C71.2692 36.9287 71.3012 37.1799 71.3095 37.3253C71.3306 37.6142 71.3069 37.9242 71.3556 38.1722C71.4235 38.5206 71.6172 38.7524 71.913 38.7739C72.5261 38.8237 72.8062 38.3253 72.8991 37.9189C73.0047 38.3347 73.8168 38.7917 74.216 38.282C74.745 37.6082 74.3216 37.0312 74.0512 36.3975L74.0193 36.3152C74.0569 36.3286 74.1985 36.2666 74.4299 36.1138ZM76.828 32.3197C77.0314 31.9424 77.4595 31.9104 77.5879 32.1082C77.6901 32.2654 77.6984 32.5721 77.545 32.8958C77.1672 32.6588 76.8302 32.4266 76.828 32.3197Z" fill="white"/>
<path d="M61.0436 33.7128C60.3214 33.6617 59.9326 33.0001 59.7105 32.0442C59.4878 31.0884 59.6241 29.8279 59.6846 29.5049C59.7451 29.1824 59.4046 29.3489 59.2722 30.1322C59.1407 30.9146 59.0084 32.1658 59.4742 33.4758C59.9392 34.7841 60.732 35.2724 61.4266 35.105C62.1213 34.9385 62.7326 33.3084 62.9483 32.5771C63.1634 31.8453 64.1263 28.8611 64.6715 28.7006C64.7477 29.0665 64.2477 29.9843 64.0877 31.3639C63.9286 32.7436 64.2056 34.5532 65.9569 34.8741C67.7081 35.1954 68.8962 34.0592 69.327 33.2695C69.7583 32.481 69.9594 31.652 70.0081 31.2355C70.0642 32.2942 70.7864 33.9474 72.1892 34.4186C73.5448 34.8741 74.5803 34.4571 75.0379 33.8668C75.4441 33.3425 75.775 32.2626 75.8035 31.4344C75.8311 30.607 75.1159 29.0929 74.9559 28.6107C74.7955 28.1297 74.7127 27.7959 74.6987 27.6293C74.6851 27.4628 75.0607 27.8222 75.2969 27.8927C75.4568 27.9247 75.4008 27.5783 75.2062 27.3404C75.012 27.1034 73.9611 25.5098 73.8875 25.6208C73.8423 25.6873 73.4216 26.8595 73.394 27.039C73.5605 27.1484 73.7534 27.4498 73.7678 27.7387C73.781 28.0276 74.0593 29.2979 74.3165 30.0037C74.5738 30.7096 75.0738 32.0637 75.1089 32.4361C74.6088 32.7886 73.4825 33.2371 72.4127 32.7825C71.343 32.3263 71.0016 31.6654 70.8837 30.4847C70.8083 29.7302 70.8009 28.3404 70.5318 27.1784C70.3801 26.5216 70.0606 25.8538 69.6811 25.4993C69.5917 25.7169 69.1885 27.0584 69.1885 27.0584C69.32 27.4434 69.7289 28.7395 69.7157 29.8627C69.7013 30.9851 69.6128 32.0835 68.3541 32.8404C67.0963 33.5973 65.3043 33.2959 64.8384 32.1147C64.3726 30.934 65.4082 28.2776 65.3946 27.5783C65.3806 26.8789 65.2548 26.7821 64.9633 26.898C64.6715 27.0135 64.0733 27.6877 63.5596 28.7845C63.0451 29.8822 62.8168 30.979 62.524 31.9032C62.2326 32.8275 61.7659 33.7639 61.0436 33.7128Z" fill="white"/>
<path d="M40.0749 29.6213C40.9637 29.5568 41.7148 28.883 41.909 28.7039C42.1035 28.5236 42.2083 28.255 42.0689 28.3571C41.0408 29.2748 39.6651 29.3008 39.588 29.1464C39.623 28.9924 39.985 28.742 40.5131 28.3895C40.8339 28.1752 41.1197 27.9742 41.3335 27.6893L41.3918 27.6995C41.7832 27.7854 42.235 27.9564 42.3731 27.8194C42.5979 27.5978 42.6277 27.2347 42.384 26.8433C42.1781 26.5111 41.6977 26.2019 41.2805 25.9786C40.8642 25.7566 40.7835 26.1111 40.7301 26.2376C40.6788 26.3555 40.6998 26.4559 40.7879 26.4584C40.6538 26.6411 40.5583 26.8765 40.5232 27.071C40.5004 27.1966 40.5188 27.2995 40.5701 27.3842C40.585 27.4081 40.6621 27.5025 40.8081 27.5585L40.9891 27.6148C40.6775 27.9025 40.3185 28.1277 40.1301 28.2416C39.79 28.447 39.3868 28.8064 39.2619 29.178C39.1366 29.5508 39.1852 29.6857 40.0749 29.6213ZM41.646 26.9997L41.6802 26.8101V26.6885C41.962 26.8936 42.4125 27.2817 42.3849 27.5143C42.2065 27.4738 41.8665 27.4021 41.5435 27.319C41.5847 27.2222 41.6184 27.116 41.646 26.9997ZM40.8107 27.0589C40.6034 26.8936 40.8054 26.7286 40.9891 26.6225C41.2262 26.4855 41.3651 26.5986 41.4865 26.958C41.444 27.0609 41.3844 27.161 41.3143 27.257C41.1298 27.1999 40.8699 27.1083 40.8107 27.0589Z" fill="white"/>
<path d="M42.7416 39.6567C42.4861 39.8784 42.3871 40.5996 42.4392 40.643C42.491 40.6863 43.2895 40.9558 43.4144 41.0141L43.4713 40.7969C43.8517 41.1385 44.2733 42.8427 44.3671 42.8476C44.4609 42.852 44.5968 42.6547 44.6857 42.2021C44.7677 41.7823 44.8496 41.1543 44.9351 40.643C45.0149 40.175 45.1389 39.9071 45.4202 39.8537C45.702 39.801 45.9106 40.162 45.9834 40.4076C45.9834 40.4076 46.181 39.9355 46.2231 39.6422C46.1762 39.4878 45.738 38.9059 45.3786 39.0984C45.0188 39.2913 44.7935 40.1077 44.7208 40.6182C44.6476 41.128 44.5915 41.7601 44.503 41.8614C44.4101 41.4262 44.1125 40.6474 43.7531 40.2098C43.3491 39.7195 42.8766 39.5396 42.7416 39.6567Z" fill="white"/>
<path d="M39.3384 38.7874C39.6719 38.6958 40.4227 38.5807 40.782 38.3931C41.1208 38.2343 41.6988 37.4596 41.9232 37.1707C42.1472 36.8818 42.1476 36.7367 42.0906 36.6602C41.8614 36.5346 40.3806 36.4102 39.6662 36.5872C39.469 36.7205 39.0829 37.4349 39.026 37.5844C38.9681 37.7331 39.047 37.7238 39.2863 37.6711C39.526 37.6176 40.6624 37.6464 41.0735 37.7331C40.9021 37.8538 39.7399 38.441 39.5102 38.5807C39.2815 38.7201 39.2236 38.802 39.3384 38.7874Z" fill="white"/>
<path d="M108.186 42.9212C108.152 42.0553 107.728 40.7259 106.115 38.6862C105.558 37.982 104.775 37.0654 103.949 36.1266C103.926 35.8065 103.904 35.514 103.883 35.2628C103.775 33.9706 103.408 31.3345 103.25 29.7761C103.212 29.3831 103.209 28.965 103.214 28.7466C103.22 28.5731 103.345 28.5962 103.517 28.7745C103.688 28.9524 103.953 29.2121 104.008 29.1943C104.126 29.1538 104.024 28.7603 103.789 28.294C103.555 27.8268 102.67 25.9374 102.508 25.8641C102.424 25.8268 102.007 26.9362 101.981 27.1631C102.064 27.3025 102.278 27.5192 102.298 28.1501C102.32 28.7806 102.701 32.5043 102.919 34.8507L102.931 34.9816C101.696 33.6027 100.533 32.3454 100.054 31.8357C99.9716 31.7474 99.8805 31.6469 99.7823 31.5391C99.7043 30.9115 99.6324 30.3134 99.5829 29.8195C99.5426 29.4273 99.5399 29.0083 99.547 28.7899C99.5509 28.6169 99.6767 28.6404 99.8485 28.8187C100.021 28.9966 100.285 29.2563 100.34 29.2376C100.458 29.1979 100.356 28.8045 100.121 28.3373C99.887 27.8701 98.9645 25.9374 98.8011 25.8641C98.7182 25.8268 98.2817 27.0245 98.2559 27.2498C98.3396 27.39 98.553 27.6068 98.574 28.2376C98.5824 28.5055 98.652 29.3175 98.745 30.3422C97.9263 29.3693 97.1247 28.3507 97.0678 28.1436C97.0476 28.0415 97.2207 28.1043 97.5411 28.1562C97.8601 28.2073 98.1595 28.3033 98.1082 28.1453C98.0841 28.0719 97.9622 27.8888 97.6568 27.6992C97.3509 27.5099 96.5673 27.0197 95.9844 26.6736C95.4002 26.3272 95.111 26.0359 94.9904 26.1189C94.9308 26.1598 94.9839 27.3474 95.0181 27.4945C95.1649 27.5079 95.4362 27.6169 95.6088 27.8479C95.7832 28.0788 96.8999 29.6444 97.783 30.7032C98.0372 31.0079 98.4351 31.4803 98.901 32.0257C98.9921 33.001 99.0877 34.0087 99.1666 34.8507C99.3458 36.7713 99.99 41.8365 99.9962 43.4828C99.5207 43.9289 98.5482 44.5512 97.5477 44.5642C96.5471 44.5768 95.9984 44.3134 95.5952 43.5695C95.4708 43.3389 95.3551 43.1072 95.2403 42.8973C94.9677 42.3985 94.3594 42.1185 93.773 42.2559L93.6836 42.2798L93.5241 42.3564C93.127 42.5642 92.7164 42.9127 92.3149 43.4532C91.6207 44.3908 91.1772 45.4078 90.6636 46.2887C90.1285 47.206 89.7178 47.8215 88.7791 47.6744C88.1182 47.5707 87.6164 47.0038 87.307 46.3065C88.1761 45.7052 88.8072 44.9208 89.2686 43.8337C89.8695 42.4208 90.0838 40.828 90.0303 39.0371C89.979 37.3515 89.2108 33.3859 89.0079 31.8661C88.8054 30.3454 88.5144 29.0974 88.5481 28.7729C88.5797 28.4597 89.0784 29.1971 89.3339 29.2522C89.4645 29.2231 89.3944 28.7526 89.1464 28.3551C88.9781 28.0849 88.4452 26.8556 88.0963 26.2628C87.9324 25.9824 87.893 25.8199 87.8167 25.7867C87.7413 25.7522 87.1606 26.9925 87.2308 27.1274C87.4026 27.373 87.52 27.4901 87.5559 27.9301C87.5928 28.3701 87.9907 31.6003 88.3387 33.9791C88.6007 35.7741 89.1797 39.0346 89.2542 41.4447C89.2787 42.2311 89.1665 42.7956 89.0692 43.1108C88.8194 43.5938 88.4123 44.1303 86.9818 45.1485C86.761 43.7097 87.0011 42.5407 86.7916 42.4325C86.5554 42.4581 86.5177 43.1286 86.491 43.956C86.4778 44.3381 86.4945 44.8673 86.5664 45.4358C84.8094 46.61 82.4884 47.6793 81.3985 48.2502C80.7591 48.5857 80.9896 48.6639 81.5309 48.4965C82.0721 48.3284 85.0465 47.5484 86.6343 46.7133L86.8052 46.6185C86.8859 46.8985 86.9836 47.1696 87.1037 47.4196C87.6379 48.5298 88.4013 49.189 89.2283 49.1246C89.9238 49.0711 90.4282 48.3268 90.8683 47.439C91.3131 46.5403 92.0647 44.8337 92.8018 44.1987C93.0849 43.954 93.3777 43.7603 93.6625 43.644C93.6625 43.644 94.1661 43.4759 94.6293 43.7786C94.7954 43.888 94.9195 44.0435 94.9979 44.2178C95.1807 44.6177 95.3967 45.1266 95.8385 45.5529C96.6168 46.3025 97.8685 46.1477 98.8072 45.7117C99.7446 45.2753 100.223 44.5946 100.432 43.7858C100.788 42.4021 100.731 40.9844 100.663 39.7251C100.584 38.2879 100.355 36.8191 100.224 35.2628C100.182 34.7624 100.1 34.0662 100.006 33.3114C100.92 34.3665 101.869 35.4374 102.445 36.0229C102.644 36.2251 102.853 36.4495 103.068 36.6866C103.24 39.0423 103.405 41.9901 103.493 43.2271C103.579 44.4597 103.523 46.0091 103.513 46.2786C103.503 46.548 103.653 46.5018 103.868 45.9038C104.156 45.1011 104.337 42.9961 104.274 41.6003C104.236 40.7709 104.153 39.2587 104.064 37.8284C104.774 38.6716 105.447 39.5229 105.885 40.0974C106.665 41.1177 107.38 42.3308 107.631 43.0877C107.88 43.8454 107.908 44.0699 107.957 44.2048C108.005 44.3397 108.22 43.7871 108.186 42.9212Z" fill="white"/>
<path d="M95.0302 71.7409C94.9598 71.5396 94.7443 71.3919 94.4865 71.3919C94.2288 71.3919 94.0137 71.5396 93.9429 71.7409H91.5022C91.4776 71.4701 91.5016 71.198 91.5783 70.933L96.6172 70.9299L96.7575 71.1664C96.8842 71.3796 97.0443 71.5721 97.2299 71.7409L95.0302 71.7409ZM98.3659 69.3993H92.3107C92.7761 69.0635 93.0202 68.5734 92.9547 68.0776C92.9129 67.7651 92.6032 67.5316 92.2258 67.5H92.0363C91.5771 67.5448 91.2441 67.8758 91.2925 68.2393L91.311 68.3791L91.3334 68.594C91.358 68.8639 91.3343 69.1351 91.2582 69.3993H46.5C47.1646 70.3663 48.3764 70.9593 49.6849 70.9584L90.5275 70.9333C90.0604 71.2696 89.8154 71.7606 89.8814 72.2573C89.9298 72.6208 90.3406 72.8797 90.7998 72.8349C91.2585 72.79 91.5915 72.4591 91.5436 72.0951L91.5251 71.9557H93.9253C93.9675 72.19 94.2015 72.3698 94.4866 72.3698C94.7716 72.3698 95.0056 72.19 95.0482 71.9557H97.4898V71.95C97.9996 72.3118 98.6475 72.5197 99.3328 72.5197C99.9776 72.5197 100.5 72.0718 100.5 71.5189V71.2296C100.5 70.2191 99.5448 69.3993 98.366 69.3993" fill="white"/>
</g>
<rect x="1.5" y="1.5" width="144" height="96" stroke="#151519" stroke-width="3" stroke-linecap="round"/>
<defs>
<clipPath id="clip0_210_107031">
<rect x="1.5" y="1.5" width="144" height="96" fill="white"/>
</clipPath>
</defs>
</svg>
