<svg width="147" height="99" viewBox="0 0 147 99" fill="none" xmlns="http://www.w3.org/2000/svg">
<g clip-path="url(#clip0_210_107036)">
<path d="M1.5 1.5L145.5 1.5L145.5 97.5L1.5 97.5L1.5 1.5Z" fill="white"/>
<path d="M23.5781 30.6397L36.8981 10.6797L40.2181 12.8997L26.8981 32.8597L23.5781 30.6397ZM28.5781 33.9597L41.8981 13.9997L45.2181 16.2197L31.8981 36.1797L28.5781 33.9597ZM33.5781 37.2797L46.8981 17.3197L50.2181 19.5397L36.8981 39.4997L33.5781 37.2797Z" fill="black"/>
<path d="M123.421 68.3605L117.321 77.5205L114.001 75.3005L120.101 66.1405L123.421 68.3605ZM113.441 61.7005L110.121 59.4805L104.021 68.6405L107.341 70.8605L113.441 61.7005ZM112.341 74.1805L118.441 65.0205L115.121 62.8005L109.021 71.9605L112.341 74.1805ZM102.901 70.3005L96.8008 79.4605L100.121 81.6805L106.221 72.5205L102.901 70.3005ZM106.781 86.1005L110.101 88.3205L116.201 79.1605L112.881 76.9405L106.781 86.1005ZM107.881 73.6205L101.781 82.7805L105.101 85.0005L111.201 75.8405L107.881 73.6205Z" fill="black"/>
<path d="M53.5391 36.1806C60.8991 25.1606 75.7991 22.1806 86.8191 29.5206C97.8391 36.8606 100.819 51.7806 93.4791 62.8006L53.5391 36.1806Z" fill="#CD2E3A"/>
<path d="M53.5385 36.1802C46.1785 47.2002 49.1585 62.1002 60.1985 69.4602C71.2385 76.8202 86.1185 73.8402 93.4785 62.8002C97.1585 57.2802 95.6585 49.8402 90.1585 46.1602C84.6585 42.4802 77.1985 43.9802 73.5185 49.4802L53.5585 36.1602L53.5385 36.1802Z" fill="#0047A0"/>
<path d="M63.5195 54.8398C70.1469 54.8398 75.5195 49.4673 75.5195 42.8398C75.5195 36.2124 70.1469 30.8398 63.5195 30.8398C56.8921 30.8398 51.5195 36.2124 51.5195 42.8398C51.5195 49.4673 56.8921 54.8398 63.5195 54.8398Z" fill="#CD2E3A"/>
<path d="M102.901 28.7002L96.8008 19.5402L100.121 17.3202L106.221 26.4802L102.901 28.7002ZM116.221 19.8202L110.121 10.6602L106.801 12.8802L112.901 22.0402L116.221 19.8202ZM104.021 30.3602L110.121 39.5202L113.441 37.3002L107.341 28.1402L104.021 30.3602ZM117.341 21.4802L114.021 23.7002L120.121 32.8602L123.441 30.6402L117.341 21.4802ZM101.801 16.2202L115.121 36.1802L118.441 33.9602L105.121 14.0002L101.801 16.2202Z" fill="black"/>
<path d="M34.6781 74.1805L28.5781 65.0205L31.8981 62.8005L37.9981 71.9605L34.6781 74.1805ZM23.5781 68.3605L36.8981 88.3205L40.2181 86.1005L26.8981 66.1405L23.5781 68.3605ZM36.8981 59.4805L33.5781 61.7005L46.8981 81.6605L50.2181 79.4405L36.8981 59.4805ZM35.7981 75.8405L41.8981 85.0005L45.2181 82.7805L39.1181 73.6205L35.7981 75.8405Z" fill="black"/>
</g>
<rect x="1.5" y="1.5" width="144" height="96" stroke="#151519" stroke-width="3" stroke-linecap="round"/>
<defs>
<clipPath id="clip0_210_107036">
<rect x="1.5" y="1.5" width="144" height="96" fill="white"/>
</clipPath>
</defs>
</svg>
