<svg width="147" height="99" viewBox="0 0 147 99" fill="none" xmlns="http://www.w3.org/2000/svg">
<g clip-path="url(#clip0_210_107041)">
<path d="M1.5 1.5L145.5 1.5L145.5 97.5L1.5 97.5L1.5 1.5Z" fill="#E70013"/>
<path d="M73.5 73.5C86.7548 73.5 97.5 62.7548 97.5 49.5C97.5 36.2452 86.7548 25.5 73.5 25.5C60.2452 25.5 49.5 36.2452 49.5 49.5C49.5 62.7548 60.2452 73.5 73.5 73.5Z" fill="white"/>
<path d="M73.5 67.5C83.4411 67.5 91.5 59.4411 91.5 49.5C91.5 39.5589 83.4411 31.5 73.5 31.5C63.5589 31.5 55.5 39.5589 55.5 49.5C55.5 59.4411 63.5589 67.5 73.5 67.5Z" fill="#E70013"/>
<path d="M78.2984 63.9016C86.2513 63.9016 92.6984 57.4545 92.6984 49.5016C92.6984 41.5487 86.2513 35.1016 78.2984 35.1016C70.3455 35.1016 63.8984 41.5487 63.8984 49.5016C63.8984 57.4545 70.3455 63.9016 78.2984 63.9016Z" fill="white"/>
<path d="M67.5 49.4986L87.036 43.1506L74.964 59.7706V39.2266L87.036 55.8466L67.5 49.4986Z" fill="#E70013"/>
</g>
<rect x="1.5" y="1.5" width="144" height="96" stroke="#151519" stroke-width="3" stroke-linecap="round"/>
<defs>
<clipPath id="clip0_210_107041">
<rect x="1.5" y="1.5" width="144" height="96" fill="white"/>
</clipPath>
</defs>
</svg>
