<svg width="147" height="99" viewBox="0 0 147 99" fill="none" xmlns="http://www.w3.org/2000/svg">
<g clip-path="url(#clip0_210_107042)">
<path d="M1.5 1.5H145.5V97.5H1.5V1.5Z" fill="#E30A17"/>
<path d="M68.3009 49.5013L90.0112 42.4474L76.595 60.914V38.0886L90.0112 56.5552L68.3009 49.5013ZM69.7796 62.3361C62.6929 73.5371 47.8666 76.8702 36.6656 69.7835C25.4646 62.6968 22.1314 47.8705 29.2181 36.6695C36.3048 25.4685 51.1312 22.1353 62.3322 29.222C65.3344 31.1212 67.8775 33.6672 69.7796 36.6695C62.6929 28.7838 50.5528 28.1338 42.6641 35.2235C34.7784 42.3102 34.1284 54.4504 41.2181 62.3391C48.3048 70.2248 60.445 70.8747 68.3337 63.785C68.8405 63.3289 69.3235 62.8459 69.7796 62.3391V62.3361Z" fill="white"/>
</g>
<rect x="1.5" y="1.5" width="144" height="96" stroke="#151519" stroke-width="3" stroke-linecap="round"/>
<defs>
<clipPath id="clip0_210_107042">
<rect x="1.5" y="1.5" width="144" height="96" fill="white"/>
</clipPath>
</defs>
</svg>
