<svg width="147" height="99" viewBox="0 0 147 99" fill="none" xmlns="http://www.w3.org/2000/svg">
<g clip-path="url(#clip0_210_107045)">
<path d="M1.5 1.5L145.5 1.5L145.5 97.5L1.5 97.5L1.5 1.5Z" fill="white"/>
<path d="M54.832 12.168L145.499 12.168V22.8346L54.832 22.8346V12.168Z" fill="#0038A8"/>
<path d="M54.832 33.5L145.499 33.5V44.1667L54.832 44.1667V33.5Z" fill="#0038A8"/>
<path d="M1.5 54.8359L145.5 54.8359V65.5026L1.5 65.5026L1.5 54.8359Z" fill="#0038A8"/>
<path d="M1.5 76.168L145.5 76.168V86.8346L1.5 86.8346L1.5 76.168Z" fill="#0038A8"/>
<path d="M26.9465 33.3789L28.7126 36.0151C21.4577 41.2646 25.8874 44.3701 20.7461 46.0509C23.943 42.9301 20.324 42.4486 23.0181 35.945" fill="#FCD116"/>
<path d="M20.0781 46.4524L20.6191 45.9237C22.1627 44.4166 22.0606 43.6075 21.8899 42.268C21.7223 40.9545 21.4937 39.1549 22.8515 35.8772L22.9185 35.7141L23.2431 35.8482L23.176 36.0113C21.8534 39.2037 22.0758 40.9484 22.2389 42.2239C22.3897 43.4109 22.504 44.3084 21.3886 45.6189C23.0861 44.8799 23.3467 43.8985 23.6911 42.5957C24.1223 40.9621 24.712 38.7343 28.4682 35.9717L26.6991 33.3294L26.9916 33.1328L28.9497 36.057L28.8126 36.156C25.0351 38.8898 24.4789 40.9941 24.0324 42.6841C23.6332 44.1972 23.3162 45.3919 20.7974 46.2162L20.0781 46.4509V46.4524Z" fill="#7B3F00"/>
<path d="M23.5994 30.9988L22.9838 34.1119C14.1411 32.6948 15.0783 38.022 10.2539 35.5748C14.7217 35.6296 12.6036 32.6887 19.1072 29.9961" fill="#FCD116"/>
<path d="M12.505 36.3994C11.8695 36.3994 11.1274 36.212 10.175 35.729L9.5 35.3861L10.2558 35.3952C12.4196 35.4211 12.9682 34.7278 13.7971 33.6779C14.6291 32.625 15.769 31.1834 19.039 29.8288L19.2021 29.7617L19.3362 30.0863L19.1731 30.1533C15.9884 31.473 14.9263 32.817 14.073 33.8958C13.3141 34.8573 12.7396 35.5827 11.0147 35.7229C12.7381 36.401 13.6158 35.8905 14.78 35.2124C16.2398 34.3636 18.233 33.204 22.841 33.9065L23.4581 30.7872L23.804 30.8558L23.1213 34.3072L22.9537 34.2798C18.3488 33.5423 16.4684 34.6364 14.9568 35.5156C14.1491 35.985 13.4436 36.3964 12.5019 36.3964L12.505 36.3994Z" fill="#7B3F00"/>
<path d="M23.5942 30.9975L22.2015 30.7461L22.2152 30.804C18.4986 31.7152 16.4811 33.2558 14.8994 34.4261C14.1085 35.0112 13.4259 35.5095 12.6868 35.7792C12.1962 35.9606 11.6704 36.0246 11.1523 35.9636C14.9893 37.3259 14.7348 32.788 22.9786 34.1091L23.5942 30.996V30.9975Z" fill="#7B3F00"/>
<path d="M12.4983 36.304C12.0945 36.304 11.6465 36.2262 11.1253 36.0403L10.4609 35.8042L11.1619 35.8849C11.6663 35.9428 12.1844 35.8803 12.6598 35.7051C13.408 35.4323 14.1105 34.9127 14.8526 34.3626L14.9653 34.2788C16.5516 33.1024 18.5234 31.6411 22.1196 30.7451L22.0952 30.6445L23.6907 30.9325L23.0446 34.2011L22.9684 34.1889C18.3299 33.4453 16.4327 34.5485 14.9074 35.4339C14.1013 35.9017 13.4141 36.3024 12.5013 36.3024L12.4983 36.304ZM11.7592 36.0586C13.027 36.3421 13.8011 35.891 14.8236 35.2967C16.3627 34.4022 18.275 33.2914 22.9135 34.0198L23.4987 31.0621L22.307 30.8472L22.3116 30.8624L22.2339 30.8822C18.6209 31.7676 16.6461 33.232 15.0598 34.4083L14.947 34.4922C14.1943 35.0499 13.4842 35.5756 12.7147 35.856C12.4084 35.9687 12.0853 36.0373 11.7592 36.0602V36.0586Z" fill="#7B3F00"/>
<path d="M11.5417 35.9917C11.1303 35.9917 10.6884 35.914 10.1992 35.7403L10.3166 35.4081C12.1299 36.0496 13.195 35.2603 14.8072 34.0656C16.3417 32.9273 18.443 31.37 22.1398 30.4648L22.2236 30.8062C18.5954 31.6946 16.6114 33.165 15.016 34.3475C13.7786 35.2648 12.8004 35.9902 11.5417 35.9902V35.9917Z" fill="#7B3F00"/>
<path d="M28.1493 28.1642L25.6609 25.6758L14.4609 41.8541L30.6392 30.6541L28.1508 28.1657L14.4609 41.8556" fill="#FCD116"/>
<path d="M13.7656 42.5498L25.6376 25.4023L30.9131 30.6778L13.7656 42.5498ZM28.1504 28.4134L15.9645 40.5993L30.366 30.629L28.1504 28.4134ZM25.6864 25.9494L15.7161 40.3509L27.902 28.165L25.6864 25.9494Z" fill="#7B3F00"/>
<path d="M22.9298 26.9543L20.2936 28.7204C15.0441 21.4655 11.9386 25.8952 10.2578 20.7539C13.3786 23.9509 13.8891 20.3379 20.3942 23.032" fill="#FCD116"/>
<path d="M20.2494 28.9615L20.1503 28.8243C17.4166 25.0468 15.3122 24.4906 13.6223 24.0441C12.1092 23.6449 10.9145 23.3279 10.0901 20.8091L9.85547 20.0898L10.3842 20.6308C11.8928 22.1759 12.7065 22.0738 14.0581 21.9032C15.3778 21.7371 17.185 21.51 20.4627 22.8677L20.6258 22.9348L20.4917 23.2594L20.3286 23.1923C17.1378 21.8712 15.4555 22.0815 14.1038 22.2521C12.9077 22.403 12.004 22.5157 10.692 21.4003C11.4311 23.0994 12.4124 23.3584 13.7153 23.7028C15.3488 24.134 17.5766 24.7237 20.3393 28.4799L22.9816 26.7108L23.1781 27.0034L20.2539 28.9615H20.2494Z" fill="#7B3F00"/>
<path d="M22.932 26.958L22.1243 25.7953L22.0939 25.8456C18.8222 23.8616 16.3049 23.5248 14.359 23.2338C13.3853 23.089 12.5518 22.958 11.8371 22.6258C11.3617 22.4079 10.9457 22.0803 10.6211 21.6719C12.3704 25.3488 15.3998 21.9599 20.2942 28.7241L22.9304 26.958H22.932Z" fill="#7B3F00"/>
<path d="M20.2743 28.8326L20.2286 28.7701C17.475 24.9652 15.3524 24.4029 13.6488 23.9518C12.3505 23.6075 11.3234 23.3362 10.5493 21.7073L10.2461 21.0703L10.6834 21.6219C10.9989 22.0196 11.4088 22.3412 11.8705 22.553C12.5928 22.8897 13.4552 23.0177 14.3695 23.1549L14.5067 23.1747C16.4602 23.4642 18.8891 23.8254 22.0632 25.7347L22.1166 25.6463L23.0415 26.9766L20.2728 28.8311L20.2743 28.8326ZM10.9836 22.1675C11.68 23.2631 12.5455 23.4932 13.6899 23.7964C15.4103 24.252 17.5482 24.8189 20.3139 28.6132L22.819 26.9355L22.1288 25.9419L22.1211 25.9556L22.0526 25.9145C18.8709 23.9854 16.4404 23.6242 14.4869 23.3347L14.3482 23.3149C13.4217 23.1762 12.547 23.0467 11.805 22.7008C11.5078 22.5652 11.232 22.3838 10.9851 22.169L10.9836 22.1675Z" fill="#7B3F00"/>
<path d="M22.0861 25.843C18.8922 23.9047 16.4496 23.5421 14.4854 23.251C12.4648 22.9508 11.0035 22.7344 10.0938 20.8282L10.4107 20.6758C11.2397 22.4129 12.5501 22.6064 14.5357 22.9021C16.4252 23.1824 19.0126 23.5664 22.2675 25.5413L22.0846 25.8415L22.0861 25.843Z" fill="#7B3F00"/>
<path d="M28.1334 28.1645V24.6445L8.77344 28.1645L28.1334 31.6845V28.1645L8.77344 28.1645L28.1334 28.1645Z" fill="#FCD116"/>
<path d="M28.3087 31.8942L7.78906 28.1639L28.3087 24.4336V31.8957V31.8942ZM10.7239 28.3391L27.9567 31.4721V28.3391L10.7254 28.3391H10.7239ZM10.7239 27.9871L27.9567 27.9871V24.8542L10.7239 27.9871Z" fill="#7B3F00"/>
<path d="M28.1373 28.1641L8.77734 28.1641L28.1373 31.6841" fill="#7B3F00"/>
<path d="M25.3262 23.6229L22.2131 23.0073C23.6302 14.1646 18.303 15.1017 20.7502 10.2773C20.6954 14.7452 23.7872 12.9836 26.4813 19.4872" fill="#FCD116"/>
<path d="M25.4629 23.8305L22.0115 23.1478L22.0389 22.9802C22.7765 18.3752 21.6824 16.4949 20.8031 14.9832C20.0153 13.6301 19.3936 12.5619 20.5928 10.1985L20.9357 9.52344L20.9266 10.2792C20.9007 12.4659 21.6367 13.0876 22.7521 14.0293C23.8279 14.9375 25.3014 16.181 26.6439 19.4206L26.7109 19.5836L26.3864 19.7177L26.3193 19.5547C25.0104 16.3943 23.6328 15.2332 22.5266 14.2991C21.5117 13.4427 20.7452 12.7966 20.6005 11.0381C19.9208 12.7631 20.4313 13.6408 21.1094 14.8065C21.9582 16.2663 23.1178 18.2594 22.4153 22.8674L25.5346 23.4846L25.466 23.8305H25.4629Z" fill="#7B3F00"/>
<path d="M25.3141 23.6255L25.5655 22.2327L25.5076 22.2464C24.5963 18.5299 23.0558 16.5124 21.8855 14.9306C21.3003 14.1398 20.8021 13.4571 20.5323 12.7181C20.351 12.2274 20.287 11.7017 20.348 11.1836C18.9857 15.0205 23.5236 14.7661 22.2024 23.0099L25.3156 23.6255H25.3141Z" fill="#7B3F00"/>
<path d="M25.3772 23.7189L22.1087 23.0728L22.1209 22.9966C22.8645 18.3581 21.7612 16.4609 20.8759 14.9356C20.2009 13.7729 19.6675 12.8556 20.2709 11.1566L20.5071 10.4922L20.4264 11.1931C20.3685 11.6975 20.4309 12.2156 20.6062 12.691C20.8789 13.4392 21.3986 14.1417 21.9487 14.8838L22.0309 14.995C23.2073 16.5813 24.6702 18.5531 25.5647 22.1493L25.6637 22.1249L25.3757 23.7204L25.3772 23.7189ZM22.2915 22.9448L25.2492 23.5299L25.4641 22.3383L25.4488 22.3429L25.429 22.2651C24.5437 18.6522 23.0793 16.6773 21.9029 15.091L21.8191 14.9783C21.2614 14.2255 20.7357 13.5154 20.4553 12.7459C20.3426 12.4396 20.274 12.1166 20.2511 11.7905C19.9677 13.0583 20.4188 13.8324 21.013 14.8549C21.9075 16.3939 23.0184 18.3063 22.29 22.9448H22.2915Z" fill="#7B3F00"/>
<path d="M25.509 22.2447C24.6206 18.6165 23.1501 16.6325 21.9676 15.037C20.7501 13.3959 19.8709 12.2104 20.5749 10.2188L20.9071 10.3361C20.2655 12.1494 21.0549 13.2146 22.2495 14.8268C23.3878 16.3612 24.9452 18.4626 25.8503 22.1593L25.509 22.2431V22.2447Z" fill="#7B3F00"/>
<path d="M28.143 28.1665L30.6314 25.6781L14.4531 14.4766L25.6531 30.6548L28.1415 28.1665L14.4531 14.4766" fill="#FCD116"/>
<path d="M25.6283 30.9287L13.7578 13.7812L30.9052 25.6532L25.6298 30.9302L25.6283 30.9287ZM15.7083 15.9816L25.6771 30.3816L27.8927 28.166L15.7083 15.9816ZM15.9567 15.7333L28.1411 27.9176L30.3567 25.702L15.9582 15.7317L15.9567 15.7333Z" fill="#7B3F00"/>
<path d="M28.143 28.1665L14.4531 14.4766L25.6531 30.6548" fill="#7B3F00"/>
<path d="M29.3325 22.9493L27.5664 20.3132C34.8213 15.0636 30.3915 11.9581 35.5329 10.2773C32.3359 13.3981 35.9367 13.9132 33.2426 20.4168" fill="#FCD116"/>
<path d="M29.2862 23.1931L27.3281 20.2689L27.4653 20.1699C31.2428 17.4361 31.799 15.3318 32.2455 13.6419C32.6447 12.1287 32.9616 10.934 35.4805 10.1097L36.1997 9.875L35.6588 10.4038C34.1121 11.9123 34.2127 12.7291 34.3803 14.0822C34.5434 15.4019 34.7658 17.2106 33.4096 20.4853L33.3426 20.6483L33.018 20.5142L33.0851 20.3512C34.4062 17.1619 34.199 15.478 34.0329 14.1264C33.8851 12.9287 33.7738 12.0236 34.8908 10.71C33.1933 11.4491 32.9327 12.4304 32.5883 13.7333C32.1571 15.3668 31.5674 17.5946 27.8112 20.3573L29.5803 22.9996L29.2877 23.1961L29.2862 23.1931Z" fill="#7B3F00"/>
<path d="M29.3364 22.9476L30.4991 22.14L30.4488 22.1095C32.4328 18.8379 32.7696 16.3205 33.0606 14.3746C33.2054 13.4009 33.3364 12.5674 33.6686 11.8527C33.8865 11.3773 34.2141 10.9613 34.6225 10.6367C30.9456 12.3861 34.3345 15.4154 27.5703 20.3099L29.3364 22.9461V22.9476Z" fill="#7B3F00"/>
<path d="M29.3154 23.0587L27.4609 20.2899L27.5234 20.2442C31.3284 17.4907 31.8907 15.368 32.3417 13.6644C32.6861 12.3661 32.9573 11.3391 34.5863 10.565L35.2232 10.2617L34.6701 10.7006C34.2724 11.016 33.9508 11.4259 33.739 11.8876C33.4023 12.6099 33.2743 13.4724 33.1371 14.3867L33.1173 14.5238C32.8278 16.4773 32.4667 18.9063 30.5573 22.0804L30.6457 22.1337L29.3139 23.0587H29.3154ZM27.6804 20.3295L29.3581 22.8347L30.3516 22.1444L30.3379 22.1368L30.379 22.0682C32.3082 18.8865 32.6693 16.456 32.9588 14.501L32.9787 14.3623C33.1173 13.4358 33.2468 12.5611 33.5927 11.8191C33.7284 11.5219 33.9082 11.2461 34.123 10.9992C33.0274 11.6956 32.7973 12.5611 32.4941 13.7055C32.0385 15.4259 31.4716 17.5638 27.6773 20.3295H27.6804Z" fill="#7B3F00"/>
<path d="M30.7533 22.2924L30.4531 22.1096C32.3914 18.9157 32.7541 16.473 33.0451 14.5088C33.3453 12.4867 33.5617 11.0269 35.468 10.1172L35.6204 10.4341C33.8832 11.2631 33.6897 12.5736 33.3941 14.5591C33.1137 16.4486 32.7297 19.036 30.7548 22.2909L30.7533 22.2924Z" fill="#7B3F00"/>
<path d="M28.1372 28.1647H31.6572L28.1372 8.80469L24.6172 28.1647H28.1372L28.1372 8.80469L28.1372 28.1647Z" fill="#FCD116"/>
<path d="M31.8683 28.3399H24.4062L28.1365 7.82031L31.8668 28.3399H31.8683ZM28.3133 27.9879H31.4463L28.3133 10.7552L28.3133 27.9879ZM24.8283 27.9879H27.9613L27.9613 10.7552L24.8283 27.9879Z" fill="#7B3F00"/>
<path d="M28.1411 28.1647L28.1411 8.80469L24.6211 28.1647" fill="#7B3F00"/>
<path d="M32.6875 25.3301L33.3031 22.217C42.1458 23.6341 41.2086 18.3069 46.033 20.7541C41.5652 20.6993 43.5553 23.654 37.0517 26.348" fill="#FCD116"/>
<path d="M36.9544 26.5786L36.8203 26.254L36.9833 26.1869C40.1559 24.8734 41.2546 23.5294 42.1369 22.449C42.9308 21.4769 43.5311 20.7439 45.2698 20.6037C43.5464 19.9256 42.6687 20.4361 41.5045 21.1142C40.0447 21.9629 38.0515 23.1241 33.4435 22.4201L32.8264 25.5393L32.4805 25.4708L33.1631 22.0193L33.3308 22.0468C37.9357 22.7858 39.8161 21.6902 41.3277 20.8109C42.6809 20.0231 43.749 19.4014 46.1125 20.6007L46.7875 20.9435L46.0317 20.9344C43.8572 20.9069 43.2812 21.6109 42.4111 22.6746C41.5517 23.726 40.3738 25.1675 37.1189 26.5146L36.9559 26.5816L36.9544 26.5786Z" fill="#7B3F00"/>
<path d="M32.6875 25.3297L34.0803 25.5811L34.0665 25.5232C37.7831 24.612 39.8006 23.0714 41.3824 21.9011C42.1732 21.316 42.8559 20.8177 43.5949 20.548C44.0856 20.3666 44.6113 20.3026 45.1294 20.3636C41.2925 19.0013 41.5469 23.5392 33.3031 22.2181L32.6875 25.3312V25.3297Z" fill="#7B3F00"/>
<path d="M34.1892 25.6809L32.5938 25.3929L33.2398 22.1243L33.316 22.1365C37.9545 22.8801 39.8517 21.7769 41.377 20.8915C42.5397 20.2165 43.457 19.6831 45.156 20.2866L45.8204 20.5228L45.1195 20.442C44.6151 20.3841 44.097 20.4466 43.6216 20.6218C42.8734 20.8946 42.1709 21.4142 41.4288 21.9643L41.3176 22.0466C39.7313 23.223 37.7595 24.6858 34.1633 25.5803L34.1877 25.6809H34.1892ZM32.7827 25.2649L33.9743 25.4797L33.9698 25.4645L34.0475 25.4447C37.6619 24.5593 39.6353 23.095 41.2216 21.9186L41.3328 21.8363C42.0856 21.2786 42.7957 20.7529 43.5652 20.4725C43.8715 20.3597 44.1945 20.2911 44.5206 20.2683C43.2528 19.9849 42.4787 20.4359 41.4562 21.0302C39.9172 21.9247 38.0048 23.0355 33.3663 22.3071L32.7812 25.2649H32.7827Z" fill="#7B3F00"/>
<path d="M34.1463 25.8659L34.0625 25.5246C37.6907 24.6362 39.6747 23.1657 41.2701 21.9833C42.9113 20.7657 44.0968 19.8865 46.0884 20.5905L45.9711 20.9227C44.1562 20.2812 43.0926 21.0705 41.4804 22.2652C39.9459 23.4034 37.8446 24.9608 34.1478 25.8659H34.1463Z" fill="#7B3F00"/>
<path d="M28.1422 28.1641L30.6306 30.6525L41.8306 14.4742L25.6523 25.6742L28.1407 28.1626L41.8306 14.4727" fill="#FCD116"/>
<path d="M30.6543 30.9263L25.3789 25.6493L42.5263 13.7773L30.6543 30.9248V30.9263ZM28.39 28.1636L30.6056 30.3792L40.5743 15.9792L28.39 28.1636ZM25.926 25.6996L28.1416 27.9152L40.326 15.7309L25.926 25.7012V25.6996Z" fill="#7B3F00"/>
<path d="M28.1407 28.1626L41.8306 14.4727L25.6523 25.6727" fill="#7B3F00"/>
<path d="M33.3555 29.3716L35.9917 27.6055C41.2412 34.8603 44.3467 30.4306 46.0275 35.5719C42.9067 32.375 42.3216 35.9529 35.8164 33.2588" fill="#FCD116"/>
<path d="M46.429 36.2388L45.9002 35.6979C44.3886 34.1481 43.5094 34.2518 42.1791 34.4072C40.8442 34.5626 39.0172 34.7775 35.7486 33.4228L35.5856 33.3558L35.7197 33.0312L35.8827 33.0982C39.0675 34.4179 40.7696 34.2182 42.1379 34.0582C43.3555 33.915 44.2758 33.8068 45.5955 34.9283C44.8564 33.2293 43.8751 32.9702 42.5722 32.6259C40.9387 32.1946 38.7109 31.6049 35.9482 27.8487L33.3059 29.6179L33.1094 29.3253L36.0336 27.3672L36.1326 27.5043C38.8663 31.2819 40.9707 31.838 42.6606 32.2845C44.1738 32.6838 45.3684 33.0007 46.1928 35.5196L46.4275 36.2388H46.429Z" fill="#7B3F00"/>
<path d="M33.3633 29.3755L34.1709 30.5381L34.2014 30.4879C37.473 32.4719 39.9903 32.8086 41.9362 33.0997C42.9099 33.2444 43.7435 33.3755 44.4581 33.7077C44.9336 33.9256 45.3496 34.2532 45.6741 34.6616C43.9248 30.9846 40.8955 34.3736 36.001 27.6094L33.3648 29.3755H33.3633Z" fill="#7B3F00"/>
<path d="M46.0509 35.2623L45.6135 34.7091C45.2981 34.3114 44.8882 33.9899 44.4265 33.7781C43.7042 33.4413 42.8402 33.3133 41.9274 33.1762L41.7888 33.1564C39.8352 32.8669 37.4078 32.5057 34.2322 30.5964L34.1789 30.6848L33.2539 29.3545L36.0227 27.5L36.0684 27.5625C38.8219 31.3674 40.9446 31.9297 42.6482 32.3808C43.9465 32.7251 44.9735 32.9964 45.7476 34.6253L46.0509 35.2623ZM34.1773 30.3754L34.2459 30.4166C37.4276 32.3457 39.8581 32.7069 41.8116 32.9964L41.9503 33.0162C42.8768 33.1549 43.7499 33.2844 44.4935 33.6303C44.7907 33.7659 45.0665 33.9457 45.3133 34.1621C44.617 33.0665 43.7514 32.8364 42.607 32.5331C40.8867 32.0775 38.7488 31.5107 35.983 27.7164L33.4779 29.3941L34.1682 30.3876L34.1758 30.3739L34.1773 30.3754Z" fill="#7B3F00"/>
<path d="M45.8724 35.6501C45.0434 33.9129 43.733 33.7194 41.7474 33.4238C39.8579 33.1434 37.2705 32.7594 34.0156 30.7846L34.1985 30.4844C37.3924 32.4227 39.8351 32.7853 41.7992 33.0764C43.8198 33.3766 45.2811 33.5929 46.1909 35.4992L45.8739 35.6516L45.8724 35.6501Z" fill="#7B3F00"/>
<path d="M28.1562 28.1645V31.6845L47.5162 28.1645L28.1562 24.6445V28.1645L47.5162 28.1645L28.1562 28.1645Z" fill="#FCD116"/>
<path d="M27.9805 31.8957V24.4336L48.5001 28.1639L27.9805 31.8942V31.8957ZM28.3325 28.3406V31.4736L45.5652 28.3406L28.3325 28.3406ZM28.3325 27.9886L45.5652 27.9886L28.3325 24.8557V27.9886Z" fill="#7B3F00"/>
<path d="M28.1523 28.1645L47.5123 28.1645L28.1523 24.6445" fill="#7B3F00"/>
<path d="M30.9784 32.7031L34.0915 33.3187C32.6744 42.1614 38.0016 41.2243 35.5544 46.0486C35.6092 41.5808 32.6668 43.6502 29.9727 37.1466" fill="#FCD116"/>
<path d="M35.3666 46.804L35.3757 46.0482C35.4016 43.8798 34.7052 43.3206 33.6523 42.4764C32.6009 41.6337 31.1609 40.4787 29.8092 37.2162L29.7422 37.0531L30.0668 36.919L30.1338 37.0821C31.4504 40.2623 32.7929 41.3381 33.8717 42.2021C34.8363 42.9747 35.5647 43.5598 35.7033 45.2893C36.3814 43.5659 35.8709 42.6882 35.1929 41.524C34.3441 40.0642 33.1845 38.071 33.8869 33.463L30.7677 32.8459L30.8363 32.5L34.2877 33.1827L34.2603 33.3503C33.5228 37.9552 34.6169 39.8356 35.4961 41.3472C36.2839 42.7004 36.9056 43.7686 35.7064 46.132L35.3635 46.807L35.3666 46.804Z" fill="#7B3F00"/>
<path d="M30.9702 32.7031L30.7188 34.0959L30.7767 34.0822C31.6879 37.7987 33.2285 39.8163 34.3988 41.398C34.9839 42.1888 35.4822 42.8715 35.7519 43.6106C35.9332 44.1012 35.9972 44.6269 35.9363 45.145C37.2986 41.3081 32.7607 41.5626 34.0818 33.3187L30.9687 32.7031H30.9702Z" fill="#7B3F00"/>
<path d="M35.7753 45.8376L35.856 45.1366C35.914 44.6322 35.8515 44.1141 35.6762 43.6387C35.4035 42.8905 34.8839 42.188 34.3338 41.4459L34.25 41.3332C33.0736 39.7469 31.6122 37.7751 30.7162 34.1804L30.6172 34.2048L30.9052 32.6094L34.1738 33.2555L34.1616 33.3317C33.418 37.9701 34.5212 39.8673 35.4065 41.3926C36.0816 42.5553 36.6149 43.4726 36.0115 45.1717L35.7753 45.836V45.8376ZM30.8336 33.9869L30.8534 34.0646C31.7387 37.6776 33.2031 39.6524 34.3795 41.2387L34.4633 41.3515C35.021 42.1042 35.5467 42.8143 35.8271 43.5839C35.9399 43.8901 36.0084 44.2132 36.0313 44.5393C36.3147 43.2715 35.8637 42.4974 35.2694 41.4749C34.3749 39.9359 33.264 38.0235 33.9924 33.385L31.0347 32.7999L30.8199 33.9915L30.8351 33.9884L30.8336 33.9869Z" fill="#7B3F00"/>
<path d="M35.7207 46.1064L35.3886 45.9891C36.0301 44.1757 35.2407 43.1106 34.0461 41.4984C32.9078 39.9639 31.3505 37.8626 30.4453 34.1658L30.7866 34.082C31.675 37.7102 33.1455 39.6942 34.328 41.2896C35.5455 42.9308 36.4247 44.1163 35.7207 46.1079V46.1064Z" fill="#7B3F00"/>
<path d="M28.1407 28.1618L25.6523 30.6502L41.8306 41.8502L30.6306 25.6719L28.1422 28.1603L41.8322 41.8502" fill="#FCD116"/>
<path d="M42.5263 42.5474L25.3789 30.6754L30.6559 25.3984L42.5279 42.5459L42.5263 42.5474ZM25.926 30.6266L40.326 40.5954L28.1416 28.411L25.926 30.6266ZM28.39 28.1626L40.5743 40.347L30.6041 25.947L28.3884 28.1626H28.39Z" fill="#7B3F00"/>
<path d="M28.1445 28.1642L41.8344 41.8541L30.6344 25.6758" fill="#7B3F00"/>
<path d="M26.9423 33.3789L25.7797 34.1865L25.83 34.217C23.846 37.4886 23.5092 40.006 23.2182 41.9519C23.0734 42.9256 22.9423 43.7591 22.6102 44.4738C22.3922 44.9492 22.0646 45.3652 21.6562 45.6898C25.3332 43.9404 21.9443 40.9111 28.7084 36.0166L26.9423 33.3804V33.3789Z" fill="#7B3F00"/>
<path d="M21.0547 46.065L21.6063 45.6276C22.004 45.3122 22.3255 44.9023 22.5374 44.4406C22.8741 43.7183 23.0021 42.8558 23.1393 41.9415L23.1591 41.8044C23.4486 39.8509 23.8097 37.4219 25.7191 34.2478L25.6307 34.1945L26.9625 33.2695L28.817 36.0383L28.7545 36.084C24.9495 38.8375 24.3873 40.9602 23.9362 42.6638C23.5918 43.9621 23.3206 44.9891 21.6916 45.7632L21.0547 46.0665V46.065ZM25.9278 34.1823L25.9415 34.1899L25.9004 34.2585C23.9713 37.4402 23.6101 39.8707 23.3206 41.8257L23.3008 41.9629C23.1621 42.8893 23.0326 43.764 22.6867 44.5061C22.5511 44.8032 22.3713 45.0791 22.1549 45.3259C23.2505 44.6295 23.4806 43.764 23.7838 42.6196C24.2394 40.8992 24.8063 38.7613 28.6006 35.9956L26.9229 33.4905L25.9294 34.1808L25.9278 34.1823Z" fill="#7B3F00"/>
<path d="M20.8188 46.2089L20.668 45.8919C22.4051 45.063 22.5986 43.7525 22.8943 41.767C23.1746 39.8774 23.5586 37.29 25.5335 34.0352L25.8337 34.218C23.8954 37.4119 23.5327 39.8546 23.2417 41.8188C22.9415 43.8409 22.7251 45.3007 20.8188 46.2104V46.2089Z" fill="#7B3F00"/>
<path d="M28.1528 28.1641H24.6328L28.1528 47.5241L31.6728 28.1641H28.1528L28.1528 47.5241L28.1528 28.1641Z" fill="#FCD116"/>
<path d="M28.1522 48.5079L24.4219 27.9883H31.884L28.1537 48.5079H28.1522ZM28.3274 28.3403L28.3274 45.573L31.4604 28.3403H28.3274ZM24.8424 28.3403L27.9754 45.573L27.9754 28.3403H24.8424Z" fill="#7B3F00"/>
<path d="M28.1602 28.1641L28.1602 47.5241L31.6802 28.1641" fill="#7B3F00"/>
<path d="M28.1626 28.1641L14.4727 41.854L30.6509 30.654" fill="#7B3F00"/>
<path d="M28.1682 34.6176C31.7323 34.6176 34.6215 31.7283 34.6215 28.1643C34.6215 24.6002 31.7323 21.7109 28.1682 21.7109C24.6041 21.7109 21.7148 24.6002 21.7148 28.1643C21.7148 31.7283 24.6041 34.6176 28.1682 34.6176Z" fill="#FCD116"/>
<path d="M28.1676 34.7923C24.512 34.7923 21.5391 31.8178 21.5391 28.1637C21.5391 24.5096 24.5135 21.5352 28.1676 21.5352C31.8217 21.5352 34.7962 24.5096 34.7962 28.1637C34.7962 31.8178 31.8217 34.7923 28.1676 34.7923ZM28.1676 21.8856C24.7071 21.8856 21.8911 24.7016 21.8911 28.1622C21.8911 31.6228 24.7071 34.4388 28.1676 34.4388C31.6282 34.4388 34.4442 31.6228 34.4442 28.1622C34.4442 24.7016 31.6282 21.8856 28.1676 21.8856Z" fill="#7B3F00"/>
<path d="M32.906 25.5844C32.4961 26.0537 32.2615 25.2324 30.794 25.2324C29.3266 25.2324 29.0919 26.1131 28.8573 25.9364C28.6226 25.7596 30.09 24.7036 30.5594 24.6457C31.0287 24.5863 32.3773 25.0556 32.906 25.5844ZM31.2039 26.1116C31.6138 26.4636 31.2634 27.2255 30.8519 27.2255C30.4405 27.2255 29.6786 26.5215 30.0306 26.0522" fill="#7B3F00"/>
<path d="M29.2671 26.6416C29.3266 25.9376 29.9117 25.8203 30.8519 25.8203C31.7921 25.8203 32.2005 26.5243 32.5525 26.7011C32.1411 26.7011 31.7891 26.1144 30.8504 26.1144C29.9117 26.1144 29.9117 26.1144 29.2656 26.7011M29.4424 26.8184C29.6771 26.4664 29.9711 27.1704 30.6157 27.1704C31.2603 27.1704 31.6138 26.9952 32.0237 26.7011C32.4351 26.407 31.4371 27.4051 30.791 27.4051C30.1449 27.4051 29.2656 27.0531 29.4424 26.8184Z" fill="#7B3F00"/>
<path d="M24.8715 26.0547C24.5774 26.172 24.1081 26.7587 24.8715 27.1686C24.2849 26.7587 24.7542 26.172 24.8715 26.0547Z" fill="#7B3F00"/>
<path d="M31.4414 26.0547C31.5587 26.172 32.0281 26.7587 31.4414 27.1686C32.2048 26.7587 31.7355 26.172 31.4414 26.0547Z" fill="#7B3F00"/>
<path d="M27.2172 28.5781C26.6899 28.6955 26.8652 29.4589 26.3958 29.5168C25.9265 29.5762 25.6918 30.1035 25.7513 30.044C26.0454 29.8094 26.6899 29.6326 27.1593 29.6326C27.6286 29.6326 27.7459 29.9267 28.1558 29.9267C28.5657 29.9267 28.6831 29.6326 29.1524 29.6326C29.6217 29.6326 30.2678 29.8094 30.5604 30.044C30.6198 30.1019 30.3852 29.5747 29.9158 29.5168C29.4465 29.4589 29.6217 28.6955 29.0945 28.5781C29.0945 28.8128 29.2697 28.7534 29.3292 29.1054C29.3292 29.3995 28.8019 29.3995 28.6846 29.1054C28.8019 29.5747 28.4499 29.5747 28.1574 29.5747C27.8648 29.5747 27.5128 29.5747 27.6301 29.1054C27.5128 29.3995 26.9855 29.3995 26.9855 29.1054C27.0434 28.7534 27.2202 28.8128 27.2202 28.5781H27.2172Z" fill="#7B3F00"/>
<path d="M25.3946 30.5703C24.9252 30.9223 24.8079 31.0991 24.75 31.509C24.8902 31.2621 24.9603 31.1616 25.067 31.0168C25.038 31.0046 25.0136 30.9939 24.9847 30.9817C25.0182 30.9863 25.0487 30.9909 25.0822 30.9955C25.1538 30.8995 25.2163 30.8172 25.3946 30.5703Z" fill="#7B3F00"/>
<path d="M25.0818 30.9961C25.0818 30.9961 25.0757 31.0037 25.0742 31.0068C25.1474 31.0235 25.2251 31.0311 25.3074 31.0327C25.2357 31.0205 25.1611 31.0083 25.0818 30.9976V30.9961Z" fill="#7B3F00"/>
<path d="M25.3086 31.0305C25.6743 31.0945 25.9623 31.1798 26.2244 31.2652C26.552 31.2408 27.0061 31.157 28.1535 31.157C29.301 31.157 29.7535 31.2408 30.0827 31.2652C30.3463 31.1798 30.6328 31.096 30.9985 31.0305C30.3524 31.0336 29.4899 30.5703 29.0922 30.5703C28.6229 30.5703 28.5055 30.6876 28.1535 30.6876C27.8015 30.6876 27.6842 30.5703 27.2149 30.5703C26.8172 30.5703 25.9547 31.032 25.3086 31.0305Z" fill="#7B3F00"/>
<path d="M31 31.0327C31.0823 31.0327 31.16 31.025 31.2331 31.0068C31.2316 31.0037 31.227 30.9991 31.2255 30.9961C31.1478 31.0068 31.0716 31.019 31 31.0311V31.0327Z" fill="#7B3F00"/>
<path d="M31.2264 30.9955C31.26 30.9909 31.2904 30.9863 31.324 30.9817C31.295 30.9939 31.2706 31.0046 31.2417 31.0168C31.3483 31.1616 31.4169 31.2621 31.5586 31.509C31.4992 31.0991 31.3834 30.9223 30.9141 30.5703C31.0923 30.8156 31.1563 30.8995 31.2264 30.9955Z" fill="#7B3F00"/>
<path d="M31.2409 31.0202C31.2409 31.0202 31.2378 31.0171 31.2378 31.0156C30.6253 31.2518 30.4104 31.2914 30.0828 31.2671C29.5266 31.4469 29.0679 31.6297 28.1536 31.6297C27.2394 31.6297 26.7807 31.4484 26.2245 31.2671C25.8984 31.2914 25.682 31.2518 25.0695 31.0156C25.0695 31.0156 25.0664 31.0187 25.0664 31.0202C26.9087 31.8141 26.7075 32.0991 28.1521 32.0991C29.5967 32.0991 29.3955 31.8141 31.2378 31.0202H31.2409Z" fill="#7B3F00"/>
<path d="M25.0721 31.0125C25.0721 31.0125 25.0767 31.0064 25.0782 31.0049C25.0477 30.9972 25.0172 30.9911 24.9883 30.9805C25.0218 30.9942 25.0416 31.0003 25.0736 31.0125H25.0721Z" fill="#7B3F00"/>
<path d="M31.235 31.0125C31.267 31.0003 31.2868 30.9942 31.3204 30.9805C31.2914 30.9911 31.2609 30.9972 31.2305 31.0049C31.2305 31.0064 31.235 31.0109 31.2366 31.0125H31.235Z" fill="#7B3F00"/>
<path d="M23.3945 25.5844C23.8044 26.0537 24.0391 25.2324 25.5065 25.2324C26.974 25.2324 27.2071 26.1116 27.4418 25.9364C27.6764 25.7611 26.2105 24.7051 25.7412 24.6457C25.2719 24.5863 23.9233 25.0556 23.3945 25.5844ZM25.0951 26.1116C24.6852 26.4636 25.0372 27.2255 25.4471 27.2255C25.857 27.2255 26.6204 26.5215 26.2684 26.0522" fill="#7B3F00"/>
<path d="M27.0338 26.6416C26.9759 25.9376 26.3892 25.8203 25.4506 25.8203C24.5119 25.8203 24.102 26.5243 23.75 26.6995C24.1599 26.6995 24.5119 26.1129 25.4506 26.1129C26.3892 26.1129 26.3892 26.1129 27.0338 26.6995M26.8586 26.8169C26.6239 26.4649 26.3313 27.1689 25.6852 27.1689C25.0391 27.1689 24.6887 26.9936 24.2772 26.6995C23.8658 26.4055 24.8639 27.4036 25.5085 27.4036C26.153 27.4036 27.0338 27.0515 26.857 26.8169" fill="#7B3F00"/>
<path d="M28.155 32.625C27.8609 32.625 27.099 32.8002 28.155 32.8002C29.211 32.8002 28.4491 32.625 28.155 32.625Z" fill="#7B3F00"/>
</g>
<rect x="1.5" y="1.5" width="144" height="96" stroke="#151519" stroke-width="3" stroke-linecap="round"/>
<defs>
<clipPath id="clip0_210_107045">
<rect x="1.5" y="1.5" width="144" height="96" fill="white"/>
</clipPath>
</defs>
</svg>
