<svg width="147" height="99" viewBox="0 0 147 99" fill="none" xmlns="http://www.w3.org/2000/svg">
<g clip-path="url(#clip0_210_107043)">
<path d="M1.5 1.5H145.5V97.5H1.5" fill="#B31942"/>
<path d="M1.5 12.5781H145.5H1.5ZM145.5 27.3474H1.5H145.5ZM1.5 42.1166H145.5H1.5ZM145.5 56.8858H1.5H145.5ZM1.5 71.655H145.5H1.5ZM145.5 86.4243H1.5H145.5Z" fill="black"/>
<path fill-rule="evenodd" clip-rule="evenodd" d="M145.5 16.2674H1.5V8.88281H145.5V16.2674ZM1.5 23.652H145.5V31.0367H1.5V23.652ZM145.5 45.8059H1.5V38.4213H145.5V45.8059ZM1.5 53.1905H145.5V60.5751H1.5V53.1905ZM145.5 75.3444H1.5V67.9597H145.5V75.3444ZM1.5 82.729H145.5V90.1136H1.5V82.729Z" fill="white"/>
<path d="M1.5 1.5H74.8483V53.1923H1.5" fill="#0A3161"/>
<path d="M7.61329 3.71484L9.35876 9.0584L4.78906 5.7559H10.4375L5.86782 9.0584L7.61329 3.71484Z" fill="white"/>
<path d="M7.61329 14.0547L9.35876 19.3982L4.78906 16.0957H10.4375L5.86782 19.3982L7.61329 14.0547Z" fill="white"/>
<path d="M7.61329 24.3906L9.35876 29.7342L4.78906 26.4317H10.4375L5.86782 29.7342L7.61329 24.3906Z" fill="white"/>
<path d="M7.61329 34.7305L9.35876 40.074L4.78906 36.7715H10.4375L5.86782 40.074L7.61329 34.7305Z" fill="white"/>
<path d="M7.61329 45.0703L9.35876 50.4139L4.78906 47.1114H10.4375L5.86782 50.4139L7.61329 45.0703Z" fill="white"/>
<path d="M13.7266 8.88281L15.472 14.2264L10.9023 10.9239H16.5508L11.9811 14.2264L13.7266 8.88281Z" fill="white"/>
<path d="M13.7266 19.2227L15.472 24.5662L10.9023 21.2637H16.5508L11.9811 24.5662L13.7266 19.2227Z" fill="white"/>
<path d="M13.7266 29.5586L15.472 34.9022L10.9023 31.5997H16.5508L11.9811 34.9022L13.7266 29.5586Z" fill="white"/>
<path d="M13.7266 39.8984L15.472 45.242L10.9023 41.9395H16.5508L11.9811 45.242L13.7266 39.8984Z" fill="white"/>
<path d="M19.8399 3.71484L21.5853 9.0584L17.0156 5.7559H22.6641L18.0944 9.0584L19.8399 3.71484Z" fill="white"/>
<path d="M19.8399 14.0547L21.5853 19.3982L17.0156 16.0957H22.6641L18.0944 19.3982L19.8399 14.0547Z" fill="white"/>
<path d="M19.8399 24.3906L21.5853 29.7342L17.0156 26.4317H22.6641L18.0944 29.7342L19.8399 24.3906Z" fill="white"/>
<path d="M19.8399 34.7305L21.5853 40.074L17.0156 36.7715H22.6641L18.0944 40.074L19.8399 34.7305Z" fill="white"/>
<path d="M19.8399 45.0703L21.5853 50.4139L17.0156 47.1114H22.6641L18.0944 50.4139L19.8399 45.0703Z" fill="white"/>
<path d="M25.9531 8.88281L27.6986 14.2264L23.1289 10.9239H28.7774L24.2077 14.2264L25.9531 8.88281Z" fill="white"/>
<path d="M25.9531 19.2227L27.6986 24.5662L23.1289 21.2637H28.7774L24.2077 24.5662L25.9531 19.2227Z" fill="white"/>
<path d="M25.9531 29.5586L27.6986 34.9022L23.1289 31.5997H28.7774L24.2077 34.9022L25.9531 29.5586Z" fill="white"/>
<path d="M25.9531 39.8984L27.6986 45.242L23.1289 41.9395H28.7774L24.2077 45.242L25.9531 39.8984Z" fill="white"/>
<path d="M32.0625 3.71484L33.808 9.0584L29.2383 5.7559H34.8867L30.317 9.0584L32.0625 3.71484Z" fill="white"/>
<path d="M32.0625 14.0547L33.808 19.3982L29.2383 16.0957H34.8867L30.317 19.3982L32.0625 14.0547Z" fill="white"/>
<path d="M32.0625 24.3906L33.808 29.7342L29.2383 26.4317H34.8867L30.317 29.7342L32.0625 24.3906Z" fill="white"/>
<path d="M32.0625 34.7305L33.808 40.074L29.2383 36.7715H34.8867L30.317 40.074L32.0625 34.7305Z" fill="white"/>
<path d="M32.0625 45.0703L33.808 50.4139L29.2383 47.1114H34.8867L30.317 50.4139L32.0625 45.0703Z" fill="white"/>
<path d="M38.1758 8.88281L39.9213 14.2264L35.3516 10.9239H41L36.4303 14.2264L38.1758 8.88281Z" fill="white"/>
<path d="M38.1758 19.2227L39.9213 24.5662L35.3516 21.2637H41L36.4303 24.5662L38.1758 19.2227Z" fill="white"/>
<path d="M38.1758 29.5586L39.9213 34.9022L35.3516 31.5997H41L36.4303 34.9022L38.1758 29.5586Z" fill="white"/>
<path d="M38.1758 39.8984L39.9213 45.242L35.3516 41.9395H41L36.4303 45.242L38.1758 39.8984Z" fill="white"/>
<path d="M44.2891 3.71484L46.0345 9.0584L41.4648 5.7559H47.1133L42.5436 9.0584L44.2891 3.71484Z" fill="white"/>
<path d="M44.2891 14.0547L46.0345 19.3982L41.4648 16.0957H47.1133L42.5436 19.3982L44.2891 14.0547Z" fill="white"/>
<path d="M44.2891 24.3906L46.0345 29.7342L41.4648 26.4317H47.1133L42.5436 29.7342L44.2891 24.3906Z" fill="white"/>
<path d="M44.2891 34.7305L46.0345 40.074L41.4648 36.7715H47.1133L42.5436 40.074L44.2891 34.7305Z" fill="white"/>
<path d="M44.2891 45.0703L46.0345 50.4139L41.4648 47.1114H47.1133L42.5436 50.4139L44.2891 45.0703Z" fill="white"/>
<path d="M50.4024 8.88281L52.1478 14.2264L47.5781 10.9239H53.2266L48.6569 14.2264L50.4024 8.88281Z" fill="white"/>
<path d="M50.4024 19.2227L52.1478 24.5662L47.5781 21.2637H53.2266L48.6569 24.5662L50.4024 19.2227Z" fill="white"/>
<path d="M50.4024 29.5586L52.1478 34.9022L47.5781 31.5997H53.2266L48.6569 34.9022L50.4024 29.5586Z" fill="white"/>
<path d="M50.4024 39.8984L52.1478 45.242L47.5781 41.9395H53.2266L48.6569 45.242L50.4024 39.8984Z" fill="white"/>
<path d="M56.5117 3.71484L58.2572 9.0584L53.6875 5.7559H59.336L54.7663 9.0584L56.5117 3.71484Z" fill="white"/>
<path d="M56.5117 14.0547L58.2572 19.3982L53.6875 16.0957H59.336L54.7663 19.3982L56.5117 14.0547Z" fill="white"/>
<path d="M56.5117 24.3906L58.2572 29.7342L53.6875 26.4317H59.336L54.7663 29.7342L56.5117 24.3906Z" fill="white"/>
<path d="M56.5117 34.7305L58.2572 40.074L53.6875 36.7715H59.336L54.7663 40.074L56.5117 34.7305Z" fill="white"/>
<path d="M56.5117 45.0703L58.2572 50.4139L53.6875 47.1114H59.336L54.7663 50.4139L56.5117 45.0703Z" fill="white"/>
<path d="M62.625 8.88281L64.3705 14.2264L59.8008 10.9239H65.4492L60.8795 14.2264L62.625 8.88281Z" fill="white"/>
<path d="M62.625 19.2227L64.3705 24.5662L59.8008 21.2637H65.4492L60.8795 24.5662L62.625 19.2227Z" fill="white"/>
<path d="M62.625 29.5586L64.3705 34.9022L59.8008 31.5997H65.4492L60.8795 34.9022L62.625 29.5586Z" fill="white"/>
<path d="M62.625 39.8984L64.3705 45.242L59.8008 41.9395H65.4492L60.8795 45.242L62.625 39.8984Z" fill="white"/>
<path d="M68.7383 3.71484L70.4838 9.0584L65.9141 5.7559H71.5625L66.9928 9.0584L68.7383 3.71484Z" fill="white"/>
<path d="M68.7383 14.0547L70.4838 19.3982L65.9141 16.0957H71.5625L66.9928 19.3982L68.7383 14.0547Z" fill="white"/>
<path d="M68.7383 24.3906L70.4838 29.7342L65.9141 26.4317H71.5625L66.9928 29.7342L68.7383 24.3906Z" fill="white"/>
<path d="M68.7383 34.7305L70.4838 40.074L65.9141 36.7715H71.5625L66.9928 40.074L68.7383 34.7305Z" fill="white"/>
<path d="M68.7383 45.0703L70.4838 50.4139L65.9141 47.1114H71.5625L66.9928 50.4139L68.7383 45.0703Z" fill="white"/>
</g>
<rect x="1.5" y="1.5" width="144" height="96" stroke="#151519" stroke-width="3" stroke-linecap="round"/>
<defs>
<clipPath id="clip0_210_107043">
<rect x="1.5" y="1.5" width="144" height="96" fill="white"/>
</clipPath>
</defs>
</svg>
