<svg width="147" height="99" viewBox="0 0 147 99" fill="none" xmlns="http://www.w3.org/2000/svg">
<g clip-path="url(#clip0_210_107046)">
<path d="M1.5 1.5L193.5 1.5L193.5 97.5L1.5 97.5L1.5 1.5Z" fill="#1EB53A"/>
<path d="M1.5 1.5L193.5 1.5V49.5L1.5 49.5L1.5 1.5Z" fill="#0099B5"/>
<path d="M1.5 32.2188L193.5 32.2188V66.7788L1.5 66.7788L1.5 32.2188Z" fill="#CE1126"/>
<path d="M1.5 34.1406L193.5 34.1406V64.8606L1.5 64.8606L1.5 34.1406Z" fill="white"/>
<path d="M28.3794 28.3798C34.7417 28.3798 39.8994 23.2222 39.8994 16.8598C39.8994 10.4975 34.7417 5.33984 28.3794 5.33984C22.0171 5.33984 16.8594 10.4975 16.8594 16.8598C16.8594 23.2222 22.0171 28.3798 28.3794 28.3798Z" fill="white"/>
<path d="M32.2192 28.3798C38.5815 28.3798 43.7392 23.2222 43.7392 16.8598C43.7392 10.4975 38.5815 5.33984 32.2192 5.33984C25.8569 5.33984 20.6992 10.4975 20.6992 16.8598C20.6992 23.2222 25.8569 28.3798 32.2192 28.3798Z" fill="#0099B5"/>
<path d="M53.7201 23.7734L53.0078 25.9642L54.1041 26.3194" fill="white"/>
<path d="M53.7199 23.7734L54.4323 25.9642L53.3359 26.3194" fill="white"/>
<path d="M55.9095 25.3672H53.6055V26.5192" fill="white"/>
<path d="M55.9093 25.3672L54.0449 26.7208L53.3672 25.7896" fill="white"/>
<path d="M51.5312 25.3672L53.3956 26.7208L54.0733 25.7896" fill="white"/>
<path d="M51.5312 25.3672H53.8353V26.5192" fill="white"/>
<path d="M55.0743 27.9407L54.3619 25.75L53.2656 26.1052" fill="white"/>
<path d="M55.0753 27.9411L53.2109 26.5875L53.8887 25.6562" fill="white"/>
<path d="M52.3672 27.9411L54.2315 26.5875L53.5537 25.6562" fill="white"/>
<path d="M52.3672 27.9407L53.0795 25.75L54.1758 26.1052" fill="white"/>
<path d="M53.7201 14.5547L53.0078 16.7454L54.1041 17.1006" fill="white"/>
<path d="M53.7199 14.5547L54.4323 16.7454L53.3359 17.1006" fill="white"/>
<path d="M55.9095 16.1484H53.6055V17.3004" fill="white"/>
<path d="M55.9093 16.1484L54.0449 17.502L53.3672 16.5708" fill="white"/>
<path d="M51.5312 16.1484L53.3956 17.502L54.0733 16.5708" fill="white"/>
<path d="M51.5312 16.1484H53.8353V17.3004" fill="white"/>
<path d="M55.0743 18.722L54.3619 16.5312L53.2656 16.8864" fill="white"/>
<path d="M55.0753 18.7223L53.2109 17.3687L53.8887 16.4375" fill="white"/>
<path d="M52.3672 18.7223L54.2315 17.3687L53.5537 16.4375" fill="white"/>
<path d="M52.3672 18.722L53.0795 16.5312L54.1758 16.8864" fill="white"/>
<path d="M53.7201 5.33984L53.0078 7.53056L54.1041 7.88576" fill="white"/>
<path d="M53.7199 5.33984L54.4323 7.53056L53.3359 7.88576" fill="white"/>
<path d="M55.9095 6.92969H53.6055V8.08169" fill="white"/>
<path d="M55.9093 6.92969L54.0449 8.28329L53.3672 7.35209" fill="white"/>
<path d="M51.5312 6.92969L53.3956 8.28329L54.0733 7.35209" fill="white"/>
<path d="M51.5312 6.92969H53.8353V8.08169" fill="white"/>
<path d="M55.0743 9.50713L54.3619 7.31641L53.2656 7.67161" fill="white"/>
<path d="M55.0753 9.50746L53.2109 8.15386L53.8887 7.22266" fill="white"/>
<path d="M52.3672 9.50746L54.2315 8.15386L53.5537 7.22266" fill="white"/>
<path d="M52.3672 9.50713L53.0795 7.31641L54.1758 7.67161" fill="white"/>
<path d="M62.9389 23.7734L62.2266 25.9642L63.3229 26.3194" fill="white"/>
<path d="M62.9387 23.7734L63.651 25.9642L62.5547 26.3194" fill="white"/>
<path d="M65.1282 25.3672H62.8242V26.5192" fill="white"/>
<path d="M65.128 25.3672L63.2637 26.7208L62.5859 25.7896" fill="white"/>
<path d="M60.75 25.3672L62.6143 26.7208L63.2921 25.7896" fill="white"/>
<path d="M60.75 25.3672H63.054V26.5192" fill="white"/>
<path d="M64.293 27.9407L63.5807 25.75L62.4844 26.1052" fill="white"/>
<path d="M64.294 27.9411L62.4297 26.5875L63.1074 25.6562" fill="white"/>
<path d="M61.5859 27.9411L63.4503 26.5875L62.7725 25.6562" fill="white"/>
<path d="M61.5859 27.9407L62.2983 25.75L63.3946 26.1052" fill="white"/>
<path d="M62.9389 14.5547L62.2266 16.7454L63.3229 17.1006" fill="white"/>
<path d="M62.9387 14.5547L63.651 16.7454L62.5547 17.1006" fill="white"/>
<path d="M65.1282 16.1484H62.8242V17.3004" fill="white"/>
<path d="M65.128 16.1484L63.2637 17.502L62.5859 16.5708" fill="white"/>
<path d="M60.75 16.1484L62.6143 17.502L63.2921 16.5708" fill="white"/>
<path d="M60.75 16.1484H63.054V17.3004" fill="white"/>
<path d="M64.293 18.722L63.5807 16.5312L62.4844 16.8864" fill="white"/>
<path d="M64.294 18.7223L62.4297 17.3687L63.1074 16.4375" fill="white"/>
<path d="M61.5859 18.7223L63.4503 17.3687L62.7725 16.4375" fill="white"/>
<path d="M61.5859 18.722L62.2983 16.5312L63.3946 16.8864" fill="white"/>
<path d="M62.9389 5.33984L62.2266 7.53056L63.3229 7.88576" fill="white"/>
<path d="M62.9387 5.33984L63.651 7.53056L62.5547 7.88576" fill="white"/>
<path d="M65.1282 6.92969H62.8242V8.08169" fill="white"/>
<path d="M65.128 6.92969L63.2637 8.28329L62.5859 7.35209" fill="white"/>
<path d="M60.75 6.92969L62.6143 8.28329L63.2921 7.35209" fill="white"/>
<path d="M60.75 6.92969H63.054V8.08169" fill="white"/>
<path d="M64.293 9.50713L63.5807 7.31641L62.4844 7.67161" fill="white"/>
<path d="M64.294 9.50746L62.4297 8.15386L63.1074 7.22266" fill="white"/>
<path d="M61.5859 9.50746L63.4503 8.15386L62.7725 7.22266" fill="white"/>
<path d="M61.5859 9.50713L62.2983 7.31641L63.3946 7.67161" fill="white"/>
<path d="M72.1576 23.7734L71.4453 25.9642L72.5416 26.3194" fill="white"/>
<path d="M72.1574 23.7734L72.8698 25.9642L71.7734 26.3194" fill="white"/>
<path d="M74.347 25.3672H72.043V26.5192" fill="white"/>
<path d="M74.3468 25.3672L72.4824 26.7208L71.8047 25.7896" fill="white"/>
<path d="M69.9648 25.3672L71.8292 26.7208L72.5069 25.7896" fill="white"/>
<path d="M69.9648 25.3672H72.2688V26.5192" fill="white"/>
<path d="M73.5079 27.9407L72.7955 25.75L71.6992 26.1052" fill="white"/>
<path d="M73.5088 27.9411L71.6445 26.5875L72.3223 25.6562" fill="white"/>
<path d="M70.8008 27.9411L72.6651 26.5875L71.9873 25.6562" fill="white"/>
<path d="M70.8008 27.9407L71.5131 25.75L72.6094 26.1052" fill="white"/>
<path d="M72.1576 14.5547L71.4453 16.7454L72.5416 17.1006" fill="white"/>
<path d="M72.1574 14.5547L72.8698 16.7454L71.7734 17.1006" fill="white"/>
<path d="M74.347 16.1484H72.043V17.3004" fill="white"/>
<path d="M74.3468 16.1484L72.4824 17.502L71.8047 16.5708" fill="white"/>
<path d="M69.9648 16.1484L71.8292 17.502L72.5069 16.5708" fill="white"/>
<path d="M69.9648 16.1484H72.2688V17.3004" fill="white"/>
<path d="M73.5079 18.722L72.7955 16.5312L71.6992 16.8864" fill="white"/>
<path d="M73.5088 18.7223L71.6445 17.3687L72.3223 16.4375" fill="white"/>
<path d="M70.8008 18.7223L72.6651 17.3687L71.9873 16.4375" fill="white"/>
<path d="M70.8008 18.722L71.5131 16.5312L72.6094 16.8864" fill="white"/>
<path d="M72.1576 5.33984L71.4453 7.53056L72.5416 7.88576" fill="white"/>
<path d="M72.1574 5.33984L72.8698 7.53056L71.7734 7.88576" fill="white"/>
<path d="M74.347 6.92969H72.043V8.08169" fill="white"/>
<path d="M74.3468 6.92969L72.4824 8.28329L71.8047 7.35209" fill="white"/>
<path d="M69.9648 6.92969L71.8292 8.28329L72.5069 7.35209" fill="white"/>
<path d="M69.9648 6.92969H72.2688V8.08169" fill="white"/>
<path d="M73.5079 9.50713L72.7955 7.31641L71.6992 7.67161" fill="white"/>
<path d="M73.5088 9.50746L71.6445 8.15386L72.3223 7.22266" fill="white"/>
<path d="M70.8008 9.50746L72.6651 8.15386L71.9873 7.22266" fill="white"/>
<path d="M70.8008 9.50713L71.5131 7.31641L72.6094 7.67161" fill="white"/>
<path d="M35.2904 23.7734L34.5781 25.9642L35.6744 26.3194" fill="white"/>
<path d="M35.2903 23.7734L36.0026 25.9642L34.9062 26.3194" fill="white"/>
<path d="M37.4798 25.3672H35.1758V26.5192" fill="white"/>
<path d="M37.4796 25.3672L35.6153 26.7208L34.9375 25.7896" fill="white"/>
<path d="M33.1016 25.3672L34.9659 26.7208L35.6436 25.7896" fill="white"/>
<path d="M33.1016 25.3672H35.4056V26.5192" fill="white"/>
<path d="M36.6446 27.9407L35.9323 25.75L34.8359 26.1052" fill="white"/>
<path d="M36.6456 27.9411L34.7812 26.5875L35.459 25.6562" fill="white"/>
<path d="M33.9375 27.9411L35.8018 26.5875L35.1241 25.6562" fill="white"/>
<path d="M33.9375 27.9407L34.6498 25.75L35.7461 26.1052" fill="white"/>
<path d="M44.5092 23.7734L43.7969 25.9642L44.8932 26.3194" fill="white"/>
<path d="M44.509 23.7734L45.2213 25.9642L44.125 26.3194" fill="white"/>
<path d="M46.7024 25.3672H44.3984V26.5192" fill="white"/>
<path d="M46.7022 25.3672L44.8379 26.7208L44.1602 25.7896" fill="white"/>
<path d="M42.3164 25.3672L44.1807 26.7208L44.8585 25.7896" fill="white"/>
<path d="M42.3164 25.3672H44.6204V26.5192" fill="white"/>
<path d="M45.8633 27.9407L45.151 25.75L44.0547 26.1052" fill="white"/>
<path d="M45.8643 27.9411L44 26.5875L44.6778 25.6562" fill="white"/>
<path d="M43.1562 27.9411L45.0206 26.5875L44.3428 25.6562" fill="white"/>
<path d="M43.1562 27.9407L43.8686 25.75L44.9649 26.1052" fill="white"/>
<path d="M44.5092 14.5547L43.7969 16.7454L44.8932 17.1006" fill="white"/>
<path d="M44.509 14.5547L45.2213 16.7454L44.125 17.1006" fill="white"/>
<path d="M46.7024 16.1484H44.3984V17.3004" fill="white"/>
<path d="M46.7022 16.1484L44.8379 17.502L44.1602 16.5708" fill="white"/>
<path d="M42.3164 16.1484L44.1807 17.502L44.8585 16.5708" fill="white"/>
<path d="M42.3164 16.1484H44.6204V17.3004" fill="white"/>
<path d="M45.8633 18.722L45.151 16.5312L44.0547 16.8864" fill="white"/>
<path d="M45.8643 18.7223L44 17.3687L44.6778 16.4375" fill="white"/>
<path d="M43.1562 18.7223L45.0206 17.3687L44.3428 16.4375" fill="white"/>
<path d="M43.1562 18.722L43.8686 16.5312L44.9649 16.8864" fill="white"/>
</g>
<rect x="1.5" y="1.5" width="144" height="96" stroke="#151519" stroke-width="3" stroke-linecap="round"/>
<defs>
<clipPath id="clip0_210_107046">
<rect x="1.5" y="1.5" width="144" height="96" fill="white"/>
</clipPath>
</defs>
</svg>
